<?xml version="1.0" encoding="utf-8"?>
<!-- Generator: Adobe Illustrator 24.0.1, SVG Export Plug-In . SVG Version: 6.00 Build 0)  -->
<svg version="1.1" id="Layer_1" xmlns="http://www.w3.org/2000/svg" xmlns:xlink="http://www.w3.org/1999/xlink" x="0px" y="0px"
	 viewBox="0 0 512 512" style="enable-background:new 0 0 512 512;" xml:space="preserve">
<style type="text/css">
	.st0{fill:#FFFFFF;stroke:#262626;stroke-miterlimit:10;}
	.st1{display:none;fill:#1AA6F7;}
	.st2{fill:#0086FF;}
	.st3{opacity:0.3;fill:#7C7C7C;enable-background:new    ;}
	.st4{fill:#D8D8D8;}
	.st5{fill:none;}
	.st6{fill:none;stroke:#0086FF;stroke-miterlimit:10;}
	.st7{enable-background:new    ;}
</style>
<path class="st0" d="M473.1,399.4c-72.8,120-374.9,111.4-443.4-31.8C-15,274.1,51.5,147.8,110.9,85.5C120,76,131.2,64.4,145,53.8
	l0,0c4.5-3.5,9.4-6.9,14.5-10c3.7-2.3,7.5-4.5,11.6-6.5c12.7-6.4,26.9-11.3,43-13.3c4.1-0.5,8.2-0.8,12.2-1
	c55.8-1.8,99.9,32.5,122.8,50.4c3.1,2.4,6.1,4.9,9.2,7.4c23.6,19.9,46.5,45.1,66.4,73l0,0C480.8,232.6,513.3,333.2,473.1,399.4z"/>
<path class="st1" d="M480.8,399.4C408,519.4,106,510.8,37.4,367.6C31,354,26.8,339.8,24.7,325.1c-2.9-19.3-2.3-39.3,0.9-59.3
	c4.1-25.4,12.3-50.8,23.1-74.8c18.7-41.7,45-79.3,70-105.5c21.1-22.1,53.5-55.2,103.2-61.5c45.8-5.8,84.6,13.8,111.6,32.1
	c9.3,6.3,17.1,12.4,23.4,17.3c0.4,0.3,0.8,0.6,1.2,0.9c36.7,28.9,72,70.8,98.1,116.7c10,17.6,18.6,35.8,25.5,54
	c2.8,7.5,5.3,15,7.5,22.5c2.1,7.3,3.9,14.5,5.3,21.8c1.8,9.2,3.1,18.2,3.8,27.1C500.4,346.8,495.4,375.4,480.8,399.4z"/>
<path class="st2" d="M236.1,23.1"/>
<path class="st3" d="M416.5,153.8L416.5,153.8c-179.7-10.9-224.4-22.9-224.7-32.8c-0.3-9.1,36.9-14.2,44-42c3.1-12-0.3-25.1-7-33
	c-6.2-7.3-16.5-11.7-29.1-12.4l0,0c-8.6-0.5-18.3,0.6-28.5,3.6C183.8,30.9,198,26,214.1,24c4.1-0.5,8.2-0.8,12.2-1
	c51.9,1.6,92.9,33.4,114.6,50.4c3.1,2.4,6.1,4.9,9.2,7.4c23.5,19.8,46.2,44.8,66,72.4C416.2,153.5,416.3,153.6,416.5,153.8z"/>
<path class="st4" d="M424.7,153.8L424.7,153.8c-2.9-0.2-5.7-0.3-8.6-0.5C243.5,142.5,200.3,130.8,200,121c-0.3-9.1,36.9-14.2,44-42
	c3.1-12-0.3-25.1-7-33c-7.5-8.8-21-13.3-37.3-12.4l0,0c-16.4,0.9-35.6,7.3-54.5,20.1c4.5-3.5,9.4-6.9,14.5-10
	c3.7-2.3,7.5-4.5,11.6-6.5C183.8,30.9,198,26,214.1,24c4.1-0.5,8.2-0.8,12.2-1c55.8-1.8,99.9,32.5,122.8,50.4
	c3.1,2.4,6.1,4.9,9.2,7.4C381.9,100.8,404.8,125.9,424.7,153.8z"/>
<rect x="182.4" y="347.1" class="st5" width="293.4" height="90"/>
<rect x="179.2" y="352.8" class="st5" width="313.1" height="96"/>
<rect x="16.3" y="150.1" class="st5" width="423" height="129.7"/>
<rect x="131.3" y="361.3" class="st5" width="389.7" height="119.5"/>
<line class="st6" x1="112.3" y1="175.6" x2="393.8" y2="175.6"/>
<line class="st6" x1="112.3" y1="220.3" x2="393.8" y2="220.3"/>
<line class="st6" x1="112.3" y1="261.9" x2="393.8" y2="261.9"/>
<line class="st6" x1="112.3" y1="304.6" x2="393.8" y2="304.6"/>
<g class="st7">
	<path class="st2" d="M144.6,351c6.6-1,14.5-1.8,23.1-1.8c15.6,0,26.8,3.6,34.1,10.5c7.5,6.9,11.9,16.6,11.9,30.3
		c0,13.8-4.3,25-12.1,32.8c-7.9,7.9-20.9,12.1-37.3,12.1c-7.8,0-14.3-0.4-19.8-1V351H144.6z M155.4,425.5c2.8,0.5,6.8,0.6,11,0.6
		c23.3,0,35.9-13,35.9-35.8c0.1-19.9-11.1-32.5-34.1-32.5c-5.6,0-9.9,0.5-12.8,1.1L155.4,425.5L155.4,425.5z"/>
	<path class="st2" d="M299.8,391.1c0,29-17.6,44.4-39.1,44.4c-22.3,0-37.9-17.3-37.9-42.8c0-26.8,16.6-44.3,39.1-44.3
		C285,348.5,299.8,366.1,299.8,391.1z M234.4,392.5c0,18,9.8,34.1,26.9,34.1c17.3,0,27-15.9,27-35c0-16.8-8.8-34.3-26.9-34.3
		C243.4,357.4,234.4,374,234.4,392.5z"/>
	<path class="st2" d="M326.8,359.1h-25.6v-9.3h62.4v9.3h-25.8v75h-11V359.1z"/>
</g>
</svg>
