<?xml version="1.0" encoding="utf-8"?>
<!-- Generator: Adobe Illustrator 24.0.1, SVG Export Plug-In . SVG Version: 6.00 Build 0)  -->
<svg version="1.1" id="Layer_1" xmlns="http://www.w3.org/2000/svg" xmlns:xlink="http://www.w3.org/1999/xlink" x="0px" y="0px"
	 viewBox="0 0 512 512" style="enable-background:new 0 0 512 512;" xml:space="preserve">
<style type="text/css">
	.st0{fill:#FFFFFF;stroke:#262626;stroke-miterlimit:10;}
	.st1{display:none;fill:#1AA6F7;}
	.st2{fill:#0086FF;}
	.st3{opacity:0.3;fill:#7C7C7C;enable-background:new    ;}
	.st4{fill:#D8D8D8;}
	.st5{fill:none;}
	.st6{display:none;opacity:0.4;fill:#CAEDC5;stroke:#0092FF;stroke-miterlimit:10;enable-background:new    ;}
	.st7{fill:none;stroke:#0092FF;stroke-width:0.7962;stroke-linecap:round;}
	.st8{opacity:0.67;enable-background:new    ;}
</style>
<path class="st0" d="M473.1,399.4c-72.8,120-374.9,111.4-443.4-31.8C-15,274.1,51.5,147.8,110.9,85.5C120,76,131.2,64.4,145,53.8
	l0,0c4.5-3.5,9.4-6.9,14.5-10c3.7-2.3,7.5-4.5,11.6-6.5c12.7-6.4,26.9-11.3,43-13.3c4.1-0.5,8.2-0.8,12.2-1
	c55.8-1.8,99.9,32.5,122.8,50.4c3.1,2.4,6.1,4.9,9.2,7.4c23.6,19.9,46.5,45.1,66.4,73l0,0C480.8,232.6,513.3,333.2,473.1,399.4z"/>
<path class="st1" d="M480.8,399.4C408,519.4,106,510.8,37.4,367.6C31,354,26.8,339.8,24.7,325.1c-2.9-19.3-2.3-39.3,0.9-59.3
	c4.1-25.4,12.3-50.8,23.1-74.8c18.7-41.7,45-79.3,70-105.5c21.1-22.1,53.5-55.2,103.2-61.5c45.8-5.8,84.6,13.8,111.6,32.1
	c9.3,6.3,17.1,12.4,23.4,17.3c0.4,0.3,0.8,0.6,1.2,0.9c36.7,28.9,72,70.8,98.1,116.7c10,17.6,18.6,35.8,25.5,54
	c2.8,7.5,5.3,15,7.5,22.5c2.1,7.3,3.9,14.5,5.3,21.8c1.8,9.2,3.1,18.2,3.8,27.1C500.4,346.8,495.4,375.4,480.8,399.4z"/>
<path class="st2" d="M236.1,23.1"/>
<path class="st3" d="M416.5,153.8L416.5,153.8c-179.7-10.9-224.4-22.9-224.7-32.8c-0.3-9.1,36.9-14.2,44-42c3.1-12-0.3-25.1-7-33
	c-6.2-7.3-16.5-11.7-29.1-12.4l0,0c-8.6-0.5-18.3,0.6-28.5,3.6C183.8,30.9,198,26,214.1,24c4.1-0.5,8.2-0.8,12.2-1
	c51.9,1.6,92.9,33.4,114.6,50.4c3.1,2.4,6.1,4.9,9.2,7.4c23.5,19.8,46.2,44.8,66,72.4C416.2,153.5,416.3,153.6,416.5,153.8z"/>
<path class="st4" d="M424.7,153.8L424.7,153.8c-2.9-0.2-5.7-0.3-8.6-0.5C243.5,142.5,200.3,130.8,200,121c-0.3-9.1,36.9-14.2,44-42
	c3.1-12-0.3-25.1-7-33c-7.5-8.8-21-13.3-37.3-12.4l0,0c-16.4,0.9-35.6,7.3-54.5,20.1c4.5-3.5,9.4-6.9,14.5-10
	c3.7-2.3,7.5-4.5,11.6-6.5C183.8,30.9,198,26,214.1,24c4.1-0.5,8.2-0.8,12.2-1c55.8-1.8,99.9,32.5,122.8,50.4
	c3.1,2.4,6.1,4.9,9.2,7.4C381.9,100.8,404.8,125.9,424.7,153.8z"/>
<rect x="182.4" y="347.1" class="st5" width="293.4" height="90"/>
<rect x="179.2" y="352.8" class="st5" width="313.1" height="96"/>
<rect x="16.3" y="150.1" class="st5" width="423" height="129.7"/>
<rect x="131.3" y="361.3" class="st5" width="389.7" height="119.5"/>
<g>
	<path id="path3897" class="st6" d="M164.3,190.6h26.4v183.3h-26.4V190.6z M190.6,190.6l157,0.1v26l-157-0.3V190.6z"/>
	<g id="g4075">
		<g id="g4071">
			<path id="path4051" class="st7" d="M292.3,352.5V174.4"/>
			<path id="path4038" class="st7" d="M240,352.5V174.4"/>
		</g>
		<g id="g4064">
			<path id="path4023" class="st7" d="M342.4,325.6H169.6"/>
			<path id="path3611" class="st7" d="M342.4,220.9H169.6"/>
			<path id="path4017" class="st7" d="M342.4,247.1H169.6"/>
			<path id="path4019" class="st7" d="M342.4,273.3H169.6"/>
			<path id="path4021" class="st7" d="M342.4,299.4H169.6"/>
		</g>
	</g>
	<path id="rect3580" class="st7" d="M166.9,174.4H345v178.1H166.9V174.4z M345,194.9H166.9 M188.2,174.5v178.1"/>
</g>
<g class="st8">
	<path class="st2" d="M232.2,413.2c0,23.2-14.1,35.6-31.3,35.6c-17.9,0-30.4-13.9-30.4-34.3c0-21.5,13.3-35.5,31.3-35.5
		C220.3,379.1,232.2,393.2,232.2,413.2z M179.8,414.3c0,14.4,7.9,27.3,21.6,27.3c13.9,0,21.6-12.7,21.6-28
		c0-13.5-7.1-27.5-21.6-27.5C187,386.2,179.8,399.5,179.8,414.3z"/>
	<path class="st2" d="M243.5,381.1c5.3-0.8,11.6-1.4,18.5-1.4c12.5,0,21.5,2.9,27.3,8.4c6,5.5,9.5,13.3,9.5,24.3
		c0,11.1-3.4,20-9.7,26.3c-6.3,6.3-16.7,9.7-29.9,9.7c-6.2,0-11.4-0.3-15.8-0.8L243.5,381.1L243.5,381.1z M252.3,440.8
		c2.2,0.4,5.4,0.5,8.8,0.5c18.7,0,28.8-10.4,28.8-28.7c0.1-15.9-8.9-26-27.3-26c-4.5,0-7.9,0.4-10.2,0.9L252.3,440.8L252.3,440.8z"
		/>
	<path class="st2" d="M309.1,437.1c3.9,2.4,9.6,4.4,15.6,4.4c8.9,0,14.1-4.7,14.1-11.5c0-6.3-3.6-9.9-12.7-13.5
		c-11.1-3.9-17.9-9.6-17.9-19.2c0-10.5,8.7-18.4,21.9-18.4c6.9,0,11.9,1.6,14.9,3.3l-2.4,7.1c-2.2-1.2-6.7-3.2-12.8-3.2
		c-9.2,0-12.7,5.5-12.7,10.1c0,6.3,4.1,9.5,13.5,13.1c11.5,4.4,17.2,9.9,17.2,19.9c0,10.4-7.7,19.5-23.6,19.5
		c-6.5,0-13.6-1.9-17.2-4.3L309.1,437.1z"/>
</g>
</svg>
