<?xml version="1.0" encoding="utf-8"?>
<!-- Generator: Adobe Illustrator 24.0.1, SVG Export Plug-In . SVG Version: 6.00 Build 0)  -->
<svg version="1.1" id="Layer_1" xmlns="http://www.w3.org/2000/svg" xmlns:xlink="http://www.w3.org/1999/xlink" x="0px" y="0px"
	 viewBox="0 0 512 512" style="enable-background:new 0 0 512 512;" xml:space="preserve">
<style type="text/css">
	.st0{fill:#FFFFFF;stroke:#262626;stroke-miterlimit:10;}
	.st1{display:none;fill:#1AA6F7;}
	.st2{fill:#0086FF;}
	.st3{opacity:0.3;fill:#7C7C7C;enable-background:new    ;}
	.st4{fill:#D8D8D8;}
	.st5{fill:none;}
	.st6{opacity:0.67;enable-background:new    ;}
	.st7{fill-rule:evenodd;clip-rule:evenodd;fill:#0086FF;}
</style>
<path class="st0" d="M473.1,399.4c-72.8,120-374.9,111.4-443.4-31.8C-15,274.1,51.5,147.8,110.9,85.5C120,76,131.2,64.4,145,53.8
	l0,0c4.5-3.5,9.4-6.9,14.5-10c3.7-2.3,7.5-4.5,11.6-6.5c12.7-6.4,26.9-11.3,43-13.3c4.1-0.5,8.2-0.8,12.2-1
	c55.8-1.8,99.9,32.5,122.8,50.4c3.1,2.4,6.1,4.9,9.2,7.4c23.6,19.9,46.5,45.1,66.4,73l0,0C480.8,232.6,513.3,333.2,473.1,399.4z"/>
<path class="st1" d="M480.8,399.4C408,519.4,106,510.8,37.4,367.6C31,354,26.8,339.8,24.7,325.1c-2.9-19.3-2.3-39.3,0.9-59.3
	c4.1-25.4,12.3-50.8,23.1-74.8c18.7-41.7,45-79.3,70-105.5c21.1-22.1,53.5-55.2,103.2-61.5c45.8-5.8,84.6,13.8,111.6,32.1
	c9.3,6.3,17.1,12.4,23.4,17.3c0.4,0.3,0.8,0.6,1.2,0.9c36.7,28.9,72,70.8,98.1,116.7c10,17.6,18.6,35.8,25.5,54
	c2.8,7.5,5.3,15,7.5,22.5c2.1,7.3,3.9,14.5,5.3,21.8c1.8,9.2,3.1,18.2,3.8,27.1C500.4,346.8,495.4,375.4,480.8,399.4z"/>
<path class="st2" d="M236.1,23.1"/>
<path class="st3" d="M416.5,153.8L416.5,153.8c-179.7-10.9-224.4-22.9-224.7-32.8c-0.3-9.1,36.9-14.2,44-42c3.1-12-0.3-25.1-7-33
	c-6.2-7.3-16.5-11.7-29.1-12.4l0,0c-8.6-0.5-18.3,0.6-28.5,3.6C183.8,30.9,198,26,214.1,24c4.1-0.5,8.2-0.8,12.2-1
	c51.9,1.6,92.9,33.4,114.6,50.4c3.1,2.4,6.1,4.9,9.2,7.4c23.5,19.8,46.2,44.8,66,72.4C416.2,153.5,416.3,153.6,416.5,153.8z"/>
<path class="st4" d="M424.7,153.8L424.7,153.8c-2.9-0.2-5.7-0.3-8.6-0.5C243.5,142.5,200.3,130.8,200,121c-0.3-9.1,36.9-14.2,44-42
	c3.1-12-0.3-25.1-7-33c-7.5-8.8-21-13.3-37.3-12.4l0,0c-16.4,0.9-35.6,7.3-54.5,20.1c4.5-3.5,9.4-6.9,14.5-10
	c3.7-2.3,7.5-4.5,11.6-6.5C183.8,30.9,198,26,214.1,24c4.1-0.5,8.2-0.8,12.2-1c55.8-1.8,99.9,32.5,122.8,50.4
	c3.1,2.4,6.1,4.9,9.2,7.4C381.9,100.8,404.8,125.9,424.7,153.8z"/>
<rect x="182.4" y="347.1" class="st5" width="293.4" height="90"/>
<rect x="179.2" y="352.8" class="st5" width="313.1" height="96"/>
<rect x="127.6" y="221.4" class="st5" width="423" height="129.7"/>
<rect x="16.3" y="150.1" class="st5" width="423" height="129.7"/>
<g id="g10" transform="matrix(0.15036746,0,0,-0.15036746,8.741117,44.491218)" class="st6">
	<g id="g3095">
		<path id="path26" class="st7" d="M1108.2-1254.4c15.4,81.1-24.2,78.2-35.3,78.2l0,0l-25,0.2l0,0c-13.8,0-26.2-11.1-32.2-33.6
			c-39.1-145.8,31.9-516,230.9-687.3c175.7-151.2,481.7-220.4,494-147.3c-63.6-30.5-302.4,46.3-463,174.2
			c-189.7,155.8-270.9,539.9-230,660c4.1,12,13.9,26,18.3,29.1C1083-1189.5,1103.6-1210.5,1108.2-1254.4L1108.2-1254.4"/>
		<g id="g3083">
			<path id="path18" class="st7" d="M740.6-2143.5c-133.9-100-226-242-189.6-264.2l0,0l-31.8,16l0,0
				C500.8-2369.2,542.6-2248.8,740.6-2143.5L740.6-2143.5"/>
			<g id="g3073">
				<path id="path22" class="st7" d="M1746.3-2031.4c68.6,145.9-495.4,124-907.5-67.3C1159.5-1975.1,1753.1-1921.9,1746.3-2031.4
					L1746.3-2031.4"/>
				<path id="path30" class="st7" d="M1104.9-1277.7c-17.5-86-25-289.2-190.9-623.2c-178.2-358.8-308.2-526-394.8-490.7l0,0l31-15.9
					l0,0c67.8-34.6,192.7,79.3,399.8,478.4C1109.5-1621.8,1100.9-1463.6,1104.9-1277.7L1104.9-1277.7"/>
				<g id="g3066">
					<path id="path20" class="st2" d="M740.6-2143.5c-133.9-100-226-242-189.6-264.2l0,0l-31.8,16l0,0
						C500.8-2369.2,542.6-2248.8,740.6-2143.5L740.6-2143.5z"/>
					<g id="g3061">
						<path id="path24" class="st2" d="M1746.3-2031.4c68.6,145.9-495.4,124-907.5-67.3C1159.5-1975.1,1753.1-1921.9,1746.3-2031.4
							L1746.3-2031.4z"/>
						<path id="path28" class="st2" d="M1108.2-1254.4c15.4,81.1-24.2,78.2-35.3,78.2l0,0l-25,0.2l0,0c-13.8,0-26.2-11.1-32.2-33.6
							c-39.1-145.8,31.9-516,230.9-687.3c175.7-151.2,481.7-220.4,494-147.3c-63.6-30.5-302.4,46.3-463,174.2
							c-189.7,155.8-270.9,539.9-230,660c4.1,12,13.9,26,18.3,29.1C1083-1189.5,1103.6-1210.5,1108.2-1254.4L1108.2-1254.4z"/>
						<path id="path32" class="st2" d="M1104.9-1277.7c-17.5-86-25-289.2-190.9-623.2c-178.2-358.8-308.2-526-394.8-490.7l0,0
							l31-15.9l0,0c67.8-34.6,192.7,79.3,399.8,478.4C1109.5-1621.8,1100.9-1463.6,1104.9-1277.7L1104.9-1277.7z"/>
					</g>
				</g>
			</g>
		</g>
	</g>
</g>
</svg>
