<?xml version="1.0" encoding="utf-8"?>
<!-- Generator: Adobe Illustrator 24.0.1, SVG Export Plug-In . SVG Version: 6.00 Build 0)  -->
<svg version="1.1" id="Layer_1" xmlns="http://www.w3.org/2000/svg" xmlns:xlink="http://www.w3.org/1999/xlink" x="0px" y="0px"
	 viewBox="0 0 512 512" style="enable-background:new 0 0 512 512;" xml:space="preserve">
<style type="text/css">
	.st0{fill:#FFFFFF;stroke:#262626;stroke-miterlimit:10;}
	.st1{display:none;fill:#1AA6F7;}
	.st2{fill:#0086FF;}
	.st3{opacity:0.3;fill:#7C7C7C;enable-background:new    ;}
	.st4{fill:#D8D8D8;}
	.st5{fill:none;}
	.st6{opacity:2.999998e-02;fill:#FFFFFF;stroke:#009EFF;stroke-miterlimit:10;enable-background:new    ;}
	.st7{fill:#FFFFFF;stroke:#009EFF;stroke-miterlimit:10;}
	.st8{opacity:0.8;fill:#FFFFFF;stroke:#009EFF;stroke-miterlimit:10;enable-background:new    ;}
	.st9{enable-background:new    ;}
</style>
<path class="st0" d="M473.1,399.4c-72.8,120-374.9,111.4-443.4-31.8C-15,274.1,51.5,147.8,110.9,85.5C120,76,131.2,64.4,145,53.8
	l0,0c4.5-3.5,9.4-6.9,14.5-10c3.7-2.3,7.5-4.5,11.6-6.5c12.7-6.4,26.9-11.3,43-13.3c4.1-0.5,8.2-0.8,12.2-1
	c55.8-1.8,99.9,32.5,122.8,50.4c3.1,2.4,6.1,4.9,9.2,7.4c23.6,19.9,46.5,45.1,66.4,73l0,0C480.8,232.6,513.3,333.2,473.1,399.4z"/>
<path class="st1" d="M480.8,399.4C408,519.4,106,510.8,37.4,367.6C31,354,26.8,339.8,24.7,325.1c-2.9-19.3-2.3-39.3,0.9-59.3
	c4.1-25.4,12.3-50.8,23.1-74.8c18.7-41.7,45-79.3,70-105.5c21.1-22.1,53.5-55.2,103.2-61.5c45.8-5.8,84.6,13.8,111.6,32.1
	c9.3,6.3,17.1,12.4,23.4,17.3c0.4,0.3,0.8,0.6,1.2,0.9c36.7,28.9,72,70.8,98.1,116.7c10,17.6,18.6,35.8,25.5,54
	c2.8,7.5,5.3,15,7.5,22.5c2.1,7.3,3.9,14.5,5.3,21.8c1.8,9.2,3.1,18.2,3.8,27.1C500.4,346.8,495.4,375.4,480.8,399.4z"/>
<path class="st2" d="M236.1,23.1"/>
<path class="st3" d="M416.5,153.8L416.5,153.8c-179.7-10.9-224.4-22.9-224.7-32.8c-0.3-9.1,36.9-14.2,44-42c3.1-12-0.3-25.1-7-33
	c-6.2-7.3-16.5-11.7-29.1-12.4l0,0c-8.6-0.5-18.3,0.6-28.5,3.6C183.8,30.9,198,26,214.1,24c4.1-0.5,8.2-0.8,12.2-1
	c51.9,1.6,92.9,33.4,114.6,50.4c3.1,2.4,6.1,4.9,9.2,7.4c23.5,19.8,46.2,44.8,66,72.4C416.2,153.5,416.3,153.6,416.5,153.8z"/>
<path class="st4" d="M424.7,153.8L424.7,153.8c-2.9-0.2-5.7-0.3-8.6-0.5C243.5,142.5,200.3,130.8,200,121c-0.3-9.1,36.9-14.2,44-42
	c3.1-12-0.3-25.1-7-33c-7.5-8.8-21-13.3-37.3-12.4l0,0c-16.4,0.9-35.6,7.3-54.5,20.1c4.5-3.5,9.4-6.9,14.5-10
	c3.7-2.3,7.5-4.5,11.6-6.5C183.8,30.9,198,26,214.1,24c4.1-0.5,8.2-0.8,12.2-1c55.8-1.8,99.9,32.5,122.8,50.4
	c3.1,2.4,6.1,4.9,9.2,7.4C381.9,100.8,404.8,125.9,424.7,153.8z"/>
<rect x="182.4" y="347.1" class="st5" width="293.4" height="90"/>
<rect x="179.2" y="352.8" class="st5" width="313.1" height="96"/>
<rect x="16.3" y="150.1" class="st5" width="423" height="129.7"/>
<rect x="131.3" y="361.3" class="st5" width="389.7" height="119.5"/>
<g id="g4484" transform="translate(0.03125,0.2939197)">
	<g id="g4454" transform="translate(-10,-4)">
		<g id="g4456" transform="matrix(1,0,0,0.99718653,0,-25.821238)">
			<path id="path4458" class="st6" d="M171.8,204.3c-5.2,0-9.5,3.9-9.5,8.7v101.3c0,4.8,4.2,8.7,9.5,8.7h124.5
				c5.2,0,9.5-3.9,9.5-8.7V213c0-4.8-4.2-8.7-9.5-8.7C296.1,204.3,171.8,204.3,171.8,204.3z M180.2,230.2h107.1
				c3.2,0,5.7,2.3,5.7,5.2v56.4c0,2.9-2.5,5.2-5.7,5.2H180.2c-3.2,0-5.7-2.3-5.7-5.2v-56.4C174.5,232.5,177,230.2,180.2,230.2z"/>
			<path id="path4460" class="st6" d="M172.2,204.8c-5.2,0-9.4,3.9-9.4,8.6V314c0,4.8,4.2,8.6,9.4,8.6h123.6c5.2,0,9.4-3.9,9.4-8.6
				V213.5c0-4.8-4.2-8.6-9.4-8.6H172.2z M180.5,230.5h106.4c3.1,0,5.6,2.3,5.6,5.1v56.1c0,2.8-2.5,5.1-5.6,5.1H180.5
				c-3.1,0-5.6-2.3-5.6-5.1v-56C174.8,232.8,177.4,230.5,180.5,230.5z"/>
			<path id="path4462" class="st6" d="M172.6,205.2c-5.1,0-9.3,3.8-9.3,8.5v99.8c0,4.7,4.2,8.5,9.3,8.5h122.7c5.1,0,9.3-3.8,9.3-8.5
				v-99.8c0-4.7-4.2-8.5-9.3-8.5C295.3,205.2,172.6,205.2,172.6,205.2z M180.9,230.7h105.6c3.1,0,5.6,2.3,5.6,5.1v55.7
				c0,2.8-2.5,5.1-5.6,5.1H180.9c-3.1,0-5.6-2.3-5.6-5.1v-55.7C175.3,233,177.8,230.7,180.9,230.7z"/>
			<path id="path4464" class="st6" d="M173,205.7c-5.1,0-9.3,3.8-9.3,8.5v99.1c0,4.7,4.2,8.5,9.3,8.5h121.8c5.1,0,9.3-3.8,9.3-8.5
				v-99.2c0-4.7-4.2-8.5-9.3-8.5C294.9,205.7,173,205.7,173,205.7z M181.2,231h104.9c3.1,0,5.6,2.3,5.6,5.1v55.2
				c0,2.8-2.5,5.1-5.6,5.1H181.2c-3.1,0-5.6-2.3-5.6-5.1V236C175.7,233.2,178.2,231,181.2,231z"/>
			<path id="path4466" class="st6" d="M173.5,206.1c-5.1,0-9.2,3.8-9.2,8.5v98.3c0,4.6,4.2,8.5,9.2,8.5h120.9c5.1,0,9.2-3.8,9.2-8.5
				v-98.3c0-4.6-4.2-8.5-9.2-8.5H173.5z M181.6,231.2h104.2c3.1,0,5.5,2.2,5.5,5.1v54.9c0,2.8-2.4,5.1-5.5,5.1H181.6
				c-3.1,0-5.5-2.2-5.5-5.1v-54.9C176.1,233.5,178.6,231.2,181.6,231.2z"/>
			<path id="path4468" class="st6" d="M173.9,206.5c-5.1,0-9.1,3.7-9.1,8.4v97.7c0,4.6,4.1,8.4,9.1,8.4h120c5.1,0,9.1-3.7,9.1-8.4
				v-97.7c0-4.6-4.1-8.4-9.1-8.4C294,206.5,173.9,206.5,173.9,206.5z M182.1,231.4h103.3c3,0,5.5,2.2,5.5,5.1v54.4
				c0,2.7-2.4,5.1-5.5,5.1H182.1c-3,0-5.5-2.2-5.5-5.1v-54.4C176.5,233.7,179,231.4,182.1,231.4z"/>
			<path id="path4470" class="st6" d="M174.4,206.9c-5.1,0-9,3.7-9,8.3v96.9c0,4.6,4.1,8.3,9,8.3h119.1c5.1,0,9-3.7,9-8.3v-96.9
				c0-4.6-4.1-8.3-9-8.3H174.4z M182.4,231.6h102.5c3,0,5.4,2.2,5.4,5v54c0,2.7-2.4,5-5.4,5H182.4c-3,0-5.4-2.2-5.4-5v-54
				C177,233.9,179.4,231.6,182.4,231.6z"/>
		</g>
		<path id="path4472" class="st7" d="M174.9,180.7c-5,0-9,3.7-9,8.3v96c0,4.6,4,8.3,9,8.3H293c5,0,9-3.7,9-8.3v-96.1
			c0-4.6-4-8.3-9-8.3C293,180.7,174.9,180.7,174.9,180.7z M182.9,205.2h101.6c3,0,5.4,2.2,5.4,5v53.6c0,2.7-2.4,5-5.4,5H182.9
			c-3,0-5.4-2.2-5.4-5v-53.6C177.4,207.4,179.9,205.2,182.9,205.2z"/>
		<path id="rect4474" class="st8" d="M182.9,205.3h101.8c3,0,5.3,2.2,5.3,4.9v53.5c0,2.7-2.4,4.9-5.3,4.9H182.9
			c-3,0-5.3-2.2-5.3-4.9v-53.5C177.4,207.5,179.9,205.3,182.9,205.3z"/>
		<path id="rect4476" class="st7" d="M183.9,208.1h100c1.9,0,3.3,1.4,3.3,3.1v51.7c0,1.7-1.5,3.1-3.3,3.1h-100
			c-1.9,0-3.3-1.4-3.3-3.1v-51.7C180.5,209.4,182,208.1,183.9,208.1z"/>
	</g>
	<g id="g4441">
		<g id="g4432" transform="matrix(1,0,0,0.99718653,0,-25.821238)">
			<path id="path4430" class="st6" d="M243.9,230.6c-5.2,0-9.5,3.9-9.5,8.7v101.3c0,4.8,4.2,8.7,9.5,8.7h124.5
				c5.2,0,9.5-3.9,9.5-8.7V239.3c0-4.8-4.2-8.7-9.5-8.7C368.4,230.6,243.9,230.6,243.9,230.6z M252.3,256.5h107.1
				c3.2,0,5.7,2.3,5.7,5.2v56.4c0,2.9-2.5,5.2-5.7,5.2H252.3c-3.2,0-5.7-2.3-5.7-5.2v-56.4C246.6,258.8,249.1,256.5,252.3,256.5z"/>
			<path id="path4428" class="st6" d="M244.3,231c-5.2,0-9.4,3.9-9.4,8.6v100.5c0,4.8,4.2,8.6,9.4,8.6h123.6c5.2,0,9.4-3.9,9.4-8.6
				V239.8c0-4.8-4.2-8.6-9.4-8.6L244.3,231L244.3,231z M252.7,256.8h106.4c3.1,0,5.6,2.3,5.6,5.1V318c0,2.8-2.5,5.1-5.6,5.1H252.7
				c-3.1,0-5.6-2.3-5.6-5.1v-56.1C247,259.1,249.6,256.8,252.7,256.8z"/>
			<path id="path4426" class="st6" d="M244.8,231.5c-5.1,0-9.3,3.8-9.3,8.5v99.8c0,4.7,4.2,8.5,9.3,8.5h122.7c5.1,0,9.3-3.8,9.3-8.5
				v-99.8c0-4.7-4.2-8.5-9.3-8.5H244.8z M253,257h105.6c3.1,0,5.6,2.3,5.6,5.1v55.7c0,2.8-2.5,5.1-5.6,5.1H253
				c-3.1,0-5.6-2.3-5.6-5.1v-55.7C247.4,259.3,249.9,257,253,257z"/>
			<path id="path4424" class="st6" d="M245.2,232c-5.1,0-9.3,3.8-9.3,8.5v99.1c0,4.7,4.2,8.5,9.3,8.5H367c5.1,0,9.3-3.8,9.3-8.5
				v-99.2c0-4.7-4.2-8.5-9.3-8.5C367,232,245.2,232,245.2,232z M253.4,257.3h104.9c3.1,0,5.6,2.3,5.6,5.1v55.3
				c0,2.8-2.5,5.1-5.6,5.1H253.4c-3.1,0-5.6-2.3-5.6-5.1v-55.3C247.9,259.5,250.3,257.3,253.4,257.3z"/>
			<path id="path4422" class="st6" d="M245.6,232.4c-5.1,0-9.2,3.8-9.2,8.5v98.4c0,4.6,4.2,8.5,9.2,8.5h120.9c5.1,0,9.2-3.8,9.2-8.5
				v-98.4c0-4.6-4.2-8.5-9.2-8.5H245.6z M253.8,257.5H358c3.1,0,5.5,2.2,5.5,5.1v54.9c0,2.8-2.4,5.1-5.5,5.1H253.8
				c-3.1,0-5.5-2.2-5.5-5.1v-54.9C248.2,259.8,250.8,257.5,253.8,257.5z"/>
			<path id="path4420" class="st6" d="M246.1,232.8c-5.1,0-9.1,3.7-9.1,8.4v97.7c0,4.6,4.1,8.4,9.1,8.4h120c5.1,0,9.1-3.7,9.1-8.4
				v-97.7c0-4.6-4.1-8.4-9.1-8.4C366.1,232.8,246.1,232.8,246.1,232.8z M254.2,257.7h103.3c3,0,5.5,2.2,5.5,5.1v54.4
				c0,2.7-2.4,5.1-5.5,5.1H254.2c-3,0-5.5-2.2-5.5-5.1v-54.4C248.7,260,251.1,257.7,254.2,257.7z"/>
			<path id="path4416" class="st6" d="M246.5,233.2c-5.1,0-9,3.7-9,8.3v96.9c0,4.6,4.1,8.3,9,8.3h119.1c5.1,0,9-3.7,9-8.3v-96.9
				c0-4.6-4.1-8.3-9-8.3H246.5z M254.5,257.9h102.5c3,0,5.4,2.2,5.4,5v54c0,2.7-2.4,5-5.4,5H254.5c-3,0-5.4-2.2-5.4-5v-54
				C249.1,260.2,251.6,257.9,254.5,257.9z"/>
		</g>
		<path id="rect4326" class="st7" d="M247.1,206.9c-5,0-9,3.7-9,8.3v96.1c0,4.6,4,8.3,9,8.3h118.1c5,0,9-3.7,9-8.3v-96.2
			c0-4.6-4-8.3-9-8.3C365.1,206.9,247.1,206.9,247.1,206.9z M255,231.4h101.6c3,0,5.4,2.2,5.4,5V290c0,2.7-2.4,5-5.4,5H255
			c-3,0-5.4-2.2-5.4-5v-53.6C249.7,233.6,252,231.4,255,231.4z"/>
		<path id="rect4336" class="st8" d="M255,231.5h101.8c3,0,5.3,2.2,5.3,4.9v53.5c0,2.7-2.4,4.9-5.3,4.9H255c-3,0-5.3-2.2-5.3-4.9
			v-53.5C249.7,233.7,252,231.5,255,231.5z"/>
		<path id="rect4346" class="st7" d="M256,234.3h100c1.9,0,3.3,1.4,3.3,3.1v51.7c0,1.7-1.5,3.1-3.3,3.1H256c-1.9,0-3.3-1.4-3.3-3.1
			v-51.7C252.7,235.6,254.2,234.3,256,234.3z"/>
	</g>
</g>
<g class="st9">
	<path class="st2" d="M221.1,412.5c0,24.1-15.9,36.8-35.3,36.8c-20.1,0-34.2-14.4-34.2-35.5c0-22.2,15-36.8,35.3-36.8
		C207.6,377.1,221.1,391.7,221.1,412.5z M162,413.6c0,14.9,8.8,28.3,24.3,28.3c15.6,0,24.4-13.2,24.4-29c0-13.9-7.9-28.5-24.3-28.5
		C170.2,384.4,162,398.3,162,413.6z"/>
	<path class="st2" d="M233.8,379.2c6-0.8,13.1-1.5,20.8-1.5c14.1,0,24.2,3,30.8,8.7c6.8,5.7,10.7,13.8,10.7,25.1
		c0,11.5-3.9,20.7-10.9,27.2c-7.1,6.6-18.9,10-33.7,10c-7,0-12.9-0.3-17.9-0.8L233.8,379.2L233.8,379.2z M243.6,441
		c2.5,0.4,6.1,0.5,9.9,0.5c21,0,32.4-10.8,32.4-29.7c0.1-16.5-10-27-30.8-27c-5.1,0-8.9,0.4-11.6,0.9L243.6,441L243.6,441z"/>
	<path class="st2" d="M309,379c4.8-0.7,10.9-1.3,18.9-1.3c9.7,0,16.8,2.1,21.3,5.8c4.2,3.3,6.7,8.4,6.7,14.6
		c0,6.3-2.1,11.3-5.9,14.9c-5.2,5.1-13.6,7.7-23.3,7.7c-3,0-5.7-0.1-7.9-0.7v28.1H309V379z M318.8,412.8c2.2,0.5,4.9,0.7,8.1,0.7
		c11.8,0,19-5.3,19-14.9c0-9.2-7.1-13.7-18-13.7c-4.3,0-7.6,0.3-9.3,0.7L318.8,412.8L318.8,412.8z"/>
</g>
</svg>
