<?xml version="1.0" encoding="utf-8"?>
<!-- Generator: Adobe Illustrator 24.0.1, SVG Export Plug-In . SVG Version: 6.00 Build 0)  -->
<svg version="1.1" id="Layer_1" xmlns="http://www.w3.org/2000/svg" xmlns:xlink="http://www.w3.org/1999/xlink" x="0px" y="0px"
	 viewBox="0 0 512 512" style="enable-background:new 0 0 512 512;" xml:space="preserve">
<style type="text/css">
	.st0{fill:#FFFFFF;stroke:#262626;stroke-miterlimit:10;}
	.st1{display:none;fill:#1AA6F7;}
	.st2{fill:#0086FF;}
	.st3{opacity:0.3;fill:#7C7C7C;enable-background:new    ;}
	.st4{fill:#D8D8D8;}
	.st5{fill:none;}
	.st6{opacity:2.999998e-02;fill:#FFFFFF;stroke:#009EFF;stroke-miterlimit:10;enable-background:new    ;}
	.st7{fill:#FFFFFF;stroke:#009EFF;stroke-miterlimit:10;}
	.st8{opacity:0.8;fill:#FFFFFF;stroke:#009EFF;stroke-miterlimit:10;enable-background:new    ;}
	.st9{enable-background:new    ;}
</style>
<path class="st0" d="M473.1,399.4c-72.8,120-374.9,111.4-443.4-31.8C-15,274.1,51.5,147.8,110.9,85.5C120,76,131.2,64.4,145,53.8
	l0,0c4.5-3.5,9.4-6.9,14.5-10c3.7-2.3,7.5-4.5,11.6-6.5c12.7-6.4,26.9-11.3,43-13.3c4.1-0.5,8.2-0.8,12.2-1
	c55.8-1.8,99.9,32.5,122.8,50.4c3.1,2.4,6.1,4.9,9.2,7.4c23.6,19.9,46.5,45.1,66.4,73l0,0C480.8,232.6,513.3,333.2,473.1,399.4z"/>
<path class="st1" d="M480.8,399.4C408,519.4,106,510.8,37.4,367.6C31,354,26.8,339.8,24.7,325.1c-2.9-19.3-2.3-39.3,0.9-59.3
	c4.1-25.4,12.3-50.8,23.1-74.8c18.7-41.7,45-79.3,70-105.5c21.1-22.1,53.5-55.2,103.2-61.5c45.8-5.8,84.6,13.8,111.6,32.1
	c9.3,6.3,17.1,12.4,23.4,17.3c0.4,0.3,0.8,0.6,1.2,0.9c36.7,28.9,72,70.8,98.1,116.7c10,17.6,18.6,35.8,25.5,54
	c2.8,7.5,5.3,15,7.5,22.5c2.1,7.3,3.9,14.5,5.3,21.8c1.8,9.2,3.1,18.2,3.8,27.1C500.4,346.8,495.4,375.4,480.8,399.4z"/>
<path class="st2" d="M236.1,23.1"/>
<path class="st3" d="M416.5,153.8L416.5,153.8c-179.7-10.9-224.4-22.9-224.7-32.8c-0.3-9.1,36.9-14.2,44-42c3.1-12-0.3-25.1-7-33
	c-6.2-7.3-16.5-11.7-29.1-12.4l0,0c-8.6-0.5-18.3,0.6-28.5,3.6C183.8,30.9,198,26,214.1,24c4.1-0.5,8.2-0.8,12.2-1
	c51.9,1.6,92.9,33.4,114.6,50.4c3.1,2.4,6.1,4.9,9.2,7.4c23.5,19.8,46.2,44.8,66,72.4C416.2,153.5,416.3,153.6,416.5,153.8z"/>
<path class="st4" d="M424.7,153.8L424.7,153.8c-2.9-0.2-5.7-0.3-8.6-0.5C243.5,142.5,200.3,130.8,200,121c-0.3-9.1,36.9-14.2,44-42
	c3.1-12-0.3-25.1-7-33c-7.5-8.8-21-13.3-37.3-12.4l0,0c-16.4,0.9-35.6,7.3-54.5,20.1c4.5-3.5,9.4-6.9,14.5-10
	c3.7-2.3,7.5-4.5,11.6-6.5C183.8,30.9,198,26,214.1,24c4.1-0.5,8.2-0.8,12.2-1c55.8-1.8,99.9,32.5,122.8,50.4
	c3.1,2.4,6.1,4.9,9.2,7.4C381.9,100.8,404.8,125.9,424.7,153.8z"/>
<rect x="182.4" y="347.1" class="st5" width="293.4" height="90"/>
<rect x="179.2" y="352.8" class="st5" width="313.1" height="96"/>
<rect x="16.3" y="150.1" class="st5" width="423" height="129.7"/>
<rect x="131.3" y="361.3" class="st5" width="389.7" height="119.5"/>
<g id="g4484" transform="translate(0.03125,0.2939197)">
	<g id="g4454" transform="translate(-10,-4)">
		<g id="g4456" transform="matrix(1,0,0,0.99718653,0,-25.821238)">
			<path id="path4458" class="st6" d="M179.5,222.1c-4.6,0-8.3,3.7-8.3,8.3v96c0,4.6,3.7,8.3,8.3,8.3h108.6c4.6,0,8.3-3.7,8.3-8.3
				v-96c0-4.6-3.7-8.3-8.3-8.3C288,222.1,179.5,222.1,179.5,222.1z M186.8,246.7h93.4c2.8,0,5,2.2,5,5v53.5c0,2.8-2.2,5-5,5h-93.4
				c-2.8,0-5-2.2-5-5v-53.5C181.9,248.9,184.1,246.7,186.8,246.7z"/>
			<path id="path4460" class="st6" d="M179.9,222.6c-4.6,0-8.2,3.7-8.2,8.2v95.3c0,4.6,3.7,8.2,8.2,8.2h107.8c4.6,0,8.2-3.7,8.2-8.2
				v-95.3c0-4.6-3.7-8.2-8.2-8.2H179.9z M187.1,246.9H280c2.7,0,4.9,2.2,4.9,4.9V305c0,2.7-2.2,4.9-4.9,4.9h-92.8
				c-2.7,0-4.9-2.2-4.9-4.9v-53.1C182.2,249.1,184.4,246.9,187.1,246.9z"/>
			<path id="path4462" class="st6" d="M180.2,223c-4.5,0-8.1,3.6-8.1,8.1v94.7c0,4.5,3.6,8.1,8.1,8.1h107c4.5,0,8.1-3.6,8.1-8.1
				v-94.7c0-4.5-3.6-8.1-8.1-8.1C287.3,223,180.2,223,180.2,223z M187.5,247.2h92.1c2.7,0,4.9,2.2,4.9,4.9v52.8
				c0,2.7-2.2,4.9-4.9,4.9h-92.1c-2.7,0-4.9-2.2-4.9-4.9V252C182.6,249.4,184.8,247.2,187.5,247.2z"/>
			<path id="path4464" class="st6" d="M180.6,223.4c-4.5,0-8.1,3.6-8.1,8.1v94c0,4.5,3.6,8.1,8.1,8.1h106.3c4.5,0,8.1-3.6,8.1-8.1
				v-94.1c0-4.5-3.6-8.1-8.1-8.1C286.9,223.4,180.6,223.4,180.6,223.4z M187.8,247.4h91.5c2.7,0,4.9,2.2,4.9,4.9v52.4
				c0,2.7-2.2,4.9-4.9,4.9h-91.5c-2.7,0-4.9-2.2-4.9-4.9v-52.4C183,249.5,185.1,247.4,187.8,247.4z"/>
			<path id="path4466" class="st6" d="M181,223.8c-4.4,0-8,3.6-8,8v93.3c0,4.4,3.6,8,8,8h105.5c4.4,0,8-3.6,8-8v-93.3
				c0-4.4-3.6-8-8-8H181z M188.1,247.6h90.8c2.7,0,4.8,2.1,4.8,4.8v52c0,2.7-2.1,4.8-4.8,4.8h-90.8c-2.7,0-4.8-2.1-4.8-4.8v-52
				C183.3,249.7,185.5,247.6,188.1,247.6z"/>
			<path id="path4468" class="st6" d="M181.4,224.2c-4.4,0-8,3.5-8,8v92.7c0,4.4,3.5,8,8,8h104.7c4.4,0,8-3.5,8-8v-92.7
				c0-4.4-3.5-8-8-8C286.1,224.2,181.4,224.2,181.4,224.2z M188.5,247.8h90.1c2.6,0,4.8,2.1,4.8,4.8v51.6c0,2.6-2.1,4.8-4.8,4.8
				h-90.1c-2.6,0-4.8-2.1-4.8-4.8v-51.6C183.7,250,185.8,247.8,188.5,247.8z"/>
			<path id="path4470" class="st6" d="M181.8,224.6c-4.4,0-7.9,3.5-7.9,7.9v92c0,4.4,3.5,7.9,7.9,7.9h103.9c4.4,0,7.9-3.5,7.9-7.9
				v-92c0-4.4-3.5-7.9-7.9-7.9H181.8z M188.8,248h89.4c2.6,0,4.7,2.1,4.7,4.7V304c0,2.6-2.1,4.7-4.7,4.7h-89.4
				c-2.6,0-4.7-2.1-4.7-4.7v-51.2C184.1,250.1,186.2,248,188.8,248z"/>
		</g>
		<path id="path4472" class="st7" d="M182.3,198.3c-4.3,0-7.9,3.5-7.9,7.9v91.1c0,4.3,3.5,7.9,7.9,7.9h103c4.3,0,7.9-3.5,7.9-7.9
			v-91.2c0-4.3-3.5-7.9-7.9-7.9C285.2,198.3,182.3,198.3,182.3,198.3z M189.2,221.5h88.6c2.6,0,4.7,2.1,4.7,4.7v50.9
			c0,2.6-2.1,4.7-4.7,4.7h-88.6c-2.6,0-4.7-2.1-4.7-4.7v-50.9C184.5,223.6,186.6,221.5,189.2,221.5z"/>
		<path id="rect4474" class="st8" d="M189.2,221.6H278c2.6,0,4.6,2.1,4.6,4.6V277c0,2.6-2.1,4.6-4.6,4.6h-88.8
			c-2.6,0-4.6-2.1-4.6-4.6v-50.8C184.5,223.7,186.6,221.6,189.2,221.6z"/>
		<path id="rect4476" class="st7" d="M190.1,224.3h87.2c1.7,0,2.9,1.3,2.9,2.9v49c0,1.7-1.3,2.9-2.9,2.9h-87.2
			c-1.7,0-2.9-1.3-2.9-2.9v-49C187.1,225.5,188.4,224.3,190.1,224.3z"/>
	</g>
	<g id="g4441">
		<g id="g4432" transform="matrix(1,0,0,0.99718653,0,-25.821238)">
			<path id="path4430" class="st6" d="M241.1,246.8c-4.6,0-8.3,3.7-8.3,8.3v96c0,4.6,3.7,8.3,8.3,8.3h108.6c4.6,0,8.3-3.7,8.3-8.3
				v-96c0-4.6-3.7-8.3-8.3-8.3C349.7,246.8,241.1,246.8,241.1,246.8z M248.5,271.4h93.4c2.8,0,5,2.2,5,5v53.5c0,2.8-2.2,5-5,5h-93.4
				c-2.8,0-5-2.2-5-5v-53.5C243.5,273.6,245.7,271.4,248.5,271.4z"/>
			<path id="path4428" class="st6" d="M241.5,247.2c-4.6,0-8.2,3.7-8.2,8.2v95.3c0,4.6,3.7,8.2,8.2,8.2h107.8c4.6,0,8.2-3.7,8.2-8.2
				v-95.3c0-4.6-3.7-8.2-8.2-8.2L241.5,247.2L241.5,247.2z M248.8,271.6h92.8c2.7,0,4.9,2.2,4.9,4.9v53.2c0,2.7-2.2,4.9-4.9,4.9
				h-92.8c-2.7,0-4.9-2.2-4.9-4.9v-53.2C243.8,273.9,246.1,271.6,248.8,271.6z"/>
			<path id="path4426" class="st6" d="M241.9,247.7c-4.5,0-8.1,3.6-8.1,8.1v94.7c0,4.5,3.6,8.1,8.1,8.1h107c4.5,0,8.1-3.6,8.1-8.1
				v-94.7c0-4.5-3.6-8.1-8.1-8.1H241.9z M249.1,271.9h92.1c2.7,0,4.9,2.2,4.9,4.9v52.8c0,2.7-2.2,4.9-4.9,4.9h-92.1
				c-2.7,0-4.9-2.2-4.9-4.9v-52.8C244.2,274.1,246.4,271.9,249.1,271.9z"/>
			<path id="path4424" class="st6" d="M242.2,248.1c-4.5,0-8.1,3.6-8.1,8.1v94c0,4.5,3.6,8.1,8.1,8.1h106.3c4.5,0,8.1-3.6,8.1-8.1
				v-94.1c0-4.5-3.6-8.1-8.1-8.1C348.5,248.1,242.2,248.1,242.2,248.1z M249.4,272.1h91.5c2.7,0,4.9,2.2,4.9,4.9v52.4
				c0,2.7-2.2,4.9-4.9,4.9h-91.5c-2.7,0-4.9-2.2-4.9-4.9V277C244.6,274.2,246.7,272.1,249.4,272.1z"/>
			<path id="path4422" class="st6" d="M242.6,248.5c-4.4,0-8,3.6-8,8v93.4c0,4.4,3.6,8,8,8h105.5c4.4,0,8-3.6,8-8v-93.4
				c0-4.4-3.6-8-8-8H242.6z M249.8,272.4h90.8c2.7,0,4.8,2.1,4.8,4.8v52c0,2.7-2.1,4.8-4.8,4.8h-90.8c-2.7,0-4.8-2.1-4.8-4.8v-52
				C244.9,274.5,247.1,272.4,249.8,272.4z"/>
			<path id="path4420" class="st6" d="M243,248.9c-4.4,0-8,3.5-8,8v92.7c0,4.4,3.5,8,8,8h104.7c4.4,0,8-3.5,8-8v-92.7
				c0-4.4-3.5-8-8-8C347.7,248.9,243,248.9,243,248.9z M250.1,272.5h90.1c2.6,0,4.8,2.1,4.8,4.8V329c0,2.6-2.1,4.8-4.8,4.8h-90.1
				c-2.6,0-4.8-2.1-4.8-4.8v-51.6C245.3,274.7,247.4,272.5,250.1,272.5z"/>
			<path id="path4416" class="st6" d="M243.4,249.3c-4.4,0-7.9,3.5-7.9,7.9v92c0,4.4,3.5,7.9,7.9,7.9h103.9c4.4,0,7.9-3.5,7.9-7.9
				v-92c0-4.4-3.5-7.9-7.9-7.9H243.4z M250.4,272.7h89.4c2.6,0,4.7,2.1,4.7,4.7v51.2c0,2.6-2.1,4.7-4.7,4.7h-89.4
				c-2.6,0-4.7-2.1-4.7-4.7v-51.2C245.7,274.9,247.8,272.7,250.4,272.7z"/>
		</g>
		<path id="rect4326" class="st7" d="M243.9,223c-4.3,0-7.9,3.5-7.9,7.9V322c0,4.3,3.5,7.9,7.9,7.9h103c4.3,0,7.9-3.5,7.9-7.9v-91.2
			c0-4.3-3.5-7.9-7.9-7.9C346.9,223,243.9,223,243.9,223z M250.8,246.2h88.6c2.6,0,4.7,2.1,4.7,4.7v50.9c0,2.6-2.1,4.7-4.7,4.7
			h-88.6c-2.6,0-4.7-2.1-4.7-4.7v-50.9C246.2,248.3,248.2,246.2,250.8,246.2z"/>
		<path id="rect4336" class="st8" d="M250.8,246.3h88.8c2.6,0,4.6,2.1,4.6,4.6v50.8c0,2.6-2.1,4.6-4.6,4.6h-88.8
			c-2.6,0-4.6-2.1-4.6-4.6v-50.8C246.2,248.4,248.2,246.3,250.8,246.3z"/>
		<path id="rect4346" class="st7" d="M251.7,248.9h87.2c1.7,0,2.9,1.3,2.9,2.9v49c0,1.7-1.3,2.9-2.9,2.9h-87.2
			c-1.7,0-2.9-1.3-2.9-2.9v-49C248.8,250.2,250.1,248.9,251.7,248.9z"/>
	</g>
</g>
<g class="st9">
	<path class="st2" d="M241.5,417.9c0,22.8-13.9,35-30.8,35c-17.6,0-29.8-13.6-29.8-33.7c0-21.1,13.1-34.9,30.8-34.9
		C229.7,384.4,241.5,398.3,241.5,417.9z M190,419c0,14.2,7.7,26.8,21.2,26.8c13.6,0,21.3-12.5,21.3-27.6c0-13.2-6.9-27-21.2-27
		C197.1,391.3,190,404.5,190,419z"/>
	<path class="st2" d="M262.7,392.7h-20.2v-7.3h49v7.3h-20.3v59h-8.7L262.7,392.7L262.7,392.7z"/>
	<path class="st2" d="M299,386.2c4.2-0.7,9.5-1.3,16.5-1.3c8.5,0,14.6,2,18.6,5.5c3.6,3.1,5.8,8,5.8,13.9c0,6-1.8,10.7-5.1,14.2
		c-4.6,4.8-11.9,7.3-20.3,7.3c-2.6,0-5-0.1-6.9-0.6v26.6h-8.6L299,386.2L299,386.2z M307.6,418.3c1.9,0.5,4.3,0.7,7.1,0.7
		c10.3,0,16.6-5,16.6-14.2c0-8.7-6.2-13-15.7-13c-3.8,0-6.6,0.3-8.1,0.7L307.6,418.3L307.6,418.3z"/>
</g>
</svg>
