<?xml version="1.0" encoding="utf-8"?>
<!-- Generator: Adobe Illustrator 24.0.1, SVG Export Plug-In . SVG Version: 6.00 Build 0)  -->
<svg version="1.1" id="Layer_1" xmlns="http://www.w3.org/2000/svg" xmlns:xlink="http://www.w3.org/1999/xlink" x="0px" y="0px"
	 viewBox="0 0 512 512" style="enable-background:new 0 0 512 512;" xml:space="preserve">
<style type="text/css">
	.st0{fill:#FFFFFF;stroke:#262626;stroke-miterlimit:10;}
	.st1{display:none;fill:#1AA6F7;}
	.st2{fill:#0086FF;}
	.st3{opacity:0.3;fill:#7C7C7C;enable-background:new    ;}
	.st4{fill:#D8D8D8;}
	.st5{fill:none;}
	.st6{opacity:2.999998e-02;fill:#FFFFFF;stroke:#009EFF;stroke-miterlimit:10;enable-background:new    ;}
	.st7{fill:#FFFFFF;stroke:#009EFF;stroke-miterlimit:10;}
	.st8{opacity:0.8;fill:#FFFFFF;stroke:#009EFF;stroke-miterlimit:10;enable-background:new    ;}
	.st9{enable-background:new    ;}
</style>
<path class="st0" d="M473.1,399.4c-72.8,120-374.9,111.4-443.4-31.8C-15,274.1,51.5,147.8,110.9,85.5C120,76,131.2,64.4,145,53.8
	l0,0c4.5-3.5,9.4-6.9,14.5-10c3.7-2.3,7.5-4.5,11.6-6.5c12.7-6.4,26.9-11.3,43-13.3c4.1-0.5,8.2-0.8,12.2-1
	c55.8-1.8,99.9,32.5,122.8,50.4c3.1,2.4,6.1,4.9,9.2,7.4c23.6,19.9,46.5,45.1,66.4,73l0,0C480.8,232.6,513.3,333.2,473.1,399.4z"/>
<path class="st1" d="M480.8,399.4C408,519.4,106,510.8,37.4,367.6C31,354,26.8,339.8,24.7,325.1c-2.9-19.3-2.3-39.3,0.9-59.3
	c4.1-25.4,12.3-50.8,23.1-74.8c18.7-41.7,45-79.3,70-105.5c21.1-22.1,53.5-55.2,103.2-61.5c45.8-5.8,84.6,13.8,111.6,32.1
	c9.3,6.3,17.1,12.4,23.4,17.3c0.4,0.3,0.8,0.6,1.2,0.9c36.7,28.9,72,70.8,98.1,116.7c10,17.6,18.6,35.8,25.5,54
	c2.8,7.5,5.3,15,7.5,22.5c2.1,7.3,3.9,14.5,5.3,21.8c1.8,9.2,3.1,18.2,3.8,27.1C500.4,346.8,495.4,375.4,480.8,399.4z"/>
<path class="st2" d="M236.1,23.1"/>
<path class="st3" d="M416.5,153.8L416.5,153.8c-179.7-10.9-224.4-22.9-224.7-32.8c-0.3-9.1,36.9-14.2,44-42c3.1-12-0.3-25.1-7-33
	c-6.2-7.3-16.5-11.7-29.1-12.4l0,0c-8.6-0.5-18.3,0.6-28.5,3.6C183.8,30.9,198,26,214.1,24c4.1-0.5,8.2-0.8,12.2-1
	c51.9,1.6,92.9,33.4,114.6,50.4c3.1,2.4,6.1,4.9,9.2,7.4c23.5,19.8,46.2,44.8,66,72.4C416.2,153.5,416.3,153.6,416.5,153.8z"/>
<path class="st4" d="M424.7,153.8L424.7,153.8c-2.9-0.2-5.7-0.3-8.6-0.5C243.5,142.5,200.3,130.8,200,121c-0.3-9.1,36.9-14.2,44-42
	c3.1-12-0.3-25.1-7-33c-7.5-8.8-21-13.3-37.3-12.4l0,0c-16.4,0.9-35.6,7.3-54.5,20.1c4.5-3.5,9.4-6.9,14.5-10
	c3.7-2.3,7.5-4.5,11.6-6.5C183.8,30.9,198,26,214.1,24c4.1-0.5,8.2-0.8,12.2-1c55.8-1.8,99.9,32.5,122.8,50.4
	c3.1,2.4,6.1,4.9,9.2,7.4C381.9,100.8,404.8,125.9,424.7,153.8z"/>
<rect x="182.4" y="347.1" class="st5" width="293.4" height="90"/>
<rect x="179.2" y="352.8" class="st5" width="313.1" height="96"/>
<rect x="16.3" y="150.1" class="st5" width="423" height="129.7"/>
<rect x="131.3" y="361.3" class="st5" width="389.7" height="119.5"/>
<g id="g4484" transform="translate(0.03125,0.2939197)">
	<g id="g4454" transform="translate(-10,-4)">
		<g id="g4456" transform="matrix(1,0,0,0.99718653,0,-25.821238)">
			<path id="path4458" class="st6" d="M179.6,183.7c-5.2,0-9.3,4.2-9.3,9.3v108.5c0,5.2,4.2,9.3,9.3,9.3h122.6
				c5.2,0,9.3-4.2,9.3-9.3V193c0-5.2-4.2-9.3-9.3-9.3C302.1,183.7,179.6,183.7,179.6,183.7z M187.8,211.4h105.5
				c3.1,0,5.6,2.5,5.6,5.6v60.5c0,3.1-2.5,5.6-5.6,5.6H187.8c-3.1,0-5.6-2.5-5.6-5.6V217C182.2,213.9,184.7,211.4,187.8,211.4z"/>
			<path id="path4460" class="st6" d="M180,184.2c-5.2,0-9.2,4.2-9.2,9.2v107.7c0,5.2,4.2,9.2,9.2,9.2h121.7c5.2,0,9.2-4.2,9.2-9.2
				V193.5c0-5.2-4.2-9.2-9.2-9.2H180z M188.2,211.7H293c3,0,5.5,2.5,5.5,5.5v60.1c0,3-2.5,5.5-5.5,5.5H188.2c-3,0-5.5-2.5-5.5-5.5
				v-60C182.6,214.2,185.1,211.7,188.2,211.7z"/>
			<path id="path4462" class="st6" d="M180.4,184.7c-5.1,0-9.2,4.1-9.2,9.2v107c0,5.1,4.1,9.2,9.2,9.2h120.8c5.1,0,9.2-4.1,9.2-9.2
				v-107c0-5.1-4.1-9.2-9.2-9.2C301.3,184.7,180.4,184.7,180.4,184.7z M188.6,211.9h104c3,0,5.5,2.5,5.5,5.5v59.7
				c0,3-2.5,5.5-5.5,5.5h-104c-3,0-5.5-2.5-5.5-5.5v-59.7C183,214.4,185.5,211.9,188.6,211.9z"/>
			<path id="path4464" class="st6" d="M180.8,185.1c-5.1,0-9.2,4.1-9.2,9.2v106.2c0,5.1,4.1,9.2,9.2,9.2h120c5.1,0,9.2-4.1,9.2-9.2
				V194.2c0-5.1-4.1-9.2-9.2-9.2C300.9,185.1,180.8,185.1,180.8,185.1z M188.9,212.2h103.3c3,0,5.5,2.5,5.5,5.5v59.1
				c0,3-2.5,5.5-5.5,5.5H188.9c-3,0-5.5-2.5-5.5-5.5v-59.2C183.5,214.6,185.9,212.2,188.9,212.2z"/>
			<path id="path4466" class="st6" d="M181.3,185.5c-5,0-9.1,4.1-9.1,9.1V300c0,5,4.1,9.1,9.1,9.1h119.1c5,0,9.1-4.1,9.1-9.1V194.6
				c0-5-4.1-9.1-9.1-9.1H181.3z M189.3,212.5h102.6c3,0,5.4,2.4,5.4,5.4v58.8c0,3-2.4,5.4-5.4,5.4H189.3c-3,0-5.4-2.4-5.4-5.4v-58.8
				C183.8,214.9,186.3,212.5,189.3,212.5z"/>
			<path id="path4468" class="st6" d="M181.7,186c-5,0-9,4-9,9v104.6c0,5,4,9,9,9H300c5,0,9-4,9-9V195c0-5-4-9-9-9
				C300,186,181.7,186,181.7,186z M189.7,212.7h101.8c2.9,0,5.4,2.4,5.4,5.4v58.3c0,2.9-2.4,5.4-5.4,5.4H189.7
				c-2.9,0-5.4-2.4-5.4-5.4v-58.3C184.3,215.1,186.7,212.7,189.7,212.7z"/>
			<path id="path4470" class="st6" d="M182.2,186.4c-5,0-8.9,4-8.9,8.9v103.8c0,5,4,8.9,8.9,8.9h117.4c5,0,8.9-4,8.9-8.9V195.3
				c0-5-4-8.9-8.9-8.9H182.2z M190.1,212.9h101c2.9,0,5.3,2.4,5.3,5.3v57.9c0,2.9-2.4,5.3-5.3,5.3h-101c-2.9,0-5.3-2.4-5.3-5.3
				v-57.9C184.7,215.3,187.1,212.9,190.1,212.9z"/>
		</g>
		<path id="path4472" class="st7" d="M182.7,160.3c-4.9,0-8.9,3.9-8.9,8.9v102.9c0,4.9,3.9,8.9,8.9,8.9H299c4.9,0,8.9-3.9,8.9-8.9
			v-103c0-4.9-3.9-8.9-8.9-8.9C299,160.3,182.7,160.3,182.7,160.3z M190.5,186.5h100.1c2.9,0,5.3,2.4,5.3,5.3v57.4
			c0,2.9-2.4,5.3-5.3,5.3H190.5c-2.9,0-5.3-2.4-5.3-5.3v-57.4C185.2,188.9,187.6,186.5,190.5,186.5z"/>
		<path id="rect4474" class="st8" d="M190.5,186.6h100.3c2.9,0,5.2,2.4,5.2,5.2v57.3c0,2.9-2.4,5.2-5.2,5.2H190.5
			c-2.9,0-5.2-2.4-5.2-5.2v-57.3C185.2,189,187.6,186.6,190.5,186.6z"/>
		<path id="rect4476" class="st7" d="M191.5,189.6H290c1.9,0,3.3,1.5,3.3,3.3v55.4c0,1.9-1.5,3.3-3.3,3.3h-98.5
			c-1.9,0-3.3-1.5-3.3-3.3v-55.4C188.2,191.1,189.6,189.6,191.5,189.6z"/>
	</g>
	<g id="g4441">
		<g id="g4432" transform="matrix(1,0,0,0.99718653,0,-25.821238)">
			<path id="path4430" class="st6" d="M250.5,212.1c-5.2,0-9.3,4.2-9.3,9.3v108.5c0,5.2,4.2,9.3,9.3,9.3h122.6
				c5.2,0,9.3-4.2,9.3-9.3V221.5c0-5.2-4.2-9.3-9.3-9.3C373.1,212.1,250.5,212.1,250.5,212.1z M258.8,239.9h105.5
				c3.1,0,5.6,2.5,5.6,5.6v60.5c0,3.1-2.5,5.6-5.6,5.6H258.8c-3.1,0-5.6-2.5-5.6-5.6v-60.5C253.2,242.4,255.6,239.9,258.8,239.9z"/>
			<path id="path4428" class="st6" d="M250.9,212.6c-5.2,0-9.2,4.2-9.2,9.2v107.7c0,5.2,4.2,9.2,9.2,9.2h121.7
				c5.2,0,9.2-4.2,9.2-9.2V221.9c0-5.2-4.2-9.2-9.2-9.2L250.9,212.6L250.9,212.6z M259.1,240.1h104.8c3,0,5.5,2.5,5.5,5.5v60.1
				c0,3-2.5,5.5-5.5,5.5H259.1c-3,0-5.5-2.5-5.5-5.5v-60.1C253.5,242.6,256.1,240.1,259.1,240.1z"/>
			<path id="path4426" class="st6" d="M251.4,213.1c-5.1,0-9.2,4.1-9.2,9.2v107c0,5.1,4.1,9.2,9.2,9.2h120.8c5.1,0,9.2-4.1,9.2-9.2
				v-107c0-5.1-4.1-9.2-9.2-9.2H251.4z M259.5,240.4h104c3,0,5.5,2.5,5.5,5.5v59.7c0,3-2.5,5.5-5.5,5.5h-104c-3,0-5.5-2.5-5.5-5.5
				v-59.7C254,242.9,256.4,240.4,259.5,240.4z"/>
			<path id="path4424" class="st6" d="M251.7,213.5c-5.1,0-9.2,4.1-9.2,9.2v106.2c0,5.1,4.1,9.2,9.2,9.2h120c5.1,0,9.2-4.1,9.2-9.2
				V222.6c0-5.1-4.1-9.2-9.2-9.2C371.8,213.5,251.7,213.5,251.7,213.5z M259.8,240.7h103.3c3,0,5.5,2.5,5.5,5.5v59.2
				c0,3-2.5,5.5-5.5,5.5H259.8c-3,0-5.5-2.5-5.5-5.5v-59.2C254.4,243.1,256.8,240.7,259.8,240.7z"/>
			<path id="path4422" class="st6" d="M252.2,214c-5,0-9.1,4.1-9.1,9.1v105.4c0,5,4.1,9.1,9.1,9.1h119.1c5,0,9.1-4.1,9.1-9.1V223.1
				c0-5-4.1-9.1-9.1-9.1H252.2z M260.3,240.9h102.6c3,0,5.4,2.4,5.4,5.4v58.8c0,3-2.4,5.4-5.4,5.4H260.3c-3,0-5.4-2.4-5.4-5.4v-58.8
				C254.8,243.3,257.2,240.9,260.3,240.9z"/>
			<path id="path4420" class="st6" d="M252.6,214.4c-5,0-9,4-9,9v104.6c0,5,4,9,9,9h118.2c5,0,9-4,9-9V223.4c0-5-4-9-9-9
				C370.9,214.4,252.6,214.4,252.6,214.4z M260.6,241.1h101.8c2.9,0,5.4,2.4,5.4,5.4v58.3c0,2.9-2.4,5.4-5.4,5.4H260.6
				c-2.9,0-5.4-2.4-5.4-5.4v-58.3C255.2,243.6,257.6,241.1,260.6,241.1z"/>
			<path id="path4416" class="st6" d="M253.1,214.9c-5,0-8.9,4-8.9,8.9v103.8c0,5,4,8.9,8.9,8.9h117.4c5,0,8.9-4,8.9-8.9V223.8
				c0-5-4-8.9-8.9-8.9H253.1z M261,241.4h101c2.9,0,5.3,2.4,5.3,5.3v57.9c0,2.9-2.4,5.3-5.3,5.3H261c-2.9,0-5.3-2.4-5.3-5.3v-57.9
				C255.6,243.8,258,241.4,261,241.4z"/>
		</g>
		<path id="rect4326" class="st7" d="M253.6,188.7c-4.9,0-8.9,3.9-8.9,8.9v103c0,4.9,3.9,8.9,8.9,8.9h116.3c4.9,0,8.9-3.9,8.9-8.9
			v-103c0-4.9-3.9-8.9-8.9-8.9C369.9,188.7,253.6,188.7,253.6,188.7z M261.4,214.9h100.1c2.9,0,5.3,2.4,5.3,5.3v57.4
			c0,2.9-2.4,5.3-5.3,5.3H261.4c-2.9,0-5.3-2.4-5.3-5.3v-57.4C256.2,217.3,258.5,214.9,261.4,214.9z"/>
		<path id="rect4336" class="st8" d="M261.4,215h100.3c2.9,0,5.2,2.4,5.2,5.2v57.3c0,2.9-2.4,5.2-5.2,5.2H261.4
			c-2.9,0-5.2-2.4-5.2-5.2v-57.3C256.2,217.4,258.5,215,261.4,215z"/>
		<path id="rect4346" class="st7" d="M262.4,218h98.5c1.9,0,3.3,1.5,3.3,3.3v55.4c0,1.9-1.5,3.3-3.3,3.3h-98.5
			c-1.9,0-3.3-1.5-3.3-3.3v-55.4C259.1,219.4,260.6,218,262.4,218z"/>
	</g>
</g>
<g class="st9">
	<path class="st2" d="M158.4,373c4.7-0.8,10.8-1.4,18.6-1.4c9.6,0,16.5,2.2,21,6.2c4.1,3.6,6.6,9,6.6,15.6c0,6.8-2,12.1-5.8,16
		c-5.2,5.4-13.4,8.3-22.9,8.3c-2.9,0-5.6-0.1-7.8-0.7v30.1h-9.7L158.4,373L158.4,373z M168,409.2c2.1,0.5,4.8,0.8,8,0.8
		c11.6,0,18.8-5.7,18.8-16c0-9.9-7-14.7-17.7-14.7c-4.3,0-7.5,0.4-9.2,0.8L168,409.2L168,409.2z"/>
	<path class="st2" d="M217.5,373c4.7-0.8,10.8-1.4,18.6-1.4c9.6,0,16.5,2.2,21,6.2c4.1,3.6,6.6,9,6.6,15.6c0,6.8-2,12.1-5.8,16
		c-5.2,5.4-13.4,8.3-22.9,8.3c-2.9,0-5.6-0.1-7.8-0.7v30.1h-9.7L217.5,373L217.5,373z M227.1,409.2c2.1,0.5,4.8,0.8,8,0.8
		c11.6,0,18.8-5.7,18.8-16c0-9.9-7-14.7-17.7-14.7c-4.3,0-7.5,0.4-9.2,0.8L227.1,409.2L227.1,409.2z"/>
	<path class="st2" d="M275.3,435.2c4.4,2.7,10.7,4.9,17.3,4.9c9.9,0,15.6-5.2,15.6-12.8c0-7-4-11-14.1-14.9
		c-12.3-4.4-19.8-10.7-19.8-21.2c0-11.6,9.7-20.4,24.3-20.4c7.6,0,13.2,1.8,16.5,3.6l-2.7,7.9c-2.5-1.3-7.5-3.6-14.2-3.6
		c-10.2,0-14.1,6.1-14.1,11.2c0,7,4.5,10.5,14.9,14.5c12.7,4.9,19.1,11,19.1,22c0,11.6-8.5,21.6-26.2,21.6c-7.2,0-15.1-2.1-19.1-4.8
		L275.3,435.2z"/>
	<path class="st2" d="M372.4,447.1l-9.6-16.5c-3.9-6.3-6.3-10.5-8.7-14.8h-0.3c-2.1,4.4-4.3,8.4-8.1,14.9l-8.9,16.4h-11.1l22.9-37.9
		l-22-37.1h11.2l9.9,17.6c2.8,4.9,4.9,8.7,6.9,12.7h0.4c2.1-4.4,4-7.9,6.8-12.7l10.2-17.6h11.1l-22.8,36.5l23.4,38.5H372.4z"/>
</g>
</svg>
