<?xml version="1.0" encoding="utf-8"?>
<!-- Generator: Adobe Illustrator 24.0.1, SVG Export Plug-In . SVG Version: 6.00 Build 0)  -->
<svg version="1.1" id="Layer_1" xmlns="http://www.w3.org/2000/svg" xmlns:xlink="http://www.w3.org/1999/xlink" x="0px" y="0px"
	 viewBox="0 0 512 512" style="enable-background:new 0 0 512 512;" xml:space="preserve">
<style type="text/css">
	.st0{fill:#FFFFFF;stroke:#262626;stroke-miterlimit:10;}
	.st1{display:none;fill:#1AA6F7;}
	.st2{fill:#0086FF;}
	.st3{opacity:0.3;fill:#7C7C7C;enable-background:new    ;}
	.st4{fill:#D8D8D8;}
	.st5{fill:none;}
	.st6{display:none;opacity:0.4;fill:#CAEDC5;stroke:#0092FF;stroke-miterlimit:10;enable-background:new    ;}
	.st7{fill:none;stroke:#0092FF;stroke-width:0.7962;stroke-linecap:round;}
	.st8{opacity:0.67;enable-background:new    ;}
</style>
<path class="st0" d="M473.1,399.4c-72.8,120-374.9,111.4-443.4-31.8C-15,274.1,51.5,147.8,110.9,85.5C120,76,131.2,64.4,145,53.8
	l0,0c4.5-3.5,9.4-6.9,14.5-10c3.7-2.3,7.5-4.5,11.6-6.5c12.7-6.4,26.9-11.3,43-13.3c4.1-0.5,8.2-0.8,12.2-1
	c55.8-1.8,99.9,32.5,122.8,50.4c3.1,2.4,6.1,4.9,9.2,7.4c23.6,19.9,46.5,45.1,66.4,73l0,0C480.8,232.6,513.3,333.2,473.1,399.4z"/>
<path class="st1" d="M480.8,399.4C408,519.4,106,510.8,37.4,367.6C31,354,26.8,339.8,24.7,325.1c-2.9-19.3-2.3-39.3,0.9-59.3
	c4.1-25.4,12.3-50.8,23.1-74.8c18.7-41.7,45-79.3,70-105.5c21.1-22.1,53.5-55.2,103.2-61.5c45.8-5.8,84.6,13.8,111.6,32.1
	c9.3,6.3,17.1,12.4,23.4,17.3c0.4,0.3,0.8,0.6,1.2,0.9c36.7,28.9,72,70.8,98.1,116.7c10,17.6,18.6,35.8,25.5,54
	c2.8,7.5,5.3,15,7.5,22.5c2.1,7.3,3.9,14.5,5.3,21.8c1.8,9.2,3.1,18.2,3.8,27.1C500.4,346.8,495.4,375.4,480.8,399.4z"/>
<path class="st2" d="M236.1,23.1"/>
<path class="st3" d="M416.5,153.8L416.5,153.8c-179.7-10.9-224.4-22.9-224.7-32.8c-0.3-9.1,36.9-14.2,44-42c3.1-12-0.3-25.1-7-33
	c-6.2-7.3-16.5-11.7-29.1-12.4l0,0c-8.6-0.5-18.3,0.6-28.5,3.6C183.8,30.9,198,26,214.1,24c4.1-0.5,8.2-0.8,12.2-1
	c51.9,1.6,92.9,33.4,114.6,50.4c3.1,2.4,6.1,4.9,9.2,7.4c23.5,19.8,46.2,44.8,66,72.4C416.2,153.5,416.3,153.6,416.5,153.8z"/>
<path class="st4" d="M424.7,153.8L424.7,153.8c-2.9-0.2-5.7-0.3-8.6-0.5C243.5,142.5,200.3,130.8,200,121c-0.3-9.1,36.9-14.2,44-42
	c3.1-12-0.3-25.1-7-33c-7.5-8.8-21-13.3-37.3-12.4l0,0c-16.4,0.9-35.6,7.3-54.5,20.1c4.5-3.5,9.4-6.9,14.5-10
	c3.7-2.3,7.5-4.5,11.6-6.5C183.8,30.9,198,26,214.1,24c4.1-0.5,8.2-0.8,12.2-1c55.8-1.8,99.9,32.5,122.8,50.4
	c3.1,2.4,6.1,4.9,9.2,7.4C381.9,100.8,404.8,125.9,424.7,153.8z"/>
<rect x="182.4" y="347.1" class="st5" width="293.4" height="90"/>
<g>
	<path id="path3897" class="st6" d="M172.3,203.2h22.8v158.6h-22.8V203.2z M195.1,203.2l135.9,0.1v22.5l-135.9-0.3V203.2z"/>
	<g id="g4075">
		<g id="g4071">
			<path id="path4051" class="st7" d="M283.1,343.4V189.2"/>
			<path id="path4038" class="st7" d="M237.8,343.4V189.2"/>
		</g>
		<g id="g4064">
			<path id="path4023" class="st7" d="M326.4,320.1H176.8"/>
			<path id="path3611" class="st7" d="M326.4,229.5H176.8"/>
			<path id="path4017" class="st7" d="M326.4,252.1H176.8"/>
			<path id="path4019" class="st7" d="M326.4,274.8H176.8"/>
			<path id="path4021" class="st7" d="M326.4,297.4H176.8"/>
		</g>
	</g>
	<path id="rect3580" class="st7" d="M174.5,189.2h154.1v154.1H174.5V189.2z M328.7,207H174.5 M192.9,189.3v154.1"/>
</g>
<g class="st8">
	<path class="st2" d="M231.1,395.9c0,20.1-12.2,30.8-27.1,30.8c-15.5,0-26.3-12-26.3-29.7c0-18.6,11.5-30.7,27.1-30.7
		C220.7,366.4,231.1,378.6,231.1,395.9z M185.7,396.9c0,12.5,6.8,23.7,18.7,23.7c12,0,18.7-11,18.7-24.3c0-11.7-6.1-23.8-18.7-23.8
		C192,372.6,185.7,384.1,185.7,396.9z"/>
	<path class="st2" d="M240.9,368.1c4.6-0.7,10.1-1.2,16-1.2c10.8,0,18.6,2.5,23.7,7.3c5.2,4.8,8.3,11.5,8.3,21
		c0,9.6-3,17.3-8.4,22.8c-5.5,5.5-14.5,8.4-25.9,8.4c-5.3,0-9.9-0.3-13.7-0.7L240.9,368.1L240.9,368.1z M248.4,419.8
		c1.9,0.3,4.6,0.4,7.6,0.4c16.2,0,24.9-9,24.9-24.8c0.1-13.8-7.7-22.5-23.7-22.5c-3.9,0-6.9,0.3-8.8,0.8L248.4,419.8L248.4,419.8z"
		/>
	<path class="st2" d="M298.6,367.4h31.5v6.3h-23.9v19.4h22.1v6.2h-22.1v26.4h-7.6V367.4z"/>
</g>
</svg>
