<?xml version="1.0" encoding="utf-8"?>
<!-- Generator: Adobe Illustrator 24.0.1, SVG Export Plug-In . SVG Version: 6.00 Build 0)  -->
<svg version="1.1" id="Layer_1" xmlns="http://www.w3.org/2000/svg" xmlns:xlink="http://www.w3.org/1999/xlink" x="0px" y="0px"
	 viewBox="0 0 512 512" style="enable-background:new 0 0 512 512;" xml:space="preserve">
<style type="text/css">
	.st0{fill:#FFFFFF;stroke:#262626;stroke-miterlimit:10;}
	.st1{display:none;fill:#1AA6F7;}
	.st2{fill:#0086FF;}
	.st3{opacity:0.3;fill:#7C7C7C;enable-background:new    ;}
	.st4{fill:#D8D8D8;}
	.st5{fill:none;}
	.st6{opacity:2.999998e-02;fill:#FFFFFF;stroke:#009EFF;stroke-miterlimit:10;enable-background:new    ;}
	.st7{fill:#FFFFFF;stroke:#009EFF;stroke-miterlimit:10;}
	.st8{opacity:0.8;fill:#FFFFFF;stroke:#009EFF;stroke-miterlimit:10;enable-background:new    ;}
	.st9{enable-background:new    ;}
</style>
<path class="st0" d="M473.1,399.4c-72.8,120-374.9,111.4-443.4-31.8C-15,274.1,51.5,147.8,110.9,85.5C120,76,131.2,64.4,145,53.8
	l0,0c4.5-3.5,9.4-6.9,14.5-10c3.7-2.3,7.5-4.5,11.6-6.5c12.7-6.4,26.9-11.3,43-13.3c4.1-0.5,8.2-0.8,12.2-1
	c55.8-1.8,99.9,32.5,122.8,50.4c3.1,2.4,6.1,4.9,9.2,7.4c23.6,19.9,46.5,45.1,66.4,73l0,0C480.8,232.6,513.3,333.2,473.1,399.4z"/>
<path class="st1" d="M480.8,399.4C408,519.4,106,510.8,37.4,367.6C31,354,26.8,339.8,24.7,325.1c-2.9-19.3-2.3-39.3,0.9-59.3
	c4.1-25.4,12.3-50.8,23.1-74.8c18.7-41.7,45-79.3,70-105.5c21.1-22.1,53.5-55.2,103.2-61.5c45.8-5.8,84.6,13.8,111.6,32.1
	c9.3,6.3,17.1,12.4,23.4,17.3c0.4,0.3,0.8,0.6,1.2,0.9c36.7,28.9,72,70.8,98.1,116.7c10,17.6,18.6,35.8,25.5,54
	c2.8,7.5,5.3,15,7.5,22.5c2.1,7.3,3.9,14.5,5.3,21.8c1.8,9.2,3.1,18.2,3.8,27.1C500.4,346.8,495.4,375.4,480.8,399.4z"/>
<path class="st2" d="M236.1,23.1"/>
<path class="st3" d="M416.5,153.8L416.5,153.8c-179.7-10.9-224.4-22.9-224.7-32.8c-0.3-9.1,36.9-14.2,44-42c3.1-12-0.3-25.1-7-33
	c-6.2-7.3-16.5-11.7-29.1-12.4l0,0c-8.6-0.5-18.3,0.6-28.5,3.6C183.8,30.9,198,26,214.1,24c4.1-0.5,8.2-0.8,12.2-1
	c51.9,1.6,92.9,33.4,114.6,50.4c3.1,2.4,6.1,4.9,9.2,7.4c23.5,19.8,46.2,44.8,66,72.4C416.2,153.5,416.3,153.6,416.5,153.8z"/>
<path class="st4" d="M424.7,153.8L424.7,153.8c-2.9-0.2-5.7-0.3-8.6-0.5C243.5,142.5,200.3,130.8,200,121c-0.3-9.1,36.9-14.2,44-42
	c3.1-12-0.3-25.1-7-33c-7.5-8.8-21-13.3-37.3-12.4l0,0c-16.4,0.9-35.6,7.3-54.5,20.1c4.5-3.5,9.4-6.9,14.5-10
	c3.7-2.3,7.5-4.5,11.6-6.5C183.8,30.9,198,26,214.1,24c4.1-0.5,8.2-0.8,12.2-1c55.8-1.8,99.9,32.5,122.8,50.4
	c3.1,2.4,6.1,4.9,9.2,7.4C381.9,100.8,404.8,125.9,424.7,153.8z"/>
<rect x="182.4" y="347.1" class="st5" width="293.4" height="90"/>
<rect x="179.2" y="352.8" class="st5" width="313.1" height="96"/>
<g id="g4484" transform="translate(0.03125,0.2939197)">
	<g id="g4454" transform="translate(-10,-4)">
		<g id="g4456" transform="matrix(1,0,0,0.99718653,0,-25.821238)">
			<path id="path4458" class="st6" d="M172,215.7c-4.3,0-7.8,3.5-7.8,7.8v90.3c0,4.3,3.5,7.8,7.8,7.8H274c4.3,0,7.8-3.5,7.8-7.8
				v-90.3c0-4.3-3.5-7.8-7.8-7.8C274,215.7,172,215.7,172,215.7z M178.8,238.8h87.9c2.6,0,4.7,2.1,4.7,4.7v50.3
				c0,2.6-2.1,4.7-4.7,4.7h-87.9c-2.6,0-4.7-2.1-4.7-4.7v-50.3C174.2,240.8,176.2,238.8,178.8,238.8z"/>
			<path id="path4460" class="st6" d="M172.3,216.1c-4.3,0-7.7,3.5-7.7,7.7v89.6c0,4.3,3.5,7.7,7.7,7.7h101.3c4.3,0,7.7-3.5,7.7-7.7
				v-89.6c0-4.3-3.5-7.7-7.7-7.7H172.3z M179.1,239h87.3c2.5,0,4.6,2.1,4.6,4.6v50c0,2.5-2.1,4.6-4.6,4.6h-87.3
				c-2.5,0-4.6-2.1-4.6-4.6v-50C174.5,241.1,176.5,239,179.1,239z"/>
			<path id="path4462" class="st6" d="M172.6,216.5c-4.2,0-7.6,3.4-7.6,7.6v89.1c0,4.2,3.4,7.6,7.6,7.6h100.6c4.2,0,7.6-3.4,7.6-7.6
				v-89.1c0-4.2-3.4-7.6-7.6-7.6C273.3,216.5,172.6,216.5,172.6,216.5z M179.4,239.2H266c2.5,0,4.6,2.1,4.6,4.6v49.7
				c0,2.5-2.1,4.6-4.6,4.6h-86.6c-2.5,0-4.6-2.1-4.6-4.6v-49.7C174.8,241.3,176.9,239.2,179.4,239.2z"/>
			<path id="path4464" class="st6" d="M173,216.9c-4.2,0-7.6,3.4-7.6,7.6v88.4c0,4.2,3.4,7.6,7.6,7.6h99.9c4.2,0,7.6-3.4,7.6-7.6
				v-88.5c0-4.2-3.4-7.6-7.6-7.6C272.9,216.9,173,216.9,173,216.9z M179.7,239.4h86c2.5,0,4.6,2.1,4.6,4.6v49.2
				c0,2.5-2.1,4.6-4.6,4.6h-86c-2.5,0-4.6-2.1-4.6-4.6v-49.3C175.2,241.4,177.2,239.4,179.7,239.4z"/>
			<path id="path4466" class="st6" d="M173.4,217.2c-4.1,0-7.6,3.4-7.6,7.6v87.7c0,4.1,3.4,7.6,7.6,7.6h99.2c4.1,0,7.6-3.4,7.6-7.6
				v-87.7c0-4.1-3.4-7.6-7.6-7.6H173.4z M180,239.7h85.4c2.5,0,4.5,2,4.5,4.5v48.9c0,2.5-2,4.5-4.5,4.5H180c-2.5,0-4.5-2-4.5-4.5
				v-48.9C175.5,241.7,177.6,239.7,180,239.7z"/>
			<path id="path4468" class="st6" d="M173.7,217.6c-4.1,0-7.5,3.3-7.5,7.5v87.1c0,4.1,3.3,7.5,7.5,7.5h98.5c4.1,0,7.5-3.3,7.5-7.5
				v-87.1c0-4.1-3.3-7.5-7.5-7.5C272.2,217.6,173.7,217.6,173.7,217.6z M180.4,239.8h84.8c2.4,0,4.5,2,4.5,4.5v48.6
				c0,2.4-2,4.5-4.5,4.5h-84.8c-2.4,0-4.5-2-4.5-4.5v-48.6C175.9,241.9,177.9,239.8,180.4,239.8z"/>
			<path id="path4470" class="st6" d="M174.1,218c-4.1,0-7.4,3.3-7.4,7.4v86.5c0,4.1,3.3,7.4,7.4,7.4h97.7c4.1,0,7.4-3.3,7.4-7.4
				v-86.5c0-4.1-3.3-7.4-7.4-7.4H174.1z M180.7,240h84.1c2.4,0,4.4,2,4.4,4.4v48.2c0,2.4-2,4.4-4.4,4.4h-84.1c-2.4,0-4.4-2-4.4-4.4
				v-48.2C176.2,242,178.2,240,180.7,240z"/>
		</g>
		<path id="path4472" class="st7" d="M174.5,191.7c-4.1,0-7.4,3.3-7.4,7.4v85.6c0,4.1,3.3,7.4,7.4,7.4h96.8c4.1,0,7.4-3.3,7.4-7.4
			V199c0-4.1-3.3-7.4-7.4-7.4C271.4,191.7,174.5,191.7,174.5,191.7z M181.1,213.5h83.4c2.4,0,4.4,2,4.4,4.4v47.8
			c0,2.4-2,4.4-4.4,4.4h-83.4c-2.4,0-4.4-2-4.4-4.4V218C176.6,215.5,178.6,213.5,181.1,213.5z"/>
		<path id="rect4474" class="st8" d="M181.1,213.6h83.5c2.4,0,4.4,2,4.4,4.4v47.7c0,2.4-2,4.4-4.4,4.4h-83.5c-2.4,0-4.4-2-4.4-4.4
			V218C176.6,215.6,178.6,213.6,181.1,213.6z"/>
		<path id="rect4476" class="st7" d="M181.9,216.1h82c1.6,0,2.7,1.3,2.7,2.7V265c0,1.6-1.3,2.7-2.7,2.7h-82c-1.6,0-2.7-1.3-2.7-2.7
			v-46.1C179.1,217.3,180.3,216.1,181.9,216.1z"/>
	</g>
	<g id="g4441">
		<g id="g4432" transform="matrix(1,0,0,0.99718653,0,-25.821238)">
			<path id="path4430" class="st6" d="M229.3,238.7c-4.3,0-7.8,3.5-7.8,7.8v90.3c0,4.3,3.5,7.8,7.8,7.8h102.1c4.3,0,7.8-3.5,7.8-7.8
				v-90.3c0-4.3-3.5-7.8-7.8-7.8C331.4,238.7,229.3,238.7,229.3,238.7z M236.2,261.8h87.9c2.6,0,4.7,2.1,4.7,4.7v50.3
				c0,2.6-2.1,4.7-4.7,4.7h-87.9c-2.6,0-4.7-2.1-4.7-4.7v-50.3C231.5,263.9,233.6,261.8,236.2,261.8z"/>
			<path id="path4428" class="st6" d="M229.7,239.1c-4.3,0-7.7,3.5-7.7,7.7v89.6c0,4.3,3.5,7.7,7.7,7.7H331c4.3,0,7.7-3.5,7.7-7.7
				v-89.6c0-4.3-3.5-7.7-7.7-7.7L229.7,239.1L229.7,239.1z M236.5,262h87.3c2.5,0,4.6,2.1,4.6,4.6v50c0,2.5-2.1,4.6-4.6,4.6h-87.3
				c-2.5,0-4.6-2.1-4.6-4.6v-50C231.8,264.1,234,262,236.5,262z"/>
			<path id="path4426" class="st6" d="M230.1,239.5c-4.2,0-7.6,3.4-7.6,7.6v89.1c0,4.2,3.4,7.6,7.6,7.6h100.6c4.2,0,7.6-3.4,7.6-7.6
				v-89.1c0-4.2-3.4-7.6-7.6-7.6H230.1z M236.8,262.2h86.6c2.5,0,4.6,2.1,4.6,4.6v49.7c0,2.5-2.1,4.6-4.6,4.6h-86.6
				c-2.5,0-4.6-2.1-4.6-4.6v-49.7C232.2,264.3,234.3,262.2,236.8,262.2z"/>
			<path id="path4424" class="st6" d="M230.4,239.9c-4.2,0-7.6,3.4-7.6,7.6v88.4c0,4.2,3.4,7.6,7.6,7.6h99.9c4.2,0,7.6-3.4,7.6-7.6
				v-88.5c0-4.2-3.4-7.6-7.6-7.6C330.3,239.9,230.4,239.9,230.4,239.9z M237.1,262.4h86c2.5,0,4.6,2.1,4.6,4.6v49.3
				c0,2.5-2.1,4.6-4.6,4.6h-86c-2.5,0-4.6-2.1-4.6-4.6V267C232.6,264.4,234.6,262.4,237.1,262.4z"/>
			<path id="path4422" class="st6" d="M230.7,240.2c-4.1,0-7.6,3.4-7.6,7.6v87.8c0,4.1,3.4,7.6,7.6,7.6h99.2c4.1,0,7.6-3.4,7.6-7.6
				v-87.8c0-4.1-3.4-7.6-7.6-7.6H230.7z M237.5,262.7h85.4c2.5,0,4.5,2,4.5,4.5v48.9c0,2.5-2,4.5-4.5,4.5h-85.4
				c-2.5,0-4.5-2-4.5-4.5v-48.9C232.9,264.7,234.9,262.7,237.5,262.7z"/>
			<path id="path4420" class="st6" d="M231.1,240.6c-4.1,0-7.5,3.3-7.5,7.5v87.1c0,4.1,3.3,7.5,7.5,7.5h98.5c4.1,0,7.5-3.3,7.5-7.5
				v-87.1c0-4.1-3.3-7.5-7.5-7.5C329.6,240.6,231.1,240.6,231.1,240.6z M237.8,262.8h84.8c2.4,0,4.5,2,4.5,4.5v48.6
				c0,2.4-2,4.5-4.5,4.5h-84.8c-2.4,0-4.5-2-4.5-4.5v-48.6C233.2,264.9,235.2,262.8,237.8,262.8z"/>
			<path id="path4416" class="st6" d="M231.5,241c-4.1,0-7.4,3.3-7.4,7.4v86.5c0,4.1,3.3,7.4,7.4,7.4h97.7c4.1,0,7.4-3.3,7.4-7.4
				v-86.5c0-4.1-3.3-7.4-7.4-7.4H231.5z M238.1,263h84.1c2.4,0,4.4,2,4.4,4.4v48.2c0,2.4-2,4.4-4.4,4.4h-84.1c-2.4,0-4.4-2-4.4-4.4
				v-48.2C233.6,265,235.6,263,238.1,263z"/>
		</g>
		<path id="rect4326" class="st7" d="M231.9,214.7c-4.1,0-7.4,3.3-7.4,7.4v85.7c0,4.1,3.3,7.4,7.4,7.4h96.8c4.1,0,7.4-3.3,7.4-7.4
			V222c0-4.1-3.3-7.4-7.4-7.4C328.7,214.7,231.9,214.7,231.9,214.7z M238.4,236.5h83.4c2.4,0,4.4,2,4.4,4.4v47.8
			c0,2.4-2,4.4-4.4,4.4h-83.4c-2.4,0-4.4-2-4.4-4.4v-47.8C234.1,238.5,236,236.5,238.4,236.5z"/>
		<path id="rect4336" class="st8" d="M238.4,236.6h83.5c2.4,0,4.4,2,4.4,4.4v47.7c0,2.4-2,4.4-4.4,4.4h-83.5c-2.4,0-4.4-2-4.4-4.4
			v-47.7C234.1,238.6,236,236.6,238.4,236.6z"/>
		<path id="rect4346" class="st7" d="M239.2,239.1h82c1.6,0,2.7,1.3,2.7,2.7v46.1c0,1.6-1.3,2.7-2.7,2.7h-82c-1.6,0-2.7-1.3-2.7-2.7
			v-46.1C236.5,240.3,237.8,239.1,239.2,239.1z"/>
	</g>
</g>
<g class="st9">
	<path class="st2" d="M158.1,370.6c3.9-0.7,9-1.2,15.5-1.2c8,0,13.8,1.9,17.5,5.2c3.4,3,5.5,7.5,5.5,13c0,5.6-1.7,10.1-4.8,13.3
		c-4.3,4.5-11.2,6.9-19.1,6.9c-2.4,0-4.7-0.1-6.5-0.6v25H158L158.1,370.6L158.1,370.6z M166.2,400.7c1.8,0.4,4,0.7,6.7,0.7
		c9.7,0,15.6-4.7,15.6-13.3c0-8.2-5.8-12.2-14.7-12.2c-3.6,0-6.2,0.3-7.6,0.7L166.2,400.7L166.2,400.7z"/>
	<path class="st2" d="M207.3,370.6c3.9-0.7,9-1.2,15.5-1.2c8,0,13.8,1.9,17.5,5.2c3.4,3,5.5,7.5,5.5,13c0,5.6-1.7,10.1-4.8,13.3
		c-4.3,4.5-11.2,6.9-19.1,6.9c-2.4,0-4.7-0.1-6.5-0.6v25h-8.1L207.3,370.6L207.3,370.6z M215.4,400.7c1.8,0.4,4,0.7,6.7,0.7
		c9.7,0,15.6-4.7,15.6-13.3c0-8.2-5.8-12.2-14.7-12.2c-3.6,0-6.2,0.3-7.6,0.7L215.4,400.7L215.4,400.7z"/>
	<path class="st2" d="M268.4,376.7h-19v-6.9h46.2v6.9h-19.1v55.5h-8.1V376.7z"/>
	<path class="st2" d="M338.7,432.2l-8-13.8c-3.3-5.3-5.3-8.7-7.3-12.3h-0.2c-1.8,3.6-3.6,7-6.7,12.4l-7.5,13.7h-9.3l19.1-31.5
		L300.5,370h9.3l8.2,14.7c2.3,4.1,4.1,7.3,5.8,10.6h0.3c1.8-3.7,3.3-6.6,5.6-10.6l8.5-14.7h9.3l-19,30.4l19.5,32.1h-9.3V432.2z"/>
</g>
</svg>
