<?xml version="1.0" encoding="utf-8"?>
<!-- Generator: Adobe Illustrator 24.0.1, SVG Export Plug-In . SVG Version: 6.00 Build 0)  -->
<svg version="1.1" id="Layer_1" xmlns="http://www.w3.org/2000/svg" xmlns:xlink="http://www.w3.org/1999/xlink" x="0px" y="0px"
	 viewBox="0 0 512 512" style="enable-background:new 0 0 512 512;" xml:space="preserve">
<style type="text/css">
	.st0{fill:#FFFFFF;stroke:#262626;stroke-miterlimit:10;}
	.st1{display:none;fill:#1AA6F7;}
	.st2{fill:#0086FF;}
	.st3{opacity:0.3;fill:#7C7C7C;enable-background:new    ;}
	.st4{fill:#D8D8D8;}
	.st5{fill:none;}
	.st6{display:none;opacity:0.4;fill:#CAEDC5;stroke:#0092FF;stroke-miterlimit:10;enable-background:new    ;}
	.st7{fill:none;stroke:#0092FF;stroke-width:0.7962;stroke-linecap:round;}
	.st8{opacity:0.67;enable-background:new    ;}
</style>
<path class="st0" d="M473.1,399.4c-72.8,120-374.9,111.4-443.4-31.8C-15,274.1,51.5,147.8,110.9,85.5C120,76,131.2,64.4,145,53.8
	l0,0c4.5-3.5,9.4-6.9,14.5-10c3.7-2.3,7.5-4.5,11.6-6.5c12.7-6.4,26.9-11.3,43-13.3c4.1-0.5,8.2-0.8,12.2-1
	c55.8-1.8,99.9,32.5,122.8,50.4c3.1,2.4,6.1,4.9,9.2,7.4c23.6,19.9,46.5,45.1,66.4,73l0,0C480.8,232.6,513.3,333.2,473.1,399.4z"/>
<path class="st1" d="M480.8,399.4C408,519.4,106,510.8,37.4,367.6C31,354,26.8,339.8,24.7,325.1c-2.9-19.3-2.3-39.3,0.9-59.3
	c4.1-25.4,12.3-50.8,23.1-74.8c18.7-41.7,45-79.3,70-105.5c21.1-22.1,53.5-55.2,103.2-61.5c45.8-5.8,84.6,13.8,111.6,32.1
	c9.3,6.3,17.1,12.4,23.4,17.3c0.4,0.3,0.8,0.6,1.2,0.9c36.7,28.9,72,70.8,98.1,116.7c10,17.6,18.6,35.8,25.5,54
	c2.8,7.5,5.3,15,7.5,22.5c2.1,7.3,3.9,14.5,5.3,21.8c1.8,9.2,3.1,18.2,3.8,27.1C500.4,346.8,495.4,375.4,480.8,399.4z"/>
<path class="st2" d="M236.1,23.1"/>
<path class="st3" d="M416.5,153.8L416.5,153.8c-179.7-10.9-224.4-22.9-224.7-32.8c-0.3-9.1,36.9-14.2,44-42c3.1-12-0.3-25.1-7-33
	c-6.2-7.3-16.5-11.7-29.1-12.4l0,0c-8.6-0.5-18.3,0.6-28.5,3.6C183.8,30.9,198,26,214.1,24c4.1-0.5,8.2-0.8,12.2-1
	c51.9,1.6,92.9,33.4,114.6,50.4c3.1,2.4,6.1,4.9,9.2,7.4c23.5,19.8,46.2,44.8,66,72.4C416.2,153.5,416.3,153.6,416.5,153.8z"/>
<path class="st4" d="M424.7,153.8L424.7,153.8c-2.9-0.2-5.7-0.3-8.6-0.5C243.5,142.5,200.3,130.8,200,121c-0.3-9.1,36.9-14.2,44-42
	c3.1-12-0.3-25.1-7-33c-7.5-8.8-21-13.3-37.3-12.4l0,0c-16.4,0.9-35.6,7.3-54.5,20.1c4.5-3.5,9.4-6.9,14.5-10
	c3.7-2.3,7.5-4.5,11.6-6.5C183.8,30.9,198,26,214.1,24c4.1-0.5,8.2-0.8,12.2-1c55.8-1.8,99.9,32.5,122.8,50.4
	c3.1,2.4,6.1,4.9,9.2,7.4C381.9,100.8,404.8,125.9,424.7,153.8z"/>
<rect x="182.4" y="347.1" class="st5" width="293.4" height="90"/>
<rect x="179.2" y="352.8" class="st5" width="313.1" height="96"/>
<g>
	<path id="path3897" class="st6" d="M180.3,204.4h21.8v151.4h-21.8V204.4z M202.1,204.4l129.7,0.1v21.4l-129.7-0.3V204.4z"/>
	<g id="g4075">
		<g id="g4071">
			<path id="path4051" class="st7" d="M286.1,338.1V191"/>
			<path id="path4038" class="st7" d="M242.8,338.1V191"/>
		</g>
		<g id="g4064">
			<path id="path4023" class="st7" d="M327.4,315.9H184.6"/>
			<path id="path3611" class="st7" d="M327.4,229.4H184.6"/>
			<path id="path4017" class="st7" d="M327.4,251H184.6"/>
			<path id="path4019" class="st7" d="M327.4,272.7H184.6"/>
			<path id="path4021" class="st7" d="M327.4,294.3H184.6"/>
		</g>
	</g>
	<path id="rect3580" class="st7" d="M182.5,191h147.1v147.1H182.5V191z M329.5,207.9H182.5 M200,191.1v147.1"/>
</g>
<g class="st8">
	<g>
		<path class="st2" d="M230.1,419.8l-7.1-12.3c-2.9-4.7-4.7-7.8-6.5-11h-0.1c-1.6,3.2-3.2,6.2-6,11.1l-6.7,12.2h-8.3l17.1-28.2
			L196,364.2h8.3l7.3,13.1c2.1,3.6,3.6,6.5,5.2,9.5h0.3c1.6-3.3,3-5.9,5-9.5l7.6-13.1h8.3L221,391.3l17.4,28.7h-8.4V419.8z"/>
		<path class="st2" d="M246.7,364.1h7.2v49.7h23.8v6h-31V364.1z"/>
		<path class="st2" d="M284.8,411.1c3.2,2,7.9,3.6,12.9,3.6c7.3,0,11.7-3.9,11.7-9.5c0-5.2-3-8.2-10.5-11.1
			c-9.1-3.2-14.8-7.9-14.8-15.8c0-8.7,7.2-15.2,18.1-15.2c5.7,0,9.9,1.3,12.3,2.7l-2,5.9c-1.9-1-5.6-2.6-10.6-2.6
			c-7.6,0-10.5,4.6-10.5,8.3c0,5.2,3.4,7.8,11.1,10.8c9.5,3.6,14.2,8.2,14.2,16.4c0,8.6-6.4,16.1-19.5,16.1
			c-5.4,0-11.3-1.6-14.2-3.6L284.8,411.1z"/>
	</g>
	<g>
		<path class="st2" d="M230.1,419.8l-7.1-12.3c-2.9-4.7-4.7-7.8-6.5-11h-0.1c-1.6,3.2-3.2,6.2-6,11.1l-6.7,12.2h-8.3l17.1-28.2
			L196,364.2h8.3l7.3,13.1c2.1,3.6,3.6,6.5,5.2,9.5h0.3c1.6-3.3,3-5.9,5-9.5l7.6-13.1h8.3L221,391.3l17.4,28.7h-8.4V419.8z"/>
		<path class="st2" d="M246.7,364.1h7.2v49.7h23.8v6h-31V364.1z"/>
		<path class="st2" d="M284.8,411.1c3.2,2,7.9,3.6,12.9,3.6c7.3,0,11.7-3.9,11.7-9.5c0-5.2-3-8.2-10.5-11.1
			c-9.1-3.2-14.8-7.9-14.8-15.8c0-8.7,7.2-15.2,18.1-15.2c5.7,0,9.9,1.3,12.3,2.7l-2,5.9c-1.9-1-5.6-2.6-10.6-2.6
			c-7.6,0-10.5,4.6-10.5,8.3c0,5.2,3.4,7.8,11.1,10.8c9.5,3.6,14.2,8.2,14.2,16.4c0,8.6-6.4,16.1-19.5,16.1
			c-5.4,0-11.3-1.6-14.2-3.6L284.8,411.1z"/>
	</g>
</g>
</svg>
