<?xml version="1.0" encoding="utf-8"?>
<!-- Generator: Adobe Illustrator 24.0.1, SVG Export Plug-In . SVG Version: 6.00 Build 0)  -->
<svg version="1.1" id="Layer_1" xmlns="http://www.w3.org/2000/svg" xmlns:xlink="http://www.w3.org/1999/xlink" x="0px" y="0px"
	 viewBox="0 0 512 512" style="enable-background:new 0 0 512 512;" xml:space="preserve">
<style type="text/css">
	.st0{fill:#FFFFFF;stroke:#262626;stroke-miterlimit:10;}
	.st1{display:none;fill:#1AA6F7;}
	.st2{fill:#0086FF;}
	.st3{opacity:0.3;fill:#7C7C7C;enable-background:new    ;}
	.st4{fill:#D8D8D8;}
	.st5{fill:none;}
	.st6{opacity:2.999998e-02;fill:#FFFFFF;stroke:#009EFF;stroke-miterlimit:10;enable-background:new    ;}
	.st7{fill:#FFFFFF;stroke:#009EFF;stroke-miterlimit:10;}
	.st8{opacity:0.8;fill:#FFFFFF;stroke:#009EFF;stroke-miterlimit:10;enable-background:new    ;}
	.st9{enable-background:new    ;}
</style>
<path class="st0" d="M473.1,399.4c-72.8,120-374.9,111.4-443.4-31.8C-15,274.1,51.5,147.8,110.9,85.5C120,76,131.2,64.4,145,53.8
	l0,0c4.5-3.5,9.4-6.9,14.5-10c3.7-2.3,7.5-4.5,11.6-6.5c12.7-6.4,26.9-11.3,43-13.3c4.1-0.5,8.2-0.8,12.2-1
	c55.8-1.8,99.9,32.5,122.8,50.4c3.1,2.4,6.1,4.9,9.2,7.4c23.6,19.9,46.5,45.1,66.4,73l0,0C480.8,232.6,513.3,333.2,473.1,399.4z"/>
<path class="st1" d="M480.8,399.4C408,519.4,106,510.8,37.4,367.6C31,354,26.8,339.8,24.7,325.1c-2.9-19.3-2.3-39.3,0.9-59.3
	c4.1-25.4,12.3-50.8,23.1-74.8c18.7-41.7,45-79.3,70-105.5c21.1-22.1,53.5-55.2,103.2-61.5c45.8-5.8,84.6,13.8,111.6,32.1
	c9.3,6.3,17.1,12.4,23.4,17.3c0.4,0.3,0.8,0.6,1.2,0.9c36.7,28.9,72,70.8,98.1,116.7c10,17.6,18.6,35.8,25.5,54
	c2.8,7.5,5.3,15,7.5,22.5c2.1,7.3,3.9,14.5,5.3,21.8c1.8,9.2,3.1,18.2,3.8,27.1C500.4,346.8,495.4,375.4,480.8,399.4z"/>
<path class="st2" d="M236.1,23.1"/>
<path class="st3" d="M416.5,153.8L416.5,153.8c-179.7-10.9-224.4-22.9-224.7-32.8c-0.3-9.1,36.9-14.2,44-42c3.1-12-0.3-25.1-7-33
	c-6.2-7.3-16.5-11.7-29.1-12.4l0,0c-8.6-0.5-18.3,0.6-28.5,3.6C183.8,30.9,198,26,214.1,24c4.1-0.5,8.2-0.8,12.2-1
	c51.9,1.6,92.9,33.4,114.6,50.4c3.1,2.4,6.1,4.9,9.2,7.4c23.5,19.8,46.2,44.8,66,72.4C416.2,153.5,416.3,153.6,416.5,153.8z"/>
<path class="st4" d="M424.7,153.8L424.7,153.8c-2.9-0.2-5.7-0.3-8.6-0.5C243.5,142.5,200.3,130.8,200,121c-0.3-9.1,36.9-14.2,44-42
	c3.1-12-0.3-25.1-7-33c-7.5-8.8-21-13.3-37.3-12.4l0,0c-16.4,0.9-35.6,7.3-54.5,20.1c4.5-3.5,9.4-6.9,14.5-10
	c3.7-2.3,7.5-4.5,11.6-6.5C183.8,30.9,198,26,214.1,24c4.1-0.5,8.2-0.8,12.2-1c55.8-1.8,99.9,32.5,122.8,50.4
	c3.1,2.4,6.1,4.9,9.2,7.4C381.9,100.8,404.8,125.9,424.7,153.8z"/>
<rect x="182.4" y="347.1" class="st5" width="293.4" height="90"/>
<rect x="179.2" y="352.8" class="st5" width="313.1" height="96"/>
<rect x="127.6" y="221.4" class="st5" width="423" height="129.7"/>
<g id="g4484" transform="translate(0.03125,0.2939197)">
	<g id="g4454" transform="translate(-10,-4)">
		<g id="g4456" transform="matrix(1,0,0,0.99718653,0,-25.821238)">
			<path id="path4458" class="st6" d="M169.7,202.7c-4.9,0-8.8,4-8.8,8.8v102.6c0,4.9,4,8.8,8.8,8.8h115.9c4.9,0,8.8-4,8.8-8.8
				V211.5c0-4.9-4-8.8-8.8-8.8C285.6,202.7,169.7,202.7,169.7,202.7z M177.6,228.9h99.8c2.9,0,5.3,2.4,5.3,5.3v57.2
				c0,2.9-2.4,5.3-5.3,5.3h-99.8c-2.9,0-5.3-2.4-5.3-5.3v-57.2C172.3,231.3,174.6,228.9,177.6,228.9z"/>
			<path id="path4460" class="st6" d="M170.2,203.2c-4.9,0-8.7,4-8.7,8.7v101.8c0,4.9,4,8.7,8.7,8.7h115.1c4.9,0,8.7-4,8.7-8.7
				V211.9c0-4.9-4-8.7-8.7-8.7H170.2z M177.9,229.2H277c2.9,0,5.2,2.4,5.2,5.2v56.8c0,2.9-2.4,5.2-5.2,5.2h-99.1
				c-2.9,0-5.2-2.4-5.2-5.2v-56.8C172.6,231.5,174.9,229.2,177.9,229.2z"/>
			<path id="path4462" class="st6" d="M170.5,203.6c-4.8,0-8.7,3.9-8.7,8.7v101.2c0,4.8,3.9,8.7,8.7,8.7h114.3
				c4.8,0,8.7-3.9,8.7-8.7V212.3c0-4.8-3.9-8.7-8.7-8.7C284.8,203.6,170.5,203.6,170.5,203.6z M178.2,229.4h98.4
				c2.9,0,5.2,2.4,5.2,5.2v56.4c0,2.9-2.4,5.2-5.2,5.2h-98.4c-2.9,0-5.2-2.4-5.2-5.2v-56.4C173,231.8,175.4,229.4,178.2,229.4z"/>
			<path id="path4464" class="st6" d="M170.9,204c-4.8,0-8.7,3.9-8.7,8.7v100.4c0,4.8,3.9,8.7,8.7,8.7h113.5c4.8,0,8.7-3.9,8.7-8.7
				V212.6c0-4.8-3.9-8.7-8.7-8.7C284.4,204,170.9,204,170.9,204z M178.6,229.7h97.7c2.9,0,5.2,2.4,5.2,5.2v55.9
				c0,2.9-2.4,5.2-5.2,5.2h-97.7c-2.9,0-5.2-2.4-5.2-5.2v-56C173.4,232,175.7,229.7,178.6,229.7z"/>
			<path id="path4466" class="st6" d="M171.3,204.5c-4.7,0-8.6,3.9-8.6,8.6v99.6c0,4.7,3.9,8.6,8.6,8.6H284c4.7,0,8.6-3.9,8.6-8.6
				V213c0-4.7-3.9-8.6-8.6-8.6H171.3z M178.9,229.9h97c2.9,0,5.1,2.3,5.1,5.1v55.6c0,2.9-2.3,5.1-5.1,5.1h-97
				c-2.9,0-5.1-2.3-5.1-5.1v-55.6C173.8,232.2,176.1,229.9,178.9,229.9z"/>
			<path id="path4468" class="st6" d="M171.8,204.9c-4.7,0-8.5,3.8-8.5,8.5v99c0,4.7,3.8,8.5,8.5,8.5h111.8c4.7,0,8.5-3.8,8.5-8.5
				v-99c0-4.7-3.8-8.5-8.5-8.5C283.6,204.9,171.8,204.9,171.8,204.9z M179.3,230.1h96.3c2.8,0,5.1,2.3,5.1,5.1v55.2
				c0,2.8-2.3,5.1-5.1,5.1h-96.3c-2.8,0-5.1-2.3-5.1-5.1v-55.2C174.2,232.5,176.5,230.1,179.3,230.1z"/>
			<path id="path4470" class="st6" d="M172.2,205.3c-4.7,0-8.4,3.8-8.4,8.4v98.2c0,4.7,3.8,8.4,8.4,8.4h111c4.7,0,8.4-3.8,8.4-8.4
				v-98.2c0-4.7-3.8-8.4-8.4-8.4H172.2z M179.7,230.4h95.5c2.8,0,5,2.3,5,5v54.7c0,2.8-2.3,5-5,5h-95.5c-2.8,0-5-2.3-5-5v-54.7
				C174.6,232.6,176.9,230.4,179.7,230.4z"/>
		</g>
		<path id="path4472" class="st7" d="M172.7,179.1c-4.6,0-8.4,3.7-8.4,8.4v97.3c0,4.6,3.7,8.4,8.4,8.4h110c4.6,0,8.4-3.7,8.4-8.4
			v-97.4c0-4.6-3.7-8.4-8.4-8.4C282.7,179.1,172.7,179.1,172.7,179.1z M180.1,203.9h94.7c2.8,0,5,2.3,5,5v54.3c0,2.8-2.3,5-5,5
			h-94.7c-2.8,0-5-2.3-5-5V209C175,206.2,177.3,203.9,180.1,203.9z"/>
		<path id="rect4474" class="st8" d="M180.1,204h94.8c2.8,0,5,2.3,5,5v54.2c0,2.8-2.3,5-5,5h-94.8c-2.8,0-5-2.3-5-5V209
			C175,206.3,177.3,204,180.1,204z"/>
		<path id="rect4476" class="st7" d="M181,206.9h93.2c1.8,0,3.1,1.4,3.1,3.1v52.4c0,1.8-1.4,3.1-3.1,3.1H181c-1.8,0-3.1-1.4-3.1-3.1
			V210C177.9,208.2,179.2,206.9,181,206.9z"/>
	</g>
	<g id="g4441">
		<g id="g4432" transform="matrix(1,0,0,0.99718653,0,-25.821238)">
			<path id="path4430" class="st6" d="M236.3,229.4c-4.9,0-8.8,4-8.8,8.8v102.6c0,4.9,4,8.8,8.8,8.8h115.9c4.9,0,8.8-4,8.8-8.8
				V238.2c0-4.9-4-8.8-8.8-8.8C352.2,229.4,236.3,229.4,236.3,229.4z M244.1,255.6h99.8c2.9,0,5.3,2.4,5.3,5.3v57.2
				c0,2.9-2.4,5.3-5.3,5.3h-99.8c-2.9,0-5.3-2.4-5.3-5.3v-57.2C238.8,258,241.1,255.6,244.1,255.6z"/>
			<path id="path4428" class="st6" d="M236.7,229.8c-4.9,0-8.7,4-8.7,8.7v101.8c0,4.9,4,8.7,8.7,8.7h115.1c4.9,0,8.7-4,8.7-8.7
				V238.6c0-4.9-4-8.7-8.7-8.7L236.7,229.8L236.7,229.8z M244.4,255.9h99.1c2.9,0,5.2,2.4,5.2,5.2v56.8c0,2.9-2.4,5.2-5.2,5.2h-99.1
				c-2.9,0-5.2-2.4-5.2-5.2v-56.8C239.1,258.2,241.5,255.9,244.4,255.9z"/>
			<path id="path4426" class="st6" d="M237.1,230.3c-4.8,0-8.7,3.9-8.7,8.7v101.2c0,4.8,3.9,8.7,8.7,8.7h114.3
				c4.8,0,8.7-3.9,8.7-8.7V239c0-4.8-3.9-8.7-8.7-8.7H237.1z M244.7,256.1h98.4c2.9,0,5.2,2.4,5.2,5.2v56.4c0,2.9-2.4,5.2-5.2,5.2
				h-98.4c-2.9,0-5.2-2.4-5.2-5.2v-56.4C239.5,258.5,241.9,256.1,244.7,256.1z"/>
			<path id="path4424" class="st6" d="M237.4,230.7c-4.8,0-8.7,3.9-8.7,8.7v100.4c0,4.8,3.9,8.7,8.7,8.7h113.5
				c4.8,0,8.7-3.9,8.7-8.7V239.3c0-4.8-3.9-8.7-8.7-8.7C350.9,230.7,237.4,230.7,237.4,230.7z M245.1,256.4h97.7
				c2.9,0,5.2,2.4,5.2,5.2v56c0,2.9-2.4,5.2-5.2,5.2h-97.7c-2.9,0-5.2-2.4-5.2-5.2v-56C240,258.6,242.2,256.4,245.1,256.4z"/>
			<path id="path4422" class="st6" d="M237.8,231.2c-4.7,0-8.6,3.9-8.6,8.6v99.7c0,4.7,3.9,8.6,8.6,8.6h112.7c4.7,0,8.6-3.9,8.6-8.6
				v-99.7c0-4.7-3.9-8.6-8.6-8.6H237.8z M245.5,256.6h97c2.9,0,5.1,2.3,5.1,5.1v55.6c0,2.9-2.3,5.1-5.1,5.1h-97
				c-2.9,0-5.1-2.3-5.1-5.1v-55.6C240.3,258.9,242.6,256.6,245.5,256.6z"/>
			<path id="path4420" class="st6" d="M238.3,231.6c-4.7,0-8.5,3.8-8.5,8.5v99c0,4.7,3.8,8.5,8.5,8.5h111.8c4.7,0,8.5-3.8,8.5-8.5
				v-99c0-4.7-3.8-8.5-8.5-8.5C350.1,231.6,238.3,231.6,238.3,231.6z M245.8,256.8h96.3c2.8,0,5.1,2.3,5.1,5.1v55.2
				c0,2.8-2.3,5.1-5.1,5.1h-96.3c-2.8,0-5.1-2.3-5.1-5.1v-55.2C240.7,259.2,243,256.8,245.8,256.8z"/>
			<path id="path4416" class="st6" d="M238.7,232c-4.7,0-8.4,3.8-8.4,8.4v98.2c0,4.7,3.8,8.4,8.4,8.4h111c4.7,0,8.4-3.8,8.4-8.4
				v-98.2c0-4.7-3.8-8.4-8.4-8.4H238.7z M246.2,257h95.5c2.8,0,5,2.3,5,5v54.7c0,2.8-2.3,5-5,5h-95.5c-2.8,0-5-2.3-5-5v-54.7
				C241.1,259.3,243.4,257,246.2,257z"/>
		</g>
		<path id="rect4326" class="st7" d="M239.2,205.7c-4.6,0-8.4,3.7-8.4,8.4v97.4c0,4.6,3.7,8.4,8.4,8.4h110c4.6,0,8.4-3.7,8.4-8.4
			V214c0-4.6-3.7-8.4-8.4-8.4C349.2,205.7,239.2,205.7,239.2,205.7z M246.6,230.5h94.7c2.8,0,5,2.3,5,5v54.3c0,2.8-2.3,5-5,5h-94.7
			c-2.8,0-5-2.3-5-5v-54.3C241.6,232.8,243.8,230.5,246.6,230.5z"/>
		<path id="rect4336" class="st8" d="M246.6,230.6h94.8c2.8,0,5,2.3,5,5v54.2c0,2.8-2.3,5-5,5h-94.8c-2.8,0-5-2.3-5-5v-54.2
			C241.6,232.9,243.8,230.6,246.6,230.6z"/>
		<path id="rect4346" class="st7" d="M247.5,233.5h93.2c1.8,0,3.1,1.4,3.1,3.1V289c0,1.8-1.4,3.1-3.1,3.1h-93.2
			c-1.8,0-3.1-1.4-3.1-3.1v-52.4C244.4,234.8,245.8,233.5,247.5,233.5z"/>
	</g>
</g>
<g class="st9">
	<path class="st2" d="M176.1,380.1c4.5-0.8,10.2-1.3,17.6-1.3c9.1,0,15.6,2.1,19.8,5.9c3.9,3.4,6.2,8.5,6.2,14.8
		c0,6.4-1.9,11.4-5.5,15.1c-4.9,5.1-12.7,7.8-21.7,7.8c-2.8,0-5.3-0.1-7.4-0.7v28.4H176L176.1,380.1L176.1,380.1z M185.2,414.3
		c2,0.5,4.5,0.8,7.6,0.8c11,0,17.7-5.4,17.7-15.1c0-9.3-6.6-13.9-16.7-13.9c-4,0-7.1,0.3-8.7,0.8L185.2,414.3L185.2,414.3z"/>
	<path class="st2" d="M232,380.1c4.5-0.8,10.2-1.3,17.6-1.3c9.1,0,15.6,2.1,19.8,5.9c3.9,3.4,6.2,8.5,6.2,14.8
		c0,6.4-1.9,11.4-5.5,15.1c-4.9,5.1-12.7,7.8-21.7,7.8c-2.8,0-5.3-0.1-7.4-0.7v28.4h-9.2L232,380.1L232,380.1z M241.1,414.3
		c2,0.5,4.5,0.8,7.6,0.8c11,0,17.7-5.4,17.7-15.1c0-9.3-6.6-13.9-16.7-13.9c-4,0-7.1,0.3-8.7,0.8L241.1,414.3L241.1,414.3z"/>
	<path class="st2" d="M301.3,387h-21.5v-7.8h52.4v7.8h-21.7v63.1h-9.2L301.3,387L301.3,387z"/>
</g>
</svg>
