<?xml version="1.0" encoding="utf-8"?>
<!-- Generator: Adobe Illustrator 24.0.1, SVG Export Plug-In . SVG Version: 6.00 Build 0)  -->
<svg version="1.1" id="Layer_1" xmlns="http://www.w3.org/2000/svg" xmlns:xlink="http://www.w3.org/1999/xlink" x="0px" y="0px"
	 viewBox="0 0 512 512" style="enable-background:new 0 0 512 512;" xml:space="preserve">
<style type="text/css">
	.st0{fill:#FFFFFF;stroke:#262626;stroke-miterlimit:10;}
	.st1{display:none;fill:#1AA6F7;}
	.st2{fill:#0086FF;}
	.st3{opacity:0.3;fill:#7C7C7C;enable-background:new    ;}
	.st4{fill:#D8D8D8;}
	.st5{enable-background:new    ;}
</style>
<path class="st0" d="M473.1,399.4c-72.8,120-374.9,111.4-443.4-31.8C-15,274.1,51.5,147.8,110.9,85.5C120,76,131.2,64.4,145,53.8
	l0,0c4.5-3.5,9.4-6.9,14.5-10c3.7-2.3,7.5-4.5,11.6-6.5c12.7-6.4,26.9-11.3,43-13.3c4.1-0.5,8.2-0.8,12.2-1
	c55.8-1.8,99.9,32.5,122.8,50.4c3.1,2.4,6.1,4.9,9.2,7.4c23.6,19.9,46.5,45.1,66.4,73l0,0C480.8,232.6,513.3,333.2,473.1,399.4z"/>
<path class="st1" d="M480.8,399.4C408,519.4,106,510.8,37.4,367.6C31,354,26.8,339.8,24.7,325.1c-2.9-19.3-2.3-39.3,0.9-59.3
	c4.1-25.4,12.3-50.8,23.1-74.8c18.7-41.7,45-79.3,70-105.5c21.1-22.1,53.5-55.2,103.2-61.5c45.8-5.8,84.6,13.8,111.6,32.1
	c9.3,6.3,17.1,12.4,23.4,17.3c0.4,0.3,0.8,0.6,1.2,0.9c36.7,28.9,72,70.8,98.1,116.7c10,17.6,18.6,35.8,25.5,54
	c2.8,7.5,5.3,15,7.5,22.5c2.1,7.3,3.9,14.5,5.3,21.8c1.8,9.2,3.1,18.2,3.8,27.1C500.4,346.8,495.4,375.4,480.8,399.4z"/>
<path class="st2" d="M236.1,23.1"/>
<path class="st3" d="M416.5,153.8L416.5,153.8c-179.7-10.9-224.4-22.9-224.7-32.8c-0.3-9.1,36.9-14.2,44-42c3.1-12-0.3-25.1-7-33
	c-6.2-7.3-16.5-11.7-29.1-12.4l0,0c-8.6-0.5-18.3,0.6-28.5,3.6C183.8,30.9,198,26,214.1,24c4.1-0.5,8.2-0.8,12.2-1
	c51.9,1.6,92.9,33.4,114.6,50.4c3.1,2.4,6.1,4.9,9.2,7.4c23.5,19.8,46.2,44.8,66,72.4C416.2,153.5,416.3,153.6,416.5,153.8z"/>
<path class="st4" d="M424.7,153.8L424.7,153.8c-2.9-0.2-5.7-0.3-8.6-0.5C243.5,142.5,200.3,130.8,200,121c-0.3-9.1,36.9-14.2,44-42
	c3.1-12-0.3-25.1-7-33c-7.5-8.8-21-13.3-37.3-12.4l0,0c-16.4,0.9-35.6,7.3-54.5,20.1c4.5-3.5,9.4-6.9,14.5-10
	c3.7-2.3,7.5-4.5,11.6-6.5C183.8,30.9,198,26,214.1,24c4.1-0.5,8.2-0.8,12.2-1c55.8-1.8,99.9,32.5,122.8,50.4
	c3.1,2.4,6.1,4.9,9.2,7.4C381.9,100.8,404.8,125.9,424.7,153.8z"/>
<g class="st5">
	<path class="st2" d="M152.4,415l-14.6-57.5h7.8l6.8,29c1.7,7.2,3.3,14.3,4.3,19.8h0.2c1-5.7,2.7-12.5,4.7-20l7.7-29h7.8l7,29.2
		c1.6,6.8,3.1,13.6,4,19.7h0.2c1.2-6.3,2.8-12.7,4.6-19.8l7.6-29h7.6l-16.3,57.5h-7.9l-7.2-29.9c-1.8-7.4-3-13-3.7-18.7h-0.2
		c-1,5.7-2.3,11.3-4.4,18.7l-8.2,29.9L152.4,415L152.4,415z"/>
	<path class="st2" d="M264.1,385.7c0,19.8-12,30.3-26.7,30.3c-15.2,0-25.8-11.8-25.8-29.2c0-18.3,11.3-30.2,26.7-30.2
		C254,356.5,264.1,368.5,264.1,385.7z M219.6,386.5c0,12.3,6.7,23.2,18.3,23.2c11.8,0,18.4-10.8,18.4-23.9c0-11.5-6-23.4-18.3-23.4
		C225.8,362.7,219.6,374,219.6,386.5z"/>
	<path class="st2" d="M273.9,357.5h30.9v6.2h-23.5v19.1H303v6.1h-21.7v26h-7.4V357.5z"/>
	<path class="st2" d="M315.3,357.5h31v6.2h-23.5v19.1h21.7v6.1h-21.7v26h-7.5V357.5z"/>
</g>
<g>
	<g>
		<path class="st2" d="M190.9,196.6l70.1-24.5l4.9,14.1l-53.2,18.7l15.1,43.2l49.2-17.2l4.8,13.9L232.6,262l20.7,58.9l-16.8,5.9
			L190.9,196.6z"/>
	</g>
</g>
</svg>
