<?xml version="1.0" encoding="utf-8"?>
<!-- Generator: Adobe Illustrator 24.0.1, SVG Export Plug-In . SVG Version: 6.00 Build 0)  -->
<svg version="1.1" id="Layer_1" xmlns="http://www.w3.org/2000/svg" xmlns:xlink="http://www.w3.org/1999/xlink" x="0px" y="0px"
	 viewBox="0 0 512 512" style="enable-background:new 0 0 512 512;" xml:space="preserve">
<style type="text/css">
	.st0{fill:#FFFFFF;stroke:#262626;stroke-miterlimit:10;}
	.st1{display:none;fill:#1AA6F7;}
	.st2{fill:#0086FF;}
	.st3{opacity:0.3;fill:#7C7C7C;enable-background:new    ;}
	.st4{fill:#D8D8D8;}
	.st5{opacity:0.67;enable-background:new    ;}
</style>
<path class="st0" d="M473.1,399.4c-72.8,120-374.9,111.4-443.4-31.8C-15,274.1,51.5,147.8,110.9,85.5C120,76,131.2,64.4,145,53.8
	l0,0c4.5-3.5,9.4-6.9,14.5-10c3.7-2.3,7.5-4.5,11.6-6.5c12.7-6.4,26.9-11.3,43-13.3c4.1-0.5,8.2-0.8,12.2-1
	c55.8-1.8,99.9,32.5,122.8,50.4c3.1,2.4,6.1,4.9,9.2,7.4c23.6,19.9,46.5,45.1,66.4,73l0,0C480.8,232.6,513.3,333.2,473.1,399.4z"/>
<path class="st1" d="M480.8,399.4C408,519.4,106,510.8,37.4,367.6C31,354,26.8,339.8,24.7,325.1c-2.9-19.3-2.3-39.3,0.9-59.3
	c4.1-25.4,12.3-50.8,23.1-74.8c18.7-41.7,45-79.3,70-105.5c21.1-22.1,53.5-55.2,103.2-61.5c45.8-5.8,84.6,13.8,111.6,32.1
	c9.3,6.3,17.1,12.4,23.4,17.3c0.4,0.3,0.8,0.6,1.2,0.9c36.7,28.9,72,70.8,98.1,116.7c10,17.6,18.6,35.8,25.5,54
	c2.8,7.5,5.3,15,7.5,22.5c2.1,7.3,3.9,14.5,5.3,21.8c1.8,9.2,3.1,18.2,3.8,27.1C500.4,346.8,495.4,375.4,480.8,399.4z"/>
<path class="st2" d="M236.1,23.1"/>
<path class="st3" d="M416.5,153.8L416.5,153.8c-179.7-10.9-224.4-22.9-224.7-32.8c-0.3-9.1,36.9-14.2,44-42c3.1-12-0.3-25.1-7-33
	c-6.2-7.3-16.5-11.7-29.1-12.4l0,0c-8.6-0.5-18.3,0.6-28.5,3.6C183.8,30.9,198,26,214.1,24c4.1-0.5,8.2-0.8,12.2-1
	c51.9,1.6,92.9,33.4,114.6,50.4c3.1,2.4,6.1,4.9,9.2,7.4c23.5,19.8,46.2,44.8,66,72.4C416.2,153.5,416.3,153.6,416.5,153.8z"/>
<path class="st4" d="M424.7,153.8L424.7,153.8c-2.9-0.2-5.7-0.3-8.6-0.5C243.5,142.5,200.3,130.8,200,121c-0.3-9.1,36.9-14.2,44-42
	c3.1-12-0.3-25.1-7-33c-7.5-8.8-21-13.3-37.3-12.4l0,0c-16.4,0.9-35.6,7.3-54.5,20.1c4.5-3.5,9.4-6.9,14.5-10
	c3.7-2.3,7.5-4.5,11.6-6.5C183.8,30.9,198,26,214.1,24c4.1-0.5,8.2-0.8,12.2-1c55.8-1.8,99.9,32.5,122.8,50.4
	c3.1,2.4,6.1,4.9,9.2,7.4C381.9,100.8,404.8,125.9,424.7,153.8z"/>
<g class="st5">
	<path class="st2" d="M127.8,197.6h-0.2l-9.1,4.9l-1.4-5.4l11.4-6.1h6v52.2h-6.8V197.6z"/>
	<path class="st2" d="M188.4,216.6c0,17.8-6.6,27.6-18.2,27.6c-10.2,0-17.1-9.6-17.3-26.8c0-17.5,7.6-27.2,18.2-27.2
		C182.1,190.2,188.4,200,188.4,216.6z M160,217.4c0,13.6,4.2,21.3,10.6,21.3c7.2,0,10.7-8.4,10.7-21.8c0-12.9-3.3-21.3-10.6-21.3
		C164.5,195.6,160,203.2,160,217.4z"/>
	<path class="st2" d="M210.2,197.6H210l-9.1,4.9l-1.4-5.4L211,191h6v52.2h-6.8V197.6z"/>
	<path class="st2" d="M251.3,197.6h-0.2l-9.1,4.9l-1.4-5.4l11.4-6.1h6v52.2h-6.8V197.6z"/>
	<path class="st2" d="M292.6,197.6h-0.2l-9.1,4.9l-1.4-5.4l11.4-6.1h6v52.2h-6.8V197.6z"/>
	<path class="st2" d="M353.1,216.6c0,17.8-6.6,27.6-18.2,27.6c-10.2,0-17.1-9.6-17.3-26.8c0-17.5,7.6-27.2,18.2-27.2
		C346.9,190.2,353.1,200,353.1,216.6z M324.8,217.4c0,13.6,4.2,21.3,10.6,21.3c7.2,0,10.7-8.4,10.7-21.8c0-12.9-3.3-21.3-10.6-21.3
		C329.3,195.6,324.8,203.2,324.8,217.4z"/>
	<path class="st2" d="M375,197.6h-0.2l-9.1,4.9l-1.4-5.4l11.4-6.1h6v52.2H375V197.6z"/>
	<path class="st2" d="M147.1,313c0,17.8-6.6,27.6-18.2,27.6c-10.2,0-17.1-9.6-17.3-26.8c0-17.5,7.6-27.2,18.2-27.2
		C140.9,286.6,147.1,296.4,147.1,313z M118.8,313.8c0,13.6,4.2,21.3,10.6,21.3c7.2,0,10.7-8.4,10.7-21.8c0-12.9-3.3-21.3-10.6-21.3
		C123.3,292,118.8,299.6,118.8,313.8z"/>
	<path class="st2" d="M188.4,313c0,17.8-6.6,27.6-18.2,27.6c-10.2,0-17.1-9.6-17.3-26.8c0-17.5,7.6-27.2,18.2-27.2
		C182.1,286.6,188.4,296.4,188.4,313z M160,313.8c0,13.6,4.2,21.3,10.6,21.3c7.2,0,10.7-8.4,10.7-21.8c0-12.9-3.3-21.3-10.6-21.3
		C164.5,292,160,299.6,160,313.8z"/>
	<path class="st2" d="M210.2,294H210l-9.1,4.9l-1.4-5.4l11.4-6.1h6v52.2h-6.8V294z"/>
	<path class="st2" d="M270.7,313c0,17.8-6.6,27.6-18.2,27.6c-10.2,0-17.1-9.6-17.3-26.8c0-17.5,7.6-27.2,18.2-27.2
		C264.5,286.6,270.7,296.4,270.7,313z M242.3,313.8c0,13.6,4.2,21.3,10.6,21.3c7.2,0,10.7-8.4,10.7-21.8c0-12.9-3.3-21.3-10.6-21.3
		C246.8,292,242.3,299.6,242.3,313.8z"/>
	<path class="st2" d="M311.9,313c0,17.8-6.6,27.6-18.2,27.6c-10.2,0-17.1-9.6-17.3-26.8c0-17.5,7.6-27.2,18.2-27.2
		C305.6,286.6,311.9,296.4,311.9,313z M283.6,313.8c0,13.6,4.2,21.3,10.6,21.3c7.2,0,10.7-8.4,10.7-21.8c0-12.9-3.3-21.3-10.6-21.3
		C288.1,292,283.6,299.6,283.6,313.8z"/>
	<path class="st2" d="M333.8,294h-0.2l-9.1,4.9l-1.4-5.4l11.4-6.1h6v52.2h-6.8V294z"/>
	<path class="st2" d="M394.3,313c0,17.8-6.6,27.6-18.2,27.6c-10.2,0-17.1-9.6-17.3-26.8c0-17.5,7.6-27.2,18.2-27.2
		C388.1,286.6,394.3,296.4,394.3,313z M366,313.8c0,13.6,4.2,21.3,10.6,21.3c7.2,0,10.7-8.4,10.7-21.8c0-12.9-3.3-21.3-10.6-21.3
		C370.5,292,366,299.6,366,313.8z"/>
	<path class="st2" d="M127.8,390.4h-0.2l-9.1,4.9l-1.4-5.4l11.4-6.1h6v52.2h-6.8V390.4z"/>
	<path class="st2" d="M188.4,409.4c0,17.8-6.6,27.6-18.2,27.6c-10.2,0-17.1-9.6-17.3-26.8c0-17.5,7.6-27.2,18.2-27.2
		C182.1,383,188.4,392.8,188.4,409.4z M160,410.2c0,13.6,4.2,21.3,10.6,21.3c7.2,0,10.7-8.4,10.7-21.8c0-12.9-3.3-21.3-10.6-21.3
		C164.5,388.4,160,396,160,410.2z"/>
	<path class="st2" d="M229.6,409.4c0,17.8-6.6,27.6-18.2,27.6c-10.2,0-17.1-9.6-17.3-26.8c0-17.5,7.6-27.2,18.2-27.2
		C223.3,383,229.6,392.8,229.6,409.4z M201.1,410.2c0,13.6,4.2,21.3,10.6,21.3c7.2,0,10.7-8.4,10.7-21.8c0-12.9-3.3-21.3-10.6-21.3
		C205.6,388.4,201.1,396,201.1,410.2z"/>
	<path class="st2" d="M251.3,390.4h-0.2l-9.1,4.9l-1.4-5.4l11.4-6.1h6v52.2h-6.8V390.4z"/>
	<path class="st2" d="M292.6,390.4h-0.2l-9.1,4.9l-1.4-5.4l11.4-6.1h6v52.2h-6.8V390.4z"/>
	<path class="st2" d="M353.1,409.4c0,17.8-6.6,27.6-18.2,27.6c-10.2,0-17.1-9.6-17.3-26.8c0-17.5,7.6-27.2,18.2-27.2
		C346.9,383,353.1,392.8,353.1,409.4z M324.8,410.2c0,13.6,4.2,21.3,10.6,21.3c7.2,0,10.7-8.4,10.7-21.8c0-12.9-3.3-21.3-10.6-21.3
		C329.3,388.4,324.8,396,324.8,410.2z"/>
	<path class="st2" d="M375,390.4h-0.2l-9.1,4.9l-1.4-5.4l11.4-6.1h6v52.2H375V390.4z"/>
</g>
</svg>
