<?xml version="1.0" encoding="utf-8"?>
<!-- Generator: Adobe Illustrator 24.0.1, SVG Export Plug-In . SVG Version: 6.00 Build 0)  -->
<svg version="1.1" id="Layer_1" xmlns="http://www.w3.org/2000/svg" xmlns:xlink="http://www.w3.org/1999/xlink" x="0px" y="0px"
	 viewBox="0 0 512 512" style="enable-background:new 0 0 512 512;" xml:space="preserve">
<style type="text/css">
	.st0{fill:#FFFFFF;stroke:#262626;stroke-miterlimit:10;}
	.st1{display:none;fill:#1AA6F7;}
	.st2{fill:#0086FF;}
	.st3{opacity:0.3;fill:#7C7C7C;enable-background:new    ;}
	.st4{fill:#D8D8D8;}
	.st5{fill:none;stroke:#0086FF;stroke-miterlimit:10;}
	.st6{enable-background:new    ;}
</style>
<path class="st0" d="M473.1,399.4c-72.8,120-374.9,111.4-443.4-31.8C-15,274.1,51.5,147.8,110.9,85.5C120,76,131.2,64.4,145,53.8
	l0,0c4.5-3.5,9.4-6.9,14.5-10c3.7-2.3,7.5-4.5,11.6-6.5c12.7-6.4,26.9-11.3,43-13.3c4.1-0.5,8.2-0.8,12.2-1
	c55.8-1.8,99.9,32.5,122.8,50.4c3.1,2.4,6.1,4.9,9.2,7.4c23.6,19.9,46.5,45.1,66.4,73l0,0C480.8,232.6,513.3,333.2,473.1,399.4z"/>
<path class="st1" d="M480.8,399.4C408,519.4,106,510.8,37.4,367.6C31,354,26.8,339.8,24.7,325.1c-2.9-19.3-2.3-39.3,0.9-59.3
	c4.1-25.4,12.3-50.8,23.1-74.8c18.7-41.7,45-79.3,70-105.5c21.1-22.1,53.5-55.2,103.2-61.5c45.8-5.8,84.6,13.8,111.6,32.1
	c9.3,6.3,17.1,12.4,23.4,17.3c0.4,0.3,0.8,0.6,1.2,0.9c36.7,28.9,72,70.8,98.1,116.7c10,17.6,18.6,35.8,25.5,54
	c2.8,7.5,5.3,15,7.5,22.5c2.1,7.3,3.9,14.5,5.3,21.8c1.8,9.2,3.1,18.2,3.8,27.1C500.4,346.8,495.4,375.4,480.8,399.4z"/>
<path class="st2" d="M236.1,23.1"/>
<path class="st3" d="M416.5,153.8L416.5,153.8c-179.7-10.9-224.4-22.9-224.7-32.8c-0.3-9.1,36.9-14.2,44-42c3.1-12-0.3-25.1-7-33
	c-6.2-7.3-16.5-11.7-29.1-12.4l0,0c-8.6-0.5-18.3,0.6-28.5,3.6C183.8,30.9,198,26,214.1,24c4.1-0.5,8.2-0.8,12.2-1
	c51.9,1.6,92.9,33.4,114.6,50.4c3.1,2.4,6.1,4.9,9.2,7.4c23.5,19.8,46.2,44.8,66,72.4C416.2,153.5,416.3,153.6,416.5,153.8z"/>
<path class="st4" d="M424.7,153.8L424.7,153.8c-2.9-0.2-5.7-0.3-8.6-0.5C243.5,142.5,200.3,130.8,200,121c-0.3-9.1,36.9-14.2,44-42
	c3.1-12-0.3-25.1-7-33c-7.5-8.8-21-13.3-37.3-12.4l0,0c-16.4,0.9-35.6,7.3-54.5,20.1c4.5-3.5,9.4-6.9,14.5-10
	c3.7-2.3,7.5-4.5,11.6-6.5C183.8,30.9,198,26,214.1,24c4.1-0.5,8.2-0.8,12.2-1c55.8-1.8,99.9,32.5,122.8,50.4
	c3.1,2.4,6.1,4.9,9.2,7.4C381.9,100.8,404.8,125.9,424.7,153.8z"/>
<g>
	<polyline class="st5" points="156.1,224.9 133.5,233.6 175.8,343.6 328.1,285.1 	"/>
	<polyline class="st5" points="282.6,176.4 313,164.7 343.5,244 	"/>
	<polygon class="st5" points="282.6,176.4 156.1,224.9 156.1,176.4 	"/>
	<path class="st5" d="M330.1,268.8c0,5.4,2.9,10.2,7.3,12.7l-9.4,3.6c-4.6-4.3-7.4-10.5-7.4-17.3c0-12.8,10.1-23.3,22.8-23.8l4,10.4
		c-0.9-0.2-1.8-0.2-2.6-0.2C336.7,254.2,330.1,260.7,330.1,268.8z"/>
	<path class="st5" d="M368.4,267.8c0,13.2-10.7,23.9-23.9,23.9c-6.4,0-12.2-2.5-16.5-6.6l9.4-3.6c2.2,1.2,4.7,2,7.4,2
		c8.1,0,14.7-6.6,14.7-14.7c0-7.2-5.2-13.2-12-14.4l-4-10.4c0.4,0,0.7,0,1.1,0C357.7,244,368.4,254.6,368.4,267.8z"/>
</g>
<g class="st6">
	<path class="st2" d="M144.7,368.6c4.8-1,12.3-1.8,19.9-1.8c10.9,0,17.9,1.9,23.1,6.1c4.4,3.3,7,8.3,7,14.9
		c0,8.1-5.4,15.3-14.3,18.5v0.3c8,2,17.4,8.6,17.4,21.1c0,7.3-2.9,12.8-7.1,16.9c-5.9,5.4-15.4,7.9-29.1,7.9c-7.5,0-13.3-0.5-16.9-1
		L144.7,368.6L144.7,368.6z M155.6,403.1h9.9c11.5,0,18.3-6,18.3-14.1c0-9.9-7.5-13.8-18.5-13.8c-5,0-7.9,0.4-9.6,0.8L155.6,403.1
		L155.6,403.1z M155.6,443.5c2.1,0.4,5.3,0.5,9.1,0.5c11.3,0,21.6-4.1,21.6-16.4c0-11.5-9.9-16.3-21.8-16.3h-9L155.6,443.5
		L155.6,443.5z"/>
	<path class="st2" d="M212.5,368.5c5.3-0.9,12.1-1.6,20.9-1.6c10.7,0,18.6,2.5,23.6,7c4.6,4,7.4,10.1,7.4,17.6
		c0,7.6-2.3,13.6-6.5,18c-5.8,6.1-15.1,9.3-25.7,9.3c-3.3,0-6.3-0.1-8.8-0.8v33.8h-10.9L212.5,368.5L212.5,368.5z M223.3,409.1
		c2.4,0.6,5.4,0.9,9,0.9c13.1,0,21.1-6.4,21.1-18c0-11.1-7.9-16.5-19.9-16.5c-4.8,0-8.4,0.4-10.3,0.9L223.3,409.1L223.3,409.1z"/>
	<path class="st2" d="M348.5,414.8c-0.6-11.8-1.4-25.9-1.3-36.4h-0.4c-2.9,9.9-6.4,20.4-10.6,32l-14.9,40.9H313l-13.5-40.2
		c-4-11.9-7.4-22.8-9.8-32.8h-0.3c-0.3,10.5-0.9,24.6-1.6,37.3l-2.3,36.1h-10.4l5.9-84.3h13.9l14.4,40.8c3.5,10.4,6.4,19.6,8.5,28.4
		h0.4c2.1-8.5,5.1-17.8,8.9-28.4l15-40.8H356l5.3,84.3h-10.6L348.5,414.8z"/>
</g>
</svg>
