<?xml version="1.0" encoding="utf-8"?>
<!-- Generator: Adobe Illustrator 24.0.1, SVG Export Plug-In . SVG Version: 6.00 Build 0)  -->
<svg version="1.1" id="Layer_1" xmlns="http://www.w3.org/2000/svg" xmlns:xlink="http://www.w3.org/1999/xlink" x="0px" y="0px"
	 viewBox="0 0 512 512" style="enable-background:new 0 0 512 512;" xml:space="preserve">
<style type="text/css">
	.st0{fill:#FFFFFF;stroke:#262626;stroke-miterlimit:10;}
	.st1{display:none;fill:#1AA6F7;}
	.st2{fill:#0086FF;}
	.st3{opacity:0.3;fill:#7C7C7C;enable-background:new    ;}
	.st4{fill:#D8D8D8;}
	.st5{fill:none;stroke:#0086FF;stroke-width:1.0631;stroke-miterlimit:10.6314;}
</style>
<path class="st0" d="M473.1,399.4c-72.8,120-374.9,111.4-443.4-31.8C-15,274.1,51.5,147.8,110.9,85.5C120,76,131.2,64.4,145,53.8
	l0,0c4.5-3.5,9.4-6.9,14.5-10c3.7-2.3,7.5-4.5,11.6-6.5c12.7-6.4,26.9-11.3,43-13.3c4.1-0.5,8.2-0.8,12.2-1
	c55.8-1.8,99.9,32.5,122.8,50.4c3.1,2.4,6.1,4.9,9.2,7.4c23.6,19.9,46.5,45.1,66.4,73l0,0C480.8,232.6,513.3,333.2,473.1,399.4z"/>
<path class="st1" d="M480.8,399.4C408,519.4,106,510.8,37.4,367.6C31,354,26.8,339.8,24.7,325.1c-2.9-19.3-2.3-39.3,0.9-59.3
	c4.1-25.4,12.3-50.8,23.1-74.8c18.7-41.7,45-79.3,70-105.5c21.1-22.1,53.5-55.2,103.2-61.5c45.8-5.8,84.6,13.8,111.6,32.1
	c9.3,6.3,17.1,12.4,23.4,17.3c0.4,0.3,0.8,0.6,1.2,0.9c36.7,28.9,72,70.8,98.1,116.7c10,17.6,18.6,35.8,25.5,54
	c2.8,7.5,5.3,15,7.5,22.5c2.1,7.3,3.9,14.5,5.3,21.8c1.8,9.2,3.1,18.2,3.8,27.1C500.4,346.8,495.4,375.4,480.8,399.4z"/>
<path class="st2" d="M236.1,23.1"/>
<path class="st3" d="M416.5,153.8L416.5,153.8c-179.7-10.9-224.4-22.9-224.7-32.8c-0.3-9.1,36.9-14.2,44-42c3.1-12-0.3-25.1-7-33
	c-6.2-7.3-16.5-11.7-29.1-12.4l0,0c-8.6-0.5-18.3,0.6-28.5,3.6C183.8,30.9,198,26,214.1,24c4.1-0.5,8.2-0.8,12.2-1
	c51.9,1.6,92.9,33.4,114.6,50.4c3.1,2.4,6.1,4.9,9.2,7.4c23.5,19.8,46.2,44.8,66,72.4C416.2,153.5,416.3,153.6,416.5,153.8z"/>
<path class="st4" d="M424.7,153.8L424.7,153.8c-2.9-0.2-5.7-0.3-8.6-0.5C243.5,142.5,200.3,130.8,200,121c-0.3-9.1,36.9-14.2,44-42
	c3.1-12-0.3-25.1-7-33c-7.5-8.8-21-13.3-37.3-12.4l0,0c-16.4,0.9-35.6,7.3-54.5,20.1c4.5-3.5,9.4-6.9,14.5-10
	c3.7-2.3,7.5-4.5,11.6-6.5C183.8,30.9,198,26,214.1,24c4.1-0.5,8.2-0.8,12.2-1c55.8-1.8,99.9,32.5,122.8,50.4
	c3.1,2.4,6.1,4.9,9.2,7.4C381.9,100.8,404.8,125.9,424.7,153.8z"/>
<g id="g3024" transform="matrix(1.0631397,0,0,1.0631397,-1.5153527,-1.4831673)">
	<path id="path2783" class="st5" d="M183.2,333.5c36.7,23.6,116.9-8,50.2-92.3c-66-83.6,65.6-138.4,104.7-41.7"/>
	<path id="path3571" class="st5" d="M174.4,165.3L301,323.7"/>
	<path id="path3575" class="st5" d="M308.8,324.5c0,4.6-3.7,8.4-8.4,8.4s-8.4-3.8-8.4-8.4s3.7-8.4,8.4-8.4S308.9,319.8,308.8,324.5
		L308.8,324.5z M183.3,165.4c0,4.6-3.7,8.4-8.4,8.4s-8.4-3.8-8.4-8.4c0-4.6,3.7-8.4,8.4-8.4S183.3,160.8,183.3,165.4L183.3,165.4z"
		/>
	<path id="rect3569" class="st5" d="M220.9,228.2H246v25.1h-25.1V228.2z M321.4,186.3h25.1v25.1h-25.1V186.3z M162.3,320.3h25.1
		v25.1h-25.1V320.3z"/>
</g>
<g>
	<path class="st2" d="M166.9,443.3c4.4,2.8,11,5,17.9,5c10.2,0,16.1-5.4,16.1-13.1c0-7.3-4.1-11.3-14.5-15.4
		c-12.6-4.4-20.4-11-20.4-21.9c0-12,9.9-20.9,25-20.9c7.9,0,13.6,1.8,17,3.8l-2.8,8.1c-2.5-1.4-7.6-3.7-14.7-3.7
		c-10.5,0-14.5,6.3-14.5,11.5c0,7.2,4.7,10.8,15.4,14.9c13.1,5,19.7,11.3,19.7,22.7c0,11.9-8.8,22.2-27.1,22.2
		c-7.4,0-15.6-2.1-19.7-5L166.9,443.3z"/>
	<path class="st2" d="M241.7,455.4l-25.2-77.3h10.8l12,38.1c3.4,10.4,6.2,19.8,8.3,28.9h0.2c2.2-8.9,5.4-18.7,8.8-28.7l13.1-38.1
		h10.6l-27.6,77.3L241.7,455.4L241.7,455.4z"/>
	<path class="st2" d="M347.6,452c-4.4,1.6-13.3,4.2-23.7,4.2c-11.7,0-21.3-3-28.9-10.2c-6.7-6.4-10.8-16.7-10.8-28.7
		c0.2-23,15.9-39.9,41.8-39.9c8.9,0,15.9,1.9,19.3,3.5l-2.4,8.1c-4.1-1.8-9.2-3.3-17-3.3c-18.8,0-31,11.7-31,31
		c0,19.6,11.8,31.2,29.8,31.2c6.5,0,11-0.9,13.3-2.1v-23h-15.7v-8h25.4V452z"/>
</g>
</svg>
