<?xml version="1.0" encoding="utf-8"?>
<!-- Generator: Adobe Illustrator 24.0.1, SVG Export Plug-In . SVG Version: 6.00 Build 0)  -->
<svg version="1.1" id="Layer_1" xmlns="http://www.w3.org/2000/svg" xmlns:xlink="http://www.w3.org/1999/xlink" x="0px" y="0px"
	 viewBox="0 0 512 512" style="enable-background:new 0 0 512 512;" xml:space="preserve">
<style type="text/css">
	.st0{fill:#FFFFFF;stroke:#262626;stroke-miterlimit:10;}
	.st1{display:none;fill:#1AA6F7;}
	.st2{fill:#0086FF;}
	.st3{opacity:0.3;fill:#7C7C7C;enable-background:new    ;}
	.st4{fill:#D8D8D8;}
	.st5{fill:none;}
	.st6{fill:none;stroke:#0086FF;stroke-miterlimit:10;}
	.st7{enable-background:new    ;}
</style>
<path class="st0" d="M473.1,399.4c-72.8,120-374.9,111.4-443.4-31.8C-15,274.1,51.5,147.8,110.9,85.5C120,76,131.2,64.4,145,53.8
	l0,0c4.5-3.5,9.4-6.9,14.5-10c3.7-2.3,7.5-4.5,11.6-6.5c12.7-6.4,26.9-11.3,43-13.3c4.1-0.5,8.2-0.8,12.2-1
	c55.8-1.8,99.9,32.5,122.8,50.4c3.1,2.4,6.1,4.9,9.2,7.4c23.6,19.9,46.5,45.1,66.4,73l0,0C480.8,232.6,513.3,333.2,473.1,399.4z"/>
<path class="st1" d="M480.8,399.4C408,519.4,106,510.8,37.4,367.6C31,354,26.8,339.8,24.7,325.1c-2.9-19.3-2.3-39.3,0.9-59.3
	c4.1-25.4,12.3-50.8,23.1-74.8c18.7-41.7,45-79.3,70-105.5c21.1-22.1,53.5-55.2,103.2-61.5c45.8-5.8,84.6,13.8,111.6,32.1
	c9.3,6.3,17.1,12.4,23.4,17.3c0.4,0.3,0.8,0.6,1.2,0.9c36.7,28.9,72,70.8,98.1,116.7c10,17.6,18.6,35.8,25.5,54
	c2.8,7.5,5.3,15,7.5,22.5c2.1,7.3,3.9,14.5,5.3,21.8c1.8,9.2,3.1,18.2,3.8,27.1C500.4,346.8,495.4,375.4,480.8,399.4z"/>
<path class="st2" d="M236.1,23.1"/>
<path class="st3" d="M416.5,153.8L416.5,153.8c-179.7-10.9-224.4-22.9-224.7-32.8c-0.3-9.1,36.9-14.2,44-42c3.1-12-0.3-25.1-7-33
	c-6.2-7.3-16.5-11.7-29.1-12.4l0,0c-8.6-0.5-18.3,0.6-28.5,3.6C183.8,30.9,198,26,214.1,24c4.1-0.5,8.2-0.8,12.2-1
	c51.9,1.6,92.9,33.4,114.6,50.4c3.1,2.4,6.1,4.9,9.2,7.4c23.5,19.8,46.2,44.8,66,72.4C416.2,153.5,416.3,153.6,416.5,153.8z"/>
<path class="st4" d="M424.7,153.8L424.7,153.8c-2.9-0.2-5.7-0.3-8.6-0.5C243.5,142.5,200.3,130.8,200,121c-0.3-9.1,36.9-14.2,44-42
	c3.1-12-0.3-25.1-7-33c-7.5-8.8-21-13.3-37.3-12.4l0,0c-16.4,0.9-35.6,7.3-54.5,20.1c4.5-3.5,9.4-6.9,14.5-10
	c3.7-2.3,7.5-4.5,11.6-6.5C183.8,30.9,198,26,214.1,24c4.1-0.5,8.2-0.8,12.2-1c55.8-1.8,99.9,32.5,122.8,50.4
	c3.1,2.4,6.1,4.9,9.2,7.4C381.9,100.8,404.8,125.9,424.7,153.8z"/>
<rect x="182.4" y="347.1" class="st5" width="293.4" height="90"/>
<rect x="179.2" y="352.8" class="st5" width="313.1" height="96"/>
<rect x="127.6" y="221.4" class="st5" width="423" height="129.7"/>
<rect x="16.3" y="150.1" class="st5" width="423" height="129.7"/>
<g>
	<polyline class="st6" points="160.6,228 138.3,236.5 179.9,344.6 329.6,287.1 	"/>
	<polyline class="st6" points="284.9,180.3 314.7,168.7 344.7,246.7 	"/>
	<polygon class="st6" points="284.9,180.3 160.6,228 160.6,180.3 	"/>
	<path class="st6" d="M331.6,271.1c0,5.3,2.9,10,7.2,12.5l-9.2,3.5c-4.5-4.3-7.2-10.3-7.2-17c0-12.6,9.9-22.9,22.4-23.4l4,10.2
		c-0.8-0.2-1.8-0.2-2.6-0.2C338.1,256.7,331.6,263.1,331.6,271.1z"/>
	<path class="st6" d="M369.3,270.1c0,13-10.5,23.5-23.5,23.5c-6.3,0-12-2.4-16.2-6.5l9.2-3.5c2.1,1.2,4.6,2,7.2,2
		c7.9,0,14.4-6.5,14.4-14.4c0-7.1-5.1-13-11.8-14.2l-4-10.2c0.4,0,0.7,0,1.1,0C358.7,246.7,369.3,257.2,369.3,270.1z"/>
</g>
<g class="st7">
	<path class="st2" d="M177.5,351.5h8.3v43c0,17.1-8.4,22.3-19.4,22.3c-3,0-6.8-0.7-8.8-1.5l1.2-6.8c1.8,0.7,4.2,1.2,6.9,1.2
		c7.5,0,11.8-3.4,11.8-15.9V351.5z"/>
	<path class="st2" d="M199.6,352.3c4-0.7,9.2-1.2,15.9-1.2c8.2,0,14.2,1.9,18,5.3c3.5,3,5.6,7.7,5.6,13.4c0,5.8-1.8,10.4-5,13.7
		c-4.4,4.7-11.5,7.1-19.7,7.1c-2.5,0-4.8-0.1-6.7-0.6v25.8h-8.3L199.6,352.3L199.6,352.3z M207.9,383.2c1.8,0.5,4.1,0.7,6.9,0.7
		c10,0,16.1-4.9,16.1-13.7c0-8.5-6-12.6-15.2-12.6c-3.7,0-6.4,0.3-7.9,0.7L207.9,383.2L207.9,383.2z"/>
	<path class="st2" d="M283.6,385.7h-24.9v23.2h27.8v6.9h-36.1v-64.3H285v6.9h-26.4v20.3h25L283.6,385.7L283.6,385.7z"/>
	<path class="st2" d="M346.1,412.9c-3.7,1.4-11.1,3.5-19.7,3.5c-9.8,0-17.8-2.5-24-8.5c-5.6-5.3-9-14-9-23.9
		c0.1-19.1,13.3-33.2,34.8-33.2c7.5,0,13.3,1.6,16,3l-2,6.8c-3.4-1.5-7.7-2.7-14.2-2.7c-15.6,0-25.8,9.8-25.8,25.8
		c0,16.3,9.8,25.9,24.8,25.9c5.4,0,9.1-0.8,11.1-1.8v-19.1h-13V382h21.2L346.1,412.9L346.1,412.9z"/>
</g>
</svg>
