<?xml version="1.0" encoding="utf-8"?>
<!-- Generator: Adobe Illustrator 24.0.1, SVG Export Plug-In . SVG Version: 6.00 Build 0)  -->
<svg version="1.1" id="Layer_1" xmlns="http://www.w3.org/2000/svg" xmlns:xlink="http://www.w3.org/1999/xlink" x="0px" y="0px"
	 viewBox="0 0 512 512" style="enable-background:new 0 0 512 512;" xml:space="preserve">
<style type="text/css">
	.st0{fill:#FFFFFF;stroke:#262626;stroke-miterlimit:10;}
	.st1{display:none;fill:#1AA6F7;}
	.st2{fill:#0086FF;}
	.st3{opacity:0.3;fill:#7C7C7C;enable-background:new    ;}
	.st4{fill:#D8D8D8;}
	.st5{fill-rule:evenodd;clip-rule:evenodd;fill:#0086FF;}
</style>
<path class="st0" d="M473.1,399.4c-72.8,120-374.9,111.4-443.4-31.8C-15,274.1,51.5,147.8,110.9,85.5C120,76,131.2,64.4,145,53.8
	l0,0c4.5-3.5,9.4-6.9,14.5-10c3.7-2.3,7.5-4.5,11.6-6.5c12.7-6.4,26.9-11.3,43-13.3c4.1-0.5,8.2-0.8,12.2-1
	c55.8-1.8,99.9,32.5,122.8,50.4c3.1,2.4,6.1,4.9,9.2,7.4c23.6,19.9,46.5,45.1,66.4,73l0,0C480.8,232.6,513.3,333.2,473.1,399.4z"/>
<path class="st1" d="M480.8,399.4C408,519.4,106,510.8,37.4,367.6C31,354,26.8,339.8,24.7,325.1c-2.9-19.3-2.3-39.3,0.9-59.3
	c4.1-25.4,12.3-50.8,23.1-74.8c18.7-41.7,45-79.3,70-105.5c21.1-22.1,53.5-55.2,103.2-61.5c45.8-5.8,84.6,13.8,111.6,32.1
	c9.3,6.3,17.1,12.4,23.4,17.3c0.4,0.3,0.8,0.6,1.2,0.9c36.7,28.9,72,70.8,98.1,116.7c10,17.6,18.6,35.8,25.5,54
	c2.8,7.5,5.3,15,7.5,22.5c2.1,7.3,3.9,14.5,5.3,21.8c1.8,9.2,3.1,18.2,3.8,27.1C500.4,346.8,495.4,375.4,480.8,399.4z"/>
<path class="st2" d="M236.1,23.1"/>
<path class="st3" d="M416.5,153.8L416.5,153.8c-179.7-10.9-224.4-22.9-224.7-32.8c-0.3-9.1,36.9-14.2,44-42c3.1-12-0.3-25.1-7-33
	c-6.2-7.3-16.5-11.7-29.1-12.4l0,0c-8.6-0.5-18.3,0.6-28.5,3.6C183.8,30.9,198,26,214.1,24c4.1-0.5,8.2-0.8,12.2-1
	c51.9,1.6,92.9,33.4,114.6,50.4c3.1,2.4,6.1,4.9,9.2,7.4c23.5,19.8,46.2,44.8,66,72.4C416.2,153.5,416.3,153.6,416.5,153.8z"/>
<path class="st4" d="M424.7,153.8L424.7,153.8c-2.9-0.2-5.7-0.3-8.6-0.5C243.5,142.5,200.3,130.8,200,121c-0.3-9.1,36.9-14.2,44-42
	c3.1-12-0.3-25.1-7-33c-7.5-8.8-21-13.3-37.3-12.4l0,0c-16.4,0.9-35.6,7.3-54.5,20.1c4.5-3.5,9.4-6.9,14.5-10
	c3.7-2.3,7.5-4.5,11.6-6.5C183.8,30.9,198,26,214.1,24c4.1-0.5,8.2-0.8,12.2-1c55.8-1.8,99.9,32.5,122.8,50.4
	c3.1,2.4,6.1,4.9,9.2,7.4C381.9,100.8,404.8,125.9,424.7,153.8z"/>
<g>
	<path class="st2" d="M204.5,447l-10.9-18.9c-4.4-7.2-7.2-11.9-9.9-16.9h-0.3c-2.4,5-4.8,9.5-9.3,17L163.9,447h-12.7l26.2-43.3
		l-25.1-42.3H165l11.3,20.1c3.2,5.6,5.6,9.9,7.9,14.5h0.4c2.4-5.1,4.6-9,7.7-14.5l11.7-20.1h12.7l-26,41.7l26.7,43.9L204.5,447
		L204.5,447z"/>
	<path class="st2" d="M302.3,409.4c-0.6-11.9-1.4-26.3-1.3-37h-0.4c-2.9,10-6.5,20.7-10.8,32.5l-15.1,41.5h-8.4l-13.8-40.7
		c-4.1-12.1-7.5-23.1-9.9-33.3h-0.3c-0.3,10.7-0.9,25-1.7,37.8l-2.3,36.7h-10.5l6-85.6H248l14.6,41.4c3.6,10.5,6.5,19.9,8.6,28.8
		h0.4c2.2-8.6,5.2-18,9-28.8l15.2-41.4h14.1l5.3,85.6h-10.6L302.3,409.4z"/>
	<path class="st2" d="M332.3,361.4h11v76.3h36.6v9.3h-47.6V361.4z"/>
</g>
<path id="path2882" class="st2" d="M178.6,235.2l31.3-44.8c2.6-3.7,2.6-8.7,0-12.4l0,0c-4.3-6.2-13.6-6.2-17.8,0.1l-39,57.2
	c-2.5,3.7-2.5,8.5,0,12.1l41.2,61.2c4,6,12.6,6.4,17.3,0.9l0.1-0.1c3.2-3.7,3.4-9.1,0.6-13.1c-21-30.4-20.1-29.1-33.7-48.8
	C176,243.9,176,238.9,178.6,235.2z"/>
<path id="path2882_1_" class="st2" d="M302.6,309.5l0.1,0.1c4.6,5.5,13.2,5,17.3-0.9l41.2-61.2c2.5-3.7,2.5-8.5,0-12.1l-39-57.2
	c-4.3-6.3-13.5-6.3-17.8-0.1l0,0c-2.6,3.7-2.6,8.7,0,12.4l31.3,44.8c2.6,3.7,2.6,8.6,0,12.4L302,296.3
	C299.3,300.4,299.4,305.7,302.6,309.5z"/>
<path id="rect2888" class="st5" d="M279.4,172L279.4,172c5.6,0,9.5,5.6,7.5,10.8l-45.8,121.8c-1.2,3.1-4.2,5.2-7.5,5.2l0,0
	c-5.6,0-9.5-5.6-7.5-10.8l45.8-121.8C273.1,174.1,276.1,172,279.4,172z"/>
</svg>
