<?xml version="1.0" encoding="utf-8"?>
<!-- Generator: Adobe Illustrator 24.0.1, SVG Export Plug-In . SVG Version: 6.00 Build 0)  -->
<svg version="1.1" id="Layer_1" xmlns="http://www.w3.org/2000/svg" xmlns:xlink="http://www.w3.org/1999/xlink" x="0px" y="0px"
	 viewBox="0 0 512 512" style="enable-background:new 0 0 512 512;" xml:space="preserve">
<style type="text/css">
	.st0{fill:#FFFFFF;stroke:#262626;stroke-miterlimit:10;}
	.st1{display:none;fill:#1AA6F7;}
	.st2{fill:#0086FF;}
	.st3{opacity:0.3;fill:#7C7C7C;enable-background:new    ;}
	.st4{fill:#D8D8D8;}
	.st5{fill:none;}
	.st6{enable-background:new    ;}
	.st7{fill:none;stroke:#0086FF;stroke-width:3.5104;stroke-miterlimit:11.7012;}
	.st8{opacity:0.75;fill:none;stroke:#0086FF;stroke-width:3.5104;stroke-miterlimit:11.7012;enable-background:new    ;}
</style>
<path class="st0" d="M473.1,399.4c-72.8,120-374.9,111.4-443.4-31.8C-15,274.1,51.5,147.8,110.9,85.5C120,76,131.2,64.4,145,53.8
	l0,0c4.5-3.5,9.4-6.9,14.5-10c3.7-2.3,7.5-4.5,11.6-6.5c12.7-6.4,26.9-11.3,43-13.3c4.1-0.5,8.2-0.8,12.2-1
	c55.8-1.8,99.9,32.5,122.8,50.4c3.1,2.4,6.1,4.9,9.2,7.4c23.6,19.9,46.5,45.1,66.4,73l0,0C480.8,232.6,513.3,333.2,473.1,399.4z"/>
<path class="st1" d="M480.8,399.4C408,519.4,106,510.8,37.4,367.6C31,354,26.8,339.8,24.7,325.1c-2.9-19.3-2.3-39.3,0.9-59.3
	c4.1-25.4,12.3-50.8,23.1-74.8c18.7-41.7,45-79.3,70-105.5c21.1-22.1,53.5-55.2,103.2-61.5c45.8-5.8,84.6,13.8,111.6,32.1
	c9.3,6.3,17.1,12.4,23.4,17.3c0.4,0.3,0.8,0.6,1.2,0.9c36.7,28.9,72,70.8,98.1,116.7c10,17.6,18.6,35.8,25.5,54
	c2.8,7.5,5.3,15,7.5,22.5c2.1,7.3,3.9,14.5,5.3,21.8c1.8,9.2,3.1,18.2,3.8,27.1C500.4,346.8,495.4,375.4,480.8,399.4z"/>
<path class="st2" d="M236.1,23.1"/>
<path class="st3" d="M416.5,153.8L416.5,153.8c-179.7-10.9-224.4-22.9-224.7-32.8c-0.3-9.1,36.9-14.2,44-42c3.1-12-0.3-25.1-7-33
	c-6.2-7.3-16.5-11.7-29.1-12.4l0,0c-8.6-0.5-18.3,0.6-28.5,3.6C183.8,30.9,198,26,214.1,24c4.1-0.5,8.2-0.8,12.2-1
	c51.9,1.6,92.9,33.4,114.6,50.4c3.1,2.4,6.1,4.9,9.2,7.4c23.5,19.8,46.2,44.8,66,72.4C416.2,153.5,416.3,153.6,416.5,153.8z"/>
<path class="st4" d="M424.7,153.8L424.7,153.8c-2.9-0.2-5.7-0.3-8.6-0.5C243.5,142.5,200.3,130.8,200,121c-0.3-9.1,36.9-14.2,44-42
	c3.1-12-0.3-25.1-7-33c-7.5-8.8-21-13.3-37.3-12.4l0,0c-16.4,0.9-35.6,7.3-54.5,20.1c4.5-3.5,9.4-6.9,14.5-10
	c3.7-2.3,7.5-4.5,11.6-6.5C183.8,30.9,198,26,214.1,24c4.1-0.5,8.2-0.8,12.2-1c55.8-1.8,99.9,32.5,122.8,50.4
	c3.1,2.4,6.1,4.9,9.2,7.4C381.9,100.8,404.8,125.9,424.7,153.8z"/>
<rect x="182.4" y="347.1" class="st5" width="293.4" height="90"/>
<rect x="179.2" y="352.8" class="st5" width="313.1" height="96"/>
<rect x="127.6" y="221.4" class="st5" width="423" height="129.7"/>
<rect x="16.3" y="150.1" class="st5" width="423" height="129.7"/>
<g id="g12715" transform="matrix(1.1701183,0,0,1.1701183,-1157.8155,1042.0714)" class="st6">
	<path id="path12515" class="st7" d="M1229.1-695.3c0,24.8-20.1,44.9-44.9,44.9s-44.9-20.1-44.9-44.9c0-24.8,20.1-44.9,44.9-44.9
		S1229.1-720.1,1229.1-695.3z"/>
	<rect id="rect12519" x="1216.2" y="-714.6" class="st7" width="70.6" height="70.6"/>
	<path id="path12523" class="st7" d="M1248.3-611.9h-102.7l51.3-83.4L1248.3-611.9z"/>
	<rect id="rect12529" x="1139.2" y="-618.3" class="st8" width="12.8" height="12.8"/>
	<rect id="rect12566" x="1241.9" y="-618.3" class="st8" width="12.8" height="12.8"/>
	<rect id="rect12568" x="1190.6" y="-701.8" class="st8" width="12.8" height="12.8"/>
	<path id="rect12622" class="st7" d="M1228.7-644h58.2v-70.6h-70.6l0.4,51.3L1228.7-644z"/>
</g>
<g class="st6">
	<path class="st2" d="M215.7,410.7c0,24.9-15.1,38.2-33.6,38.2c-19.2,0-32.6-14.9-32.6-36.8c0-23,14.3-38.1,33.6-38.1
		C202.9,374,215.7,389.2,215.7,410.7z M159.5,411.9c0,15.5,8.4,29.3,23.1,29.3c14.9,0,23.2-13.7,23.2-30.1
		c0-14.4-7.6-29.5-23.1-29.5C167.3,381.7,159.5,396,159.5,411.9z"/>
	<path class="st2" d="M227.9,376.2c5.7-0.9,12.5-1.5,19.9-1.5c13.4,0,22.9,3.1,29.3,9c6.4,5.9,10.2,14.3,10.2,26
		c0,11.9-3.7,21.5-10.4,28.2c-6.8,6.8-18,10.4-32.1,10.4c-6.7,0-12.3-0.3-17-0.9L227.9,376.2L227.9,376.2z M237.2,440.2
		c2.4,0.4,5.8,0.5,9.5,0.5c19.9,0,30.9-11.2,30.9-30.8c0.1-17.1-9.5-27.9-29.3-27.9c-4.8,0-8.5,0.4-11,0.9L237.2,440.2L237.2,440.2z
		"/>
	<path class="st2" d="M354.5,444.4c-4.2,1.5-12.5,4-22.3,4c-11,0-20-2.8-27.1-9.5c-6.3-6-10.1-15.7-10.1-27
		c0.1-21.6,15-37.4,39.2-37.4c8.4,0,15,1.8,18,3.4l-2.2,7.6c-3.9-1.7-8.7-3.1-16-3.1c-17.6,0-29.1,11-29.1,29.1
		c0,18.4,11.1,29.2,27.9,29.2c6.1,0,10.3-0.9,12.5-2v-21.6h-14.7v-7.6h23.9V444.4z"/>
</g>
</svg>
