<?xml version="1.0" encoding="utf-8"?>
<!-- Generator: Adobe Illustrator 24.0.1, SVG Export Plug-In . SVG Version: 6.00 Build 0)  -->
<svg version="1.1" id="Layer_1" xmlns="http://www.w3.org/2000/svg" xmlns:xlink="http://www.w3.org/1999/xlink" x="0px" y="0px"
	 viewBox="0 0 512 512" style="enable-background:new 0 0 512 512;" xml:space="preserve">
<style type="text/css">
	.st0{fill:#FFFFFF;stroke:#262626;stroke-miterlimit:10;}
	.st1{display:none;fill:#1AA6F7;}
	.st2{fill:#0086FF;}
	.st3{opacity:0.3;fill:#7C7C7C;enable-background:new    ;}
	.st4{fill:#D8D8D8;}
	.st5{fill:none;}
	.st6{enable-background:new    ;}
	.st7{fill:none;stroke:#0086FF;stroke-width:3.5104;stroke-miterlimit:11.7012;}
	.st8{opacity:0.75;fill:none;stroke:#0086FF;stroke-width:3.5104;stroke-miterlimit:11.7012;enable-background:new    ;}
</style>
<path class="st0" d="M473.1,399.4c-72.8,120-374.9,111.4-443.4-31.8C-15,274.1,51.5,147.8,110.9,85.5C120,76,131.2,64.4,145,53.8
	l0,0c4.5-3.5,9.4-6.9,14.5-10c3.7-2.3,7.5-4.5,11.6-6.5c12.7-6.4,26.9-11.3,43-13.3c4.1-0.5,8.2-0.8,12.2-1
	c55.8-1.8,99.9,32.5,122.8,50.4c3.1,2.4,6.1,4.9,9.2,7.4c23.6,19.9,46.5,45.1,66.4,73l0,0C480.8,232.6,513.3,333.2,473.1,399.4z"/>
<path class="st1" d="M480.8,399.4C408,519.4,106,510.8,37.4,367.6C31,354,26.8,339.8,24.7,325.1c-2.9-19.3-2.3-39.3,0.9-59.3
	c4.1-25.4,12.3-50.8,23.1-74.8c18.7-41.7,45-79.3,70-105.5c21.1-22.1,53.5-55.2,103.2-61.5c45.8-5.8,84.6,13.8,111.6,32.1
	c9.3,6.3,17.1,12.4,23.4,17.3c0.4,0.3,0.8,0.6,1.2,0.9c36.7,28.9,72,70.8,98.1,116.7c10,17.6,18.6,35.8,25.5,54
	c2.8,7.5,5.3,15,7.5,22.5c2.1,7.3,3.9,14.5,5.3,21.8c1.8,9.2,3.1,18.2,3.8,27.1C500.4,346.8,495.4,375.4,480.8,399.4z"/>
<path class="st2" d="M236.1,23.1"/>
<path class="st3" d="M416.5,153.8L416.5,153.8c-179.7-10.9-224.4-22.9-224.7-32.8c-0.3-9.1,36.9-14.2,44-42c3.1-12-0.3-25.1-7-33
	c-6.2-7.3-16.5-11.7-29.1-12.4l0,0c-8.6-0.5-18.3,0.6-28.5,3.6C183.8,30.9,198,26,214.1,24c4.1-0.5,8.2-0.8,12.2-1
	c51.9,1.6,92.9,33.4,114.6,50.4c3.1,2.4,6.1,4.9,9.2,7.4c23.5,19.8,46.2,44.8,66,72.4C416.2,153.5,416.3,153.6,416.5,153.8z"/>
<path class="st4" d="M424.7,153.8L424.7,153.8c-2.9-0.2-5.7-0.3-8.6-0.5C243.5,142.5,200.3,130.8,200,121c-0.3-9.1,36.9-14.2,44-42
	c3.1-12-0.3-25.1-7-33c-7.5-8.8-21-13.3-37.3-12.4l0,0c-16.4,0.9-35.6,7.3-54.5,20.1c4.5-3.5,9.4-6.9,14.5-10
	c3.7-2.3,7.5-4.5,11.6-6.5C183.8,30.9,198,26,214.1,24c4.1-0.5,8.2-0.8,12.2-1c55.8-1.8,99.9,32.5,122.8,50.4
	c3.1,2.4,6.1,4.9,9.2,7.4C381.9,100.8,404.8,125.9,424.7,153.8z"/>
<rect x="182.4" y="347.1" class="st5" width="293.4" height="90"/>
<rect x="179.2" y="352.8" class="st5" width="313.1" height="96"/>
<rect x="127.6" y="221.4" class="st5" width="423" height="129.7"/>
<rect x="16.3" y="150.1" class="st5" width="423" height="129.7"/>
<rect x="131.3" y="361.3" class="st5" width="389.7" height="119.5"/>
<g id="g12715" transform="matrix(1.1701183,0,0,1.1701183,-1157.8155,1042.0714)" class="st6">
	<path id="path12515" class="st7" d="M1225-706c0,26.6-21.6,48.2-48.2,48.2s-48.2-21.6-48.2-48.2s21.6-48.2,48.2-48.2
		S1225-732.7,1225-706z"/>
	<rect id="rect12519" x="1211.3" y="-726.7" class="st7" width="75.6" height="75.6"/>
	<path id="path12523" class="st7" d="M1245.7-616.7h-110.1l55-89.5L1245.7-616.7z"/>
	<rect id="rect12529" x="1128.7" y="-623.5" class="st8" width="13.7" height="13.7"/>
	<rect id="rect12566" x="1238.8" y="-623.5" class="st8" width="13.7" height="13.7"/>
	<rect id="rect12568" x="1183.7" y="-712.9" class="st8" width="13.7" height="13.7"/>
	<path id="rect12622" class="st7" d="M1224.5-651h62.4v-75.6h-75.6l0.5,55L1224.5-651z"/>
</g>
<g class="st6">
	<path class="st2" d="M221.2,411.2c0,26.7-16.2,40.9-36,40.9c-20.5,0-34.9-15.9-34.9-39.4c0-24.7,15.3-40.8,36-40.8
		C207.6,372,221.2,388.2,221.2,411.2z M161.1,412.5c0,16.6,9,31.4,24.8,31.4c15.9,0,24.9-14.6,24.9-32.2c0-15.5-8.1-31.6-24.8-31.6
		C169.4,380.2,161.1,395.5,161.1,412.5z"/>
	<path class="st2" d="M246.1,381.7h-23.6v-8.6H280v8.6h-23.8v69.1h-10.1V381.7z"/>
	<path class="st2" d="M344.6,447.4c-4.5,1.7-13.4,4.2-23.9,4.2c-11.8,0-21.5-3-29-10.2c-6.7-6.4-10.9-16.9-10.9-28.9
		c0.1-23.1,16-40.1,42-40.1c9,0,16,1.9,19.3,3.6l-2.4,8.2c-4.1-1.8-9.3-3.3-17.1-3.3c-18.9,0-31.2,11.8-31.2,31.2
		c0,19.7,11.9,31.3,29.9,31.3c6.5,0,11.1-0.9,13.4-2.1v-23.1H319v-8.1h25.6V447.4z"/>
</g>
</svg>
