<?xml version="1.0" encoding="utf-8"?>
<!-- Generator: Adobe Illustrator 24.0.1, SVG Export Plug-In . SVG Version: 6.00 Build 0)  -->
<svg version="1.1" id="Layer_1" xmlns="http://www.w3.org/2000/svg" xmlns:xlink="http://www.w3.org/1999/xlink" x="0px" y="0px"
	 viewBox="0 0 512 512" style="enable-background:new 0 0 512 512;" xml:space="preserve">
<style type="text/css">
	.st0{fill:#FFFFFF;stroke:#262626;stroke-miterlimit:10;}
	.st1{display:none;fill:#1AA6F7;}
	.st2{fill:#0086FF;}
	.st3{opacity:0.3;fill:#7C7C7C;enable-background:new    ;}
	.st4{fill:#D8D8D8;}
</style>
<path class="st0" d="M473.1,399.4c-72.8,120-374.9,111.4-443.4-31.8C-15,274.1,51.5,147.8,110.9,85.5C120,76,131.2,64.4,145,53.8
	l0,0c4.5-3.5,9.4-6.9,14.5-10c3.7-2.3,7.5-4.5,11.6-6.5c12.7-6.4,26.9-11.3,43-13.3c4.1-0.5,8.2-0.8,12.2-1
	c55.8-1.8,99.9,32.5,122.8,50.4c3.1,2.4,6.1,4.9,9.2,7.4c23.6,19.9,46.5,45.1,66.4,73l0,0C480.8,232.6,513.3,333.2,473.1,399.4z"/>
<path class="st1" d="M480.8,399.4C408,519.4,106,510.8,37.4,367.6C31,354,26.8,339.8,24.7,325.1c-2.9-19.3-2.3-39.3,0.9-59.3
	c4.1-25.4,12.3-50.8,23.1-74.8c18.7-41.7,45-79.3,70-105.5c21.1-22.1,53.5-55.2,103.2-61.5c45.8-5.8,84.6,13.8,111.6,32.1
	c9.3,6.3,17.1,12.4,23.4,17.3c0.4,0.3,0.8,0.6,1.2,0.9c36.7,28.9,72,70.8,98.1,116.7c10,17.6,18.6,35.8,25.5,54
	c2.8,7.5,5.3,15,7.5,22.5c2.1,7.3,3.9,14.5,5.3,21.8c1.8,9.2,3.1,18.2,3.8,27.1C500.4,346.8,495.4,375.4,480.8,399.4z"/>
<path class="st2" d="M236.1,23.1"/>
<path class="st3" d="M416.5,153.8L416.5,153.8c-179.7-10.9-224.4-22.9-224.7-32.8c-0.3-9.1,36.9-14.2,44-42c3.1-12-0.3-25.1-7-33
	c-6.2-7.3-16.5-11.7-29.1-12.4l0,0c-8.6-0.5-18.3,0.6-28.5,3.6C183.8,30.9,198,26,214.1,24c4.1-0.5,8.2-0.8,12.2-1
	c51.9,1.6,92.9,33.4,114.6,50.4c3.1,2.4,6.1,4.9,9.2,7.4c23.5,19.8,46.2,44.8,66,72.4C416.2,153.5,416.3,153.6,416.5,153.8z"/>
<path class="st4" d="M424.7,153.8L424.7,153.8c-2.9-0.2-5.7-0.3-8.6-0.5C243.5,142.5,200.3,130.8,200,121c-0.3-9.1,36.9-14.2,44-42
	c3.1-12-0.3-25.1-7-33c-7.5-8.8-21-13.3-37.3-12.4l0,0c-16.4,0.9-35.6,7.3-54.5,20.1c4.5-3.5,9.4-6.9,14.5-10
	c3.7-2.3,7.5-4.5,11.6-6.5C183.8,30.9,198,26,214.1,24c4.1-0.5,8.2-0.8,12.2-1c55.8-1.8,99.9,32.5,122.8,50.4
	c3.1,2.4,6.1,4.9,9.2,7.4C381.9,100.8,404.8,125.9,424.7,153.8z"/>
<g>
	<g>
		<path class="st2" d="M347.5,314.6c-0.3,2.3,1.8,4.7,4.9,5.1l85,12.1c3,0.4,5.8-1.1,6.1-3.6l3.8-26.7c0.3-2.3-1.8-4.7-4.9-5.1
			l-85-12.1c-3-0.4-5.8,1.1-6.1,3.6l-0.4,2.6l19.6,2.8c7.5,1.1,13,6.7,12.1,12.8c-0.8,5.9-7.6,10-15.2,8.9l-19.6-2.8L347.5,314.6z
			 M414.8,320.5c-5.1-0.7-8.7-4.5-8.1-8.6l0.7-5c0.6-4,5.1-6.7,10.2-5.9l8.2,1.2c5.1,0.7,8.7,4.5,8.1,8.6l-0.7,5
			c-0.6,4-5.1,6.7-10.2,5.9L414.8,320.5L414.8,320.5z"/>
		<path class="st2" d="M378.9,305.4c0.6-4.4-3.4-8.6-8.9-9.3l-33.2-4.7c-5.5-0.8-10.5,2.1-11.1,6.5s3.4,8.6,8.9,9.3l33.2,4.7
			C373.3,312.7,378.3,309.8,378.9,305.4z"/>
		<path class="st2" d="M98.3,295.5c-5.3,0.8-10.1,1.6-14.9,2.5l6.4,17.7c4.4-0.8,9.1-1.7,14.1-2.3L98.3,295.5z"/>
		<path class="st2" d="M68.6,300.9c-5.3,1.2-10.2,2.3-14.6,3.4l8.2,17.2c4.2-1,8.6-2.2,13.7-3.2L68.6,300.9z"/>
		<path class="st2" d="M205.3,306.9c4.9,0.1,9.7,0.2,14.7,0.4l-0.3-18c-5.1-0.2-10.3-0.3-15.3-0.5L205.3,306.9z"/>
		<path class="st2" d="M280.9,294.2c-5.1-0.6-10.3-1.2-15.3-1.7l-1.4,17.9c4.8,0.5,9.8,1.1,14.7,1.6L280.9,294.2z"/>
		<path class="st2" d="M234.7,308c4.8,0.3,9.7,0.6,14.8,1.1l0.8-18c-5.1-0.4-10.2-0.8-15.4-1.1L234.7,308z"/>
		<path class="st2" d="M128.2,291.6c-5.2,0.5-10.2,1-15,1.7l4.9,17.8c4.7-0.6,9.4-1.2,14.3-1.6L128.2,291.6z"/>
		<path class="st2" d="M36.3,329.4c0,0,4.3-1.8,12.5-4.2l-9.2-16.9c-9.3,2.9-14.3,4.9-14.6,5L36.3,329.4z"/>
		<path class="st2" d="M176,306.9c4.8-0.1,9.6-0.2,14.7-0.2l-1.5-18c-5.2,0.1-10.4,0.1-15.2,0.2L176,306.9z"/>
		<path class="st2" d="M158.5,289.5c-5.2,0.3-10.3,0.6-15.2,0.9l3.5,17.9c4.6-0.4,9.6-0.7,14.5-0.9L158.5,289.5z"/>
		<path class="st2" d="M56.8,185.3l-7.6,6.2l-7.6,6.2c0.1,0.1,4.4,3.5,12.7,8.9l13.6-13.7C60.6,188.2,56.8,185.3,56.8,185.3z"/>
		<path class="st2" d="M281.9,287.5l3.1-17.7c-4.9-0.8-9.8-1.6-14.6-2.5l-3.7,17.6C271.6,285.8,276.6,286.7,281.9,287.5z"/>
		<path class="st2" d="M251.6,281.9l4.2-17.5c-4.9-1-9.8-2.1-14.5-3.1l-4.8,17.3C241.5,279.8,246.5,280.8,251.6,281.9z"/>
		<path class="st2" d="M79.4,200.2l-12.7,14.3c3.8,2.3,8.2,4.8,13,7.3l11.9-14.7C87.1,204.6,83,202.3,79.4,200.2z"/>
		<path class="st2" d="M212.8,254.3l-5.9,17c4.8,1.3,9.8,2.5,14.8,3.8l5.3-17.2C222.2,256.8,217.5,255.5,212.8,254.3z"/>
		<path class="st2" d="M104.2,213.6l-11.1,15.2c4.3,2.1,8.7,4.3,13.6,6.6l10.4-15.5C112.5,217.7,108.2,215.7,104.2,213.6z"/>
		<path class="st2" d="M177.6,262.7c4.8,1.5,9.6,3,14.6,4.5l6.4-16.8c-4.8-1.4-9.5-2.8-14-4.3L177.6,262.7z"/>
		<path class="st2" d="M349.4,269.9c-13.2-1.9-25.8-0.2-35.3,4.2c-3.8-0.4-7.6-1-11.4-1.5l-3.1-0.4l-2.7,17.7l1.1,0.2
			c-0.5,1.2-0.8,2.4-1,3.7c-0.1,0.8-0.1,1.7-0.2,2.5l-0.8-0.1l-2.4,17.8l3.1,0.4c3.2,0.5,6.3,0.9,9.6,1.5c7.8,7.6,20,13.5,34.4,15.5
			c14.1,2,27.3-0.1,37-5l-25.7-3.7c-5.1-0.7-8.7-4.5-8.1-8.6l0.4-2.6l-10-1.4c-7.5-1.1-12.9-6.9-12.1-12.8c0.9-6,7.7-9.9,15.2-8.9
			l10,1.4l0.4-2.6c0.6-4,5.1-6.7,10.2-5.9l25.7,3.7C375.6,277.6,363.5,271.9,349.4,269.9z"/>
		<path class="st2" d="M130.2,225.6l-9.7,15.7c4.6,2,9.2,4,14.1,5.9l9-16C139,229.4,134.5,227.5,130.2,225.6z"/>
		<path class="st2" d="M157.1,236.4l-8.3,16.2c4.6,1.7,9.4,3.4,14.3,5.1l7.7-16.6C166.1,239.8,161.6,238.1,157.1,236.4z"/>
	</g>
</g>
<g>
	<path class="st2" d="M160.9,447.8v-9.4l60.3-83.9V354H163v-11.9h74.9v9.4l-60,83.9v0.5h61.2v11.9H160.9z"/>
	<path class="st2" d="M269.6,447.8h-13.2V342.1h13.2V447.8z"/>
	<path class="st2" d="M290.2,342.1h37.7c9.9,0,18,3.2,24.4,9.5s9.5,14.5,9.5,24.4c0,10-3.2,18.2-9.5,24.5s-14.5,9.5-24.5,9.5h-24.4
		v37.7h-13.2V342.1z M303.3,353.8v44.5h21.1c7.5,0,13.4-2,17.5-5.9c4.1-3.9,6.2-9.4,6.2-16.4s-2.1-12.5-6.2-16.4
		c-4.1-3.9-10-5.8-17.5-5.8L303.3,353.8L303.3,353.8z"/>
</g>
</svg>
