<?xml version="1.0" encoding="utf-8"?>
<!-- Generator: Adobe Illustrator 24.0.1, SVG Export Plug-In . SVG Version: 6.00 Build 0)  -->
<svg version="1.1" id="Layer_1" xmlns="http://www.w3.org/2000/svg" xmlns:xlink="http://www.w3.org/1999/xlink" x="0px" y="0px"
	 viewBox="0 0 512 512" style="enable-background:new 0 0 512 512;" xml:space="preserve">
<style type="text/css">
	.st0{fill:#DDDDDD;}
	.st1{fill:url(#SVGID_1_);}
	.st2{fill:url(#SVGID_2_);}
</style>
<path class="st0" d="M110.9,85.5c21.1-22.1,53.5-55.2,103.2-61.5c61.5-7.8,110.5,30.3,135,49.4c94.1,73.2,180.2,233.3,124,326
	c-72.8,120-374.9,111.4-443.4-31.8C-15,274.1,51.5,147.8,110.9,85.5z"/>
<linearGradient id="SVGID_1_" gradientUnits="userSpaceOnUse" x1="22.802" y1="252.9026" x2="498.6991" y2="252.9026">
	<stop  offset="2.603566e-02" style="stop-color:#47606A"/>
	<stop  offset="0.9609" style="stop-color:#2E3E46"/>
</linearGradient>
<path class="st1" d="M480.8,399.4c-72.8,120-374.8,111.4-443.4-31.8C31,354,26.8,339.8,24.7,325.1c-2.9-19.3-2.3-39.3,0.9-59.3
	c11.1-69.4,53.7-139,93.1-180.3c21.1-22.1,53.5-55.2,103.2-61.5c61.5-7.8,110.5,30.3,135,49.4C450.9,146.7,537,306.7,480.8,399.4z"
	/>
<linearGradient id="SVGID_2_" gradientUnits="userSpaceOnUse" x1="552.1524" y1="1166.4982" x2="552.1524" y2="925.8594" gradientTransform="matrix(1 0 0 1 -384.5714 -779.9082)">
	<stop  offset="0" style="stop-color:#D8D8D8"/>
	<stop  offset="1" style="stop-color:#FFFFFF"/>
</linearGradient>
<path class="st2" d="M247.7,197.9c-19.2,0-34.7,15.6-34.7,34.7c0,19.2,15.5,34.8,34.7,34.8c19.2,0,34.8-15.6,34.8-34.8
	C282.4,213.5,266.8,197.9,247.7,197.9z M247.7,197.9c-19.2,0-34.7,15.6-34.7,34.7c0,19.2,15.5,34.8,34.7,34.8
	c19.2,0,34.8-15.6,34.8-34.8C282.4,213.5,266.8,197.9,247.7,197.9z M247.5,168.1c-35.6,0-64.4,28.7-64.8,64.2l-40.4,57.8
	c-1.6-0.2-3.3-0.2-5.1-0.2c-9,0-17.5,2.4-24.7,6.8l-87.1-30.8c-3.2,20-3.8,40-0.9,59.3l65.5,23.4c4.7,21.8,24.1,38.1,47.2,38.1
	c25,0,45.8-19.2,48.1-43.6l62.1-45.3c35.8,0,64.8-29,64.8-64.7C312.4,197.1,283.3,168.1,247.5,168.1z M137.3,373.9
	c-13.7,0-25.5-7.7-31.5-18.9c5.9,2.4,11.7,4.7,17.5,7.1c14.5,5.8,31-1.2,36.9-15.7c5.9-14.5-1.2-31-15.7-36.8l-14.8-6
	c2.4-0.6,5-0.8,7.7-0.8c19.7,0,35.6,15.8,35.6,35.5C173,358,157.1,373.9,137.3,373.9z M247.5,276.2c-24,0-43.5-19.4-43.5-43.4
	c0-24,19.5-43.5,43.5-43.5c24,0,43.5,19.5,43.5,43.5C291,256.9,271.5,276.2,247.5,276.2z M247.7,197.9c-19.2,0-34.7,15.6-34.7,34.7
	c0,19.2,15.5,34.8,34.7,34.8c19.2,0,34.8-15.6,34.8-34.8C282.4,213.5,266.8,197.9,247.7,197.9z M247.7,197.9
	c-19.2,0-34.7,15.6-34.7,34.7c0,19.2,15.5,34.8,34.7,34.8c19.2,0,34.8-15.6,34.8-34.8C282.4,213.5,266.8,197.9,247.7,197.9z
	 M247.7,197.9c-19.2,0-34.7,15.6-34.7,34.7c0,19.2,15.5,34.8,34.7,34.8c19.2,0,34.8-15.6,34.8-34.8
	C282.4,213.5,266.8,197.9,247.7,197.9z"/>
</svg>
