<?xml version="1.0" encoding="utf-8"?>
<!-- Generator: Adobe Illustrator 24.0.1, SVG Export Plug-In . SVG Version: 6.00 Build 0)  -->
<svg version="1.1" id="Layer_1" xmlns="http://www.w3.org/2000/svg" xmlns:xlink="http://www.w3.org/1999/xlink" x="0px" y="0px"
	 viewBox="0 0 512 512" style="enable-background:new 0 0 512 512;" xml:space="preserve">
<style type="text/css">
	.st0{fill:#DDDDDD;}
	.st1{fill:url(#SVGID_1_);}
	.st2{enable-background:new    ;}
	.st3{fill:#FFFFFF;}
</style>
<path class="st0" d="M110.9,85.5c21.1-22.1,53.5-55.2,103.2-61.5c61.5-7.8,110.5,30.3,135,49.4c94.1,73.2,180.2,233.3,124,326
	c-72.8,120-374.9,111.4-443.4-31.8C-15,274.1,51.5,147.8,110.9,85.5z"/>
<linearGradient id="SVGID_1_" gradientUnits="userSpaceOnUse" x1="22.802" y1="252.9026" x2="498.6991" y2="252.9026">
	<stop  offset="0" style="stop-color:#2BC4F3"/>
	<stop  offset="0.5" style="stop-color:#00AEEE"/>
	<stop  offset="1" style="stop-color:#0095DA"/>
</linearGradient>
<path class="st1" d="M480.8,399.4c-72.8,120-374.8,111.4-443.4-31.8C31,354,26.8,339.8,24.7,325.1c-2.9-19.3-2.3-39.3,0.9-59.3
	c11.1-69.4,53.7-139,93.1-180.3c21.1-22.1,53.5-55.2,103.2-61.5c61.5-7.8,110.5,30.3,135,49.4C450.9,146.7,537,306.7,480.8,399.4z"
	/>
<g class="st2">
	<path class="st3" d="M56,347.4v-10.8l13.8-13.4c33.2-31.6,48.2-48.4,48.4-68c0-13.2-6.4-25.4-25.8-25.4c-11.8,0-21.6,6-27.6,11
		l-5.6-12.4c9-7.6,21.8-13.2,36.8-13.2c28,0,39.8,19.2,39.8,37.8c0,24-17.4,43.4-44.8,69.8l-10.4,9.6v0.4H139v14.6L56,347.4
		L56,347.4z"/>
	<path class="st3" d="M245,281c0,44.2-16.4,68.6-45.2,68.6c-25.4,0-42.6-23.8-43-66.8c0-43.6,18.8-67.6,45.2-67.6
		C229.4,215.2,245,239.6,245,281z M174.4,283c0,33.8,10.4,53,26.4,53c18,0,26.6-21,26.6-54.2c0-32-8.2-53-26.4-53
		C185.6,228.8,174.4,247.6,174.4,283z"/>
	<path class="st3" d="M315.6,347.4V312h-60.4v-11.6l58-83h19v80.8h18.2V312h-18.2v35.4H315.6z M315.6,298.2v-43.4
		c0-6.8,0.2-13.6,0.6-20.4h-0.6c-4,7.6-7.2,13.2-10.8,19.2L273,297.8v0.4L315.6,298.2L315.6,298.2z"/>
	<path class="st3" d="M362.2,314.4c0-16.4,9.8-28,25.8-34.8l-0.2-0.6c-14.4-6.8-20.6-18-20.6-29.2c0-20.6,17.4-34.6,40.2-34.6
		c25.2,0,37.8,15.8,37.8,32c0,11-5.4,22.8-21.4,30.4v0.6C440,284.6,450,296,450,311.8c0,22.6-19.4,37.8-44.2,37.8
		C378.6,349.6,362.2,333.4,362.2,314.4z M432.2,313.6c0-15.8-11-23.4-28.6-28.4c-15.2,4.4-23.4,14.4-23.4,26.8
		c-0.6,13.2,9.4,24.8,26,24.8C422,336.8,432.2,327,432.2,313.6z M383.8,248.6c0,13,9.8,20,24.8,24c11.2-3.8,19.8-11.8,19.8-23.6
		c0-10.4-6.2-21.2-22-21.2C391.8,227.8,383.8,237.4,383.8,248.6z"/>
</g>
</svg>
