<?xml version="1.0" encoding="utf-8"?>
<!-- Generator: Adobe Illustrator 24.0.1, SVG Export Plug-In . SVG Version: 6.00 Build 0)  -->
<svg version="1.1" id="Layer_1" xmlns="http://www.w3.org/2000/svg" xmlns:xlink="http://www.w3.org/1999/xlink" x="0px" y="0px"
	 viewBox="0 0 512 512" style="enable-background:new 0 0 512 512;" xml:space="preserve">
<style type="text/css">
	.st0{fill:#DDDDDD;}
	.st1{fill:url(#SVGID_1_);}
	.st2{fill:#FFFFFF;}
</style>
<path class="st0" d="M110.9,85.5c21.1-22.1,53.5-55.2,103.2-61.5c61.5-7.8,110.5,30.3,135,49.4c94.1,73.2,180.2,233.3,124,326
	c-72.8,120-374.9,111.4-443.4-31.8C-15,274.1,51.5,147.8,110.9,85.5z"/>
<linearGradient id="SVGID_1_" gradientUnits="userSpaceOnUse" x1="22.802" y1="252.9026" x2="498.6991" y2="252.9026">
	<stop  offset="0" style="stop-color:#836D94"/>
	<stop  offset="1" style="stop-color:#331957"/>
</linearGradient>
<path class="st1" d="M480.8,399.4c-72.8,120-374.8,111.4-443.4-31.8C31,354,26.8,339.8,24.7,325.1c-2.9-19.3-2.3-39.3,0.9-59.3
	c11.1-69.4,53.7-139,93.1-180.3c21.1-22.1,53.5-55.2,103.2-61.5c61.5-7.8,110.5,30.3,135,49.4C450.9,146.7,537,306.7,480.8,399.4z"
	/>
<g>
	<g>
		<path class="st2" d="M244.8,369.1l-21.2-60.5h-84.1l-21.2,60.5H90.6l77.9-211.4h26.1l77.9,211.4H244.8z M181.1,189.8l-33.8,96.4
			h68.5L182,189.8H181.1z"/>
		<path class="st2" d="M390.9,325.4h25c-2.2,13.5-9.3,24.6-21,33.3c-11.8,8.7-25.9,13-42.4,13c-21.8,0-38.9-7-51.4-21.1
			s-18.8-33.1-18.8-57.1c0-23.8,6.3-43,18.8-57.6c12.5-14.5,29.3-21.8,50.2-21.8c20.5,0,36.7,6.9,48.6,20.7s17.9,32.2,17.9,55.4v9.7
			H308.5v1.5c0,14.6,4,26.4,12,35.2c8,8.8,18.8,13.2,32.5,13.2c9.6,0,17.7-2.2,24.5-6.6S388.7,332.7,390.9,325.4z M350.9,236.2
			c-11.8,0-21.6,4.1-29.4,12.2c-7.8,8.2-12,18.6-12.8,31.4h82.8c-0.3-12.9-4.2-23.4-11.6-31.5C372.4,240.2,362.8,236.2,350.9,236.2z
			"/>
	</g>
</g>
</svg>
