<?xml version="1.0" encoding="utf-8"?>
<!-- Generator: Adobe Illustrator 24.0.1, SVG Export Plug-In . SVG Version: 6.00 Build 0)  -->
<svg version="1.1" id="Layer_1" xmlns="http://www.w3.org/2000/svg" xmlns:xlink="http://www.w3.org/1999/xlink" x="0px" y="0px"
	 viewBox="0 0 512 512" style="enable-background:new 0 0 512 512;" xml:space="preserve">
<style type="text/css">
	.st0{fill:#DDDDDD;}
	.st1{fill:url(#SVGID_1_);}
	.st2{fill:#505050;}
	.st3{fill:#D4D4D2;}
	.st4{fill:#FE9500;}
</style>
<path class="st0" d="M110.9,85.5c21.1-22.1,53.5-55.2,103.2-61.5c61.5-7.8,110.5,30.3,135,49.4c94.1,73.2,180.2,233.3,124,326
	c-72.8,120-374.9,111.4-443.4-31.8C-15,274.1,51.5,147.8,110.9,85.5z"/>
<radialGradient id="SVGID_1_" cx="260.7505" cy="252.9026" r="233.9489" gradientUnits="userSpaceOnUse">
	<stop  offset="0" style="stop-color:#2BC4F3"/>
	<stop  offset="0.5" style="stop-color:#00AEEE"/>
	<stop  offset="1" style="stop-color:#0095DA"/>
</radialGradient>
<path class="st1" d="M480.8,399.4c-72.8,120-374.8,111.4-443.4-31.8C31,354,26.8,339.8,24.7,325.1c-2.9-19.3-2.3-39.3,0.9-59.3
	c11.1-69.4,53.7-139,93.1-180.3c21.1-22.1,53.5-55.2,103.2-61.5c61.5-7.8,110.5,30.3,135,49.4C450.9,146.7,537,306.7,480.8,399.4z"
	/>
<path class="st2" d="M122.3,124.3h243.5c12.8,0,23.2,6.5,23.2,14.5v47c0,8-10.4,14.5-23.2,14.5H122.3c-12.8,0-23.2-6.5-23.2-14.5
	v-47.1C99.1,130.8,109.4,124.3,122.3,124.3z"/>
<circle class="st3" cx="122.4" cy="245.9" r="21.7"/>
<circle class="st3" cx="212.2" cy="247.7" r="21.7"/>
<circle class="st4" cx="387.1" cy="249.9" r="21.7"/>
<circle class="st3" cx="122.4" cy="313.3" r="21.7"/>
<circle class="st3" cx="212.2" cy="316" r="21.7"/>
<circle class="st3" cx="296.7" cy="247.3" r="21.7"/>
<circle class="st3" cx="296.7" cy="316" r="21.7"/>
<circle class="st4" cx="389" cy="317.4" r="21.7"/>
<path class="st3" d="M142.9,413.6c-23.3,0-42.2-12.5-42.2-28s18.9-28,42.2-28h133.4c23.3,0,42.2,12.5,42.2,28s-18.9,28-42.2,28
	H142.9z"/>
<circle class="st4" cx="389" cy="385.6" r="21.7"/>
</svg>
