<?xml version="1.0" encoding="utf-8"?>
<!-- Generator: Adobe Illustrator 24.0.1, SVG Export Plug-In . SVG Version: 6.00 Build 0)  -->
<svg version="1.1" id="Layer_1" xmlns="http://www.w3.org/2000/svg" xmlns:xlink="http://www.w3.org/1999/xlink" x="0px" y="0px"
	 viewBox="0 0 512 512" style="enable-background:new 0 0 512 512;" xml:space="preserve">
<style type="text/css">
	.st0{fill:#DDDDDD;}
	.st1{fill:url(#SVGID_1_);}
	.st2{fill:#FFFFFF;}
</style>
<path class="st0" d="M110.9,85.5c21.1-22.1,53.5-55.2,103.2-61.5c61.5-7.8,110.5,30.3,135,49.4c94.1,73.2,180.2,233.3,124,326
	c-72.8,120-374.9,111.4-443.4-31.8C-15,274.1,51.5,147.8,110.9,85.5z"/>
<linearGradient id="SVGID_1_" gradientUnits="userSpaceOnUse" x1="22.802" y1="252.9033" x2="498.6976" y2="252.9033">
	<stop  offset="0" style="stop-color:#F9D16C"/>
	<stop  offset="1" style="stop-color:#33270F"/>
</linearGradient>
<path class="st1" d="M480.8,399.4c-72.8,120-374.8,111.4-443.4-31.8C31,354,26.8,339.8,24.7,325.1c-2.9-19.3-2.3-39.3,0.9-59.3
	c11.1-69.4,53.7-139,93.1-180.3c21.1-22.1,53.5-55.2,103.2-61.5c45.8-5.8,84.6,13.8,111.6,32.1c9.3,6.3,17.1,12.4,23.4,17.3
	c0.4,0.3,0.8,0.6,1.2,0.9c50.7,39.9,98.9,104.8,123.6,170.7c2.8,7.5,5.3,15,7.5,22.5c2.1,7.3,3.9,14.5,5.3,21.8
	c1.8,9.2,3.1,18.2,3.8,27.1C500.4,346.8,495.4,375.4,480.8,399.4z"/>
<g>
	<path class="st2" d="M215.9,375.1h-79.8V163.7h80.1c18.1,0,32.7,4.8,43.9,14.5c11.2,9.7,16.8,22.4,16.8,38.2c0,11-3.5,21-10.6,30
		c-7.1,8.9-15.7,14.3-25.9,16.2v1.2c14.4,1.9,25.8,7.5,34.4,16.8c8.5,9.4,12.8,21.1,12.8,35.2c0,18.7-6.3,33.2-19,43.7
		C256,369.8,238.4,375.1,215.9,375.1z M162.5,187v67.8h39.6c15.6,0,27.6-3,35.8-9.1c8.3-6.1,12.4-14.8,12.4-26.2
		c0-10.4-3.5-18.5-10.4-24.1s-16.8-8.4-29.6-8.4H162.5z M162.5,351.8H212c15.9,0,28-3.2,36.2-9.5s12.3-15.6,12.3-27.8
		c0-24.6-17-36.9-51-36.9h-47V351.8z"/>
	<path class="st2" d="M313.5,375.1V222.7h24v24.9h0.6c2.5-8.5,7.1-15.2,13.7-20.1c6.6-4.9,14.3-7.4,23.2-7.4c2.1,0,5.5,0.3,10.3,1
		v24.8c-2.7-1-7.3-1.5-13.6-1.5c-9.9,0-17.8,3.3-23.7,9.8c-6,6.5-8.9,15.2-8.9,25.9V375h-25.6V375.1z"/>
</g>
</svg>
