<?xml version="1.0" encoding="utf-8"?>
<!-- Generator: Adobe Illustrator 24.0.1, SVG Export Plug-In . SVG Version: 6.00 Build 0)  -->
<svg version="1.1" id="Layer_1" xmlns="http://www.w3.org/2000/svg" xmlns:xlink="http://www.w3.org/1999/xlink" x="0px" y="0px"
	 viewBox="0 0 512 512" style="enable-background:new 0 0 512 512;" xml:space="preserve">
<style type="text/css">
	.st0{fill:#DDDDDD;}
	.st1{fill:url(#SVGID_1_);}
	.st2{fill:#FFFFFF;}
	.st3{fill:url(#SVGID_2_);}
</style>
<path class="st0" d="M110.9,85.5C132,63.4,164.4,30.3,214.1,24c61.5-7.8,110.5,30.3,135,49.4c94.1,73.2,180.2,233.3,124,326
	c-72.8,120-374.9,111.4-443.4-31.8C-15,274.1,51.5,147.8,110.9,85.5z"/>
<linearGradient id="SVGID_1_" gradientUnits="userSpaceOnUse" x1="22.8281" y1="261.1277" x2="498.7581" y2="261.1277" gradientTransform="matrix(1 0 0 -1 0 514)">
	<stop  offset="0" style="stop-color:#F37E5F"/>
	<stop  offset="0.5" style="stop-color:#EC1C24"/>
	<stop  offset="1" style="stop-color:#CF232A"/>
</linearGradient>
<path class="st1" d="M480.8,399.4C408,519.4,106,510.8,37.4,367.6C31,354,26.8,339.8,24.7,325.1c-2.9-19.3-2.3-39.3,0.9-59.3
	c11.1-69.4,53.7-139,93.1-180.3c21.1-22.1,53.5-55.2,103.2-61.5c45.8-5.8,84.6,13.8,111.6,32.1c9.3,6.3,17.1,12.4,23.4,17.3
	c0.4,0.3,0.8,0.6,1.2,0.9C408.8,114.2,457,179.1,481.7,245c2.8,7.5,5.3,15,7.5,22.5c2.1,7.3,3.9,14.5,5.3,21.8
	c1.8,9.2,3.1,18.2,3.8,27.1C500.4,346.8,495.4,375.4,480.8,399.4z"/>
<circle class="st2" cx="254.9" cy="188.7" r="99.3"/>
<circle class="st2" cx="181.7" cy="314.6" r="101.8"/>
<circle class="st2" cx="324.3" cy="314.6" r="101.8"/>
<linearGradient id="SVGID_2_" gradientUnits="userSpaceOnUse" x1="253.3855" y1="598.8812" x2="250.8863" y2="482.5541" gradientTransform="matrix(1 0 0 1 0 -278)">
	<stop  offset="0" style="stop-color:#F37E5F"/>
	<stop  offset="0.5" style="stop-color:#EC1C24"/>
	<stop  offset="1" style="stop-color:#CF232A"/>
</linearGradient>
<circle class="st3" cx="252.2" cy="265.7" r="54.4"/>
</svg>
