<?xml version="1.0" encoding="utf-8"?>
<!-- Generator: Adobe Illustrator 24.0.1, SVG Export Plug-In . SVG Version: 6.00 Build 0)  -->
<svg version="1.1" id="Layer_1" xmlns="http://www.w3.org/2000/svg" xmlns:xlink="http://www.w3.org/1999/xlink" x="0px" y="0px"
	 viewBox="0 0 512 512" style="enable-background:new 0 0 512 512;" xml:space="preserve">
<style type="text/css">
	.st0{fill:#DDDDDD;}
	.st1{fill:url(#SVGID_1_);}
	.st2{fill:url(#SVGID_2_);}
	.st3{fill:url(#SVGID_3_);}
	.st4{fill:url(#SVGID_4_);}
	.st5{fill:url(#SVGID_5_);}
	.st6{fill:#FFFFFF;}
</style>
<path class="st0" d="M110.9,85.5C132,63.4,164.4,30.3,214.1,24c61.5-7.8,110.5,30.3,135,49.4c94.1,73.2,180.2,233.3,124,326
	c-72.8,120-374.9,111.4-443.4-31.8C-15,274.1,51.5,147.8,110.9,85.5z"/>
<linearGradient id="SVGID_1_" gradientUnits="userSpaceOnUse" x1="22.8682" y1="252.8214" x2="498.7591" y2="252.8214">
	<stop  offset="0" style="stop-color:#836D94"/>
	<stop  offset="1" style="stop-color:#331957"/>
</linearGradient>
<path class="st1" d="M495.5,361.8c-2.9,13.4-7.7,26.1-14.7,37.7c-10.6,17.5-26.1,32.2-45,44.2c-23.3,14.8-51.8,25.4-82.9,31.8
	c-11.7,2.4-23.7,4.2-36,5.4c-11.6,1.2-23.5,1.8-35.4,1.9c-0.8,0-1.7,0-2.5,0c-12.7,0-25.5-0.6-38.2-1.9c-6.3-0.6-12.6-1.4-18.8-2.3
	c-16.9-2.5-33.5-6.1-49.5-10.8c-4.4-1.3-8.7-2.7-13-4.1c-6-2-11.9-4.2-17.6-6.6c-6.2-2.6-12.4-5.3-18.3-8.3
	c-1.2-0.6-2.4-1.2-3.6-1.8c-7.9-4.1-15.5-8.5-22.7-13.3c-24.1-16.1-43.8-36.1-56.7-60.2c-1.1-2-2.1-4-3-6c-1.2-2.5-2.3-4.9-3.4-7.4
	c-4.7-11.2-7.8-22.9-9.5-34.9c-0.8-5.3-1.3-10.6-1.6-16c-0.7-14.2,0.2-28.7,2.5-43.2C34.3,211,62.8,156.1,93.8,115
	c0.5-0.7,1.1-1.4,1.6-2.1c7.7-10.1,15.6-19.3,23.3-27.4c17.7-18.5,43.2-44.6,80.1-56.4c7.3-2.3,15-4.1,23.1-5.1
	c45.8-5.8,84.6,13.8,111.6,32.1c9.3,6.3,17.1,12.4,23.4,17.3c0.4,0.3,0.8,0.6,1.2,0.9C408.8,114.2,457,179.1,481.7,245
	c2.8,7.5,5.3,15,7.5,22.5c2.1,7.3,3.9,14.5,5.3,21.8c1,4.9,1.8,9.9,2.5,14.7c0.4,3.1,0.8,6.1,1,9.1c0.1,1.1,0.2,2.2,0.3,3.3
	C499.4,332.1,498.6,347.4,495.5,361.8z"/>
<linearGradient id="SVGID_2_" gradientUnits="userSpaceOnUse" x1="0.1176" y1="773.5" x2="1.1876" y2="773.5" gradientTransform="matrix(1 0 0 1 0 -278)">
	<stop  offset="0" style="stop-color:#5B57A5"/>
	<stop  offset="0.5" style="stop-color:#2E3092"/>
	<stop  offset="1" style="stop-color:#474374"/>
</linearGradient>
<path class="st2" d="M1.1,496L1.1,496c-0.3-0.3-0.6-0.6-1-1C0.4,495.4,0.7,495.7,1.1,496z"/>
<linearGradient id="SVGID_3_" gradientUnits="userSpaceOnUse" x1="1.3076" y1="774.4" x2="1.6076" y2="774.4" gradientTransform="matrix(1 0 0 1 0 -278)">
	<stop  offset="0" style="stop-color:#5B57A5"/>
	<stop  offset="0.5" style="stop-color:#2E3092"/>
	<stop  offset="1" style="stop-color:#474374"/>
</linearGradient>
<path class="st3" d="M1.3,496.3c0.1,0,0.2,0.1,0.3,0.2c-0.1,0-0.1-0.1-0.2-0.1L1.3,496.3z"/>
<linearGradient id="SVGID_4_" gradientUnits="userSpaceOnUse" x1="1.6676" y1="774.6375" x2="1.9076" y2="774.6375" gradientTransform="matrix(1 0 0 1 0 -278)">
	<stop  offset="0" style="stop-color:#5B57A5"/>
	<stop  offset="0.5" style="stop-color:#2E3092"/>
	<stop  offset="1" style="stop-color:#474374"/>
</linearGradient>
<path class="st4" d="M1.8,496.6L1.8,496.6C1.9,496.7,1.9,496.7,1.8,496.6L1.8,496.6L1.8,496.6z"/>
<linearGradient id="SVGID_5_" gradientUnits="userSpaceOnUse" x1="44.14" y1="452.89" x2="48.01" y2="452.89">
	<stop  offset="5.618000e-03" style="stop-color:#E2E5F4"/>
	<stop  offset="0.4494" style="stop-color:#C7CEE9"/>
	<stop  offset="1" style="stop-color:#A8B5DC"/>
</linearGradient>
<path class="st5" d="M44.1,450.8c1.3,1.4,2.5,2.8,3.9,4.2C46.7,453.6,45.4,452.2,44.1,450.8z"/>
<g>
	<path class="st6" d="M236.6,350.6l-21.2-60.5h-84.1l-21.2,60.5H82.4l77.9-211.4h26.1l77.9,211.4H236.6z M172.9,171.3l-33.8,96.4
		h68.5l-33.8-96.4H172.9z"/>
	<path class="st6" d="M382.7,306.9h25c-2.2,13.5-9.3,24.6-21,33.3c-11.8,8.7-25.9,13-42.4,13c-21.8,0-38.9-7-51.4-21.1
		S274.1,299,274.1,275c0-23.8,6.3-43,18.8-57.6c12.5-14.5,29.3-21.8,50.2-21.8c20.5,0,36.7,6.9,48.6,20.7
		c11.9,13.8,17.9,32.2,17.9,55.4v9.7H300.3v1.5c0,14.6,4,26.4,12,35.2c8,8.8,18.8,13.2,32.5,13.2c9.6,0,17.7-2.2,24.5-6.6
		S380.5,314.2,382.7,306.9z M342.7,217.7c-11.8,0-21.6,4.1-29.4,12.2c-7.8,8.2-12,18.6-12.8,31.4h82.8c-0.3-12.9-4.2-23.4-11.6-31.5
		C364.2,221.7,354.6,217.7,342.7,217.7z"/>
</g>
</svg>
