<?xml version="1.0" encoding="utf-8"?>
<!-- Generator: Adobe Illustrator 24.0.1, SVG Export Plug-In . SVG Version: 6.00 Build 0)  -->
<svg version="1.1" id="Layer_1" xmlns="http://www.w3.org/2000/svg" xmlns:xlink="http://www.w3.org/1999/xlink" x="0px" y="0px"
	 viewBox="0 0 512 512" style="enable-background:new 0 0 512 512;" xml:space="preserve">
<style type="text/css">
	.st0{fill:#DDDDDD;}
	.st1{fill:url(#SVGID_1_);}
	.st2{fill:#FFFFFF;}
</style>
<path class="st0" d="M110.9,85.5c21.1-22.1,53.5-55.2,103.2-61.5c61.5-7.8,110.5,30.3,135,49.4c94.1,73.2,180.2,233.3,124,326
	c-72.8,120-374.9,111.4-443.4-31.8C-15,274.1,51.5,147.8,110.9,85.5z"/>
<linearGradient id="SVGID_1_" gradientUnits="userSpaceOnUse" x1="22.802" y1="252.9033" x2="498.6976" y2="252.9033">
	<stop  offset="0" style="stop-color:#ED50C3"/>
	<stop  offset="1" style="stop-color:#4A183A"/>
</linearGradient>
<path class="st1" d="M480.8,399.4c-72.8,120-374.8,111.4-443.4-31.8C31,354,26.8,339.8,24.7,325.1c-2.9-19.3-2.3-39.3,0.9-59.3
	c11.1-69.4,53.7-139,93.1-180.3c21.1-22.1,53.5-55.2,103.2-61.5c45.8-5.8,84.6,13.8,111.6,32.1c9.3,6.3,17.1,12.4,23.4,17.3
	c0.4,0.3,0.8,0.6,1.2,0.9c50.7,39.9,98.9,104.8,123.6,170.7c2.8,7.5,5.3,15,7.5,22.5c2.1,7.3,3.9,14.5,5.3,21.8
	c1.8,9.2,3.1,18.2,3.8,27.1C500.4,346.8,495.4,375.4,480.8,399.4z"/>
<g>
	<path class="st2" d="M181.7,366h-26.4V154.6h26.4V366z"/>
	<path class="st2" d="M276.5,368.6c-19.5,0-35.3-7.2-47.2-21.5c-12-14.4-17.9-33.4-17.9-57.3c0-23.7,6-42.8,17.9-57.2
		S256.8,211,276,211c10.7,0,20.4,2.4,28.9,7.3c8.5,4.9,15,11.6,19.6,20.1h0.6v-83.8h25.5V366h-24.3v-25.8h-0.6
		c-5,8.9-11.7,15.8-20.2,20.9S287.3,368.6,276.5,368.6z M281.3,233.4c-13.5,0-24.2,5.1-32.1,15.3c-7.9,10.2-11.9,23.9-11.9,41.1
		c0,17.3,4,31,11.9,41.2s18.6,15.2,32.1,15.2c13.2,0,23.8-5.1,31.8-15.5c8-10.3,12-24,12-40.9s-4-30.6-12.1-40.9
		C304.9,238.5,294.4,233.4,281.3,233.4z"/>
</g>
</svg>
