<?xml version="1.0" encoding="utf-8"?>
<!-- Generator: Adobe Illustrator 24.0.1, SVG Export Plug-In . SVG Version: 6.00 Build 0)  -->
<svg version="1.1" id="Layer_1" xmlns="http://www.w3.org/2000/svg" xmlns:xlink="http://www.w3.org/1999/xlink" x="0px" y="0px"
	 viewBox="0 0 512 512" style="enable-background:new 0 0 512 512;" xml:space="preserve">
<style type="text/css">
	.st0{fill:#DDDDDD;}
	.st1{fill:url(#SVGID_1_);}
	.st2{fill:#FFFFFF;}
</style>
<path class="st0" d="M110.9,85.5c21.1-22.1,53.5-55.2,103.2-61.5c61.5-7.8,110.5,30.3,135,49.4c94.1,73.2,180.2,233.3,124,326
	c-72.8,120-374.9,111.4-443.4-31.8C-15,274.1,51.5,147.8,110.9,85.5z"/>
<linearGradient id="SVGID_1_" gradientUnits="userSpaceOnUse" x1="22.802" y1="252.9033" x2="498.6976" y2="252.9033">
	<stop  offset="0" style="stop-color:#AAB5F1"/>
	<stop  offset="1" style="stop-color:#1D3060"/>
</linearGradient>
<path class="st1" d="M480.8,399.4c-72.8,120-374.8,111.4-443.4-31.8C31,354,26.8,339.8,24.7,325.1c-2.9-19.3-2.3-39.3,0.9-59.3
	c11.1-69.4,53.7-139,93.1-180.3c21.1-22.1,53.5-55.2,103.2-61.5c45.8-5.8,84.6,13.8,111.6,32.1c9.3,6.3,17.1,12.4,23.4,17.3
	c0.4,0.3,0.8,0.6,1.2,0.9c50.7,39.9,98.9,104.8,123.6,170.7c2.8,7.5,5.3,15,7.5,22.5c2.1,7.3,3.9,14.5,5.3,21.8
	c1.8,9.2,3.1,18.2,3.8,27.1C500.4,346.8,495.4,375.4,480.8,399.4z"/>
<g>
	<path class="st2" d="M240.9,347.9v23.7h-131V160.3h131V184H136.3v67.8h99.2v23.4h-99.2v72.7H240.9z"/>
	<path class="st2" d="M271.6,371.7V219.3h24v24.3h0.6c4.4-8.5,10.7-15.1,18.9-19.8c8.2-4.7,18-7.1,29.4-7.1c16.6,0,29.5,5,38.8,15
		s13.9,23.7,13.9,41.1v98.9h-25.5v-94.3c0-12.4-2.9-21.8-8.8-28.3s-14.6-9.7-26.2-9.7c-12,0-21.6,3.9-28.9,11.7
		c-7.2,7.8-10.8,18.2-10.8,31.1v89.6L271.6,371.7L271.6,371.7z"/>
</g>
</svg>
