<?xml version="1.0" encoding="utf-8"?>
<!-- Generator: Adobe Illustrator 24.0.1, SVG Export Plug-In . SVG Version: 6.00 Build 0)  -->
<svg version="1.1" id="Layer_1" xmlns="http://www.w3.org/2000/svg" xmlns:xlink="http://www.w3.org/1999/xlink" x="0px" y="0px"
	 viewBox="0 0 512 512" style="enable-background:new 0 0 512 512;" xml:space="preserve">
<style type="text/css">
	.st0{fill:#DDDDDD;}
	.st1{fill:url(#SVGID_1_);}
	.st2{fill:#FFFFFF;}
</style>
<path class="st0" d="M110.9,85.5c21.1-22.1,53.5-55.2,103.2-61.5c61.5-7.8,110.5,30.3,135,49.4c94.1,73.2,180.2,233.3,124,326
	c-72.8,120-374.9,111.4-443.4-31.8C-15,274.1,51.5,147.8,110.9,85.5z"/>
<linearGradient id="SVGID_1_" gradientUnits="userSpaceOnUse" x1="22.802" y1="252.9033" x2="498.6976" y2="252.9033">
	<stop  offset="0" style="stop-color:#D93A3A"/>
	<stop  offset="0.9767" style="stop-color:#360B0B"/>
	<stop  offset="1" style="stop-color:#25250A"/>
</linearGradient>
<path class="st1" d="M480.8,399.4c-72.8,120-374.8,111.4-443.4-31.8C31,354,26.8,339.8,24.7,325.1c-2.9-19.3-2.3-39.3,0.9-59.3
	c11.1-69.4,53.7-139,93.1-180.3c21.1-22.1,53.5-55.2,103.2-61.5c45.8-5.8,84.6,13.8,111.6,32.1c9.3,6.3,17.1,12.4,23.4,17.3
	c0.4,0.3,0.8,0.6,1.2,0.9c50.7,39.9,98.9,104.8,123.6,170.7c2.8,7.5,5.3,15,7.5,22.5c2.1,7.3,3.9,14.5,5.3,21.8
	c1.8,9.2,3.1,18.2,3.8,27.1C500.4,346.8,495.4,375.4,480.8,399.4z"/>
<g>
	<path class="st2" d="M173.9,382.1h-26.4V170.7h128.3v23.7H173.9v72.7h93.6v23.4h-93.6V382.1z"/>
	<path class="st2" d="M316,204.1c-4.3,0-8-1.6-11.1-4.7c-3.1-3.1-4.7-6.8-4.7-11.1c0-4.4,1.6-8.1,4.7-11.2c3.1-3.1,6.8-4.6,11.1-4.6
		c4.4,0,8.2,1.5,11.3,4.6c3.1,3.1,4.7,6.8,4.7,11.2c0,4.3-1.6,8-4.7,11.1C324.1,202.5,320.4,204.1,316,204.1z M303.2,382.1V229.7
		h25.5V382h-25.5V382.1z"/>
</g>
</svg>
