<?xml version="1.0" encoding="utf-8"?>
<!-- Generator: Adobe Illustrator 24.0.1, SVG Export Plug-In . SVG Version: 6.00 Build 0)  -->
<svg version="1.1" id="Layer_1" xmlns="http://www.w3.org/2000/svg" xmlns:xlink="http://www.w3.org/1999/xlink" x="0px" y="0px"
	 viewBox="0 0 512 512" style="enable-background:new 0 0 512 512;" xml:space="preserve">
<style type="text/css">
	.st0{fill:#DDDDDD;}
	.st1{fill:url(#SVGID_1_);}
	.st2{fill:#FFFFFF;}
</style>
<path class="st0" d="M110.9,85.5c21.1-22.1,53.5-55.2,103.2-61.5c61.5-7.8,110.5,30.3,135,49.4c94.1,73.2,180.2,233.3,124,326
	c-72.8,120-374.9,111.4-443.4-31.8C-15,274.1,51.5,147.8,110.9,85.5z"/>
<linearGradient id="SVGID_1_" gradientUnits="userSpaceOnUse" x1="22.802" y1="252.9033" x2="498.6976" y2="252.9033">
	<stop  offset="0" style="stop-color:#7FC8ED"/>
	<stop  offset="1" style="stop-color:#1F2865"/>
</linearGradient>
<path class="st1" d="M480.8,399.4c-72.8,120-374.8,111.4-443.4-31.8C31,354,26.8,339.8,24.7,325.1c-2.9-19.3-2.3-39.3,0.9-59.3
	c11.1-69.4,53.7-139,93.1-180.3c21.1-22.1,53.5-55.2,103.2-61.5c45.8-5.8,84.6,13.8,111.6,32.1c9.3,6.3,17.1,12.4,23.4,17.3
	c0.4,0.3,0.8,0.6,1.2,0.9c50.7,39.9,98.9,104.8,123.6,170.7c2.8,7.5,5.3,15,7.5,22.5c2.1,7.3,3.9,14.5,5.3,21.8
	c1.8,9.2,3.1,18.2,3.8,27.1C500.4,346.8,495.4,375.4,480.8,399.4z"/>
<g>
	<path class="st2" d="M140.9,170.6h75.4c19.8,0,36.1,6.3,48.7,19c12.6,12.6,19,28.9,19,48.9c0,20-6.3,36.4-19,49.1
		c-12.7,12.7-29,19-48.9,19h-48.8V382h-26.4V170.6z M167.3,194v89.1h42.2c15,0,26.7-3.9,35-11.8s12.5-18.8,12.5-32.9
		s-4.1-25-12.4-32.7c-8.3-7.8-19.9-11.6-35.1-11.6L167.3,194L167.3,194z"/>
	<path class="st2" d="M300.3,271.6c0-13.1,5.3-23.8,15.9-32.2c10.6-8.3,24.2-12.5,40.9-12.5c15.7,0,28.8,4.2,39.3,12.6
		c10.4,8.4,16,19,16.6,31.9h-24.3c-0.9-7.4-4.2-13.2-9.9-17.4c-5.7-4.2-13.2-6.3-22.5-6.3s-16.8,2.1-22.4,6.2
		c-5.7,4.2-8.5,9.6-8.5,16.3c0,10.4,8.4,17.7,25.3,22l23.6,5.7c15.3,3.9,26.1,9,32.4,15.2s9.4,14.9,9.4,26.1
		c0,13.3-5.7,24.1-17,32.6c-11.3,8.4-25.9,12.7-43.7,12.7c-16.6,0-30.3-4.1-41.1-12.4c-10.8-8.3-16.9-19.2-18.2-32.7h25.5
		c2.8,16.2,14.6,24.3,35.4,24.3c10.3,0,18.4-2,24.4-6.1s9-9.5,9-16.5c0-5.5-1.8-9.8-5.3-13c-3.6-3.2-9.6-6-18.1-8.2l-26.8-6.9
		C313.6,306.3,300.3,292.5,300.3,271.6z"/>
</g>
</svg>
