<?xml version="1.0" encoding="utf-8"?>
<!-- Generator: Adobe Illustrator 24.0.1, SVG Export Plug-In . SVG Version: 6.00 Build 0)  -->
<svg version="1.1" id="Layer_1" xmlns="http://www.w3.org/2000/svg" xmlns:xlink="http://www.w3.org/1999/xlink" x="0px" y="0px"
	 viewBox="0 0 512 512" style="enable-background:new 0 0 512 512;" xml:space="preserve">
<style type="text/css">
	.st0{fill:#DDDDDD;}
	.st1{fill:url(#SVGID_1_);}
	.st2{fill:#FFFFFF;}
</style>
<path class="st0" d="M110.9,85.5c21.1-22.1,53.5-55.2,103.2-61.5c61.5-7.8,110.5,30.3,135,49.4c94.1,73.2,180.2,233.3,124,326
	c-72.8,120-374.9,111.4-443.4-31.8C-15,274.1,51.5,147.8,110.9,85.5z"/>
<linearGradient id="SVGID_1_" gradientUnits="userSpaceOnUse" x1="22.802" y1="252.9033" x2="498.6976" y2="252.9033">
	<stop  offset="0" style="stop-color:#31D5DD"/>
	<stop  offset="1" style="stop-color:#0E3C48"/>
</linearGradient>
<path class="st1" d="M480.8,399.4c-72.8,120-374.8,111.4-443.4-31.8C31,354,26.8,339.8,24.7,325.1c-2.9-19.3-2.3-39.3,0.9-59.3
	c11.1-69.4,53.7-139,93.1-180.3c21.1-22.1,53.5-55.2,103.2-61.5c45.8-5.8,84.6,13.8,111.6,32.1c9.3,6.3,17.1,12.4,23.4,17.3
	c0.4,0.3,0.8,0.6,1.2,0.9c50.7,39.9,98.9,104.8,123.6,170.7c2.8,7.5,5.3,15,7.5,22.5c2.1,7.3,3.9,14.5,5.3,21.8
	c1.8,9.2,3.1,18.2,3.8,27.1C500.4,346.8,495.4,375.4,480.8,399.4z"/>
<g>
	<path class="st2" d="M98,276.6h26.5c1.3,11.4,6.9,20.6,16.8,27.5c9.9,6.9,22.4,10.4,37.6,10.4c14.3,0,26-3.4,35.4-10.2
		c9.3-6.8,14-15.4,14-25.7c0-8.9-3.2-16.2-9.7-22s-16.9-10.5-31.1-14.2l-27.1-7c-19.5-5-33.8-11.9-42.8-20.9
		c-9-8.9-13.5-20.6-13.5-34.9c0-17.6,7-31.9,20.9-43.1s31.9-16.7,53.8-16.7c21,0,38.4,5.6,52.1,16.9s20.9,25.8,21.5,43.4H226
		c-1.2-11.3-6.1-20.3-14.6-26.8c-8.6-6.5-19.8-9.8-33.5-9.8s-24.8,3.2-33.5,9.7s-13,14.8-13,25.2c0,8,3.1,14.6,9.4,19.7
		c6.3,5.1,16.6,9.5,31,13.3l22.1,5.9c21.9,5.5,37.6,12.7,47.2,21.8c9.6,9.1,14.4,21.2,14.4,36.3c0,19.3-7.1,34.6-21.3,45.9
		s-33.5,16.9-57.8,16.9c-22.5,0-40.8-5.6-55.1-16.8C107,310.2,99.3,295.3,98,276.6z"/>
	<path class="st2" d="M345.1,392.2c-16.7,0-31.1-4.2-43.1-12.7c-12-8.4-19.1-19.2-21.2-32.2H307c2.5,7,7.3,12.6,14.4,16.8
		c7,4.2,15.3,6.3,24.8,6.3c13.1,0,23.4-3.5,31-10.4s11.4-16.1,11.4-27.5v-24H388c-4.8,8.4-11.5,15.1-20.1,20s-18.2,7.4-28.7,7.4
		c-19.4,0-35-7.1-46.7-21.2c-11.7-14.2-17.6-33.1-17.6-56.7c0-23.8,5.9-42.8,17.7-57c11.8-14.2,27.5-21.2,47.2-21.2
		c10.7,0,20.4,2.5,29,7.5s15.4,11.9,20.5,20.8h0.4v-25.6H414v149.3c0,18.3-6.3,32.9-18.8,43.9C382.7,386.7,366,392.2,345.1,392.2z
		 M344.2,313.5c13.3,0,24-5.1,32.1-15.2c8.1-10.2,12.2-23.6,12.2-40.3c0-16.8-4.1-30.3-12.2-40.5c-8.1-10.2-18.8-15.3-32.1-15.3
		c-13.2,0-23.7,5.1-31.6,15.2c-7.9,10.1-11.8,23.7-11.8,40.6s3.9,30.5,11.8,40.5S331.1,313.5,344.2,313.5z"/>
</g>
</svg>
