<?xml version="1.0" encoding="utf-8"?>
<!-- Generator: Adobe Illustrator 24.0.1, SVG Export Plug-In . SVG Version: 6.00 Build 0)  -->
<svg version="1.1" id="Layer_1" xmlns="http://www.w3.org/2000/svg" xmlns:xlink="http://www.w3.org/1999/xlink" x="0px" y="0px"
	 viewBox="0 0 512 512" style="enable-background:new 0 0 512 512;" xml:space="preserve">
<style type="text/css">
	.st0{fill:#DDDDDD;}
	.st1{fill:url(#SVGID_1_);}
	.st2{fill:#FFFFFF;}
</style>
<path class="st0" d="M110.9,85.5c21.1-22.1,53.5-55.2,103.2-61.5c61.5-7.8,110.5,30.3,135,49.4c94.1,73.2,180.2,233.3,124,326
	c-72.8,120-374.9,111.4-443.4-31.8C-15,274.1,51.5,147.8,110.9,85.5z"/>
<linearGradient id="SVGID_1_" gradientUnits="userSpaceOnUse" x1="22.802" y1="252.9033" x2="498.6976" y2="252.9033">
	<stop  offset="0" style="stop-color:#6CD25A"/>
	<stop  offset="1" style="stop-color:#082409"/>
</linearGradient>
<path class="st1" d="M480.8,399.4c-72.8,120-374.8,111.4-443.4-31.8C31,354,26.8,339.8,24.7,325.1c-2.9-19.3-2.3-39.3,0.9-59.3
	c11.1-69.4,53.7-139,93.1-180.3c21.1-22.1,53.5-55.2,103.2-61.5c45.8-5.8,84.6,13.8,111.6,32.1c9.3,6.3,17.1,12.4,23.4,17.3
	c0.4,0.3,0.8,0.6,1.2,0.9c50.7,39.9,98.9,104.8,123.6,170.7c2.8,7.5,5.3,15,7.5,22.5c2.1,7.3,3.9,14.5,5.3,21.8
	c1.8,9.2,3.1,18.2,3.8,27.1C500.4,346.8,495.4,375.4,480.8,399.4z"/>
<g>
	<path class="st2" d="M73.6,183h63c27.8,0,49.5,8.3,65.2,24.8s23.4,39.5,23.4,69c0,29.6-7.8,52.7-23.4,69.2
		c-15.5,16.5-37.3,24.8-65.3,24.8h-63C73.6,370.7,73.6,183,73.6,183z M97.1,204.1v145.5h38.1c21.2,0,37.6-6.3,49-18.8
		s17.1-30.5,17.1-53.8c0-23.5-5.7-41.6-17.1-54.1c-11.4-12.6-27.8-18.8-49.1-18.8L97.1,204.1L97.1,204.1z"/>
	<path class="st2" d="M422.8,235.4l-37.7,135.2h-23L331.6,266H331l-30.5,104.7h-23l-37.8-135.2h22.5l27.1,110h0.5l30.5-110h21.8
		l30.7,110h0.5l27.1-110L422.8,235.4L422.8,235.4z"/>
</g>
</svg>
