<?xml version="1.0" encoding="utf-8"?>
<!-- Generator: Adobe Illustrator 24.0.1, SVG Export Plug-In . SVG Version: 6.00 Build 0)  -->
<svg version="1.1" id="Layer_1" xmlns="http://www.w3.org/2000/svg" xmlns:xlink="http://www.w3.org/1999/xlink" x="0px" y="0px"
	 viewBox="0 0 512 512" style="enable-background:new 0 0 512 512;" xml:space="preserve">
<style type="text/css">
	.st0{fill:#DDDDDD;}
	.st1{fill:url(#SVGID_1_);}
	.st2{fill:url(#SVGID_2_);}
	.st3{fill:url(#SVGID_3_);}
	.st4{fill:url(#SVGID_4_);}
	.st5{fill:url(#SVGID_5_);}
	.st6{fill:url(#SVGID_6_);}
	.st7{fill:url(#SVGID_7_);}
</style>
<path class="st0" d="M110.9,85.5C132,63.4,164.4,30.3,214.1,24c61.5-7.8,110.5,30.3,135,49.4c94.1,73.2,180.2,233.3,124,326
	c-72.8,120-374.9,111.4-443.4-31.8C-15,274.1,51.5,147.8,110.9,85.5z"/>
<linearGradient id="SVGID_1_" gradientUnits="userSpaceOnUse" x1="22.8682" y1="252.8214" x2="498.7591" y2="252.8214">
	<stop  offset="5.618000e-03" style="stop-color:#D3EDF0"/>
	<stop  offset="0.4494" style="stop-color:#AEDFE6"/>
	<stop  offset="1" style="stop-color:#7CCFDA"/>
</linearGradient>
<path class="st1" d="M495.5,361.8c-2.9,13.4-7.7,26.1-14.7,37.7c-10.6,17.5-26.1,32.2-45,44.2c-23.3,14.8-51.8,25.4-82.9,31.8
	c-11.7,2.4-23.7,4.2-36,5.4c-11.6,1.2-23.5,1.8-35.4,1.9c-0.8,0-1.7,0-2.5,0c-12.7,0-25.5-0.6-38.2-1.9c-6.3-0.6-12.6-1.4-18.8-2.3
	c-16.9-2.5-33.5-6.1-49.5-10.8c-4.4-1.3-8.7-2.7-13-4.1c-6-2-11.9-4.2-17.6-6.6c-6.2-2.6-12.4-5.3-18.3-8.3
	c-1.2-0.6-2.4-1.2-3.6-1.8c-7.9-4.1-15.5-8.5-22.7-13.3c-24.1-16.1-43.8-36.1-56.7-60.2c-1.1-2-2.1-4-3-6c-1.2-2.5-2.3-4.9-3.4-7.4
	c-4.7-11.2-7.8-22.9-9.5-34.9c-0.8-5.3-1.3-10.6-1.6-16c-0.7-14.2,0.2-28.7,2.5-43.2C34.3,211,62.8,156.1,93.8,115
	c0.5-0.7,1.1-1.4,1.6-2.1c7.7-10.1,15.6-19.3,23.3-27.4c17.7-18.5,43.2-44.6,80.1-56.4c7.3-2.3,15-4.1,23.1-5.1
	c45.8-5.8,84.6,13.8,111.6,32.1c9.3,6.3,17.1,12.4,23.4,17.3c0.4,0.3,0.8,0.6,1.2,0.9C408.8,114.2,457,179.1,481.7,245
	c2.8,7.5,5.3,15,7.5,22.5c2.1,7.3,3.9,14.5,5.3,21.8c1,4.9,1.8,9.9,2.5,14.7c0.4,3.1,0.8,6.1,1,9.1c0.1,1.1,0.2,2.2,0.3,3.3
	C499.4,332.1,498.6,347.4,495.5,361.8z"/>
<linearGradient id="SVGID_2_" gradientUnits="userSpaceOnUse" x1="0.1176" y1="773.5" x2="1.1876" y2="773.5" gradientTransform="matrix(1 0 0 1 0 -278)">
	<stop  offset="0" style="stop-color:#5B57A5"/>
	<stop  offset="0.5" style="stop-color:#2E3092"/>
	<stop  offset="1" style="stop-color:#474374"/>
</linearGradient>
<path class="st2" d="M1.1,496L1.1,496c-0.3-0.3-0.6-0.6-1-1C0.4,495.4,0.7,495.7,1.1,496z"/>
<linearGradient id="SVGID_3_" gradientUnits="userSpaceOnUse" x1="1.3076" y1="774.4" x2="1.6076" y2="774.4" gradientTransform="matrix(1 0 0 1 0 -278)">
	<stop  offset="0" style="stop-color:#5B57A5"/>
	<stop  offset="0.5" style="stop-color:#2E3092"/>
	<stop  offset="1" style="stop-color:#474374"/>
</linearGradient>
<path class="st3" d="M1.3,496.3c0.1,0,0.2,0.1,0.3,0.2c-0.1,0-0.1-0.1-0.2-0.1L1.3,496.3z"/>
<linearGradient id="SVGID_4_" gradientUnits="userSpaceOnUse" x1="1.6676" y1="774.6375" x2="1.9076" y2="774.6375" gradientTransform="matrix(1 0 0 1 0 -278)">
	<stop  offset="0" style="stop-color:#5B57A5"/>
	<stop  offset="0.5" style="stop-color:#2E3092"/>
	<stop  offset="1" style="stop-color:#474374"/>
</linearGradient>
<path class="st4" d="M1.8,496.6L1.8,496.6C1.9,496.7,1.9,496.7,1.8,496.6L1.8,496.6L1.8,496.6z"/>
<linearGradient id="SVGID_5_" gradientUnits="userSpaceOnUse" x1="44.14" y1="452.89" x2="48.01" y2="452.89">
	<stop  offset="5.618000e-03" style="stop-color:#E2E5F4"/>
	<stop  offset="0.4494" style="stop-color:#C7CEE9"/>
	<stop  offset="1" style="stop-color:#A8B5DC"/>
</linearGradient>
<path class="st5" d="M44.1,450.8c1.3,1.4,2.5,2.8,3.9,4.2C46.7,453.6,45.4,452.2,44.1,450.8z"/>
<linearGradient id="SVGID_6_" gradientUnits="userSpaceOnUse" x1="22.8682" y1="281.865" x2="148.51" y2="281.865">
	<stop  offset="5.618000e-03" style="stop-color:#E2E5F4"/>
	<stop  offset="0.4494" style="stop-color:#C7CEE9"/>
	<stop  offset="1" style="stop-color:#A8B5DC"/>
</linearGradient>
<path class="st6" d="M148.5,309.7c0,51.3-9.2,99.1-24.9,139c-1.2-0.6-2.4-1.2-3.6-1.8c-7.9-4.1-15.5-8.5-22.7-13.3
	c-24.1-16.1-43.8-36.1-56.7-60.2c-1.1-2-2.1-4-3-6c-1.2-2.5-2.3-4.9-3.4-7.4c-4.7-11.2-7.8-22.9-9.5-34.9c-0.8-5.3-1.3-10.6-1.6-16
	c-0.7-14.2,0.2-28.7,2.5-43.2C34.3,211,62.8,156.1,93.8,115c6.7,9.3,13,19.6,18.6,30.8c20.3,39.9,33.4,90.5,35.7,146v0.1
	C148.4,297.7,148.5,303.6,148.5,309.7z"/>
<linearGradient id="SVGID_7_" gradientUnits="userSpaceOnUse" x1="34.22" y1="377.28" x2="498.7591" y2="377.28">
	<stop  offset="5.618000e-03" style="stop-color:#E2E5F4"/>
	<stop  offset="0.4494" style="stop-color:#C7CEE9"/>
	<stop  offset="1" style="stop-color:#A8B5DC"/>
</linearGradient>
<path class="st7" d="M495.5,361.8c-2.9,13.4-7.7,26.1-14.7,37.7c-10.6,17.5-26.1,32.2-45,44.2c-23.3,14.8-51.8,25.4-82.9,31.8
	c-11.7,2.4-23.7,4.2-36,5.4c-11.6,1.2-23.5,1.8-35.4,1.9c-12.2-0.1-24.4-0.7-36.5-1.9c-6.4-0.6-12.9-1.4-19.2-2.3
	c-17.2-2.5-34.2-6.1-50.5-10.8c-4.5-1.3-8.9-2.7-13.3-4.1c-6.1-2-12.2-4.2-18-6.6c-6.4-2.6-12.6-5.3-18.7-8.3
	c-1.2-0.6-2.5-1.2-3.7-1.8c-8.1-4.1-15.8-8.5-23.2-13.3c-24.6-16.1-44.7-36.1-57.9-60.2c-1.1-2-2.1-4-3.1-6
	c-1.2-2.5-2.4-4.9-3.5-7.4c29.9-30.5,70.9-53.3,116-68.1c0.1,0,0.2-0.1,0.2-0.1c40.4-13.2,84.4-19.9,126.5-19.9
	c72.3,0,159.8,11.6,221,41.2c0.1,1.1,0.2,2.2,0.3,3.3C499.4,332.1,498.6,347.4,495.5,361.8z"/>
</svg>
