<?xml version="1.0" encoding="utf-8"?>
<!-- Generator: Adobe Illustrator 24.0.1, SVG Export Plug-In . SVG Version: 6.00 Build 0)  -->
<svg version="1.1" id="Layer_1" xmlns="http://www.w3.org/2000/svg" xmlns:xlink="http://www.w3.org/1999/xlink" x="0px" y="0px"
	 viewBox="0 0 512 512" style="enable-background:new 0 0 512 512;" xml:space="preserve">
<style type="text/css">
	.st0{fill:#DDDDDD;}
	.st1{fill:url(#SVGID_1_);}
	.st2{fill:#FFFFFF;}
</style>
<path class="st0" d="M110.9,85.5C132,63.4,164.4,30.3,214.1,24c61.5-7.8,110.5,30.3,135,49.4c94.1,73.2,180.2,233.3,124,326
	c-72.8,120-374.9,111.4-443.4-31.8C-15,274.1,51.5,147.8,110.9,85.5z"/>
<linearGradient id="SVGID_1_" gradientUnits="userSpaceOnUse" x1="22.8281" y1="261.1801" x2="498.7581" y2="261.1801" gradientTransform="matrix(1 0 0 -1 0 514)">
	<stop  offset="0" style="stop-color:#31D5DD"/>
	<stop  offset="1" style="stop-color:#0E3C48"/>
</linearGradient>
<path class="st1" d="M480.8,399.4c-55.4,91.4-244,108.2-360.9,47.7c-7.9-4.1-15.5-8.5-22.7-13.3c-24.1-16.1-43.8-36.1-56.7-60.2
	c-1.1-2-2.1-4-3-6C31,354,26.8,339.8,24.7,325.1c-2.9-19.3-2.3-39.3,0.9-59.3c8.9-55.8,38.2-111.7,69.8-153
	c7.7-10.1,15.6-19.3,23.3-27.4c17.7-18.5,43.2-44.6,80.1-56.4c7.3-2.3,15-4.1,23.1-5.1c45.8-5.8,84.6,13.8,111.6,32.1
	c9.3,6.3,17.1,12.4,23.4,17.3c0.4,0.3,0.8,0.6,1.2,0.9C408.8,114.1,457,179,481.7,244.9c2.8,7.5,5.3,15,7.5,22.5
	c2.1,7.3,3.9,14.5,5.3,21.8c1,4.9,1.8,9.9,2.5,14.7c0.6,4.2,1,8.3,1.3,12.4C500.4,346.8,495.4,375.4,480.8,399.4z"/>
<g>
	<path class="st2" d="M198.7,29.2c-36.9,11.8-62.4,37.9-80.1,56.4c-7.7,8.1-15.6,17.3-23.3,27.4c-31.6,41.3-60.9,97.2-69.8,153
		c-3.2,20-3.8,40-0.9,59.3c2.2,14.7,6.3,28.9,12.8,42.5c1,2,2,4,3,6c12.9,24.1,32.7,44.1,56.7,60.2c70-58.2,133.9-186.6,133.9-286.3
		C231.2,99.4,219.2,60,198.7,29.2z M144.5,310.7c-24.9,24.9-59.8,34-91.9,27.3c-6.7-32.3,2.3-67,27.3-91.9
		c24.9-24.9,59.8-34,91.9-27.3C178.7,250.9,169.6,285.7,144.5,310.7z"/>
</g>
</svg>
