<?xml version="1.0" encoding="utf-8"?>
<!-- Generator: Adobe Illustrator 24.0.1, SVG Export Plug-In . SVG Version: 6.00 Build 0)  -->
<svg version="1.1" id="Layer_1" xmlns="http://www.w3.org/2000/svg" xmlns:xlink="http://www.w3.org/1999/xlink" x="0px" y="0px"
	 viewBox="0 0 512 512" style="enable-background:new 0 0 512 512;" xml:space="preserve">
<style type="text/css">
	.st0{fill:#DDDDDD;}
	.st1{fill:url(#SVGID_1_);}
	.st2{fill:url(#SVGID_2_);}
	.st3{fill:url(#SVGID_3_);}
	.st4{fill:url(#SVGID_4_);}
	.st5{fill:#FFFFFF;}
	.st6{fill:#161616;}
</style>
<path class="st0" d="M110.9,85.5C132,63.4,164.4,30.3,214.1,24c61.5-7.8,110.5,30.3,135,49.4c94.1,73.2,180.2,233.3,124,326
	c-72.8,120-374.9,111.4-443.4-31.8C-15,274.1,51.5,147.8,110.9,85.5z"/>
<linearGradient id="SVGID_1_" gradientUnits="userSpaceOnUse" x1="22.8682" y1="261.1215" x2="498.7581" y2="261.1215" gradientTransform="matrix(1 0 0 -1 0 514)">
	<stop  offset="0" style="stop-color:#FFFFFF"/>
	<stop  offset="0.1102" style="stop-color:#CBE2F0"/>
	<stop  offset="0.239" style="stop-color:#96C5E1"/>
	<stop  offset="0.3696" style="stop-color:#68ABD3"/>
	<stop  offset="0.4992" style="stop-color:#4396C8"/>
	<stop  offset="0.6276" style="stop-color:#2586C0"/>
	<stop  offset="0.7546" style="stop-color:#117ABA"/>
	<stop  offset="0.8795" style="stop-color:#0473B6"/>
	<stop  offset="1" style="stop-color:#0071B5"/>
</linearGradient>
<path class="st1" d="M480.8,399.4c-49.5,81.7-205.3,103.8-321.4,64.4c-6-2-11.9-4.2-17.6-6.6l0,0l0,0c-7.5-3.1-14.9-6.5-21.9-10.1
	c-7.9-4.1-15.5-8.5-22.7-13.3c-24.1-16.1-43.8-36.1-56.7-60.2c-1.1-2-2.1-4-3-6C31,354,26.8,339.8,24.7,325.1
	c-0.8-5.3-1.3-10.6-1.6-16c-0.7-14.2,0.2-28.7,2.5-43.2c8.9-55.8,38.2-111.7,69.8-153c7.7-10.1,15.6-19.3,23.3-27.4
	c17.7-18.5,43.2-44.6,80.1-56.4c7.3-2.3,15-4.1,23.1-5.1c45.8-5.8,84.6,13.8,111.6,32.1c9.3,6.3,17.1,12.4,23.4,17.3
	c0.4,0.3,0.8,0.6,1.2,0.9C408.8,114.2,457,179.1,481.7,245c2.8,7.5,5.3,15,7.5,22.5c2.1,7.3,3.9,14.5,5.3,21.8
	c1,4.9,1.8,9.9,2.5,14.7c0.6,4.2,1,8.3,1.3,12.4C500.4,346.8,495.4,375.4,480.8,399.4z"/>
<linearGradient id="SVGID_2_" gradientUnits="userSpaceOnUse" x1="0.1176" y1="773.5" x2="1.1876" y2="773.5" gradientTransform="matrix(1 0 0 1 0 -278)">
	<stop  offset="0" style="stop-color:#5B57A5"/>
	<stop  offset="0.5" style="stop-color:#2E3092"/>
	<stop  offset="1" style="stop-color:#474374"/>
</linearGradient>
<path class="st2" d="M1.1,496L1.1,496c-0.3-0.3-0.6-0.6-1-1C0.4,495.4,0.7,495.7,1.1,496z"/>
<linearGradient id="SVGID_3_" gradientUnits="userSpaceOnUse" x1="1.3076" y1="774.4" x2="1.6076" y2="774.4" gradientTransform="matrix(1 0 0 1 0 -278)">
	<stop  offset="0" style="stop-color:#5B57A5"/>
	<stop  offset="0.5" style="stop-color:#2E3092"/>
	<stop  offset="1" style="stop-color:#474374"/>
</linearGradient>
<path class="st3" d="M1.3,496.3c0.1,0,0.2,0.1,0.3,0.2c-0.1,0-0.1-0.1-0.2-0.1L1.3,496.3z"/>
<linearGradient id="SVGID_4_" gradientUnits="userSpaceOnUse" x1="1.6676" y1="774.6375" x2="1.9076" y2="774.6375" gradientTransform="matrix(1 0 0 1 0 -278)">
	<stop  offset="0" style="stop-color:#5B57A5"/>
	<stop  offset="0.5" style="stop-color:#2E3092"/>
	<stop  offset="1" style="stop-color:#474374"/>
</linearGradient>
<path class="st4" d="M1.8,496.6L1.8,496.6C1.9,496.7,1.9,496.7,1.8,496.6L1.8,496.6L1.8,496.6z"/>
<g>
	<path class="st5" d="M284.6,238.7l-30.3,46.4l-29.9,45.8l0,0l-22.3,34.3l-0.1,0.1l-0.1,0.1L173.5,409l-0.2,0.3l-31.4,47.9l-0.3,0.4
		l0,0l0.3-0.4c-7.5-3.1-14.9-6.5-21.9-10.1c-7.9-4.1-15.5-8.5-22.7-13.3c-24.1-16.1-43.8-36.1-56.7-60.2c-1.1-2-2.1-4-3-6
		C31,354,26.8,339.8,24.7,325.1c-0.8-5.3-1.3-10.6-1.6-16l26.7-18.2l52.3-35.7l41.6-28.4c5.4-3.9,11.8-6,18.3-6
		c4.3,0,8.7,0.9,12.8,2.8c11.8,5.3,25.6,2.8,34.8-6.4l24-24c3.3-3.3,7.7-5,12-5c4.5,0,9,1.8,12.3,5.3l0,0c0.2,0.2,0.4,0.5,0.6,0.7
		l0.9,1.1l13.1,15.9l-9,9c-1.7,1.7-1.7,4.4,0,6.1c0.8,0.8,2,1.3,3.1,1.3s2.2-0.4,3.1-1.3l8.4-8.4l6,7.3
		C287,229.1,287.3,234.5,284.6,238.7z"/>
	<path class="st5" d="M105.3,282.4l-67.1,39.8l39.5-107.8l0,0l7.2,8.6c12.3,14.7,19.4,33,20.3,52
		C105.4,277.5,105.4,279.9,105.3,282.4z"/>
	<path class="st5" d="M226.4,200.1L226.4,200.1c10.2,5.4,22.7,4,31.5-3.6l1.4-1.2l-5.6-6.6c-3.9-4.6-10.9-4.9-15.2-0.7L226.4,200.1z
		"/>
	<path class="st6" d="M148.9,260.3L148.9,260.3c8-8.6,18.4-14.6,29.8-17.3l1.9-0.5l0,0c-3.9,9-12.2,15.2-22,16.5L148.9,260.3z"/>
	<polygon class="st5" points="202,365.2 186.2,420.7 173.4,408.9 	"/>
	<path class="st5" d="M173.4,408.9l-0.1,0.4l-13.8,54.5c-6-2-11.9-4.2-17.6-6.6l0,0l0,0L173.4,408.9z"/>
	<polygon class="st5" points="224.4,330.8 217.2,368.7 202,365.2 	"/>
</g>
</svg>
