<?xml version="1.0" encoding="utf-8"?>
<!-- Generator: Adobe Illustrator 24.0.1, SVG Export Plug-In . SVG Version: 6.00 Build 0)  -->
<svg version="1.1" id="Layer_1" xmlns="http://www.w3.org/2000/svg" xmlns:xlink="http://www.w3.org/1999/xlink" x="0px" y="0px"
	 viewBox="0 0 512 512" style="enable-background:new 0 0 512 512;" xml:space="preserve">
<style type="text/css">
	.st0{fill:#DDDDDD;}
	.st1{fill:url(#SVGID_1_);}
	.st2{fill:url(#SVGID_2_);}
	.st3{fill:url(#SVGID_3_);}
	.st4{fill:url(#SVGID_4_);}
	.st5{fill:#FFFFFF;}
</style>
<path class="st0" d="M110.9,85.5C132,63.4,164.4,30.3,214.1,24c61.5-7.8,110.5,30.3,135,49.4c94.1,73.2,180.2,233.3,124,326
	c-72.8,120-374.9,111.4-443.4-31.8C-15,274.1,51.5,147.8,110.9,85.5z"/>
<linearGradient id="SVGID_1_" gradientUnits="userSpaceOnUse" x1="22.8682" y1="261.1215" x2="498.7581" y2="261.1215" gradientTransform="matrix(1 0 0 -1 0 514)">
	<stop  offset="0" style="stop-color:#FFE7A3"/>
	<stop  offset="0.4065" style="stop-color:#FFCA05"/>
	<stop  offset="1" style="stop-color:#FAAC18"/>
</linearGradient>
<path class="st1" d="M480.8,399.4c-49.5,81.7-205.3,103.8-321.4,64.4c-6-2-11.9-4.2-17.6-6.6l0,0l0,0c-7.5-3.1-14.9-6.5-21.9-10.1
	c-7.9-4.1-15.5-8.5-22.7-13.3c-24.1-16.1-43.8-36.1-56.7-60.2c-1.1-2-2.1-4-3-6C31,354,26.8,339.8,24.7,325.1
	c-0.8-5.3-1.3-10.6-1.6-16c-0.7-14.2,0.2-28.7,2.5-43.2c8.9-55.8,38.2-111.7,69.8-153c7.7-10.1,15.6-19.3,23.3-27.4
	c17.7-18.5,43.2-44.6,80.1-56.4c7.3-2.3,15-4.1,23.1-5.1c45.8-5.8,84.6,13.8,111.6,32.1c9.3,6.3,17.1,12.4,23.4,17.3
	c0.4,0.3,0.8,0.6,1.2,0.9C408.8,114.2,457,179.1,481.7,245c2.8,7.5,5.3,15,7.5,22.5c2.1,7.3,3.9,14.5,5.3,21.8
	c1,4.9,1.8,9.9,2.5,14.7c0.6,4.2,1,8.3,1.3,12.4C500.4,346.8,495.4,375.4,480.8,399.4z"/>
<linearGradient id="SVGID_2_" gradientUnits="userSpaceOnUse" x1="0.1176" y1="773.5" x2="1.1876" y2="773.5" gradientTransform="matrix(1 0 0 1 0 -278)">
	<stop  offset="0" style="stop-color:#5B57A5"/>
	<stop  offset="0.5" style="stop-color:#2E3092"/>
	<stop  offset="1" style="stop-color:#474374"/>
</linearGradient>
<path class="st2" d="M1.1,496L1.1,496c-0.3-0.3-0.6-0.6-1-1C0.4,495.4,0.7,495.7,1.1,496z"/>
<linearGradient id="SVGID_3_" gradientUnits="userSpaceOnUse" x1="1.3076" y1="774.4" x2="1.6076" y2="774.4" gradientTransform="matrix(1 0 0 1 0 -278)">
	<stop  offset="0" style="stop-color:#5B57A5"/>
	<stop  offset="0.5" style="stop-color:#2E3092"/>
	<stop  offset="1" style="stop-color:#474374"/>
</linearGradient>
<path class="st3" d="M1.3,496.3c0.1,0,0.2,0.1,0.3,0.2c-0.1,0-0.1-0.1-0.2-0.1L1.3,496.3z"/>
<linearGradient id="SVGID_4_" gradientUnits="userSpaceOnUse" x1="1.6676" y1="774.6375" x2="1.9076" y2="774.6375" gradientTransform="matrix(1 0 0 1 0 -278)">
	<stop  offset="0" style="stop-color:#5B57A5"/>
	<stop  offset="0.5" style="stop-color:#2E3092"/>
	<stop  offset="1" style="stop-color:#474374"/>
</linearGradient>
<path class="st4" d="M1.8,496.6L1.8,496.6C1.9,496.7,1.9,496.7,1.8,496.6L1.8,496.6L1.8,496.6z"/>
<path class="st5" d="M260.4,191.3c-8.1-0.7-25.6-0.8-52.7,4.8c-38.5,8.1-56.2,43.6-56.2,71.4s26.7,60,66.6,60
	c30.6,0,47.8-18.3,54.2-27.1c1.5-2,4.4-1.8,5.7,0.1c1.6,2.5,3.8,5.8,6.7,9.4c3.2,3.8,7.3,7.8,10.7,10.7c3.3,2.8,8.2,2.6,11.2-0.3
	l26.5-25.2c3-2.9,3.4-7.7,0.9-11.1c-1.5-2-3.3-4.5-5.5-7.8c-7.1-10-6.9-18.1-6.9-18.1v-93.6c0-11.2-6.9-57.4-78.4-57.4
	c-58.5,0-76.3,41.7-80.9,56.9c-0.9,2.9,1.1,5.9,4.1,6.5l36.3,6.2c2.2,0.4,4.4-0.8,5.4-2.8c4-8.1,15.6-27.7,33.7-27.7
	c22.8,0,23.8,18.6,23.8,18.6v21.5C265.6,189.3,263.2,191.4,260.4,191.3z M266.2,225.8v27.3c0,14.3-9.8,26.8-23.8,29.8
	c-3.6,0.8-7.7,1.3-12.4,1.3c-30.2,0-24.5-38.8-10.7-50.3c10.6-8.7,31.9-11.7,41.7-12.7C263.9,221,266.2,223.1,266.2,225.8z"/>
<path class="st5" d="M351,339.3c14.6-1.7,21.1-3.6,25.5,0.3c4.5,4,2.9,11.9,0,21s-10,16.6-3.2,20.5c8.1,4.4,39.1-35.8,26.3-55.7
	c-10.7-16.6-55.7,2-59.1,4.2c-3.3,2.2-3.3,4.9-3.3,4.9S336.3,341.1,351,339.3z"/>
<path class="st5" d="M239.8,404.9c54.1,0,76.9-11.2,100.3-24.3c23.4-13.1,27.8-22.8,24.5-28.9s-16.6,0.1-28.4,5.3
	c-11.9,5-48.3,19-100.7,19s-105.1-37-116.4-44.9c-11.2-7.8-15.3,0-15.3,0s-3.4,6.5,7,19.3C121.5,363.1,174,404.9,239.8,404.9z"/>
</svg>
