<?xml version="1.0" encoding="utf-8"?>
<!-- Generator: Adobe Illustrator 24.0.1, SVG Export Plug-In . SVG Version: 6.00 Build 0)  -->
<svg version="1.1" id="Layer_1" xmlns="http://www.w3.org/2000/svg" xmlns:xlink="http://www.w3.org/1999/xlink" x="0px" y="0px"
	 viewBox="0 0 512 512" style="enable-background:new 0 0 512 512;" xml:space="preserve">
<style type="text/css">
	.st0{fill:#DDDDDD;}
	.st1{fill:url(#SVGID_1_);}
	.st2{fill:url(#SVGID_2_);}
	.st3{fill:url(#SVGID_3_);}
	.st4{fill:url(#SVGID_4_);}
	.st5{fill:#FFFFFF;}
</style>
<path class="st0" d="M110.9,85.5c21.1-22.1,53.5-55.2,103.2-61.5c61.5-7.8,110.5,30.3,135,49.4c94.1,73.2,180.2,233.3,124,326
	c-72.8,120-374.9,111.4-443.4-31.8C-15,274.1,51.5,147.8,110.9,85.5z"/>
<linearGradient id="SVGID_1_" gradientUnits="userSpaceOnUse" x1="22.8021" y1="252.9008" x2="498.6976" y2="252.9008">
	<stop  offset="0" style="stop-color:#7C76B7"/>
	<stop  offset="0.5" style="stop-color:#6561AB"/>
	<stop  offset="1" style="stop-color:#483F99"/>
</linearGradient>
<path class="st1" d="M480.8,399.4c-10.6,17.5-26.1,32.2-45,44.2c-23.3,14.8-51.8,25.4-82.9,31.8c-11.7,2.4-23.7,4.2-36,5.4h0
	c-24.9,2.5-50.7,2.5-76.1,0c-6.3-0.6-12.6-1.4-18.8-2.3c-16.9-2.5-33.5-6.1-49.5-10.8c0,0,0,0,0,0c-4.4-1.3-8.7-2.7-13-4.1
	c-6-2-11.9-4.2-17.6-6.6l0,0v0c-7.5-3.1-14.9-6.5-21.9-10.1c-7.9-4.1-15.5-8.5-22.7-13.3c-24.1-16.1-43.8-36.1-56.7-60.2
	c-1.1-2-2.1-4-3-6C31,354,26.8,339.8,24.7,325.1c-0.8-5.3-1.3-10.6-1.6-16c-0.7-14.2,0.2-28.7,2.5-43.2
	c8.9-55.8,38.2-111.7,69.8-153c7.7-10.1,15.6-19.3,23.3-27.4c17.7-18.5,43.2-44.6,80.1-56.4c7.3-2.3,15-4.1,23.1-5.1
	c45.8-5.8,84.6,13.8,111.6,32.1c9.3,6.3,17.1,12.4,23.4,17.3c0.4,0.3,0.8,0.6,1.2,0.9c50.7,39.9,98.9,104.8,123.6,170.7
	c2.8,7.5,5.3,15,7.5,22.5c2.1,7.3,3.9,14.5,5.3,21.8c1,4.9,1.8,9.9,2.5,14.7c0.6,4.2,1,8.3,1.3,12.4
	C500.4,346.8,495.4,375.4,480.8,399.4z"/>
<linearGradient id="SVGID_2_" gradientUnits="userSpaceOnUse" x1="0.1176" y1="18.4696" x2="1.1876" y2="18.4696" gradientTransform="matrix(1 0 0 -1 0 514)">
	<stop  offset="0" style="stop-color:#5B57A5"/>
	<stop  offset="0.5" style="stop-color:#2E3092"/>
	<stop  offset="1" style="stop-color:#474374"/>
</linearGradient>
<path class="st2" d="M1.1,496L1.1,496c-0.3-0.3-0.6-0.6-1-1C0.4,495.4,0.7,495.7,1.1,496z"/>
<linearGradient id="SVGID_3_" gradientUnits="userSpaceOnUse" x1="1.3076" y1="17.6196" x2="1.6076" y2="17.6196" gradientTransform="matrix(1 0 0 -1 0 514)">
	<stop  offset="0" style="stop-color:#5B57A5"/>
	<stop  offset="0.5" style="stop-color:#2E3092"/>
	<stop  offset="1" style="stop-color:#474374"/>
</linearGradient>
<path class="st3" d="M1.3,496.3c0.1,0,0.2,0.1,0.3,0.2c-0.1,0-0.1-0.1-0.2-0.1L1.3,496.3z"/>
<linearGradient id="SVGID_4_" gradientUnits="userSpaceOnUse" x1="1.6676" y1="17.3697" x2="1.9076" y2="17.3697" gradientTransform="matrix(1 0 0 -1 0 514)">
	<stop  offset="0" style="stop-color:#5B57A5"/>
	<stop  offset="0.5" style="stop-color:#2E3092"/>
	<stop  offset="1" style="stop-color:#474374"/>
</linearGradient>
<path class="st4" d="M1.8,496.6L1.8,496.6C1.9,496.7,1.9,496.7,1.8,496.6L1.8,496.6C1.8,496.6,1.8,496.6,1.8,496.6z"/>
<g>
	<g transform="translate(0.000000,227.000000) scale(0.100000,-0.100000)">
		<path class="st5" d="M3180.1,550.6l-8.8-69c-5.9-39.6-13.2-113-19.1-165.9l-8.8-95.5l-120.4-1.5
			c-584.4-5.9-1114.6-443.5-1309.8-1082.2c-29.3-95.5-39.6-164.5-45.5-333.4c-16.2-417.1,57.3-672.6,293.7-1017.7
			c57.8-85.3,158.7-201.4,258.6-301.8c-168.9,24.8-335.2,60.7-495.2,107.6c-0.1,0-0.2,0.1-0.3,0.1c-13,7.6-25.9,15.4-38.6,23.4
			c-0.8,0.5-1.6,1-2.4,1.5c-0.4,0.6-0.8,1.2-1.2,1.8c-292.3,437.6-402.4,879.6-336.3,1346.6c48.4,336.3,205.6,696,406.8,932.5
			c295.2,348,610.9,541.9,1011.8,625.6c69,13.1,189.4,26.4,270.1,26.4L3180.1,550.6z"/>
		<path class="st5" d="M3829.1-199.9c-36.7-74.9-69.1-139.5-72-141c-1.5-1.5-52.9,16.1-113.1,41.1
			c-151.2,61.7-289.3,89.6-461.1,89.6c-234.9,2.9-419.9-50-612.3-173.3c-195.3-124.8-345.1-321.6-427.3-561
			c-39.7-114.5-44.1-145.4-44.1-311.3c0-628.7,396.1-1095.1,1070.5-1283.4c-248.9-24.7-506.7-24.8-761.5-0.1
			c-198.1,149.5-362.8,342.6-471.9,556.7c-211.4,415.6-229.1,912-45.5,1296.7C2092-261.5,2487,36.6,2948.1,111.5
			c41.1,5.8,166,8.8,278.9,5.8c213-5.8,359.8-35.2,550.7-110.1C3906.9-42.8,3906.9-42.8,3829.1-199.9z"/>
		<path class="st5" d="M4358.8-2166.4c-233.1-148.1-518.5-254.4-829.3-318.5c-53.2,5.4-93.3,12.8-140.8,23.6
			c-539,116-894.3,345.1-1063.2,681.3c-86.6,171.8-110.1,279-110.1,480.2c0,323.1,113,578.6,343.6,769.5
			c95.4,79.3,311.3,180.6,440.5,205.6c245.3,47,456.7,19.1,675.3-88c116-57.3,160.1-89.6,257-189.4
			c104.3-105.7,185-218.8,167.4-233.5c-2.9-3-69-38.2-146.8-80.8l-141-74.9l-36.7,54.3c-204.2,308.3-635.9,389.1-951.6,179.1
			c-267.2-179.2-353.9-549.2-202.6-863.5c42.6-88.1,196.8-246.7,295.2-306.9C3251.2-2130.4,3665.6-2198.2,4358.8-2166.4z"/>
	</g>
</g>
</svg>
