<?xml version="1.0" encoding="utf-8"?>
<!-- Generator: Adobe Illustrator 24.0.1, SVG Export Plug-In . SVG Version: 6.00 Build 0)  -->
<svg version="1.1" id="Layer_1" xmlns="http://www.w3.org/2000/svg" xmlns:xlink="http://www.w3.org/1999/xlink" x="0px" y="0px"
	 viewBox="0 0 512 512" style="enable-background:new 0 0 512 512;" xml:space="preserve">
<style type="text/css">
	.st0{fill:#DDDDDD;}
	.st1{fill:url(#SVGID_1_);}
	.st2{fill:#FFFFFF;stroke:#3A3A3A;stroke-width:4;stroke-miterlimit:10;}
</style>
<path class="st0" d="M110.9,85.5C132,63.4,164.4,30.3,214.1,24c61.5-7.8,110.5,30.3,135,49.4c94.1,73.2,180.2,233.3,124,326
	c-72.8,120-374.9,111.4-443.4-31.8C-15,274.1,51.5,147.8,110.9,85.5z"/>
<linearGradient id="SVGID_1_" gradientUnits="userSpaceOnUse" x1="22.8281" y1="261.1277" x2="498.7581" y2="261.1277" gradientTransform="matrix(1 0 0 -1 0 514)">
	<stop  offset="0" style="stop-color:#7C76B7"/>
	<stop  offset="0.5" style="stop-color:#6561AB"/>
	<stop  offset="1" style="stop-color:#483F99"/>
</linearGradient>
<path class="st1" d="M480.8,399.4C408,519.4,106,510.8,37.4,367.6C31,354,26.8,339.8,24.7,325.1c-2.9-19.3-2.3-39.3,0.9-59.3
	c11.1-69.4,53.7-139,93.1-180.3c21.1-22.1,53.5-55.2,103.2-61.5c45.8-5.8,84.6,13.8,111.6,32.1c9.3,6.3,17.1,12.4,23.4,17.3
	c0.4,0.3,0.8,0.6,1.2,0.9C408.8,114.2,457,179.1,481.7,245c2.8,7.5,5.3,15,7.5,22.5c2.1,7.3,3.9,14.5,5.3,21.8
	c1.8,9.2,3.1,18.2,3.8,27.1C500.4,346.8,495.4,375.4,480.8,399.4z"/>
<g>
	<path class="st2" d="M283.9,405.5c-12.8,6.4-38.4,12.8-71.2,12.8c-76,0-133.2-48-133.2-136.4c0-84.3,57.2-141.5,140.8-141.5
		c33.6,0,54.8,7.2,64,12l-8.4,28.4c-13.2-6.4-32-11.2-54.4-11.2c-63.2,0-105.2,40.4-105.2,111.2c0,66,38,108.4,103.6,108.4
		c21.2,0,42.8-4.4,56.8-11.2L283.9,405.5z"/>
</g>
<path class="st2" d="M211.5,321.4c45.6-25.3,78.3-23.1,95.2-19.7c9.6,1.9,19.2,5.5,38.3,12.8c42,15.9,50.1,24.3,68.5,29
	c17.7,4.6,44.2,5.6,81.3-11.6c6.1,15.3,4,23.4,1.2,27.9c-15.7,24.4-90.8,14.6-153.3-23c-16.9-10.2-39.5-17.9-58.1-17.6
	c-32.9,0.5-54.6,32.3-67.4,24.4C214.2,341.5,210.5,336.6,211.5,321.4z"/>
<path class="st2" d="M211.5,270.3c45.6-25.3,78.3-23.1,95.2-19.7c9.6,1.9,19.2,5.5,38.3,12.8c42,15.9,50.1,24.3,68.5,29
	c17.7,4.6,44.2,5.6,81.3-11.6c6.1,15.3,4,23.4,1.2,27.9c-15.7,24.4-88.5,14.6-151-23c-16.9-10.2-41.8-17.9-60.4-17.6
	c-32.9,0.5-54.6,32.3-67.4,24.4C214.2,290.4,210.5,285.5,211.5,270.3z"/>
</svg>
