<?xml version="1.0" encoding="utf-8"?>
<!-- Generator: Adobe Illustrator 24.0.1, SVG Export Plug-In . SVG Version: 6.00 Build 0)  -->
<svg version="1.1" id="Layer_1" xmlns="http://www.w3.org/2000/svg" xmlns:xlink="http://www.w3.org/1999/xlink" x="0px" y="0px"
	 viewBox="0 0 512 512" style="enable-background:new 0 0 512 512;" xml:space="preserve">
<style type="text/css">
	.st0{fill:#DDDDDD;}
	.st1{fill:#FFFFFF;stroke:#B2B2B2;stroke-miterlimit:10;}
	.st2{fill:url(#SVGID_1_);}
	.st3{fill:url(#SVGID_2_);}
	.st4{fill:url(#SVGID_3_);}
	.st5{opacity:0.96;}
	.st6{opacity:0.76;fill:url(#SVGID_4_);enable-background:new    ;}
	.st7{opacity:0.76;fill:url(#SVGID_5_);enable-background:new    ;}
	.st8{opacity:0.76;fill:url(#SVGID_6_);enable-background:new    ;}
	.st9{opacity:0.76;fill:url(#SVGID_7_);enable-background:new    ;}
	.st10{opacity:0.76;fill:url(#SVGID_8_);enable-background:new    ;}
	.st11{opacity:0.76;fill:url(#SVGID_9_);enable-background:new    ;}
	.st12{opacity:0.76;fill:url(#SVGID_10_);enable-background:new    ;}
	.st13{opacity:0.76;fill:url(#SVGID_11_);enable-background:new    ;}
</style>
<path class="st0" d="M110.9,85.5c21.1-22.1,53.5-55.2,103.2-61.5c61.5-7.8,110.5,30.3,135,49.4c94.1,73.2,180.2,233.3,124,326
	c-72.8,120-374.9,111.4-443.4-31.8C-15,274.1,51.5,147.8,110.9,85.5z"/>
<path class="st1" d="M480.8,399.4c-10.6,17.5-26.1,32.2-45,44.2c-23.3,14.8-51.8,25.4-82.9,31.8c-11.7,2.4-23.7,4.2-36,5.4h0
	c-24.9,2.5-50.7,2.5-76.1,0c-6.3-0.6-12.6-1.4-18.8-2.3c-16.9-2.5-33.5-6.1-49.5-10.8c0,0,0,0,0,0c-4.4-1.3-8.7-2.7-13-4.1
	c-6-2-11.9-4.2-17.6-6.6l0,0v0c-7.5-3.1-14.9-6.5-21.9-10.1c-7.9-4.1-15.5-8.5-22.7-13.3c-24.1-16.1-43.8-36.1-56.7-60.2
	c-1.1-2-2.1-4-3-6C31,354,26.8,339.8,24.7,325.1c-0.8-5.3-1.3-10.6-1.6-16c-0.7-14.2,0.2-28.7,2.5-43.2
	c8.9-55.8,38.2-111.7,69.8-153c7.7-10.1,15.6-19.3,23.3-27.4c17.7-18.5,43.2-44.6,80.1-56.4c7.3-2.3,15-4.1,23.1-5.1
	c45.8-5.8,84.6,13.8,111.6,32.1c9.3,6.3,17.1,12.4,23.4,17.3c0.4,0.3,0.8,0.6,1.2,0.9c50.7,39.9,98.9,104.8,123.6,170.7
	c2.8,7.5,5.3,15,7.5,22.5c2.1,7.3,3.9,14.5,5.3,21.8c1,4.9,1.8,9.9,2.5,14.7c0.6,4.2,1,8.3,1.3,12.4
	C500.4,346.8,495.4,375.4,480.8,399.4z"/>
<linearGradient id="SVGID_1_" gradientUnits="userSpaceOnUse" x1="0.1176" y1="18.4696" x2="1.1876" y2="18.4696" gradientTransform="matrix(1 0 0 -1 0 514)">
	<stop  offset="0" style="stop-color:#5B57A5"/>
	<stop  offset="0.5" style="stop-color:#2E3092"/>
	<stop  offset="1" style="stop-color:#474374"/>
</linearGradient>
<path class="st2" d="M1.1,496L1.1,496c-0.3-0.3-0.6-0.6-1-1C0.4,495.4,0.7,495.7,1.1,496z"/>
<linearGradient id="SVGID_2_" gradientUnits="userSpaceOnUse" x1="1.3076" y1="17.6196" x2="1.6076" y2="17.6196" gradientTransform="matrix(1 0 0 -1 0 514)">
	<stop  offset="0" style="stop-color:#5B57A5"/>
	<stop  offset="0.5" style="stop-color:#2E3092"/>
	<stop  offset="1" style="stop-color:#474374"/>
</linearGradient>
<path class="st3" d="M1.3,496.3c0.1,0,0.2,0.1,0.3,0.2c-0.1,0-0.1-0.1-0.2-0.1L1.3,496.3z"/>
<linearGradient id="SVGID_3_" gradientUnits="userSpaceOnUse" x1="1.6676" y1="17.3697" x2="1.9076" y2="17.3697" gradientTransform="matrix(1 0 0 -1 0 514)">
	<stop  offset="0" style="stop-color:#5B57A5"/>
	<stop  offset="0.5" style="stop-color:#2E3092"/>
	<stop  offset="1" style="stop-color:#474374"/>
</linearGradient>
<path class="st4" d="M1.8,496.6L1.8,496.6C1.9,496.7,1.9,496.7,1.8,496.6L1.8,496.6C1.8,496.6,1.8,496.6,1.8,496.6z"/>
<g class="st5">
	
		<linearGradient id="SVGID_4_" gradientUnits="userSpaceOnUse" x1="253.606" y1="-74.1503" x2="253.606" y2="50.2649" gradientTransform="matrix(1 0 0 -1 0 184)">
		<stop  offset="0" style="stop-color:#F5B650"/>
		<stop  offset="1" style="stop-color:#F5B650"/>
	</linearGradient>
	<path class="st6" d="M253.6,128.6L253.6,128.6c24.6,0,44.5,19.9,44.5,44.5v44.5c0,24.6-19.9,44.5-44.5,44.5l0,0
		c-24.6,0-44.5-19.9-44.5-44.5v-44.5C209.2,148.6,229.1,128.6,253.6,128.6z"/>
	
		<linearGradient id="SVGID_5_" gradientUnits="userSpaceOnUse" x1="253.606" y1="-107.1106" x2="253.606" y2="-228.6052" gradientTransform="matrix(1 0 0 -1 0 184)">
		<stop  offset="0" style="stop-color:#76A5DC"/>
		<stop  offset="1" style="stop-color:#76A5DC"/>
	</linearGradient>
	<path class="st7" d="M253.6,284.4L253.6,284.4c24.6,0,44.5,19.9,44.5,44.5v44.5c0,24.6-19.9,44.5-44.5,44.5l0,0
		c-24.6,0-44.5-19.9-44.5-44.5v-44.5C209.2,304.3,229.1,284.4,253.6,284.4z"/>
	
		<linearGradient id="SVGID_6_" gradientUnits="userSpaceOnUse" x1="264.7539" y1="-89.2515" x2="398.3097" y2="-89.2515" gradientTransform="matrix(1 0 0 -1 0 184)">
		<stop  offset="0" style="stop-color:#D4EC64"/>
		<stop  offset="1" style="stop-color:#D4EC64"/>
	</linearGradient>
	<path class="st8" d="M398.3,273.3L398.3,273.3c0,24.6-19.9,44.5-44.5,44.5h-44.5c-24.6,0-44.5-19.9-44.5-44.5l0,0
		c0-24.6,19.9-44.5,44.5-44.5h44.5C378.3,228.7,398.3,248.7,398.3,273.3z"/>
	
		<linearGradient id="SVGID_7_" gradientUnits="userSpaceOnUse" x1="240.9416" y1="-89.2515" x2="107.3858" y2="-89.2515" gradientTransform="matrix(1 0 0 -1 0 184)">
		<stop  offset="0" style="stop-color:#EE6CA7"/>
		<stop  offset="1" style="stop-color:#EE6CA7"/>
	</linearGradient>
	<path class="st9" d="M242.5,273.3L242.5,273.3c0,24.6-19.9,44.5-44.5,44.5h-44.5c-24.6,0-44.5-19.9-44.5-44.5l0,0
		c0-24.6,19.9-44.5,44.5-44.5H198C222.5,228.7,242.5,248.7,242.5,273.3z"/>
	
		<linearGradient id="SVGID_8_" gradientUnits="userSpaceOnUse" x1="266.0603" y1="-75.1196" x2="353.009" y2="8.2688" gradientTransform="matrix(1 0 0 -1 4.124105e-03 184)">
		<stop  offset="0" style="stop-color:#EAE532"/>
		<stop  offset="1" style="stop-color:#EAE532"/>
	</linearGradient>
	<path class="st10" d="M355.9,171L355.9,171c17.4,17.4,17.4,45.5,0,62.9l-31.5,31.5c-17.4,17.4-45.5,17.4-62.9,0l0,0
		c-17.4-17.4-17.4-45.5,0-62.9L293,171C310.4,153.6,338.5,153.6,355.9,171z"/>
	
		<linearGradient id="SVGID_9_" gradientUnits="userSpaceOnUse" x1="242.6442" y1="-102.3749" x2="151.5789" y2="-189.129" gradientTransform="matrix(1 0 0 -1 1.046437e-04 183.9917)">
		<stop  offset="0" style="stop-color:#AA7ADB"/>
		<stop  offset="1" style="stop-color:#AA7ADB"/>
	</linearGradient>
	<path class="st11" d="M245.8,281.1L245.8,281.1c17.4,17.4,17.4,45.5,0,62.9l-31.5,31.5c-17.4,17.4-45.5,17.4-62.9,0l0,0
		c-17.4-17.4-17.4-45.5,0-62.9l31.5-31.5C200.1,263.7,228.4,263.7,245.8,281.1z"/>
	
		<linearGradient id="SVGID_10_" gradientUnits="userSpaceOnUse" x1="266.2218" y1="-100.9225" x2="350.4725" y2="-187.0368" gradientTransform="matrix(1 0 0 -1 4.129431e-04 184.0058)">
		<stop  offset="0" style="stop-color:#7BD464"/>
		<stop  offset="1" style="stop-color:#7BD464"/>
	</linearGradient>
	<path class="st12" d="M355.9,375.6L355.9,375.6c-17.4,17.4-45.5,17.4-62.9,0l-31.5-31.5c-17.4-17.4-17.4-45.5,0-62.9l0,0
		c17.4-17.4,45.5-17.4,62.9,0l31.5,31.5C373.2,330,373.2,358.2,355.9,375.6z"/>
	
		<linearGradient id="SVGID_11_" gradientUnits="userSpaceOnUse" x1="240.3766" y1="-76.0043" x2="155.1802" y2="9.1643" gradientTransform="matrix(1 0 0 -1 -7.238773e-03 183.9969)">
		<stop  offset="0" style="stop-color:#FC6852"/>
		<stop  offset="1" style="stop-color:#FC6852"/>
	</linearGradient>
	<path class="st13" d="M245.8,265.4L245.8,265.4c-17.4,17.4-45.5,17.4-62.9,0l-31.5-31.5c-17.4-17.4-17.4-45.5,0-62.9l0,0
		c17.4-17.4,45.5-17.4,62.9,0l31.5,31.5C263.1,219.9,263.1,248,245.8,265.4z"/>
</g>
</svg>
