<?xml version="1.0" encoding="utf-8"?>
<!-- Generator: Adobe Illustrator 24.0.1, SVG Export Plug-In . SVG Version: 6.00 Build 0)  -->
<svg version="1.1" id="Layer_1" xmlns="http://www.w3.org/2000/svg" xmlns:xlink="http://www.w3.org/1999/xlink" x="0px" y="0px"
	 viewBox="0 0 512 512" style="enable-background:new 0 0 512 512;" xml:space="preserve">
<style type="text/css">
	.st0{fill:#DDDDDD;}
	.st1{fill:url(#SVGID_1_);}
	.st2{fill-rule:evenodd;clip-rule:evenodd;fill:#FFFFFF;stroke:#CCCCCC;stroke-width:2;stroke-miterlimit:10;}
</style>
<path class="st0" d="M110.9,85.5C132,63.4,164.4,30.3,214.1,24c61.5-7.8,110.5,30.3,135,49.4c94.1,73.2,180.2,233.3,124,326
	c-72.8,120-374.9,111.4-443.4-31.8C-15,274.1,51.5,147.8,110.9,85.5z"/>
<linearGradient id="SVGID_1_" gradientUnits="userSpaceOnUse" x1="22.8239" y1="261.1281" x2="498.7601" y2="261.1281" gradientTransform="matrix(1 0 0 -1 0 514)">
	<stop  offset="0" style="stop-color:#7C76B7"/>
	<stop  offset="0.5" style="stop-color:#6561AB"/>
	<stop  offset="1" style="stop-color:#483F99"/>
</linearGradient>
<path class="st1" d="M118.7,85.5c21.1-22.1,53.5-55.2,103.2-61.5c61.5-7.8,110.5,30.3,135,49.4c94.1,73.2,180.2,233.3,124,326
	c-72.8,120-374.9,111.4-443.4-31.8C-7.3,274.1,59.3,147.8,118.7,85.5z"/>
<path class="st2" d="M333,332.6H122.8c-17.5,0-31.6-14.1-31.6-31.6V199.8c0-17.5,14.1-31.6,31.6-31.6H333
	c17.5,0,31.6,14.1,31.6,31.6V301C364.6,318.4,350.5,332.6,333,332.6z"/>
<path class="st2" d="M382.3,380.2H171.2c-17.9,0-32.4-14.5-32.4-32.4v-99.5c0-17.9,14.5-32.4,32.4-32.4h211.1
	c17.9,0,32.4,14.5,32.4,32.4v99.5C414.8,365.7,400.2,380.2,382.3,380.2z"/>
</svg>
