<?xml version="1.0" encoding="utf-8"?>
<!-- Generator: Adobe Illustrator 24.0.1, SVG Export Plug-In . SVG Version: 6.00 Build 0)  -->
<svg version="1.1" id="Layer_1" xmlns="http://www.w3.org/2000/svg" xmlns:xlink="http://www.w3.org/1999/xlink" x="0px" y="0px"
	 viewBox="0 0 512 512" style="enable-background:new 0 0 512 512;" xml:space="preserve">
<style type="text/css">
	.st0{fill:#DDDDDD;}
	.st1{fill:url(#SVGID_1_);}
	.st2{fill:url(#SVGID_2_);}
	.st3{fill:url(#SVGID_3_);}
	.st4{fill:url(#SVGID_4_);}
	.st5{fill:#FFFFFF;}
</style>
<path class="st0" d="M110.9,85.5c21.1-22.1,53.5-55.2,103.2-61.5c61.5-7.8,110.5,30.3,135,49.4c94.1,73.2,180.2,233.3,124,326
	c-72.8,120-374.9,111.4-443.4-31.8C-15,274.1,51.5,147.8,110.9,85.5z"/>
<radialGradient id="SVGID_1_" cx="260.7498" cy="252.9008" r="233.947" gradientUnits="userSpaceOnUse">
	<stop  offset="0" style="stop-color:#FFFFFF"/>
	<stop  offset="2.049065e-02" style="stop-color:#F4FBFE"/>
	<stop  offset="0.1353" style="stop-color:#BCE8F6"/>
	<stop  offset="0.2536" style="stop-color:#8AD7F0"/>
	<stop  offset="0.3728" style="stop-color:#5FC9EA"/>
	<stop  offset="0.493" style="stop-color:#3DBDE6"/>
	<stop  offset="0.6147" style="stop-color:#22B4E2"/>
	<stop  offset="0.7382" style="stop-color:#0FADE0"/>
	<stop  offset="0.865" style="stop-color:#04A9DE"/>
	<stop  offset="1" style="stop-color:#00A8DE"/>
</radialGradient>
<path class="st1" d="M480.8,399.4c-10.6,17.5-26.1,32.2-45,44.2c-23.3,14.8-51.8,25.4-82.9,31.8c-11.7,2.4-23.7,4.2-36,5.4h0
	c-24.9,2.5-50.7,2.5-76.1,0c-6.3-0.6-12.6-1.4-18.8-2.3c-16.9-2.5-33.5-6.1-49.5-10.8c0,0,0,0,0,0c-4.4-1.3-8.7-2.7-13-4.1
	c-6-2-11.9-4.2-17.6-6.6l0,0v0c-7.5-3.1-14.9-6.5-21.9-10.1c-7.9-4.1-15.5-8.5-22.7-13.3c-24.1-16.1-43.8-36.1-56.7-60.2
	c-1.1-2-2.1-4-3-6C31,354,26.8,339.8,24.7,325.1c-0.8-5.3-1.3-10.6-1.6-16c-0.7-14.2,0.2-28.7,2.5-43.2
	c8.9-55.8,38.2-111.7,69.8-153c7.7-10.1,15.6-19.3,23.3-27.4c17.7-18.5,43.2-44.6,80.1-56.4c7.3-2.3,15-4.1,23.1-5.1
	c45.8-5.8,84.6,13.8,111.6,32.1c9.3,6.3,17.1,12.4,23.4,17.3c0.4,0.3,0.8,0.6,1.2,0.9c50.7,39.9,98.9,104.8,123.6,170.7
	c2.8,7.5,5.3,15,7.5,22.5c2.1,7.3,3.9,14.5,5.3,21.8c1,4.9,1.8,9.9,2.5,14.7c0.6,4.2,1,8.3,1.3,12.4
	C500.4,346.8,495.4,375.4,480.8,399.4z"/>
<linearGradient id="SVGID_2_" gradientUnits="userSpaceOnUse" x1="0.1176" y1="18.4696" x2="1.1876" y2="18.4696" gradientTransform="matrix(1 0 0 -1 0 514)">
	<stop  offset="0" style="stop-color:#5B57A5"/>
	<stop  offset="0.5" style="stop-color:#2E3092"/>
	<stop  offset="1" style="stop-color:#474374"/>
</linearGradient>
<path class="st2" d="M1.1,496L1.1,496c-0.3-0.3-0.6-0.6-1-1C0.4,495.4,0.7,495.7,1.1,496z"/>
<linearGradient id="SVGID_3_" gradientUnits="userSpaceOnUse" x1="1.3076" y1="17.6196" x2="1.6076" y2="17.6196" gradientTransform="matrix(1 0 0 -1 0 514)">
	<stop  offset="0" style="stop-color:#5B57A5"/>
	<stop  offset="0.5" style="stop-color:#2E3092"/>
	<stop  offset="1" style="stop-color:#474374"/>
</linearGradient>
<path class="st3" d="M1.3,496.3c0.1,0,0.2,0.1,0.3,0.2c-0.1,0-0.1-0.1-0.2-0.1L1.3,496.3z"/>
<linearGradient id="SVGID_4_" gradientUnits="userSpaceOnUse" x1="1.6676" y1="17.3697" x2="1.9076" y2="17.3697" gradientTransform="matrix(1 0 0 -1 0 514)">
	<stop  offset="0" style="stop-color:#5B57A5"/>
	<stop  offset="0.5" style="stop-color:#2E3092"/>
	<stop  offset="1" style="stop-color:#474374"/>
</linearGradient>
<path class="st4" d="M1.8,496.6L1.8,496.6C1.9,496.7,1.9,496.7,1.8,496.6L1.8,496.6C1.8,496.6,1.8,496.6,1.8,496.6z"/>
<g>
	<g>
		<path class="st5" d="M302.7,191.9h-93.6c-14.7,0-26.6,11.9-26.6,26.7V320c0,14.7,11.9,26.7,26.6,26.7h93.7
			c14.7,0,26.6-11.9,26.6-26.7V218.6C329.4,203.8,317.5,191.9,302.7,191.9z"/>
		<path class="st5" d="M385.9,280.5c6.2,0,11.2-5,11.2-11.2c0-6.2-5-11.2-11.2-11.2h-25.6v-25.3h25.6c6.2,0,11.2-5,11.2-11.2
			c0-6.2-5-11.2-11.2-11.2h-25.8c-2.2-24.7-21-44.8-45.2-48.9v-26.9c0-6.2-5-11.2-11.2-11.2c-6.2,0-11.2,5-11.2,11.2v26.2h-25.3
			v-26.2c0-6.2-5-11.2-11.2-11.2c-6.2,0-11.2,5-11.2,11.2v26.2h-25.2v-26.2c0-6.2-5-11.2-11.2-11.2c-6.2,0-11.2,5-11.2,11.2v26.9
			c-24.2,4.1-43.1,24.1-45.2,48.9H126c-6.2,0-11.2,5-11.2,11.2s5,11.2,11.2,11.2h25.6v25.3H126c-6.2,0-11.2,5-11.2,11.2
			c0,6.2,5,11.2,11.2,11.2h25.6v25.3H126c-6.2,0-11.2,5-11.2,11.2c0,6.2,5,11.2,11.2,11.2h25.8c2.2,24.7,21,44.8,45.2,48.9v26.8
			c0,6.2,5,11.2,11.2,11.2c6.2,0,11.2-5,11.2-11.2v-26.2h25.3v26.2c0,6.2,5,11.2,11.2,11.2c6.2,0,11.2-5,11.2-11.2v-26.2h25.3v26.2
			c0,6.2,5,11.2,11.2,11.2c6.2,0,11.2-5,11.2-11.2v-27c24.2-4.1,43.1-24.1,45.2-48.9H386c6.2,0,11.2-5,11.2-11.2
			c0-6.2-5-11.2-11.2-11.2h-25.6v-25.3L385.9,280.5L385.9,280.5L385.9,280.5z M342.4,323.3c0,20.1-16.4,36.5-36.5,36.5H206
			c-20.1,0-36.5-16.4-36.5-36.5V215.1c0-20.1,16.4-36.5,36.5-36.5h99.9c20.1,0,36.5,16.4,36.5,36.5L342.4,323.3L342.4,323.3z"/>
	</g>
</g>
</svg>
