<?xml version="1.0" encoding="utf-8"?>
<!-- Generator: Adobe Illustrator 24.0.1, SVG Export Plug-In . SVG Version: 6.00 Build 0)  -->
<svg version="1.1" id="Layer_1" xmlns="http://www.w3.org/2000/svg" xmlns:xlink="http://www.w3.org/1999/xlink" x="0px" y="0px"
	 viewBox="0 0 512 512" style="enable-background:new 0 0 512 512;" xml:space="preserve">
<style type="text/css">
	.st0{fill:#DDDDDD;}
	.st1{fill:url(#SVGID_1_);}
	.st2{fill:none;}
	.st3{fill:#FEFEFE;}
	.st4{fill:#464D59;}
	.st5{opacity:0.1;enable-background:new    ;}
	.st6{fill:#FFFFFF;}
	.st7{fill:#F7D88B;}
	.st8{fill:#F4CF7A;}
	.st9{fill:#F27281;}
</style>
<path class="st0" d="M110.9,85.5C132,63.4,164.4,30.3,214.1,24c61.5-7.8,110.5,30.3,135,49.4c94.1,73.2,180.2,233.3,124,326
	c-72.8,120-374.9,111.4-443.4-31.8C-15,274.1,51.5,147.8,110.9,85.5z"/>
<linearGradient id="SVGID_1_" gradientUnits="userSpaceOnUse" x1="22.8281" y1="252.8719" x2="498.6612" y2="252.8719">
	<stop  offset="1.123600e-02" style="stop-color:#F5E19A"/>
	<stop  offset="0.5112" style="stop-color:#ECC91A"/>
	<stop  offset="1" style="stop-color:#BF9D17"/>
</linearGradient>
<path class="st1" d="M480.8,399.4C408,519.4,106,510.8,37.4,367.6C31,354,26.8,339.8,24.7,325.1c-2.9-19.3-2.3-39.3,0.9-59.3
	c11.1-69.4,53.7-139,93.1-180.3c21.1-22.1,53.5-55.2,103.2-61.5c61.5-7.8,110.5,30.3,135,49.4C450.9,146.7,537,306.7,480.8,399.4z"
	/>
<polyline class="st2" points="580.4,378.5 91.7,378.5 91.7,223.1 580.4,223.1 "/>
<path class="st3" d="M110.8,348.3v-94.9c0-26.2,15.1-40.4,43.3-40.4h123.6c28.1,0,43.3,14.3,43.3,40.4v94.9
	c0,26.2-15.2,40.4-43.3,40.4H154.1C126,388.7,110.8,374.4,110.8,348.3z M329.3,272.6l54.4-41.5c3.7-3.4,8.7-5.4,13.9-5.7
	c7.4,0,12.4,4.8,12.4,13.4v127.4c0,8.7-5,13.4-12.4,13.4c-5.2-0.3-10.2-2.3-13.9-5.7L329.3,332V272.6L329.3,272.6z"/>
<path class="st4" d="M121.9,390c-9.9-3.4-23.7-15.1-20.7-22.7c3-7.7,21.6-8.3,31.5-4.9c9.9,3.4,13.4,11.6,10.5,19.2
	C140.1,389.2,131.8,393.5,121.9,390z"/>
<path class="st5" d="M121.9,390c-9.9-3.4-23.7-15.1-20.7-22.7c3-7.7,21.6-8.3,31.5-4.9c9.9,3.4,13.4,11.6,10.5,19.2
	C140.1,389.2,131.8,393.5,121.9,390z"/>
<path class="st5" d="M132.6,362.4c-3.7-1.2-8.5-2-13.2-2c-1.7,10.2-1.8,20-0.3,28.4c1,0.5,1.9,0.9,2.8,1.2
	c9.9,3.4,18.2-0.8,21.1-8.4C146,374,142.4,365.8,132.6,362.4z"/>
<path class="st4" d="M260.3,390c9.9-3.4,23.7-15.1,20.7-22.7c-3-7.7-21.6-8.3-31.5-4.9c-9.9,3.4-13.4,11.6-10.5,19.2
	C242.1,389.2,250.5,393.5,260.3,390z"/>
<path class="st5" d="M260.3,390c9.9-3.4,23.7-15.1,20.7-22.7c-3-7.7-21.6-8.3-31.5-4.9c-9.9,3.4-13.4,11.6-10.5,19.2
	C242.1,389.2,250.5,393.5,260.3,390z"/>
<path class="st5" d="M249.6,362.4c3.7-1.2,8.5-2,13.2-2c1.7,10.2,1.8,20,0.3,28.4c-1,0.5-1.9,0.9-2.8,1.2
	c-9.9,3.4-18.2-0.8-21.1-8.4C236.2,374,239.7,365.8,249.6,362.4z"/>
<path class="st4" d="M191.1,424.5c31.6,0,57-5.9,64.8-30c10.2-31.5-9.8-99.1-64.8-99.1s-74.9,67.6-64.8,99.1
	C134,418.5,159.6,424.5,191.1,424.5z"/>
<path class="st6" d="M230,378.2c-1.9-3.7-1.1-8.1,2-11c5.2-5,8.5-11.9,8.2-19.6c-0.3-14.2-12.7-25.8-27.8-26.2
	c-6.8-0.2-13.1,1.9-18.1,5.4c-1.9,1.3-4.5,1.3-6.4,0c-5-3.5-11.2-5.5-18.1-5.4c-15.2,0.4-27.5,12-27.8,26.2
	c-0.2,7.7,3,14.6,8.2,19.6c3.1,2.9,3.9,7.3,2,11c-5.7,10.9-9.3,23.7-10.9,36c12.2,7.9,29.7,10.3,49.8,10.3s37.6-2.4,49.8-10.3
	C239.3,401.9,235.7,389,230,378.2z"/>
<path class="st7" d="M191.1,365.4c4.5,0,9.3-3.8,10.3-10.3c1.2-7.9-4.6-9.6-10.3-9.6c-5.7,0-11.5,1.7-10.3,9.6
	C181.8,361.5,186.6,365.4,191.1,365.4z"/>
<path class="st8" d="M193.2,365c-7.2-2.5-9.4-14.8-6.2-19.2c-4,0.9-7,3.3-6.2,9.2c1,6.5,5.8,10.3,10.3,10.3
	C191.8,365.4,192.5,365.3,193.2,365z"/>
<g>
	<ellipse class="st9" cx="161.9" cy="350.1" rx="9.7" ry="7.2"/>
	<ellipse class="st9" cx="220.3" cy="350.1" rx="9.7" ry="7.2"/>
</g>
<g>
	<path class="st4" d="M172.1,344.7c-1.5,0-2.7-1.1-2.7-2.5c0-1-0.8-1.8-1.9-1.8c-1.1,0-1.9,0.8-1.9,1.8c0,1.4-1.2,2.5-2.7,2.5
		c-1.5,0-2.7-1.1-2.7-2.5c0-3.7,3.2-6.8,7.2-6.8c4,0,7.2,3,7.2,6.8C174.7,343.7,173.6,344.7,172.1,344.7z"/>
	<path class="st4" d="M219.3,344.7c-1.5,0-2.7-1.1-2.7-2.5c0-1-0.8-1.8-1.9-1.8c-1.1,0-1.9,0.8-1.9,1.8c0,1.4-1.2,2.5-2.7,2.5
		c-1.5,0-2.7-1.1-2.7-2.5c0-3.7,3.2-6.8,7.2-6.8c4,0,7.2,3,7.2,6.8C221.9,343.7,220.8,344.7,219.3,344.7z"/>
</g>
<path class="st5" d="M166.7,300.5c-36.5,16.2-49,67.8-40.5,94c7.7,24,33.2,30,64.8,30c12.6,0,24.2-0.9,34.1-3.6
	C149.9,423.7,149.1,332.9,166.7,300.5z"/>
<g>
	<path class="st7" d="M177.8,430h-11.6c-3.5,0-6.3-2.7-6.3-5.9l0,0c0-3.3,2.8-5.9,6.3-5.9h11.6c3.5,0,6.3,2.7,6.3,5.9l0,0
		C184.1,427.3,181.3,430,177.8,430z"/>
	<path class="st7" d="M204.4,430h11.6c3.5,0,6.3-2.7,6.3-5.9l0,0c0-3.3-2.8-5.9-6.3-5.9h-11.6c-3.5,0-6.3,2.7-6.3,5.9l0,0
		C198,427.3,200.9,430,204.4,430z"/>
</g>
</svg>
