<?xml version="1.0" encoding="utf-8"?>
<!-- Generator: Adobe Illustrator 24.0.1, SVG Export Plug-In . SVG Version: 6.00 Build 0)  -->
<svg version="1.1" id="Layer_1" xmlns="http://www.w3.org/2000/svg" xmlns:xlink="http://www.w3.org/1999/xlink" x="0px" y="0px"
	 viewBox="0 0 512 512" style="enable-background:new 0 0 512 512;" xml:space="preserve">
<style type="text/css">
	.st0{fill:#DDDDDD;}
	.st1{fill:url(#SVGID_1_);}
	.st2{fill:url(#SVGID_2_);}
	.st3{fill:url(#SVGID_3_);}
	.st4{fill:url(#SVGID_4_);}
	.st5{fill:url(#SVGID_5_);}
</style>
<path class="st0" d="M110.9,85.5C132,63.4,164.4,30.3,214.1,24c61.5-7.8,110.5,30.3,135,49.4c94.1,73.2,180.2,233.3,124,326
	c-72.8,120-374.9,111.4-443.4-31.8C-15,274.1,51.5,147.8,110.9,85.5z"/>
<linearGradient id="SVGID_1_" gradientUnits="userSpaceOnUse" x1="22.8682" y1="261.1811" x2="498.7581" y2="261.1811" gradientTransform="matrix(1 0 0 -1 0 514)">
	<stop  offset="0" style="stop-color:#FFF7A9"/>
	<stop  offset="0.5" style="stop-color:#FFF100"/>
	<stop  offset="1" style="stop-color:#FFD700"/>
</linearGradient>
<path class="st1" d="M480.8,399.4c-10.6,17.5-26.1,32.2-45,44.2c-23.3,14.8-51.8,25.4-82.9,31.8c-11.7,2.4-23.7,4.2-36,5.4l0,0
	c-24.9,2.5-50.7,2.5-76.1,0c-6.3-0.6-12.6-1.4-18.8-2.3c-16.9-2.5-33.5-6.1-49.5-10.8l0,0c-4.4-1.3-8.7-2.7-13-4.1
	c-6-2-11.9-4.2-17.6-6.6l0,0l0,0c-7.5-3.1-14.9-6.5-21.9-10.1c-7.9-4.1-15.5-8.5-22.7-13.3c-24.1-16.1-43.8-36.1-56.7-60.2
	c-1.1-2-2.1-4-3-6C31,354,26.8,339.8,24.7,325.1c-0.8-5.3-1.3-10.6-1.6-16c-0.7-14.2,0.2-28.7,2.5-43.2
	c8.9-55.8,38.2-111.7,69.8-153c7.7-10.1,15.6-19.3,23.3-27.4c17.7-18.5,43.2-44.6,80.1-56.4c7.3-2.3,15-4.1,23.1-5.1
	c45.8-5.8,84.6,13.8,111.6,32.1c9.3,6.3,17.1,12.4,23.4,17.3c0.4,0.3,0.8,0.6,1.2,0.9C408.8,114.2,457,179.1,481.7,245
	c2.8,7.5,5.3,15,7.5,22.5c2.1,7.3,3.9,14.5,5.3,21.8c1,4.9,1.8,9.9,2.5,14.7c0.6,4.2,1,8.3,1.3,12.4
	C500.4,346.8,495.4,375.4,480.8,399.4z"/>
<linearGradient id="SVGID_2_" gradientUnits="userSpaceOnUse" x1="0.1176" y1="773.5" x2="1.1876" y2="773.5" gradientTransform="matrix(1 0 0 1 0 -278)">
	<stop  offset="0" style="stop-color:#5B57A5"/>
	<stop  offset="0.5" style="stop-color:#2E3092"/>
	<stop  offset="1" style="stop-color:#474374"/>
</linearGradient>
<path class="st2" d="M1.1,496L1.1,496c-0.3-0.3-0.6-0.6-1-1C0.4,495.4,0.7,495.7,1.1,496z"/>
<linearGradient id="SVGID_3_" gradientUnits="userSpaceOnUse" x1="1.3076" y1="774.4" x2="1.6076" y2="774.4" gradientTransform="matrix(1 0 0 1 0 -278)">
	<stop  offset="0" style="stop-color:#5B57A5"/>
	<stop  offset="0.5" style="stop-color:#2E3092"/>
	<stop  offset="1" style="stop-color:#474374"/>
</linearGradient>
<path class="st3" d="M1.3,496.3c0.1,0,0.2,0.1,0.3,0.2c-0.1,0-0.1-0.1-0.2-0.1L1.3,496.3z"/>
<linearGradient id="SVGID_4_" gradientUnits="userSpaceOnUse" x1="1.6676" y1="774.6375" x2="1.9076" y2="774.6375" gradientTransform="matrix(1 0 0 1 0 -278)">
	<stop  offset="0" style="stop-color:#5B57A5"/>
	<stop  offset="0.5" style="stop-color:#2E3092"/>
	<stop  offset="1" style="stop-color:#474374"/>
</linearGradient>
<path class="st4" d="M1.8,496.6L1.8,496.6C1.9,496.7,1.9,496.7,1.8,496.6L1.8,496.6L1.8,496.6z"/>
<radialGradient id="SVGID_5_" cx="248.8312" cy="272.0385" r="150.4109" gradientUnits="userSpaceOnUse">
	<stop  offset="0" style="stop-color:#2BC4F3"/>
	<stop  offset="0.5" style="stop-color:#00AEEE"/>
	<stop  offset="1" style="stop-color:#0095DA"/>
</radialGradient>
<path class="st5" d="M405.6,367.6c-2.8-0.4-5.5,0.9-7.1,3l-11.1-1.4l16-15.8c2.6,0.7,5.5,0,7.5-2c3-3.1,3-8,0-11c-3-3-8-3-11,0
	c-2,2-2.7,4.9-2,7.4l-14.3,14.1l4.8-18.1c2.5-0.7,4.7-2.6,5.4-5.4c1.1-4.2-1.4-8.4-5.6-9.5c-4.2-1.1-8.4,1.4-9.5,5.6
	c-0.7,2.7,0.2,5.4,2,7.3l-5.2,19.7l-5.8-21.2c1.8-1.9,2.7-4.6,2-7.3c-1.2-4.2-5.4-6.6-9.6-5.4c-7.4,2-7.9,12.7,0,14.9l4.6,16.6
	c-3.5,1.5-27.6,11.9-30,13c1.7-7.4,1.3-5.8,7.4-32.4c0,0.2,0.4-2.4,0.4-3.6c0.4-14.5-13-28-31.2-21.7c-0.9,0.3,0.2-0.3-18.6,9.6
	c4.4-17.2,7.4-35.5,8.8-52.8c20.2,12.3,28.3-1.3,30.5-7.2c0.3-0.8,24.7-73.6,24.7-73.6l16.7-16.7c2.6,0.6,5.4,0.1,7.3-1.9
	c3-3.1,3-8,0-11c-3-3-8-3-11,0c-2,2-2.5,4.8-1.9,7.4l-14.5,14.6l4.9-18.5c2.5-0.8,4.7-2.6,5.4-5.4c1.1-4.2-1.4-8.4-5.6-9.5
	c-4.2-1.1-8.4,1.4-9.5,5.6c-0.7,2.7,0.2,5.4,2,7.3l-5.2,19.7l-5.9-21.2c1.8-1.9,2.7-4.6,2-7.3c-1.2-4.2-5.4-6.6-9.6-5.4
	c-4.2,1.1-6.6,5.4-5.4,9.6c0.8,2.7,2.9,4.6,5.4,5.3l5.4,19.5c0,0-13.1,25.7-26.1,51.1c-1.7-1.7-3.5-3.5-5-5.1
	c-2.1-2.1-4.1-4.1-5.8-5.8c-2.1-12.5-5.6-23-10.2-31.6c1.8-2.5,2.9-5.6,2.9-9c0-8.6-7-15.6-15.6-15.6c-0.8,0-1.6,0.1-2.4,0.2
	l-8.8-8.8c0-0.5,0.2-1,0.2-1.6c0-10.5-8.5-19.1-19-19.1c-10.5,0-19,8.6-19,19.1c0,0.5,0.1,1,0.2,1.6l-8.8,8.8
	c-0.8-0.1-1.6-0.2-2.4-0.2c-8.6,0-15.6,7-15.6,15.6c0,3.4,1.1,6.5,2.9,9c-4.6,8.5-8.1,19.1-10.2,31.6c-1.7,1.7-3.7,3.7-5.8,5.8
	c-1.6,1.6-3.3,3.3-5,5.1c-13-25.4-26.1-51.1-26.1-51.1l5.4-19.5c2.5-0.7,4.7-2.6,5.4-5.3c1.1-4.2-1.3-8.5-5.4-9.6
	c-4.2-1.1-8.4,1.3-9.6,5.4c-0.7,2.7,0.1,5.4,2,7.3l-5.8,21.2l-5.2-19.7c1.8-1.9,2.8-4.6,2-7.3c-1.1-4.2-5.4-6.7-9.5-5.6
	c-4.2,1.1-6.7,5.4-5.6,9.5c0.7,2.7,2.9,4.6,5.4,5.4l4.9,18.5L128.3,168c0.6-2.6,0.1-5.4-1.9-7.4c-3-3-8-3.1-11,0c-3,3-3.1,8,0,11
	c2,2,4.8,2.6,7.3,1.9l16.7,16.7c0,0,24.4,72.8,24.7,73.6c2.2,5.9,10.3,19.5,30.5,7.2c1.4,17.3,4.4,35.6,8.8,52.8
	c-18.7-9.9-17.7-9.3-18.6-9.6c-18.2-6.2-31.7,7.2-31.2,21.7c0,1.3,0.4,3.8,0.4,3.6c6.1,26.7,5.7,25,7.4,32.4
	c-2.5-1.1-26.6-11.5-30-13l4.6-16.6c7.9-2.2,7.4-12.9,0-14.9c-4.2-1.1-8.4,1.3-9.6,5.4c-0.7,2.7,0.1,5.4,2,7.3l-5.8,21.2l-5.2-19.7
	c1.8-1.9,2.8-4.6,2-7.3c-1.1-4.2-5.4-6.7-9.5-5.6c-4.2,1.1-6.7,5.4-5.6,9.5c0.7,2.7,2.9,4.6,5.4,5.4l4.8,18.1l-14.3-14.1
	c0.7-2.6,0-5.4-2-7.4c-3-3-8-3.1-11,0c-3,3-3.1,8,0,11c2,2,4.9,2.7,7.5,2l16,15.8l-11.1,1.4c-1.6-2.1-4.3-3.3-7.1-3
	c-4.3,0.5-7.3,4.4-6.8,8.7c0.5,4.3,4.4,7.3,8.7,6.8c2.8-0.4,5.1-2.2,6.2-4.6l17.4-2.2c1.8,1,51.7,28.8,51.7,28.8
	c5.4,3,12,2.7,17.2-0.8c5.1-3.5,7.9-9.5,7.1-15.7c-2-15.7-4-30.4-4-30.5c1,0.7,28.3,19.4,42.1,28.8c5.4,5.9,11.2,9.4,17.2,9.4
	s11.8-3.5,17.2-9.4c13.8-9.4,41-28.1,42.1-28.8c0,0.1-1.9,14.8-4,30.5c-0.8,6.1,1.9,12.2,7.1,15.7c5.1,3.5,11.8,3.8,17.2,0.8
	c0,0,49.9-27.7,51.7-28.8l17.4,2.2c1.1,2.4,3.3,4.3,6.2,4.6c4.3,0.5,8.2-2.5,8.7-6.8C412.9,372.1,409.9,368.2,405.6,367.6z"/>
</svg>
