<?xml version="1.0" encoding="utf-8"?>
<!-- Generator: Adobe Illustrator 24.0.1, SVG Export Plug-In . SVG Version: 6.00 Build 0)  -->
<svg version="1.1" id="Layer_1" xmlns="http://www.w3.org/2000/svg" xmlns:xlink="http://www.w3.org/1999/xlink" x="0px" y="0px"
	 viewBox="0 0 512 512" style="enable-background:new 0 0 512 512;" xml:space="preserve">
<style type="text/css">
	.st0{fill:#DDDDDD;}
	.st1{fill:url(#SVGID_1_);}
	.st2{fill:url(#SVGID_2_);}
	.st3{fill:none;stroke:#0076B7;stroke-width:3;stroke-miterlimit:10;}
	.st4{fill:none;stroke:#FFFFFF;stroke-width:3;stroke-miterlimit:10;}
	.st5{fill:none;stroke:#FDFEFF;stroke-width:3;stroke-miterlimit:10;}
	.st6{fill:none;stroke:#0076B7;stroke-width:3;stroke-miterlimit:9.9999;}
</style>
<path class="st0" d="M110.9,85.5c21.1-22.1,53.5-55.2,103.2-61.5c61.5-7.8,110.5,30.3,135,49.4c94.1,73.2,180.2,233.3,124,326
	c-72.8,120-374.9,111.4-443.4-31.8C-15,274.1,51.5,147.8,110.9,85.5z"/>
<linearGradient id="SVGID_1_" gradientUnits="userSpaceOnUse" x1="22.8021" y1="252.9008" x2="498.6976" y2="252.9008">
	<stop  offset="0" style="stop-color:#D1E4A5"/>
	<stop  offset="0.5" style="stop-color:#ACD479"/>
	<stop  offset="1" style="stop-color:#76B83F"/>
</linearGradient>
<path class="st1" d="M480.8,399.4c-10.6,17.5-26.1,32.2-45,44.2c-23.3,14.8-51.8,25.4-82.9,31.8c-11.7,2.4-23.7,4.2-36,5.4h0
	c-24.9,2.5-50.7,2.5-76.1,0c-6.3-0.6-12.6-1.4-18.8-2.3c-16.9-2.5-33.5-6.1-49.5-10.8c0,0,0,0,0,0c-4.4-1.3-8.7-2.7-13-4.1
	c-6-2-11.9-4.2-17.6-6.6l0,0v0c-7.5-3.1-14.9-6.5-21.9-10.1c-7.9-4.1-15.5-8.5-22.7-13.3c-24.1-16.1-43.8-36.1-56.7-60.2
	c-1.1-2-2.1-4-3-6C31,354,26.8,339.8,24.7,325.1c-0.8-5.3-1.3-10.6-1.6-16c-0.7-14.2,0.2-28.7,2.5-43.2
	c8.9-55.8,38.2-111.7,69.8-153c7.7-10.1,15.6-19.3,23.3-27.4c17.7-18.5,43.2-44.6,80.1-56.4c7.3-2.3,15-4.1,23.1-5.1
	c45.8-5.8,84.6,13.8,111.6,32.1c9.3,6.3,17.1,12.4,23.4,17.3c0.4,0.3,0.8,0.6,1.2,0.9c50.7,39.9,98.9,104.8,123.6,170.7
	c2.8,7.5,5.3,15,7.5,22.5c2.1,7.3,3.9,14.5,5.3,21.8c1,4.9,1.8,9.9,2.5,14.7c0.6,4.2,1,8.3,1.3,12.4
	C500.4,346.8,495.4,375.4,480.8,399.4z"/>
<linearGradient id="SVGID_2_" gradientUnits="userSpaceOnUse" x1="153.2656" y1="304.5812" x2="153.2656" y2="304.5812" gradientTransform="matrix(1 0 0 -1 0 514)">
	<stop  offset="0" style="stop-color:#7C76B7"/>
	<stop  offset="0.5" style="stop-color:#6561AB"/>
	<stop  offset="1" style="stop-color:#483F99"/>
</linearGradient>
<path class="st2" d="M153.3,209.4"/>
<path class="st3" d="M275.2,350.1c10.1-10.1,17.8-21.6,28.6-31.6c2.3-2.3,3.1-5.4,5.4-7.7c30.7-35.3,59.9-68.4,89.5-103.2"/>
<path class="st3" d="M199.4,207.8c23,47,42.9,94.6,65.7,141.8"/>
<path class="st3" d="M99.6,268.9c7.6-4.1,13.7-10.3,21.4-15.7c13.1-10,26.1-17.7,39.2-28.4c10-6.9,18.4-13.8,28.6-20.2"/>
<path class="st4" d="M366.4,328.8c11,10.1,22,20.3,32.9,30.5"/>
<path class="st4" d="M325.7,358.1c8.9-9.8,17.9-19.4,26.8-29.1"/>
<path class="st4" d="M256,224.7c20.1,44.7,38.6,89.2,60.2,133"/>
<path class="st4" d="M124.2,342.1c12.9-13.6,27.5-25.1,41.3-38.9c6.1-6.9,12.3-13.1,19.2-20c22.3-20,43-39.9,64.2-59.7"/>
<circle class="st3" cx="269.9" cy="355.7" r="7.8"/>
<circle class="st3" cx="195.7" cy="199.7" r="7.8"/>
<circle class="st5" cx="254.2" cy="217.3" r="7.8"/>
<circle class="st5" cx="358.9" cy="324.2" r="7.8"/>
<circle class="st5" cx="320.4" cy="364.8" r="7.8"/>
<circle class="st3" cx="405.3" cy="202.9" r="7.8"/>
<circle class="st5" cx="118.9" cy="347.8" r="7.8"/>
<ellipse class="st6" cx="92.6" cy="272.7" rx="7.8" ry="7.8"/>
<circle class="st5" cx="405.3" cy="364.8" r="7.8"/>
</svg>
