<?xml version="1.0" encoding="utf-8"?>
<!-- Generator: Adobe Illustrator 24.0.1, SVG Export Plug-In . SVG Version: 6.00 Build 0)  -->
<svg version="1.1" id="Layer_1" xmlns="http://www.w3.org/2000/svg" xmlns:xlink="http://www.w3.org/1999/xlink" x="0px" y="0px"
	 viewBox="0 0 512 512" style="enable-background:new 0 0 512 512;" xml:space="preserve">
<style type="text/css">
	.st0{fill:#DDDDDD;}
	.st1{fill:url(#SVGID_1_);}
	.st2{fill:none;}
	.st3{fill-rule:evenodd;clip-rule:evenodd;fill:#FFFFFF;}
</style>
<path class="st0" d="M110.9,85.5c21.1-22.1,53.5-55.2,103.2-61.5c61.5-7.8,110.5,30.3,135,49.4c94.1,73.2,180.2,233.3,124,326
	c-72.8,120-374.9,111.4-443.4-31.8C-15,274.1,51.5,147.8,110.9,85.5z"/>
<linearGradient id="SVGID_1_" gradientUnits="userSpaceOnUse" x1="22.802" y1="252.9026" x2="498.6991" y2="252.9026">
	<stop  offset="0" style="stop-color:#F69453"/>
	<stop  offset="0.5" style="stop-color:#F37521"/>
	<stop  offset="1" style="stop-color:#D4622A"/>
</linearGradient>
<path class="st1" d="M480.8,399.4c-72.8,120-374.8,111.4-443.4-31.8C31,354,26.8,339.8,24.7,325.1c-2.9-19.3-2.3-39.3,0.9-59.3
	c11.1-69.4,53.7-139,93.1-180.3c21.1-22.1,53.5-55.2,103.2-61.5c61.5-7.8,110.5,30.3,135,49.4C450.9,146.7,537,306.7,480.8,399.4z"
	/>
<rect x="61.5" y="178.3" class="st2" width="587" height="199"/>
<path class="st3" d="M325.7,161.6c32.1,0,48.8,12,59,20.1c4.6,3.6,7.2,9.1,7.2,14.9v157.8c-0.1,1.2-0.6,2.4-1.3,3.2
	c-0.9,0.9-2.1,1.3-3.3,1.3c-1.1,0.1-2.2-0.4-2.9-1.3c-10.2-8.4-30.1-19.4-59.6-19.4c-49.1,0-63.6,45.3-63.6,45.3V211.8
	c0-8.8,3-17.4,8.5-24.3C278.8,175.5,295.5,161.6,325.7,161.6z M186,161.6c30.1,0,46.9,13.9,56.4,25.9c5.5,6.9,8.5,15.5,8.5,24.3
	v171.7c0,0-14.4-45.3-63.6-45.3c-29.5,0-49.5,11-59.6,19.4c-1,0.6-1.9,1-2.9,1.3c-2.5,0.1-4.5-1.9-4.6-4.3c0-0.1,0-0.2,0-0.2V196.6
	c0-5.8,2.7-11.2,7.2-14.9C137.2,173.6,153.9,161.6,186,161.6z"/>
</svg>
