<?xml version="1.0" encoding="utf-8"?>
<!-- Generator: Adobe Illustrator 24.0.1, SVG Export Plug-In . SVG Version: 6.00 Build 0)  -->
<svg version="1.1" id="Layer_1" xmlns="http://www.w3.org/2000/svg" xmlns:xlink="http://www.w3.org/1999/xlink" x="0px" y="0px"
	 viewBox="0 0 512 512" style="enable-background:new 0 0 512 512;" xml:space="preserve">
<style type="text/css">
	.st0{fill:#DDDDDD;}
	.st1{fill:url(#SVGID_1_);stroke:#D8D8D8;stroke-miterlimit:10;}
	.st2{fill:none;stroke:#333333;stroke-width:18;stroke-miterlimit:10;}
	.st3{fill-rule:evenodd;clip-rule:evenodd;fill:url(#SVGID_2_);stroke:#FFFFFF;stroke-width:6;stroke-miterlimit:10;}
	.st4{fill-rule:evenodd;clip-rule:evenodd;fill:url(#SVGID_3_);stroke:#FFFFFF;stroke-width:6;stroke-miterlimit:10;}
	.st5{fill-rule:evenodd;clip-rule:evenodd;fill:url(#SVGID_4_);stroke:#FFFFFF;stroke-width:6;stroke-miterlimit:10;}
	.st6{fill-rule:evenodd;clip-rule:evenodd;fill:url(#SVGID_5_);stroke:#FFFFFF;stroke-width:6;stroke-miterlimit:10;}
	.st7{fill-rule:evenodd;clip-rule:evenodd;fill:url(#SVGID_6_);stroke:#FFFFFF;stroke-width:6;stroke-miterlimit:10;}
	.st8{fill-rule:evenodd;clip-rule:evenodd;fill:url(#SVGID_7_);stroke:#FFFFFF;stroke-width:6;stroke-miterlimit:10;}
</style>
<path class="st0" d="M110.9,85.5c21.1-22.1,53.5-55.2,103.2-61.5c61.5-7.8,110.5,30.3,135,49.4c94.1,73.2,180.2,233.3,124,326
	c-72.8,120-374.9,111.4-443.4-31.8C-15,274.1,51.5,147.8,110.9,85.5z"/>
<radialGradient id="SVGID_1_" cx="260.7498" cy="252.9008" r="233.947" gradientUnits="userSpaceOnUse">
	<stop  offset="0" style="stop-color:#FFE7A3"/>
	<stop  offset="0.5" style="stop-color:#FFCA05"/>
	<stop  offset="1" style="stop-color:#FAAC18"/>
</radialGradient>
<path class="st1" d="M480.8,399.4c-10.6,17.5-26.1,32.2-45,44.2c-23.3,14.8-51.8,25.4-82.9,31.8c-11.7,2.4-23.7,4.2-36,5.4h0
	c-24.9,2.5-50.7,2.5-76.1,0c-6.3-0.6-12.6-1.4-18.8-2.3c-2.8-0.4-5.7-0.9-8.5-1.4c-14-2.4-27.7-5.5-41-9.4c0,0,0,0,0,0
	c-0.8-0.2-1.6-0.5-2.5-0.7c-3.5-1.1-7-2.2-10.5-3.4c-6-2-11.9-4.2-17.6-6.6l0,0v0c-7.5-3.1-14.9-6.5-21.9-10.1
	c-2.9-1.5-5.7-3-8.5-4.6c-2.7-1.5-5.4-3.1-8-4.8c-2.1-1.3-4.1-2.6-6.2-4c-5.8-3.8-11.3-7.9-16.5-12.2c-2.4-2-4.7-4-7-6
	c-13.5-12.3-24.8-26.3-33.2-41.9c-1.1-2-2.1-4-3-6C31,354,26.8,339.8,24.7,325.1c-0.8-5.3-1.3-10.6-1.6-16
	c-0.7-14.2,0.2-28.7,2.5-43.2c8.9-55.8,38.2-111.7,69.8-153c7.7-10.1,15.6-19.3,23.3-27.4c17.7-18.5,43.2-44.6,80.1-56.4
	c7.3-2.3,15-4.1,23.1-5.1c45.8-5.8,84.6,13.8,111.6,32.1c9.3,6.3,17.1,12.4,23.4,17.3c0.4,0.3,0.8,0.6,1.2,0.9
	c50.7,39.9,98.9,104.8,123.6,170.7c2.8,7.5,5.3,15,7.5,22.5c2.1,7.3,3.9,14.5,5.3,21.8c1,4.9,1.8,9.9,2.5,14.7
	c0.6,4.2,1,8.3,1.3,12.4C500.4,346.8,495.4,375.4,480.8,399.4z"/>
<path class="st2" d="M237.8,380.5"/>
<path class="st2" d="M237.8,439.4"/>
<path class="st2" d="M237.8,68"/>
<path class="st2" d="M275.8,380.5"/>
<path class="st2" d="M275.8,439.4"/>
<path class="st2" d="M275.8,68"/>
<path class="st2" d="M275.8,129.3"/>
<radialGradient id="SVGID_2_" cx="166.917" cy="315.2579" r="66.668" gradientTransform="matrix(0.9983 5.810041e-02 5.810041e-02 -0.9983 -23.0934 501.3158)" gradientUnits="userSpaceOnUse">
	<stop  offset="0" style="stop-color:#FFE7A3"/>
	<stop  offset="0.5" style="stop-color:#FFCA05"/>
	<stop  offset="1" style="stop-color:#FAAC18"/>
</radialGradient>
<path class="st3" d="M226,224.6c8.8,16.1-3.3,35.7-21.6,35.3l-45.4-1.2l-45.4-1.2c-18.4-0.5-29.4-20.7-19.7-36.4l23.8-38.7
	l23.8-38.7c9.6-15.6,32.6-15,41.4,1.1l21.6,39.9L226,224.6z"/>
<radialGradient id="SVGID_3_" cx="169.4284" cy="177.0134" r="67.0793" gradientTransform="matrix(0.9983 5.810041e-02 5.810041e-02 -0.9983 -23.0934 501.3158)" gradientUnits="userSpaceOnUse">
	<stop  offset="0" style="stop-color:#FFE7A3"/>
	<stop  offset="0.5" style="stop-color:#FFCA05"/>
	<stop  offset="1" style="stop-color:#FAAC18"/>
</radialGradient>
<path class="st4" d="M203.2,272.2c18.4-0.5,30.4,19.1,21.6,35.2l-21.6,39.9l-21.5,40c-8.8,16.1-31.7,16.8-41.4,1.1l-23.8-38.7
	L92.8,311c-9.6-15.6,1.3-35.9,19.7-36.4l45.4-1.3L203.2,272.2z"/>
<radialGradient id="SVGID_4_" cx="354.5482" cy="321.6487" r="66.7493" gradientTransform="matrix(0.9983 5.810041e-02 5.810041e-02 -0.9983 -23.0934 501.3158)" gradientUnits="userSpaceOnUse">
	<stop  offset="0" style="stop-color:#FFE7A3"/>
	<stop  offset="0.5" style="stop-color:#FFCA05"/>
	<stop  offset="1" style="stop-color:#FAAC18"/>
</radialGradient>
<path class="st5" d="M301.5,262.3c-18.4-0.3-29.6-20.3-20.2-36l23.3-39.1l23.3-39.1c9.4-15.8,32.4-15.4,41.4,0.5l22.2,39.7
	l22.2,39.7c9,16.1-2.7,35.8-21.1,35.5l-45.4-0.6L301.5,262.3z"/>
<radialGradient id="SVGID_5_" cx="357.7498" cy="184.4651" r="66.7796" gradientTransform="matrix(0.9983 5.810041e-02 5.810041e-02 -0.9983 -23.0934 501.3158)" gradientUnits="userSpaceOnUse">
	<stop  offset="0" style="stop-color:#FFE7A3"/>
	<stop  offset="0.5" style="stop-color:#FFCA05"/>
	<stop  offset="1" style="stop-color:#FAAC18"/>
</radialGradient>
<path class="st6" d="M280.8,310.8c-9-16.1,2.7-35.8,21.1-35.5l45.4,0.6l45.4,0.6c18.4,0.3,29.6,20.3,20.2,36l-23.2,39.1l-23.2,39.1
	c-9.4,15.8-32.4,15.5-41.4-0.5l-22.2-39.7L280.8,310.8z"/>
<radialGradient id="SVGID_6_" cx="271.1236" cy="148.2772" r="66.9533" gradientTransform="matrix(0.9983 5.810041e-02 5.810041e-02 -0.9983 -23.0934 501.3158)" gradientUnits="userSpaceOnUse">
	<stop  offset="0" style="stop-color:#FFE7A3"/>
	<stop  offset="0.5" style="stop-color:#FFCA05"/>
	<stop  offset="1" style="stop-color:#FAAC18"/>
</radialGradient>
<path class="st7" d="M232.6,316.3c9.1-16,32-16.1,41.4-0.3l23,39.1l23,39.1c9.3,15.9-2.1,35.8-20.4,36l-45.4,0.3l-45.4,0.3
	c-18.4,0.1-30-19.7-20.9-35.7l22.4-39.5L232.6,316.3z"/>
<radialGradient id="SVGID_7_" cx="255.2527" cy="355.0131" r="66.7875" gradientTransform="matrix(0.9983 5.810041e-02 5.810041e-02 -0.9983 -23.0934 501.3158)" gradientUnits="userSpaceOnUse">
	<stop  offset="0" style="stop-color:#FFE7A3"/>
	<stop  offset="0.5" style="stop-color:#FFCA05"/>
	<stop  offset="1" style="stop-color:#FAAC18"/>
</radialGradient>
<path class="st8" d="M274.2,214.4c-9.4,15.8-32.4,15.5-41.4-0.5l-22.2-39.6l-22.2-39.6c-9-16.1,2.7-35.8,21.1-35.5l45.4,0.5
	l45.4,0.5c18.4,0.2,29.6,20.3,20.3,36l-23.2,39.1L274.2,214.4z"/>
</svg>
