<?xml version="1.0" encoding="utf-8"?>
<!-- Generator: Adobe Illustrator 24.0.1, SVG Export Plug-In . SVG Version: 6.00 Build 0)  -->
<svg version="1.1" id="Layer_1" xmlns="http://www.w3.org/2000/svg" xmlns:xlink="http://www.w3.org/1999/xlink" x="0px" y="0px"
	 viewBox="0 0 512 512" style="enable-background:new 0 0 512 512;" xml:space="preserve">
<style type="text/css">
	.st0{fill:#DDDDDD;}
	.st1{fill:url(#SVGID_1_);}
	.st2{fill:#FFFFFF;}
</style>
<path class="st0" d="M110.9,85.5C132,63.4,164.4,30.3,214.1,24c61.5-7.8,110.5,30.3,135,49.4c94.1,73.2,180.2,233.3,124,326
	c-72.8,120-374.9,111.4-443.4-31.8C-15,274.1,51.5,147.8,110.9,85.5z"/>
<linearGradient id="SVGID_1_" gradientUnits="userSpaceOnUse" x1="22.8281" y1="261.1277" x2="498.7581" y2="261.1277" gradientTransform="matrix(1 0 0 -1 0 514)">
	<stop  offset="0" style="stop-color:#545454"/>
	<stop  offset="0.3894" style="stop-color:#232323"/>
	<stop  offset="0.6558" style="stop-color:#4C4C4C"/>
	<stop  offset="0.9896" style="stop-color:#353535"/>
</linearGradient>
<path class="st1" d="M480.8,399.4C408,519.4,106,510.8,37.4,367.6C31,354,26.8,339.8,24.7,325.1c-2.9-19.3-2.3-39.3,0.9-59.3
	c11.1-69.4,53.7-139,93.1-180.3c21.1-22.1,53.5-55.2,103.2-61.5c45.8-5.8,84.6,13.8,111.6,32.1c9.3,6.3,17.1,12.4,23.4,17.3
	c0.4,0.3,0.8,0.6,1.2,0.9C408.8,114.2,457,179.1,481.7,245c2.8,7.5,5.3,15,7.5,22.5c2.1,7.3,3.9,14.5,5.3,21.8
	c1.8,9.2,3.1,18.2,3.8,27.1C500.4,346.8,495.4,375.4,480.8,399.4z"/>
<g>
	<path id="path-3_15_" class="st2" d="M264.6,174c0.4,0.1,0.8,0.1,1.2,0.2c0.8,0.1,2.1,0.3,3,0.4l4.6-11.5c1.4-3.7,2.2-3.1,2.1,0.3
		l-0.4,12.1l0,0c1.2,0.2,2.9,0.8,4.1,1l0,0l5.8-10.9c1.7-3.2,2.6-3.1,2.1,0.7l-2.1,11.8c1.2,0.6,2.9,1.2,4.1,1.4l7-9.8
		c2.2-3.1,3-2.6,2,1.1l-3.4,11.6l0,0c1.2,0.6,2.9,1.2,4,2.3l0,0l7.8-9.3c2.6-2.7,3.3-2.1,2,1.1l-4.6,11.5c1.1,1,2.4,1.6,3.5,2.7
		l8.9-8.3c3-2.6,3.7-2.1,2,1.5l-5.7,10.4l0,0c1.1,1,2.3,2.1,3,3l0,0l10-6.8c2.9-2.2,3.7-1.7,1.6,1.5l-7.5,10.6c1.1,1,1.9,2,3,3.4
		l10.7-5.4c3.3-1.7,4-1.2,1.5,2l-8.1,8.8l0,0c0.7,0.9,1.8,2.4,2.5,3.8l0,0l11.4-4.5c3.6-1.3,3.9-0.3,1,1.9l-9.3,7.8
		c0.7,1.4,1.4,2.8,2,4.2l11.6-3.1c3.6-0.8,3.9,0.1,1,1.9l-10,6.8l0,0c0.7,1.4,0.9,2.7,1.6,4.1l11.9-1.8c3.5-0.3,4.2,0.6,0.5,2.3
		l-10.7,5.4c0.2,1.3,0.9,2.7,1.1,4.4l11.7-0.1c3.9,0.1,3.7,0.9,0.5,2.3l-10.9,4.1l0,0c0.2,1.3,0.4,3.1,0.6,4.4l0,0l11.9,1.3
		c3.8,0.5,3.7,1.4,0.1,2.2l-11.6,2.7c0.2,1.3,0,3-0.2,4.3l11.3,2.8c3.7,0.9,3.6,1.8-0.3,2.1l-11.9,1.4l0,0c-0.2,1.2-0.4,3-0.6,4.2
		c0,0,0,0-0.1,0.4l0,0l11.2,3.8c3.7,1.4,3.6,2.3-0.3,2.1l-11.7,0.1c-0.2,1.7-0.8,2.9-1.1,4.6l10.4,5.3c3.2,1.7,3.1,2.6-0.7,2.1
		l-11.5-1.6c-0.6,1.2-0.8,2.9-1.4,4.1l0,0l9.8,6.6c3.1,2.2,2.6,3-0.7,2.1l-11.3-2.8c-0.6,1.2-1.2,2.9-1.8,4l8.8,7.7
		c2.7,2.6,2.6,3.4-1.1,2l-10.6-4.1l0,0c-1,1.1-1.7,2.8-2.7,3.9l0,0l7.9,8.4c2.7,2.6,2.1,3.7-1.5,2l-10.7-7.1c-1,1.1-2.1,2.3-3.1,3.4
		l6.9,9.2c2.2,2.9,1.7,3.7-1.5,1.6l-9.4-6.5l0,0c-1,1.1-2.1,2.3-3.4,3l5.9,9.9c1.7,3.3,1.2,4-2,1.5l-8.8-7.7
		c-1.4,1.1-2.4,1.8-3.8,2.5l4.6,10.6c1.7,3.7,0.7,4-1.9,1l-7.9-8.4l0,0c-1.4,0.7-2.8,1.4-4.2,2l3.1,11.2c1.3,3.6,0.3,3.9-1.9,1
		l-6.4-9.6c-1.4,0.7-2.8,1.4-4.6,2l1.8,11.4c0.8,3.6-0.1,3.9-2.3,0.5l-5.5-10.3l0,0c-1.3,0.2-3.1,0.8-4.4,1.1l0,0l0.6,11.3
		c0.3,3.9-0.9,3.7-2.3,0.5l-4.3-9.7c-1.3,0.2-3.1,0.4-4.4,0.6l-0.8,11.6c-0.1,3.9-1.4,3.7-2.2,0.1l-3.1-11.2l0,0
		c-1.3,0.2-3,0-4.7,0.2l0,0l-2.4,11.3c-0.5,3.8-1.8,3.6-2.2,0.1l-0.9-11.8c-1.7-0.2-3-0.4-4.7-0.2l-3.8,11.2
		c-1.4,3.7-2.3,3.6-2.1-0.3l-0.1-11.7l0,0c-1.7-0.2-3-0.4-4.6-1.1l0,0l-4.9,10.5c-1.3,3.3-2.6,3.1-2.1-0.7l1.2-11.5
		c-1.7-0.7-2.9-0.8-4.1-1.4l-6.6,9.8c-1.7,3.2-3,3-2.1-0.7l2.4-11.3c-1.2-0.6-2.9-1.2-4-1.8l0,0l-7.4,9.3c-2.2,3.1-3.4,2.6-2-1.1
		l3.8-11.2c-1.2-0.6-2.4-1.6-4-2.3l-8.5,8.3c-2.6,2.7-3.3,2.1-2-1.1l5.3-10.4l0,0c-1.1-1-2.3-2.1-3.5-2.7l0,0l-9.3,7.4
		c-2.9,2.2-3.7,1.7-1.6-1.5l6.6-9.8c-1.1-1-2.3-2.1-3-3.4l-9.8,5.1c-3.3,2.1-4,1.2-1.6-1.5l7.4-9.3l0,0c-1.1-1-1.8-2.4-2.6-3.4l0,0
		l-10.6,5c-3.3,1.7-4,0.7-1.5-2l8.5-8.3c-0.7-1.4-1.4-2.4-2.1-3.7l-11.3,3.6c-3.6,1.3-3.9,0.3-1-1.9l9.7-7.3l0,0
		c-0.7-1.4-1.4-2.8-1.6-4.1l-11.5,2.3c-3.6,0.8-3.9-0.1-0.5-2.3l10.3-5.9c-0.7-1.4-0.9-2.7-1.2-4l-12.6,0.8
		c-3.9,0.3-4.2-0.6-0.5-2.3l11-4.5l0,0c-0.2-1.3-0.4-3.1-0.6-4.4l0,0l-12.1-0.4c-3.9-0.1-3.7-0.9-0.1-2.2l11.3-3.6
		c-0.2-1.3,0-3-0.2-4.3l-11.8-2.1c-3.8-0.5-3.6-1.8-0.1-2.2l12-2.2l0,0c0.2-1.2,0-3,0.2-4.3l0,0l-11.6-3.4c-3.7-0.9-3.6-2.3,0.3-2.1
		l12.2-0.5c0.2-1.2,0.4-3,0.6-4.2l-11-4.6c-3.3-1.3-3.1-2.6,0.7-2.1l12,0.8l0,0c0.2-1.2,0.8-2.9,1.4-4.1l0,0l-10.4-5.7
		c-3.2-1.7-3.1-2.6,0.7-2.1l12,2.2c0.6-1.2,1.2-2.9,1.8-4l-9.8-7c-3.1-2.2-2.6-3,1.1-2l11.6,3.8l0,0c0.6-1.2,1.6-2.4,2.3-3.6l0,0
		l-8.8-8.1c-2.7-2.6-2.1-3.3,1.1-2l11,5c1-1.1,1.6-2.4,2.7-3.5l-7.8-9.3c-2.6-3-1.7-3.7,1.5-1.6l10.3,6.2l0,0c1-1.1,2-1.9,3-3l0,0
		l-6.8-10.5c-2.1-3.3-1.3-3.6,1.5-1.6l9.7,7.4c1-1.1,2.4-1.8,3.4-3l-5.2-11.9c-1.7-3.3-0.7-4,2-1.5l8.7,8.5l0,0
		c0.9-0.7,2.4-1.4,3.7-2.1l-4-11.3c-1.3-3.6-0.3-3.9,1.9-1l7.7,9.7c1.4-0.7,2.8-1.4,3.7-2.1l-2.6-12.1c-0.8-3.6,0.1-3.9,2.3-0.9
		l6.3,10.4l0,0c1.4-0.7,2.7-0.9,4-1.2l0,0l-1.3-12.3c-0.3-3.9,0.6-4.2,2.3-0.5l4.9,11c1.3-0.2,2.7-0.5,4-0.7l0.4-12.1
		c0.1-3.9,0.9-3.7,2.2-0.1l3.6,11.7l0,0c1.3-0.2,3.1-0.4,4.3-0.2l0,0l1.7-12.3c0.5-3.8,1.4-3.7,2.2-0.1l2.6,12.1
		c1.2,0.2,3,0,4.3,0.2l2.9-11.7c0.9-3.7,1.8-3.6,2.1,0.3L264.6,174L264.6,174z M243.2,335.9c40.3,5.7,77.4-22.3,83.1-62.6
		s-22.3-77.4-62.6-83.1s-77.8,21.9-83.4,62.1S203,330.2,243.2,335.9z"/>
</g>
<path class="st2" d="M403.4,270.5c5.6-0.8,5.6-2.2,0-3.4l-15.8-3c0-0.4,0-0.8,0-1.2c0-2.2,0-4.2,0-6.4l15.4-3.8
	c5.6-1.2,5.2-3-0.4-3.4l-15.8-1.2c-0.4-2.6-0.4-4.7-0.8-7.2l15-5.6c5.2-2.2,5.2-3.4-0.4-3.4l-15.8,0.4c-0.4-2.6-1.2-4.7-1.7-7.2
	l14.1-7.2c5.2-2.6,4.2-3.8-0.8-3l-15.8,2.6c-0.8-2.2-1.7-4.7-2.6-6.8l13.2-9c4.7-3.4,3.8-4.7-1.2-3l-15.4,4.2
	c-1.2-2.2-2.2-4.2-3.4-6.4l12-10.7c4.2-3.8,3.4-5.2-1.7-3l-14.5,6c-1.2-2.2-3-4.2-4.2-6l10.7-12c3.8-4.2,3-5.2-2.2-2.6l-15,7.7
	c-1.7-1.7-3-3.8-4.7-5.6l9.4-13.2c3.4-4.7,2.2-5.6-2.6-2.6l-12.8,9.4c-1.7-1.7-3.4-3.4-5.6-4.7l7.7-14.1c2.6-5.2,1.2-6-2.6-2.2
	l-11.6,10.7c-2.2-1.2-3.8-3-6-4.2l6-15c2.2-5.2,0.8-6-3-1.7l-10.2,12c-2.2-1.2-4.2-2.2-6.4-3.4l3.8-15.4c1.2-5.6,0-6-3-1.2
	l-8.6,13.2c-2.2-0.8-4.7-1.7-6.8-2.6l2.2-15.8c0.8-5.6-0.4-6-3-0.8l-7.2,14.1c-2.2-0.8-4.7-1.2-7.2-1.7l0.4-15.8
	c0-5.6-1.2-6-3.4-0.4l-5.6,15c-2.6-0.4-4.7-0.8-7.2-0.8l-2.6-15.4c-0.4-5.6-2.2-5.6-3.4-0.4l-3.8,15.4c-1.7,0-3.4,0-5.2,0
	c-0.8,0-1.7,0-2.2,0l-3.4-15.8c-1.2-5.6-2.6-5.6-3.4,0l-1.7,15.8c-2.6,0-4.7,0.4-7.2,0.8l-5.6-15c-1.7-5.2-3.4-5.2-3.4,0.4l0.4,15.8
	c-2.6,0.4-4.7,0.8-7.2,1.7l-6.8-14.5c-2.6-5.2-3.8-4.7-3.4,0.8l1.7,15.8c-2.2,0.8-4.7,1.7-6.8,2.6l-8.6-13.2c-3-4.7-4.2-4.2-3,1.2
	l3.8,15.4c-2.2,0.8-4.2,2.2-6.4,3.4l-10.2-12.4c-3.4-4.2-4.7-3.4-3,1.7l5.6,15c-2.2,1.2-4.2,2.6-6,3.8l-11.3-11.2
	c-4.2-3.8-5.2-3-2.6,2.2l7.2,14.1c-1.7,1.7-3.8,3-5.6,4.7l-12.8-9.4c-4.7-3.4-5.6-2.2-2.6,2.2l9,13.2c-1.7,1.7-3.4,3.4-5.2,5.6
	l-13.7-8.2c-4.7-3-6-1.7-2.2,2.6l10.2,12l0,0c-1.2,1.7-3,3.8-4.2,6l-14.5-6.4c-5.2-2.2-6-0.8-1.7,3l12,10.7
	c-1.2,2.2-2.6,4.2-3.4,6.4l-15.4-4.2c-5.6-1.7-6,0-1.2,3l12.8,9c-0.8,2.2-2.2,4.2-3,6.8l-15.8-2.6c-5.6-0.8-6,0.4-1.2,3l14.1,7.7
	c-0.8,2.2-1.2,4.7-2.2,6.8l-15.8-0.4c-5.6,0-6,1.2-0.8,3.4l15,5.6c-0.4,2.6-0.8,4.7-1.2,7.2l-15.8,2.2c-5.6,0.4-5.6,1.7-0.4,3.4
	l15.4,4.2c0,2.6-0.4,4.7-0.4,7.2l-15.8,3c-5.6,0.8-5.6,2.6,0,3.4l15.8,2.2c0,2.6,0.4,4.7,0.4,7.2l-15.4,4.7c-5.6,1.7-5.2,3,0.4,3.4
	l15.8,0.4c0.4,2.6,0.8,4.7,1.2,7.2l-14.5,6.9c-5.2,2.6-4.7,3.8,0.8,3.4l15.8-1.7c0.8,2.6,1.2,4.7,2.2,7.2l-13.7,8.2
	c-4.7,3-4.2,4.2,1.2,3l15.8-3.4c0.8,2.2,2.2,4.2,3,6.8l-12.4,9.8c-4.2,3.4-3.8,4.7,1.7,3l15-5.2c1.2,2.2,2.6,4.2,3.8,6.4l-10.2,10.2
	c-3.8,3.8-3,5.2,1.7,2.6l14.5-6.8c1.2,2.2,3,3.8,4.7,5.6l-9.9,12.4c-3.4,4.2-2.6,5.6,2.2,2.6l13.2-8.6c1.7,1.7,3.4,3.4,5.2,5.2
	l-8.2,13.7c-3,4.7-1.7,5.6,2.6,2.2l12.4-10.2c1.7,1.7,3.8,3,6,4.7l-6.8,14.5c-2.6,5.2-1.2,6,2.6,1.7l11.1-11.6
	c2.2,1.2,4.2,2.6,6.4,3.8l-5.2,15c-1.7,5.2-0.4,6,3,1.7l9.8-12.8c2.2,0.8,4.2,2.2,6.8,3l-3,15.8c-1.2,5.6,0.4,6,3,1.2l8.2-13.7
	c2.2,0.8,4.7,1.7,6.8,2.2l-1.7,16.2c-0.4,5.6,0.8,6,3.4,0.8l6.4-14.5c2.6,0.4,4.7,0.8,7.2,1.2l0.8,15.8c0.4,5.6,1.7,5.6,3.4,0.4
	l4.2-15.4c2.6,0.4,5.2,0.4,7.2,0.4l2.6,15.8c0.8,5.6,2.2,5.6,3.4,0l3-15.8c2.6,0,4.7,0,7.2-0.4l4.2,15.4c1.7,5.6,3,5.2,3.4-0.4
	l0.8-15.8c2.6-0.4,4.7-0.8,7.2-1.2l6,14.5c2.2,5.2,3.4,4.7,3.4-0.8l-1.7-15c2.6-0.4,4.7-1.2,6.8-2.2l8.2,13.7c3,4.7,4.2,4.2,3-1.2
	l-3-15.8c2.2-0.8,4.7-1.7,6.8-3l9.4,12.8c3.4,4.7,4.7,3.8,3-1.7l-4.2-14.5c2.2-1.2,4.2-2.6,6.4-3.8l10.7,11.6c3.8,4.2,5.2,3.4,3-1.7
	l-6.4-14.5c2.2-1.2,3.8-3,6-4.2l12.4,10.2c4.2,3.4,5.6,2.6,2.6-2.2l-8.2-13.7c1.7-1.7,3.4-3.4,5.2-5.2l13.2,8.6
	c4.7,3,5.6,2.2,2.2-2.6l-9.7-12.4c1.7-1.7,3-3.8,4.7-5.6l14.5,7.2c5.2,2.6,6,1.2,2.2-2.6l-11.6-11.6c1.2-2.2,2.6-3.8,3.8-6l15,5.2
	c5.2,1.7,6,0.4,1.7-3l-12.4-9.8c1.2-2.2,2.2-4.2,3.4-6.8l15.4,3.4c5.6,1.2,6,0,1.2-3l-13.7-8.6c0.8-2.2,1.7-4.7,2.6-6.8l15.8,1.7
	c5.6,0.4,6-0.8,0.8-3.4l-14.5-6.8c0.4-2.6,1.2-4.7,1.7-7.2l15.8-0.4c5.6,0,6-1.7,0.4-3.4l-15-3.8c0.4-2.6,0.4-4.7,0.8-7.2
	L403.4,270.5z M197.4,345.7c-4.2,7.7-15.4,8.6-22.2,4.7c-4.7-2.6-15.8-13.2-26.1-29.9c-9.4-17.1-14.5-36.3-14.5-57.3
	c0-35.1,15-66.2,39.3-88c7.7-4.2,18.4-3.4,22.7,3.8l42.3,72.6c3.4,6,3.4,17.5-0.4,23.5L197.4,345.7z M344.9,338
	c-13.7,16.2-31.2,29.1-51.7,36.3c-26.5,7.7-61.1,8.2-74.4,0.8c-9-4.2-12.4-13.7-8.2-21.4l41.9-72.6c3.4-6,12.4-11.1,19.2-11.1h81.6
	c9,0,15,7.7,15,15.4C368.4,292.2,362.9,315.8,344.9,338z M247,262.7c0-3.4,3-6.4,6.4-6.4s6.4,3,6.4,6.4s-3,6.4-6.4,6.4
	S247,266.2,247,262.7z M355.1,255.1h-85.5c-7.2-0.4-15.8-6.4-19.2-12.8l-40.6-70.5c-4.2-7.7,0.4-16.2,7.2-20.1
	c4.7-2.6,19.7-7.2,39.3-7.2c56,1.2,102.2,41.9,112.9,94.9C370.5,248.3,362.9,255.1,355.1,255.1z"/>
</svg>
