<?xml version="1.0" encoding="utf-8"?>
<!-- Generator: Adobe Illustrator 24.0.1, SVG Export Plug-In . SVG Version: 6.00 Build 0)  -->
<svg version="1.1" id="Layer_1" xmlns="http://www.w3.org/2000/svg" xmlns:xlink="http://www.w3.org/1999/xlink" x="0px" y="0px"
	 viewBox="0 0 512 512" style="enable-background:new 0 0 512 512;" xml:space="preserve">
<style type="text/css">
	.st0{fill:#DDDDDD;}
	.st1{fill:url(#SVGID_1_);stroke:#D8D8D8;stroke-miterlimit:10;}
	.st2{fill:none;stroke:#333333;stroke-width:18;stroke-miterlimit:10;}
	.st3{fill:#FFFFFF;}
</style>
<path class="st0" d="M110.9,85.5c21.1-22.1,53.5-55.2,103.2-61.5c61.5-7.8,110.5,30.3,135,49.4c94.1,73.2,180.2,233.3,124,326
	c-72.8,120-374.9,111.4-443.4-31.8C-15,274.1,51.5,147.8,110.9,85.5z"/>
<linearGradient id="SVGID_1_" gradientUnits="userSpaceOnUse" x1="22.8021" y1="252.9008" x2="498.6976" y2="252.9008">
	<stop  offset="0" style="stop-color:#64C08A"/>
	<stop  offset="0.5" style="stop-color:#00A550"/>
	<stop  offset="1" style="stop-color:#00914C"/>
</linearGradient>
<path class="st1" d="M480.8,399.4c-10.6,17.5-26.1,32.2-45,44.2c-23.3,14.8-51.8,25.4-82.9,31.8c-11.7,2.4-23.7,4.2-36,5.4h0
	c-24.9,2.5-50.7,2.5-76.1,0c-6.3-0.6-12.6-1.4-18.8-2.3c-2.8-0.4-5.7-0.9-8.5-1.4c-14-2.4-27.7-5.5-41-9.4c0,0,0,0,0,0
	c-0.8-0.2-1.6-0.5-2.5-0.7c-3.5-1.1-7-2.2-10.5-3.4c-6-2-11.9-4.2-17.6-6.6l0,0v0c-7.5-3.1-14.9-6.5-21.9-10.1
	c-2.9-1.5-5.7-3-8.5-4.6c-2.7-1.5-5.4-3.1-8-4.8c-2.1-1.3-4.1-2.6-6.2-4c-5.8-3.8-11.3-7.9-16.5-12.2c-2.4-2-4.7-4-7-6
	c-13.5-12.3-24.8-26.3-33.2-41.9c-1.1-2-2.1-4-3-6C31,354,26.8,339.8,24.7,325.1c-0.8-5.3-1.3-10.6-1.6-16
	c-0.7-14.2,0.2-28.7,2.5-43.2c8.9-55.8,38.2-111.7,69.8-153c7.7-10.1,15.6-19.3,23.3-27.4c17.7-18.5,43.2-44.6,80.1-56.4
	c7.3-2.3,15-4.1,23.1-5.1c45.8-5.8,84.6,13.8,111.6,32.1c9.3,6.3,17.1,12.4,23.4,17.3c0.4,0.3,0.8,0.6,1.2,0.9
	c50.7,39.9,98.9,104.8,123.6,170.7c2.8,7.5,5.3,15,7.5,22.5c2.1,7.3,3.9,14.5,5.3,21.8c1,4.9,1.8,9.9,2.5,14.7
	c0.6,4.2,1,8.3,1.3,12.4C500.4,346.8,495.4,375.4,480.8,399.4z"/>
<path class="st2" d="M237.8,68"/>
<path class="st2" d="M275.8,68"/>
<g>
	<path class="st3" d="M93.3,225.6v39.9c0,15.1,6.7,21.5,15.7,21.5c10,0,16.4-6.6,16.4-21.5v-39.9h8.8v39.3
		c0,20.7-10.9,29.2-25.5,29.2c-13.8,0-24.2-7.9-24.2-28.8v-39.7H93.3z"/>
	<path class="st3" d="M149.3,226.5c3.8-0.8,9.8-1.4,15.9-1.4c8.7,0,14.3,1.5,18.5,4.9c3.5,2.6,5.6,6.6,5.6,11.9
		c0,6.5-4.3,12.2-11.4,14.8v0.2c6.4,1.6,13.9,6.9,13.9,16.9c0,5.8-2.3,10.2-5.7,13.5c-4.7,4.3-12.3,6.3-23.3,6.3
		c-6,0-10.6-0.4-13.5-0.8V226.5z M158,254.1h7.9c9.2,0,14.6-4.8,14.6-11.3c0-7.9-6-11-14.8-11c-4,0-6.3,0.3-7.7,0.6V254.1z
		 M158,286.4c1.7,0.3,4.2,0.4,7.3,0.4c9,0,17.3-3.3,17.3-13.1c0-9.2-7.9-13-17.4-13H158L158,286.4L158,286.4z"/>
	<path class="st3" d="M212.2,225.6v39.9c0,15.1,6.7,21.5,15.7,21.5c10,0,16.4-6.6,16.4-21.5v-39.9h8.8v39.3
		c0,20.7-10.9,29.2-25.5,29.2c-13.8,0-24.2-7.9-24.2-28.8v-39.7H212.2z"/>
	<path class="st3" d="M268.2,293v-67.4h9.5l21.6,34.1c5,7.9,8.9,15,12.1,21.9l0.2-0.1c-0.8-9-1-17.2-1-27.7v-28.2h8.2V293H310
		l-21.4-34.2c-4.7-7.5-9.2-15.2-12.6-22.5l-0.3,0.1c0.5,8.5,0.7,16.6,0.7,27.8V293H268.2z"/>
	<path class="st3" d="M346.8,233h-20.5v-7.4h49.9v7.4h-20.6v60h-8.8V233z"/>
	<path class="st3" d="M392.4,225.6v39.9c0,15.1,6.7,21.5,15.7,21.5c10,0,16.4-6.6,16.4-21.5v-39.9h8.8v39.3
		c0,20.7-10.9,29.2-25.5,29.2c-13.8,0-24.2-7.9-24.2-28.8v-39.7H392.4z"/>
</g>
<circle class="st3" cx="130.6" cy="334.6" r="6.2"/>
<circle class="st3" cx="164.3" cy="334.6" r="6.2"/>
<circle class="st3" cx="195.5" cy="334.6" r="6.2"/>
<circle class="st3" cx="224.6" cy="334.6" r="6.2"/>
<circle class="st3" cx="256.9" cy="334.6" r="6.2"/>
<circle class="st3" cx="290.6" cy="334.6" r="6.2"/>
<circle class="st3" cx="321.8" cy="334.6" r="6.2"/>
<circle class="st3" cx="351" cy="334.6" r="6.2"/>
<circle class="st3" cx="376.7" cy="334.6" r="6.2"/>
</svg>
