<?xml version="1.0" encoding="utf-8"?>
<!-- Generator: Adobe Illustrator 24.0.1, SVG Export Plug-In . SVG Version: 6.00 Build 0)  -->
<svg version="1.1" id="Layer_1" xmlns="http://www.w3.org/2000/svg" xmlns:xlink="http://www.w3.org/1999/xlink" x="0px" y="0px"
	 viewBox="0 0 512 512" style="enable-background:new 0 0 512 512;" xml:space="preserve">
<style type="text/css">
	.st0{fill:#DDDDDD;}
	.st1{fill:url(#SVGID_1_);}
	.st2{fill:none;}
	.st3{fill:#FFFFFF;}
</style>
<path class="st0" d="M110.9,85.5c21.1-22.1,53.5-55.2,103.2-61.5c61.5-7.8,110.5,30.3,135,49.4c94.1,73.2,180.2,233.3,124,326
	c-72.8,120-374.9,111.4-443.4-31.8C-15,274.1,51.5,147.8,110.9,85.5z"/>
<linearGradient id="SVGID_1_" gradientUnits="userSpaceOnUse" x1="22.802" y1="252.9026" x2="498.6991" y2="252.9026">
	<stop  offset="0" style="stop-color:#D471AD"/>
	<stop  offset="0.5" style="stop-color:#C7158C"/>
	<stop  offset="1" style="stop-color:#9D248E"/>
</linearGradient>
<path class="st1" d="M480.8,399.4c-72.8,120-374.8,111.4-443.4-31.8C31,354,26.8,339.8,24.7,325.1c-2.9-19.3-2.3-39.3,0.9-59.3
	c11.1-69.4,53.7-139,93.1-180.3c21.1-22.1,53.5-55.2,103.2-61.5c61.5-7.8,110.5,30.3,135,49.4C450.9,146.7,537,306.7,480.8,399.4z"
	/>
<rect x="61.5" y="178.3" class="st2" width="587" height="199"/>
<path class="st3" d="M295.2,84.5c-110.6,9-186,43.5-190,84c-1.5,14.7,6.3,31.7,19,42c49.2,39.8,145.8-43,177-12
	c19.6,19.5,6.2,76.5-19,87c-24.1,10-52.4-25.2-105.8-17.8c-6.1,0.8-10.5,1.5-16.2,3.8c-34.5,13.6-60.3,63.5-48,86
	c17.4,31.8,101.4-7,212,27c9.7,3,69.3,21.9,72,51c0.4,3.9-0.1,10,0,10c0.2,0,10.7-34.2,0-56c-21.8-44.4-139.6-53.1-218-39
	c-13.9,2.5-40.7,8.3-48-3c-8.1-12.5,12.6-38.3,14-40c4.3-5.3,23.6-27.4,52-28c25.3-0.5,28.9,16.8,60,21c8.3,1.1,38.2,5.2,58-13
	c26.4-24.2,14.4-68.8,13-74c-3.4-12.8-10.3-38.2-30-46c-23.8-9.4-40.1,17.3-104,30c-18.4,3.6-34.7,5-49-4c-1.8-1.1-19.1-12.3-18-26
	c1-11.9,19-20.5,55-37c15.1-6.9,31.9-14.6,56-22c10.5-3.2,25.4-7.8,45-11c36.8-6.1,62.9-3.2,63-5C345.3,91.4,336.6,89.3,295.2,84.5z
	"/>
</svg>
