<?xml version="1.0" encoding="utf-8"?>
<!-- Generator: Adobe Illustrator 24.0.1, SVG Export Plug-In . SVG Version: 6.00 Build 0)  -->
<svg version="1.1" id="Layer_1" xmlns="http://www.w3.org/2000/svg" xmlns:xlink="http://www.w3.org/1999/xlink" x="0px" y="0px"
	 viewBox="0 0 512 512" style="enable-background:new 0 0 512 512;" xml:space="preserve">
<style type="text/css">
	.st0{fill:#DDDDDD;}
	.st1{fill:url(#SVGID_1_);}
	.st2{fill:#FAFBFC;}
</style>
<path class="st0" d="M110.9,85.5C132,63.4,164.4,30.3,214.1,24c61.5-7.8,110.5,30.3,135,49.4c94.1,73.2,180.2,233.3,124,326
	c-72.8,120-374.9,111.4-443.4-31.8C-15,274.1,51.5,147.8,110.9,85.5z"/>
<linearGradient id="SVGID_1_" gradientUnits="userSpaceOnUse" x1="22.8239" y1="261.1281" x2="498.7601" y2="261.1281" gradientTransform="matrix(1 0 0 -1 0 514)">
	<stop  offset="0" style="stop-color:#F37F5F"/>
	<stop  offset="0.5" style="stop-color:#EC1C24"/>
	<stop  offset="1" style="stop-color:#D0232A"/>
</linearGradient>
<path class="st1" d="M118.7,85.5c21.1-22.1,53.5-55.2,103.2-61.5c61.5-7.8,110.5,30.3,135,49.4c94.1,73.2,180.2,233.3,124,326
	c-72.8,120-374.9,111.4-443.4-31.8C-7.3,274.1,59.3,147.8,118.7,85.5z"/>
<path class="st2" d="M345.7,120.8c-91.2,0-116.7,71-135.3,122.9c-3.7,10.3-6.9,20.6-10,30.7c-15.6,50.6-26.5,79.2-68.2,79.2
	c-5.4,0-9.7,4.4-9.7,9.7v58.2c0,5.4,4.4,9.7,9.7,9.7c65.9,0,116.1-57.4,133.5-116.4h60.6c5.4,0,9.7-4.4,9.7-9.7v-58.2
	c0-5.4-4.4-9.7-9.7-9.7h-38.2l0.8-1.9c11-24.6,16.5-36.8,56.8-36.8c5.4,0,9.7-4.4,9.7-9.7v-58.2
	C355.5,125.1,351.1,120.8,345.7,120.8z"/>
</svg>
