<?xml version="1.0" encoding="utf-8"?>
<!-- Generator: Adobe Illustrator 24.0.1, SVG Export Plug-In . SVG Version: 6.00 Build 0)  -->
<svg version="1.1" id="Layer_1" xmlns="http://www.w3.org/2000/svg" xmlns:xlink="http://www.w3.org/1999/xlink" x="0px" y="0px"
	 viewBox="0 0 512 512" style="enable-background:new 0 0 512 512;" xml:space="preserve">
<style type="text/css">
	.st0{fill:#DDDDDD;}
	.st1{fill:url(#SVGID_1_);stroke:#D8D8D8;stroke-miterlimit:10;}
	.st2{fill:none;stroke:#333333;stroke-width:18;stroke-miterlimit:10;}
	.st3{fill:#EF477A;stroke:#FFFFFF;stroke-width:3;stroke-miterlimit:10;}
	.st4{fill:#1270F9;stroke:#FFFFFF;stroke-width:3;stroke-miterlimit:10;}
</style>
<path class="st0" d="M110.9,85.5C132,63.4,164.4,30.3,214.1,24c61.5-7.8,110.5,30.3,135,49.4c94.1,73.2,180.2,233.3,124,326
	c-72.8,120-374.9,111.4-443.4-31.8C-15,274.1,51.5,147.8,110.9,85.5z"/>
<linearGradient id="SVGID_1_" gradientUnits="userSpaceOnUse" x1="22.8682" y1="261.1811" x2="498.7581" y2="261.1811" gradientTransform="matrix(1 0 0 -1 0 514)">
	<stop  offset="5.618000e-03" style="stop-color:#E2E5F4"/>
	<stop  offset="0.4494" style="stop-color:#C7CEE9"/>
	<stop  offset="1" style="stop-color:#A8B5DC"/>
</linearGradient>
<path class="st1" d="M480.8,399.4c-10.6,17.5-26.1,32.2-45,44.2c-23.3,14.8-51.8,25.4-82.9,31.8c-11.7,2.4-23.7,4.2-36,5.4l0,0
	c-24.9,2.5-50.7,2.5-76.1,0c-6.3-0.6-12.6-1.4-18.8-2.3c-16.9-2.5-33.5-6.1-49.5-10.8l0,0c-4.4-1.3-8.7-2.7-13-4.1
	c-6-2-11.9-4.2-17.6-6.6l0,0l0,0c-7.5-3.1-14.9-6.5-21.9-10.1c-2.9-1.5-5.7-3-8.5-4.6c-2.7-1.5-5.4-3.1-8-4.8
	c-2.1-1.3-4.1-2.6-6.2-4c-5.8-3.8-11.3-7.9-16.5-12.2c-2.4-2-4.7-4-7-6C60.3,403,49,389,40.6,373.4c-1.1-2-2.1-4-3-6
	C31,354,26.8,339.8,24.7,325.1c-0.8-5.3-1.3-10.6-1.6-16c-0.7-14.2,0.2-28.7,2.5-43.2c8.9-55.8,38.2-111.7,69.8-153
	c7.7-10.1,15.6-19.3,23.3-27.4c17.7-18.5,43.2-44.6,80.1-56.4c7.3-2.3,15-4.1,23.1-5.1c45.8-5.8,84.6,13.8,111.6,32.1
	c9.3,6.3,17.1,12.4,23.4,17.3c0.4,0.3,0.8,0.6,1.2,0.9C408.8,114.2,457,179.1,481.7,245c2.8,7.5,5.3,15,7.5,22.5
	c2.1,7.3,3.9,14.5,5.3,21.8c1,4.9,1.8,9.9,2.5,14.7c0.6,4.2,1,8.3,1.3,12.4C500.4,346.8,495.4,375.4,480.8,399.4z"/>
<path class="st2" d="M237.8,380.5"/>
<path class="st2" d="M237.8,439.4"/>
<path class="st2" d="M237.8,68"/>
<path class="st2" d="M275.8,380.5"/>
<path class="st2" d="M275.8,439.4"/>
<path class="st2" d="M275.8,68"/>
<path class="st2" d="M275.8,129.3"/>
<circle class="st3" cx="348" cy="263.9" r="51.5"/>
<circle class="st4" cx="173.4" cy="263.9" r="51.5"/>
</svg>
