<?xml version="1.0" encoding="utf-8"?>
<!-- Generator: Adobe Illustrator 24.0.1, SVG Export Plug-In . SVG Version: 6.00 Build 0)  -->
<svg version="1.1" id="Layer_1" xmlns="http://www.w3.org/2000/svg" xmlns:xlink="http://www.w3.org/1999/xlink" x="0px" y="0px"
	 viewBox="0 0 512 512" style="enable-background:new 0 0 512 512;" xml:space="preserve">
<style type="text/css">
	.st0{fill:#DDDDDD;}
	.st1{fill:url(#SVGID_1_);}
	.st2{fill:none;}
	.st3{fill:#FFFFFF;}
	.st4{fill:none;stroke:#FFFFFF;stroke-width:5;stroke-miterlimit:10;}
</style>
<path class="st0" d="M110.9,85.5C132,63.4,164.4,30.3,214.1,24c61.5-7.8,110.5,30.3,135,49.4c94.1,73.2,180.2,233.3,124,326
	c-72.8,120-374.9,111.4-443.4-31.8C-15,274.1,51.5,147.8,110.9,85.5z"/>
<linearGradient id="SVGID_1_" gradientUnits="userSpaceOnUse" x1="22.8281" y1="261.1281" x2="498.6612" y2="261.1281" gradientTransform="matrix(1 0 0 -1 0 514)">
	<stop  offset="0" style="stop-color:#FFE7A3"/>
	<stop  offset="0.5" style="stop-color:#FFCA05"/>
	<stop  offset="1" style="stop-color:#FAAC18"/>
</linearGradient>
<path class="st1" d="M480.8,399.4C408,519.4,106,510.8,37.4,367.6C31,354,26.8,339.8,24.7,325.1c-2.9-19.3-2.3-39.3,0.9-59.3
	c11.1-69.4,53.7-139,93.1-180.3c21.1-22.1,53.5-55.2,103.2-61.5c61.5-7.8,110.5,30.3,135,49.4C450.9,146.7,537,306.7,480.8,399.4z"
	/>
<rect x="61.5" y="178.3" class="st2" width="587" height="199"/>
<path class="st3" d="M324.1,175.9l-26-26l13.1-13.1c2.5-2.5,6.4-2.5,8.9,0l17.1,17.1c2.5,2.5,2.5,6.4,0,8.9L324.1,175.9z"/>
<path class="st3" d="M105.3,370l-1.4-1.4c-1.2-1.2-1.2-3.2,0-4.4l12.5-12.5l5.8,5.8L109.7,370C108.6,371.2,106.6,371.2,105.3,370z"
	/>
<polyline class="st3" points="126.3,308.7 114.1,353.6 120.3,359.8 165.2,347.6 "/>
<path class="st3" d="M325.1,187.7L165.2,347.6l-38.9-38.9l159.9-159.9c5.4-5.4,13.2-6.2,17.5-1.9l23.3,23.3
	C331.4,174.5,330.5,182.3,325.1,187.7z"/>
<path class="st3" d="M323.7,202.2l-45.5-45.5l-7.3,7.3l45.5,45.5c2,2,2,5.3,0,7.3l-54,54c-2,2-2,5.3,0,7.3s5.3,2,7.3,0l54-54
	C329.8,218.1,329.8,208.3,323.7,202.2z"/>
<g>
	
		<rect x="196.6" y="246.3" transform="matrix(0.7071 -0.7071 0.7071 0.7071 -134.9724 221.6503)" class="st3" width="6.9" height="55"/>
	
		<rect x="184.3" y="258.6" transform="matrix(0.7071 -0.7071 0.7071 0.7071 -147.2726 216.5766)" class="st3" width="6.9" height="55"/>
	<rect x="172" y="270.9" transform="matrix(0.7071 -0.7071 0.7071 0.7071 -159.58 211.4699)" class="st3" width="6.9" height="55"/>
</g>
<line class="st4" x1="104" y1="368.6" x2="381.3" y2="368.6"/>
</svg>
