<?xml version="1.0" encoding="utf-8"?>
<!-- Generator: Adobe Illustrator 24.0.1, SVG Export Plug-In . SVG Version: 6.00 Build 0)  -->
<svg version="1.1" id="Layer_1" xmlns="http://www.w3.org/2000/svg" xmlns:xlink="http://www.w3.org/1999/xlink" x="0px" y="0px"
	 viewBox="0 0 512 512" style="enable-background:new 0 0 512 512;" xml:space="preserve">
<style type="text/css">
	.st0{fill:#DDDDDD;}
	.st1{fill:url(#SVGID_1_);stroke:#D8D8D8;stroke-miterlimit:10;}
	.st2{display:none;}
	.st3{display:inline;fill:#FFFFFF;}
	.st4{fill:#FFFFFF;}
</style>
<path class="st0" d="M110.9,85.5c21.1-22.1,53.5-55.2,103.2-61.5c61.5-7.8,110.5,30.3,135,49.4c94.1,73.2,180.2,233.3,124,326
	c-72.8,120-374.9,111.4-443.4-31.8C-15,274.1,51.5,147.8,110.9,85.5z"/>
<linearGradient id="SVGID_1_" gradientUnits="userSpaceOnUse" x1="22.8021" y1="252.9008" x2="498.6976" y2="252.9008">
	<stop  offset="5.618000e-03" style="stop-color:#E2E5F4"/>
	<stop  offset="0.4494" style="stop-color:#C7CEE9"/>
	<stop  offset="1" style="stop-color:#A8B5DC"/>
</linearGradient>
<path class="st1" d="M480.8,399.4c-10.6,17.5-26.1,32.2-45,44.2c-23.3,14.8-51.8,25.4-82.9,31.8c-11.7,2.4-23.7,4.2-36,5.4h0
	c-24.9,2.5-50.7,2.5-76.1,0c-6.3-0.6-12.6-1.4-18.8-2.3c-2.8-0.4-5.7-0.9-8.5-1.4c-14-2.4-27.7-5.5-41-9.4c0,0,0,0,0,0
	c-0.8-0.2-1.6-0.5-2.5-0.7c-3.5-1.1-7-2.2-10.5-3.4c-6-2-11.9-4.2-17.6-6.6l0,0v0c-7.5-3.1-14.9-6.5-21.9-10.1
	c-2.9-1.5-5.7-3-8.5-4.6c-2.7-1.5-5.4-3.1-8-4.8c-2.1-1.3-4.1-2.6-6.2-4c-5.8-3.8-11.3-7.9-16.5-12.2c-2.4-2-4.7-4-7-6
	c-13.5-12.3-24.8-26.3-33.2-41.9c-1.1-2-2.1-4-3-6C31,354,26.8,339.8,24.7,325.1c-0.8-5.3-1.3-10.6-1.6-16
	c-0.7-14.2,0.2-28.7,2.5-43.2c6.6-41.6,24.6-83.2,46.4-118.8c7.5-12.2,15.4-23.6,23.4-34.2c7.7-10.1,15.6-19.3,23.3-27.4
	c17.7-18.5,43.2-44.6,80.1-56.4c7.3-2.3,15-4.1,23.1-5.1c45.8-5.8,84.6,13.8,111.6,32.1c9.3,6.3,17.1,12.4,23.4,17.3
	c0.4,0.3,0.8,0.6,1.2,0.9c9.7,7.6,19.3,16.2,28.7,25.5c39.6,39.3,74.9,91.9,94.9,145.2c2.8,7.5,5.3,15,7.5,22.5
	c2.1,7.3,3.9,14.5,5.3,21.8c1,4.9,1.8,9.9,2.5,14.7c0.6,4.2,1,8.3,1.3,12.4C500.4,346.8,495.4,375.4,480.8,399.4z"/>
<g class="st2">
	<path class="st3" d="M219.4,376c-0.3-5.5-0.7-12.3-0.6-17.2h-0.1c-1.3,4.6-3,9.6-5,15.1l-7,19.3h-3.9l-6.4-19
		c-1.9-5.6-3.5-10.8-4.6-15.5h-0.1c-0.1,4.9-0.4,11.7-0.7,17.6l-1,17H185l2.8-39.8h6.6l6.8,19.3c1.6,4.9,3,9.3,4,13.4h0.1
		c1-4,2.4-8.4,4.2-13.4l7.1-19.3h6.6l2.5,39.8h-5L219.4,376z"/>
	<path class="st3" d="M236.5,380.1c0.1,7,4.6,9.9,9.8,9.9c3.7,0,6-0.7,7.9-1.5l0.9,3.7c-1.8,0.8-4.9,1.8-9.5,1.8
		c-8.8,0-14-5.8-14-14.4s5.1-15.4,13.4-15.4c9.3,0,11.8,8.2,11.8,13.4c0,1-0.1,1.9-0.1,2.4L236.5,380.1L236.5,380.1z M251.7,376.4
		c0.1-3.3-1.3-8.4-7.2-8.4c-5.2,0-7.5,4.9-8,8.4H251.7z"/>
	<path class="st3" d="M263.1,372.6c0-3-0.1-5.4-0.2-7.7h4.6l0.3,4.7h0.1c1.4-2.7,4.7-5.4,9.4-5.4c4,0,10.1,2.4,10.1,12.2v17h-5.2
		V377c0-4.6-1.7-8.4-6.6-8.4c-3.4,0-6.1,2.4-6.9,5.3c-0.2,0.7-0.4,1.5-0.4,2.4v17.2h-5.2L263.1,372.6L263.1,372.6z"/>
	<path class="st3" d="M319.8,385.7c0,3,0.1,5.5,0.2,7.8h-4.6l-0.3-4.6H315c-1.3,2.3-4.4,5.3-9.4,5.3c-4.5,0-9.9-2.5-9.9-12.5V365
		h5.2v15.8c0,5.5,1.6,9.1,6.3,9.1c3.5,0,5.9-2.4,6.9-4.7c0.3-0.7,0.4-1.7,0.4-2.7v-17.6h5.2v20.8H319.8z"/>
</g>
<path id="XMLID_176_" class="st4" d="M151.8,173.9c-2.1-2.2-2-5.7,0.2-7.8l16.4-15.4c1.6-1.5,3.9-1.9,6-1c2,0.9,3.3,2.8,3.3,5V198
	c0,3.1-2.5,5.5-5.5,5.5c-3.1,0-5.5-2.5-5.5-5.5v-30.6l-7.2,6.7C157.4,176.3,153.9,176.2,151.8,173.9z M384,134.6v103.6
	c0,3.1-2.5,5.5-5.5,5.5c-3.1,0-5.5-2.5-5.5-5.5v-14.5h-72.7v72.7h15.5c3.1,0,5.5,2.5,5.5,5.5c0,3.1-2.5,5.5-5.5,5.5h-15.5v72.7h15.5
	c3.1,0,5.5,2.5,5.5,5.5c0,3.1-2.5,5.5-5.5,5.5H295h-0.1h-0.1h-83.6c-0.1,0-0.2,0-0.2,0h-83.6c-3.1,0-5.5-2.5-5.5-5.5v-83.3
	c0-0.1,0-0.2,0-0.3c0-0.1,0-0.2,0-0.3v-83.1c0-0.1,0-0.2,0-0.2s0-0.2,0-0.2v-83.4c0-1.5,0.6-2.8,1.6-3.9c1-1,2.4-1.6,3.9-1.6h251
	C381.5,129.2,384,131.6,384,134.6z M205.6,307.4h-72.7v72.7h72.7V307.4L205.6,307.4z M205.6,223.8h-72.7v72.7h72.7V223.8z
	 M205.6,140.1h-72.7v72.7h72.7V140.1L205.6,140.1z M289.3,307.4h-72.7v72.7h72.7V307.4z M289.3,223.8h-72.7v72.7h72.7V223.8z
	 M289.3,140.1h-72.7v72.7h72.7V140.1z M373,140.1h-72.7v72.7H373V140.1L373,140.1z M382.7,270.3c0.8,1,1.3,2.2,1.3,3.6v120.9
	c0,3.1-2.5,5.5-5.5,5.5H344c-3.1,0-5.5-2.5-5.5-5.5V273.9c0-1.3,0.5-2.6,1.3-3.6l17.3-20.2c1.1-1.2,2.6-1.9,4.1-1.9s3.1,0.7,4.1,1.9
	L382.7,270.3z M373,377.8h-23.6v11.6H373V377.8z M373,288.3h-23.6v78.4H373V288.3z M373,275.9l-11.8-13.8l-11.8,13.8v1.5H373
	L373,275.9L373,275.9z M262.9,274.5h-29.8c-3.1,0-5.5,2.5-5.5,5.5s2.5,5.5,5.5,5.5h29.8c8.5,0,15.5-6.9,15.5-15.5
	c0-3.8-1.4-7.3-3.6-9.9c2.3-2.7,3.6-6.2,3.6-9.9c0-8.5-6.9-15.5-15.5-15.5h-29.8c-3.1,0-5.5,2.5-5.5,5.5s2.5,5.5,5.5,5.5h29.8
	c2.5,0,4.5,2,4.5,4.5s-2,4.5-4.5,4.5h-17.5c-3.1,0-5.5,2.5-5.5,5.5c0,3,2.5,5.5,5.5,5.5h17.5c2.5,0,4.5,2,4.5,4.5
	C267.4,272.6,265.3,274.5,262.9,274.5z"/>
</svg>
