<?xml version="1.0" encoding="utf-8"?>
<!-- Generator: Adobe Illustrator 24.0.1, SVG Export Plug-In . SVG Version: 6.00 Build 0)  -->
<svg version="1.1" id="Layer_1" xmlns="http://www.w3.org/2000/svg" xmlns:xlink="http://www.w3.org/1999/xlink" x="0px" y="0px"
	 viewBox="0 0 512 512" style="enable-background:new 0 0 512 512;" xml:space="preserve">
<style type="text/css">
	.st0{fill:#DDDDDD;}
	.st1{fill:url(#SVGID_1_);}
	.st2{fill:none;}
	.st3{fill:#FFFFFF;}
</style>
<path class="st0" d="M110.9,85.5C132,63.4,164.4,30.3,214.1,24c61.5-7.8,110.5,30.3,135,49.4c94.1,73.2,180.2,233.3,124,326
	c-72.8,120-374.9,111.4-443.4-31.8C-15,274.1,51.5,147.8,110.9,85.5z"/>
<linearGradient id="SVGID_1_" gradientUnits="userSpaceOnUse" x1="22.8281" y1="261.1281" x2="498.6612" y2="261.1281" gradientTransform="matrix(1 0 0 -1 0 514)">
	<stop  offset="0" style="stop-color:#5B5B5B"/>
	<stop  offset="0.5" style="stop-color:#383838"/>
	<stop  offset="1" style="stop-color:#0F0F0F"/>
</linearGradient>
<path class="st1" d="M480.8,399.4C408,519.4,106,510.8,37.4,367.6C31,354,26.8,339.8,24.7,325.1c-2.9-19.3-2.3-39.3,0.9-59.3
	c11.1-69.4,53.7-139,93.1-180.3c21.1-22.1,53.5-55.2,103.2-61.5c61.5-7.8,110.5,30.3,135,49.4C450.9,146.7,537,306.7,480.8,399.4z"
	/>
<line class="st2" x1="61.5" y1="377.3" x2="61.5" y2="178.3"/>
<line class="st2" x1="648.5" y1="178.3" x2="648.5" y2="377.3"/>
<g>
	<g>
		<path class="st3" d="M385.4,183.9L385.4,183.9L385.4,183.9l-12.1-8.5c-3-2.1-6.8-3-10.4-2.3l-11.9,2.2c-1.2,0.2-2.5-0.1-3.5-0.8
			l-4.5-3.1c-2.1-1.5-2.6-4.4-1.2-6.5l0,0l2.7-3.8c1.5-2.1,1-5-1.2-6.5l-38-26.5c-0.3-0.2-0.5-0.3-0.8-0.4
			c-15.1-6.6-31.7-8.9-47.9-6.6l-64.2,9c-2.5,0.4-4.3,2.7-4,5.2c0.3,1.9,1.6,3.4,3.5,3.9l65.3,16.2c6.3,1.9,12.3,4.6,17.8,8.2
			l-13.3,19c-1.5,2.1-1,5,1.2,6.5L138,368c-7.2,10.6-4.3,25.1,6.3,32.2c10.4,7,24.4,4.5,31.8-5.7l124.9-179c2.1,1.5,5,1,6.5-1.2
			l8-11.4c1.5-2.1,4.3-2.6,6.5-1.2l4.5,3.1c1,0.7,1.7,1.8,1.9,3l2.1,11.8c0.6,3.6,2.7,6.9,5.7,9l12.1,8.4c2.1,1.5,5,1,6.5-1.1l0,0
			l31.9-45.7C388,188.2,387.5,185.3,385.4,183.9z M168.4,389.2c-4.4,6.3-13.1,7.9-19.4,3.5c-6.3-4.4-7.9-13.1-3.5-19.4l124.9-179
			l22.9,15.9L168.4,389.2z M349.7,226.9l-8.3-5.8c-1-0.7-1.7-1.8-1.9-3l-2.1-11.8c-0.6-3.6-2.7-6.9-5.7-9l-4.5-3.1
			c-6.3-4.4-15-2.9-19.4,3.5l-5.3,7.6L272,184l13.3-19c1.5-2.1,1-5-1.2-6.5l-1.5-1.1c-7-4.9-14.8-8.6-23-11l-42.1-10.5l40.5-5.7
			c14.4-2,29.1,0,42.5,5.7l33.8,23.6c-4.4,6.3-2.8,15,3.5,19.4l4.5,3.1c3,2.1,6.8,2.9,10.4,2.3l11.8-2.1c1.2-0.2,2.5,0.1,3.5,0.8
			l8.3,5.8L349.7,226.9z"/>
	</g>
</g>
</svg>
