<?xml version="1.0" encoding="utf-8"?>
<!-- Generator: Adobe Illustrator 24.0.1, SVG Export Plug-In . SVG Version: 6.00 Build 0)  -->
<svg version="1.1" id="Layer_1" xmlns="http://www.w3.org/2000/svg" xmlns:xlink="http://www.w3.org/1999/xlink" x="0px" y="0px"
	 viewBox="0 0 512 512" style="enable-background:new 0 0 512 512;" xml:space="preserve">
<style type="text/css">
	.st0{fill:#DDDDDD;}
	.st1{fill:url(#SVGID_1_);}
	.st2{fill:#FFFFFF;}
</style>
<path class="st0" d="M110.9,85.5C132,63.4,164.4,30.3,214.1,24c61.5-7.8,110.5,30.3,135,49.4c94.1,73.2,180.2,233.3,124,326
	c-72.8,120-374.9,111.4-443.4-31.8C-15,274.1,51.5,147.8,110.9,85.5z"/>
<linearGradient id="SVGID_1_" gradientUnits="userSpaceOnUse" x1="22.8239" y1="261.1281" x2="498.7601" y2="261.1281" gradientTransform="matrix(1 0 0 -1 0 514)">
	<stop  offset="0" style="stop-color:#FFF33B"/>
	<stop  offset="4.010540e-02" style="stop-color:#FEE72E"/>
	<stop  offset="0.1171" style="stop-color:#FED51B"/>
	<stop  offset="0.1964" style="stop-color:#FDCA10"/>
	<stop  offset="0.2809" style="stop-color:#FDC70C"/>
	<stop  offset="0.6685" style="stop-color:#F3903F"/>
	<stop  offset="0.8876" style="stop-color:#ED683C"/>
	<stop  offset="1" style="stop-color:#E93E3A"/>
</linearGradient>
<path class="st1" d="M118.7,85.5c21.1-22.1,53.5-55.2,103.2-61.5c61.5-7.8,110.5,30.3,135,49.4c94.1,73.2,180.2,233.3,124,326
	c-72.8,120-374.9,111.4-443.4-31.8C-7.3,274.1,59.3,147.8,118.7,85.5z"/>
<g>
	<g>
		<path class="st2" d="M231.6,271c-2.1,0-3.9,1.7-3.9,3.9v60.4c0,2.1,1.7,3.9,3.9,3.9h23.9c2.1,0,3.9-1.7,3.9-3.9v-60.4
			c0-2.1-1.7-3.9-3.9-3.9h-2.3v13.9c0,5.3-4.3,9.7-9.7,9.7c-5.3,0-9.7-4.3-9.7-9.7V271H231.6z M234.9,318.5c0-3.6,2.9-6.5,6.5-6.5
			h4.5c3.6,0,6.5,2.9,6.5,6.5v5.8c0,3.6-2.9,6.5-6.5,6.5h-4.5c-3.6,0-6.5-2.9-6.5-6.5V318.5L234.9,318.5z"/>
		<path class="st2" d="M243.6,292c3.9,0,7.1-3.2,7.1-7.1v-23.6c0-3.9-3.2-7.1-7.1-7.1c-3.9,0-7.1,3.2-7.1,7.1v23.6
			C236.5,288.8,239.8,292,243.6,292z"/>
		<path class="st2" d="M217.3,95.5c-1.4-3.6-2.7-6.9-4.1-10.1l-14.7,6.2c1.3,3,2.6,6.2,3.8,9.6L217.3,95.5z"/>
		<path class="st2" d="M208.8,75.4c-1.7-3.6-3.3-6.9-4.8-9.8L189.8,73c1.4,2.8,3,5.8,4.5,9.2L208.8,75.4z"/>
		<path class="st2" d="M220.6,171.2c0.5,3.4,1,6.8,1.5,10.3l15.8-2c-0.5-3.6-1-7.2-1.5-10.7L220.6,171.2z"/>
		<path class="st2" d="M241.3,222.6c-0.1-3.6-0.2-7.3-0.4-10.8l-15.9,0.8c0.2,3.4,0.3,6.9,0.4,10.4L241.3,222.6z"/>
		<path class="st2" d="M223.3,191.8c0.3,3.4,0.7,6.8,0.9,10.4l15.9-1.2c-0.3-3.6-0.6-7.2-1-10.8L223.3,191.8z"/>
		<path class="st2" d="M224.3,116c-1.1-3.6-2.2-7-3.4-10.3l-15,5.2c1.1,3.2,2.2,6.4,3.2,9.8L224.3,116z"/>
		<path class="st2" d="M179.6,55.7c0,0,2.1,2.8,5.3,8.3l13.7-8.1c-3.7-6.2-6.1-9.5-6.2-9.7L179.6,55.7z"/>
		<path class="st2" d="M216.9,150.8c0.7,3.3,1.4,6.7,2,10.2l15.6-2.8c-0.7-3.6-1.4-7.2-2.1-10.6L216.9,150.8z"/>
		<path class="st2" d="M230,136.9c-0.9-3.6-1.8-7.1-2.7-10.5l-15.3,4.2c0.9,3.2,1.8,6.6,2.6,10L230,136.9z"/>
		<path class="st2" d="M308.8,55.7l-6.4-4.7l-6.4-4.7c-0.1,0.1-2.5,3.4-6.2,9.7l13.7,8.1C306.8,58.6,308.8,55.7,308.8,55.7z"/>
		<path class="st2" d="M247.3,222.6l15.9,0.4c0.1-3.5,0.2-7,0.4-10.4l-15.9-0.8C247.4,215.3,247.3,218.9,247.3,222.6z"/>
		<path class="st2" d="M248.4,201l15.9,1.2c0.3-3.5,0.6-7,0.9-10.4l-15.8-1.6C248.9,193.7,248.6,197.3,248.4,201z"/>
		<path class="st2" d="M298.5,72.9l-14.1-7.4c-1.5,2.9-3.2,6.2-4.8,9.8l14.4,6.8C295.6,78.7,297.1,75.6,298.5,72.9z"/>
		<path class="st2" d="M267.8,171.2l-15.7-2.4c-0.5,3.5-1,7.1-1.5,10.7l15.8,2C266.8,178,267.3,174.6,267.8,171.2z"/>
		<path class="st2" d="M289.9,91.5l-14.7-6.2c-1.3,3.2-2.7,6.5-4.1,10.1l14.9,5.7C287.4,97.7,288.5,94.5,289.9,91.5z"/>
		<path class="st2" d="M255.9,147.5c-0.7,3.5-1.4,7-2.1,10.6l15.6,2.8c0.6-3.5,1.3-6.9,2-10.2L255.9,147.5z"/>
		<path class="st2" d="M271.1,267.9c0-9.4-3.1-18-8.1-24.2c-0.1-2.7-0.1-5.4-0.1-8.1v-2.2l-15.9-0.1v0.8c-1.1-0.2-2.2-0.3-3.4-0.3
			c-0.7,0-1.5,0.1-2.2,0.1v-0.6l-15.9,0.1v2.2c0,2.3,0,4.5-0.1,6.8c-5.7,6.2-9.3,15.3-9.3,25.5c0,10,3.5,19,9,25.3v-18.3
			c0-3.6,2.9-6.5,6.5-6.5h2.3v-7.1c0-5.3,4.4-9.7,9.7-9.7c5.4,0,9.7,4.4,9.7,9.7v7.1h2.3c3.6,0,6.5,2.9,6.5,6.5v18.3
			C267.6,286.9,271.1,277.9,271.1,267.9z"/>
		<path class="st2" d="M282.5,110.8l-15-5.2c-1.2,3.4-2.4,6.8-3.4,10.4l15.2,4.7C280.4,117.3,281.4,114,282.5,110.8z"/>
		<path class="st2" d="M276.4,130.6l-15.3-4.2c-0.9,3.4-1.8,6.9-2.7,10.5l15.5,3.7C274.6,137.2,275.5,133.9,276.4,130.6z"/>
	</g>
</g>
</svg>
