<?xml version="1.0" encoding="utf-8"?>
<!-- Generator: Adobe Illustrator 24.0.1, SVG Export Plug-In . SVG Version: 6.00 Build 0)  -->
<svg version="1.1" id="Layer_1" xmlns="http://www.w3.org/2000/svg" xmlns:xlink="http://www.w3.org/1999/xlink" x="0px" y="0px"
	 viewBox="0 0 512 512" style="enable-background:new 0 0 512 512;" xml:space="preserve">
<style type="text/css">
	.st0{fill:#DDDDDD;}
	.st1{fill:url(#SVGID_1_);}
	.st2{fill:none;}
	.st3{fill:#FFC107;}
	.st4{fill:#2196F3;}
	.st5{fill:#31F222;}
	.st6{fill:#ECEFF1;}
</style>
<path class="st0" d="M110.9,85.5c21.1-22.1,53.5-55.2,103.2-61.5c61.5-7.8,110.5,30.3,135,49.4c94.1,73.2,180.2,233.3,124,326
	c-72.8,120-374.9,111.4-443.4-31.8C-15,274.1,51.5,147.8,110.9,85.5z"/>
<linearGradient id="SVGID_1_" gradientUnits="userSpaceOnUse" x1="22.802" y1="252.9033" x2="498.6976" y2="252.9033">
	<stop  offset="0" style="stop-color:#F69453"/>
	<stop  offset="0.5" style="stop-color:#F37521"/>
	<stop  offset="1" style="stop-color:#D4622A"/>
</linearGradient>
<path class="st1" d="M480.8,399.4c-72.8,120-374.8,111.4-443.4-31.8C31,354,26.8,339.8,24.7,325.1c-2.9-19.3-2.3-39.3,0.9-59.3
	c11.1-69.4,53.7-139,93.1-180.3c21.1-22.1,53.5-55.2,103.2-61.5c45.8-5.8,84.6,13.8,111.6,32.1c9.3,6.3,17.1,12.4,23.4,17.3
	c0.4,0.3,0.8,0.6,1.2,0.9c50.7,39.9,98.9,104.8,123.6,170.7c2.8,7.5,5.3,15,7.5,22.5c2.1,7.3,3.9,14.5,5.3,21.8
	c1.8,9.2,3.1,18.2,3.8,27.1C500.4,346.8,495.4,375.4,480.8,399.4z"/>
<rect x="61.5" y="178.3" class="st2" width="587" height="199"/>
<rect x="75.2" y="178.3" class="st2" width="495.3" height="167.9"/>
<path class="st3" d="M348.1,302.1l-16.2-6.9c-1.7-0.8-3.7-0.6-5.3,0.5c-1.6,1-2.5,2.8-2.5,4.6v67.2c0,1.9,0.9,3.6,2.5,4.6
	c0.9,0.6,2,0.9,3.1,0.9c0.8,0,1.5-0.2,2.2-0.4l16.2-6.9c5.8-2.5,9.6-7.9,9.6-13.8v-36.2C357.7,310,354,304.6,348.1,302.1z"/>
<path class="st4" d="M348.1,234.9l-16.2-6.9c-1.7-0.8-3.7-0.6-5.3,0.5c-1.6,1-2.5,2.8-2.5,4.6v67.2c0,1.9,0.9,3.6,2.5,4.6
	c0.9,0.6,2,0.9,3.1,0.9c0.8,0,1.5-0.2,2.2-0.4l16.2-6.9c5.8-2.5,9.6-7.9,9.6-13.8v-36.2C357.7,242.8,354,237.4,348.1,234.9z"/>
<path class="st5" d="M348.1,167.6l-16.2-6.9c-1.7-0.8-3.7-0.6-5.3,0.5c-1.6,1-2.5,2.8-2.5,4.6v67.2c0,1.9,0.9,3.6,2.5,4.6
	c0.9,0.6,2,0.9,3.1,0.9c0.8,0,1.5-0.2,2.2-0.4l16.2-6.9c5.8-2.5,9.6-7.9,9.6-13.8v-36.1C357.7,175.5,354,170.1,348.1,167.6z"/>
<path class="st6" d="M307.3,137.8H172.8c-15.4,0-28,12.6-28,28v201.7c0,15.4,12.6,28,28,28h134.5c15.4,0,28-12.6,28-28V165.8
	C335.3,150.4,322.7,137.8,307.3,137.8z"/>
<path d="M307.3,395.6H172.8c-15.4,0-28-12.6-28-28V165.8c0-15.4,12.6-28,28-28h134.5c15.4,0,28,12.6,28,28v201.7
	C335.3,383,322.7,395.6,307.3,395.6z M172.8,149c-9.3,0-16.8,7.5-16.8,16.8v201.7c0,9.3,7.5,16.8,16.8,16.8h134.5
	c9.3,0,16.8-7.5,16.8-16.8V165.8c0-9.3-7.5-16.8-16.8-16.8C307.3,149,172.8,149,172.8,149z"/>
<path d="M161.6,182.6h-22.4c-3.1,0-5.6-2.5-5.6-5.6c0-3.1,2.5-5.6,5.6-5.6h22.4c3.1,0,5.6,2.5,5.6,5.6
	C167.2,180.1,164.6,182.6,161.6,182.6z"/>
<path d="M161.6,227.5h-22.4c-3.1,0-5.6-2.5-5.6-5.6c0-3.1,2.5-5.6,5.6-5.6h22.4c3.1,0,5.6,2.5,5.6,5.6S164.6,227.5,161.6,227.5z"/>
<path d="M161.6,272.3h-22.4c-3.1,0-5.6-2.5-5.6-5.6c0-3.1,2.5-5.6,5.6-5.6h22.4c3.1,0,5.6,2.5,5.6,5.6S164.6,272.3,161.6,272.3z"/>
<path d="M161.6,317.1h-22.4c-3.1,0-5.6-2.5-5.6-5.6c0-3.1,2.5-5.6,5.6-5.6h22.4c3.1,0,5.6,2.5,5.6,5.6S164.6,317.1,161.6,317.1z"/>
<path d="M161.6,361.9h-22.4c-3.1,0-5.6-2.5-5.6-5.6c0-3.1,2.5-5.6,5.6-5.6h22.4c3.1,0,5.6,2.5,5.6,5.6
	C167.2,359.5,164.6,361.9,161.6,361.9z"/>
<path d="M329.7,373.1c-2.2,0-4.2-1.3-5.1-3.4c-1.2-2.9,0.1-6.2,3-7.3l16.2-6.9c1.7-0.7,2.8-2.1,2.8-3.5v-36.2c0-1.3-1.1-2.7-2.8-3.5
	l-16.2-6.9c-2.9-1.2-4.1-4.6-3-7.3c1.2-2.8,4.6-4.1,7.3-3l16.2,6.9c5.8,2.5,9.6,7.9,9.6,13.8V352c0,5.8-3.8,11.2-9.6,13.8l-16.2,6.9
	C331.2,373.1,330.4,373.1,329.7,373.1z"/>
<path d="M329.7,305.9c-2.2,0-4.2-1.3-5.1-3.4c-1.2-2.9,0.1-6.2,3-7.3l16.2-6.9c1.7-0.7,2.8-2.1,2.8-3.5v-36.2c0-1.3-1.1-2.7-2.8-3.5
	l-16.2-6.9c-2.9-1.2-4.1-4.6-3-7.3c1.2-2.9,4.6-4.1,7.3-3l16.2,6.9c5.8,2.5,9.6,7.9,9.6,13.8v36.2c0,5.8-3.8,11.2-9.6,13.8
	l-16.2,6.9C331.2,305.8,330.4,305.9,329.7,305.9z"/>
<path d="M329.7,238.6c-2.2,0-4.2-1.3-5.1-3.4c-1.2-2.9,0.1-6.2,3-7.3l16.2-6.9c1.7-0.8,2.8-2.1,2.8-3.5v-36.1c0-1.3-1.1-2.7-2.8-3.5
	l-16.2-6.9c-2.9-1.2-4.1-4.6-3-7.3c1.2-2.9,4.6-4.1,7.3-3l16.2,6.9c5.8,2.5,9.6,7.9,9.6,13.8v36.1c0,5.8-3.8,11.2-9.6,13.8
	l-16.2,6.9C331.2,238.6,330.4,238.6,329.7,238.6z"/>
<path d="M296.1,339.6h-56c-3.1,0-5.6-2.5-5.6-5.6c0-3.1,2.5-5.6,5.6-5.6h56c3.1,0,5.6,2.5,5.6,5.6S299.1,339.6,296.1,339.6z"/>
<path d="M296.1,361.9h-33.6c-3.1,0-5.6-2.5-5.6-5.6c0-3.1,2.5-5.6,5.6-5.6h33.6c3.1,0,5.6,2.5,5.6,5.6
	C301.6,359.5,299.1,361.9,296.1,361.9z"/>
</svg>
