<?xml version="1.0" encoding="utf-8"?>
<!-- Generator: Adobe Illustrator 24.0.1, SVG Export Plug-In . SVG Version: 6.00 Build 0)  -->
<svg version="1.1" id="Layer_1" xmlns="http://www.w3.org/2000/svg" xmlns:xlink="http://www.w3.org/1999/xlink" x="0px" y="0px"
	 viewBox="0 0 512 512" style="enable-background:new 0 0 512 512;" xml:space="preserve">
<style type="text/css">
	.st0{fill:#DDDDDD;}
	.st1{fill:url(#SVGID_1_);}
	.st2{fill:none;stroke:#333333;stroke-width:18;stroke-miterlimit:10;}
	.st3{fill:#FFFFFF;}
</style>
<path class="st0" d="M110.9,85.5c21.1-22.1,53.5-55.2,103.2-61.5c61.5-7.8,110.5,30.3,135,49.4c94.1,73.2,180.2,233.3,124,326
	c-72.8,120-374.9,111.4-443.4-31.8C-15,274.1,51.5,147.8,110.9,85.5z"/>
<linearGradient id="SVGID_1_" gradientUnits="userSpaceOnUse" x1="22.8021" y1="252.9008" x2="498.6976" y2="252.9008">
	<stop  offset="0" style="stop-color:#2BC4F3"/>
	<stop  offset="0.6021" style="stop-color:#00AEEE"/>
	<stop  offset="1" style="stop-color:#0095DA"/>
</linearGradient>
<path class="st1" d="M480.8,399.4c-10.6,17.5-26.1,32.2-45,44.2c-23.3,14.8-51.8,25.4-82.9,31.8c-11.7,2.4-23.7,4.2-36,5.4h0
	c-24.9,2.5-50.7,2.5-76.1,0c-6.3-0.6-12.6-1.4-18.8-2.3c-16.9-2.5-33.5-6.1-49.5-10.8c0,0,0,0,0,0c-4.4-1.3-8.7-2.7-13-4.1
	c-6-2-11.9-4.2-17.6-6.6l0,0v0c-7.5-3.1-14.9-6.5-21.9-10.1c-2.9-1.5-5.7-3-8.5-4.6c-2.7-1.5-5.4-3.1-8-4.8c-2.1-1.3-4.1-2.6-6.2-4
	c-5.8-3.8-11.3-7.9-16.5-12.2c-2.4-2-4.7-4-7-6c-13.5-12.3-24.8-26.3-33.2-41.9c-1.1-2-2.1-4-3-6C31,354,26.8,339.8,24.7,325.1
	c-0.8-5.3-1.3-10.6-1.6-16c-0.7-14.2,0.2-28.7,2.5-43.2c8.9-55.8,38.2-111.7,69.8-153c7.7-10.1,15.6-19.3,23.3-27.4
	c17.7-18.5,43.2-44.6,80.1-56.4c7.3-2.3,15-4.1,23.1-5.1c45.8-5.8,84.6,13.8,111.6,32.1c9.3,6.3,17.1,12.4,23.4,17.3
	c0.4,0.3,0.8,0.6,1.2,0.9c50.7,39.9,98.9,104.8,123.6,170.7c2.8,7.5,5.3,15,7.5,22.5c2.1,7.3,3.9,14.5,5.3,21.8
	c1,4.9,1.8,9.9,2.5,14.7c0.6,4.2,1,8.3,1.3,12.4C500.4,346.8,495.4,375.4,480.8,399.4z"/>
<path class="st2" d="M237.8,380.5"/>
<path class="st2" d="M237.8,439.4"/>
<path class="st2" d="M237.8,68"/>
<path class="st2" d="M275.8,380.5"/>
<path class="st2" d="M275.8,439.4"/>
<path class="st2" d="M275.8,68"/>
<path class="st2" d="M275.8,129.3"/>
<g transform="translate(1 1)">
	<g>
		<path class="st3" d="M332.4,320.4L259.7,255l72.7-65.5c6.9-6.2,6.9-17.6,0-23.8l-85.9-77.4c-9.3-8.4-23.5-1.2-23.5,11.9v117.4
			l-47.2-50.9c-5.6-6-14.7-6-20.3,0s-5.6,15.8,0,21.9L217,255l-61.4,66.4c-5.6,6-5.6,15.8,0,21.9c5.6,6,14.7,6,20.3,0l47.2-50.9
			v117.4c0,13.1,14.2,20.3,23.5,11.9l85.9-77.4C339.3,338,339.3,326.6,332.4,320.4z M251.6,133.3l49.2,44.3l-49.2,44.3V133.3z
			 M251.6,376.6V288l49.2,44.3L251.6,376.6z"/>
	</g>
</g>
</svg>
