<?xml version="1.0" encoding="utf-8"?>
<!-- Generator: Adobe Illustrator 24.0.1, SVG Export Plug-In . SVG Version: 6.00 Build 0)  -->
<svg version="1.1" id="Layer_1" xmlns="http://www.w3.org/2000/svg" xmlns:xlink="http://www.w3.org/1999/xlink" x="0px" y="0px"
	 viewBox="0 0 512 512" style="enable-background:new 0 0 512 512;" xml:space="preserve">
<style type="text/css">
	.st0{fill:#DDDDDD;}
	.st1{fill:#FFFFFF;stroke:#D8D8D8;stroke-miterlimit:10;}
	.st2{display:none;}
	.st3{display:inline;fill:#FFFFFF;}
	.st4{fill:#FFFFFF;}
	.st5{fill:url(#SVGID_1_);}
	.st6{fill:url(#SVGID_2_);}
	.st7{fill:url(#SVGID_3_);}
</style>
<path class="st0" d="M110.9,85.5c21.1-22.1,53.5-55.2,103.2-61.5c61.5-7.8,110.5,30.3,135,49.4c94.1,73.2,180.2,233.3,124,326
	c-72.8,120-374.9,111.4-443.4-31.8C-15,274.1,51.5,147.8,110.9,85.5z"/>
<path class="st1" d="M480.8,399.4c-10.6,17.5-26.1,32.2-45,44.2c-23.3,14.8-51.8,25.4-82.9,31.8c-11.7,2.4-23.7,4.2-36,5.4h0
	c-24.9,2.5-50.7,2.5-76.1,0c-6.3-0.6-12.6-1.4-18.8-2.3c-2.8-0.4-5.7-0.9-8.5-1.4c-14-2.4-27.7-5.5-41-9.4c0,0,0,0,0,0
	c-0.8-0.2-1.6-0.5-2.5-0.7c-3.5-1.1-7-2.2-10.5-3.4c-6-2-11.9-4.2-17.6-6.6l0,0v0c-7.5-3.1-14.9-6.5-21.9-10.1
	c-2.9-1.5-5.7-3-8.5-4.6c-2.7-1.5-5.4-3.1-8-4.8c-2.1-1.3-4.1-2.6-6.2-4c-5.8-3.8-11.3-7.9-16.5-12.2c-2.4-2-4.7-4-7-6
	c-13.5-12.3-24.8-26.3-33.2-41.9c-1.1-2-2.1-4-3-6C31,354,26.8,339.8,24.7,325.1c-0.8-5.3-1.3-10.6-1.6-16
	c-0.7-14.2,0.2-28.7,2.5-43.2c6.6-41.6,24.6-83.2,46.4-118.8c7.5-12.2,15.4-23.6,23.4-34.2c7.7-10.1,15.6-19.3,23.3-27.4
	c17.7-18.5,43.2-44.6,80.1-56.4c7.3-2.3,15-4.1,23.1-5.1c45.8-5.8,84.6,13.8,111.6,32.1c9.3,6.3,17.1,12.4,23.4,17.3
	c0.4,0.3,0.8,0.6,1.2,0.9c9.7,7.6,19.3,16.2,28.7,25.5c39.6,39.3,74.9,91.9,94.9,145.2c2.8,7.5,5.3,15,7.5,22.5
	c2.1,7.3,3.9,14.5,5.3,21.8c1,4.9,1.8,9.9,2.5,14.7c0.6,4.2,1,8.3,1.3,12.4C500.4,346.8,495.4,375.4,480.8,399.4z"/>
<g class="st2">
	<path class="st3" d="M219.4,376c-0.3-5.5-0.7-12.3-0.6-17.2h-0.1c-1.3,4.6-3,9.6-5,15.1l-7,19.3h-3.9l-6.4-19
		c-1.9-5.6-3.5-10.8-4.6-15.5h-0.1c-0.1,4.9-0.4,11.7-0.7,17.6l-1,17H185l2.8-39.8h6.6l6.8,19.3c1.6,4.9,3,9.3,4,13.4h0.1
		c1-4,2.4-8.4,4.2-13.4l7.1-19.3h6.6l2.5,39.8h-5L219.4,376z"/>
	<path class="st3" d="M236.5,380.1c0.1,7,4.6,9.9,9.8,9.9c3.7,0,6-0.7,7.9-1.5l0.9,3.7c-1.8,0.8-4.9,1.8-9.5,1.8
		c-8.8,0-14-5.8-14-14.4s5.1-15.4,13.4-15.4c9.3,0,11.8,8.2,11.8,13.4c0,1-0.1,1.9-0.1,2.4L236.5,380.1L236.5,380.1z M251.7,376.4
		c0.1-3.3-1.3-8.4-7.2-8.4c-5.2,0-7.5,4.9-8,8.4H251.7z"/>
	<path class="st3" d="M263.1,372.6c0-3-0.1-5.4-0.2-7.7h4.6l0.3,4.7h0.1c1.4-2.7,4.7-5.4,9.4-5.4c4,0,10.1,2.4,10.1,12.2v17h-5.2
		V377c0-4.6-1.7-8.4-6.6-8.4c-3.4,0-6.1,2.4-6.9,5.3c-0.2,0.7-0.4,1.5-0.4,2.4v17.2h-5.2L263.1,372.6L263.1,372.6z"/>
	<path class="st3" d="M319.8,385.7c0,3,0.1,5.5,0.2,7.8h-4.6l-0.3-4.6H315c-1.3,2.3-4.4,5.3-9.4,5.3c-4.5,0-9.9-2.5-9.9-12.5V365
		h5.2v15.8c0,5.5,1.6,9.1,6.3,9.1c3.5,0,5.9-2.4,6.9-4.7c0.3-0.7,0.4-1.7,0.4-2.7v-17.6h5.2v20.8H319.8z"/>
</g>
<g>
	<path class="st4" d="M217.8,313.1c-2.8,1.3-8.4,2.4-15.3,2.4c-25.8,0-38.1-21.3-38.1-49.9c0-38.1,21.1-52.9,40.8-52.9
		c6.9,0,11.7,1.4,13.6,2.7l-3.3,16.5c-2.3-1-4.8-1.9-9.1-1.9c-11.1,0-21.1,9.6-21.1,34.6c0,24.1,9.1,33.6,21.1,33.6
		c3.3,0,7-0.8,9.4-1.5L217.8,313.1z"/>
</g>
<g>
	<g>
		
			<linearGradient id="SVGID_1_" gradientUnits="userSpaceOnUse" x1="132.3498" y1="249.9211" x2="298.2498" y2="249.9211" gradientTransform="matrix(1 0 0 -1 0 514)">
			<stop  offset="0" style="stop-color:#FFF7A9"/>
			<stop  offset="0.5" style="stop-color:#FFF100"/>
			<stop  offset="1" style="stop-color:#FFD700"/>
		</linearGradient>
		<path class="st5" d="M295.9,129.2c-1.4-1.1-3.3-1.6-5-1.2l-154,35.5c-2.7,0.6-4.6,3-4.6,5.8v201.4c0,2.9,2.1,5.4,5,5.9l154,23.7
			c3.2,0.5,6.3-1.7,6.8-5c0-0.3,0.1-0.6,0.1-0.9V133.9C298.1,132.1,297.3,130.3,295.9,129.2z"/>
	</g>
</g>
<g>
	<path class="st4" d="M184.6,214.9c4.9-1.2,12.1-2,19.9-2c12.7,0,21.6,3,28,9c8.7,7.8,13.2,21.1,13.2,40.8
		c0,20.4-5.2,34.9-14.1,42.7c-6.8,6.6-16.8,9.8-30.9,9.8c-6.1,0-12.3-0.6-16.2-1v-99.3H184.6z M204.2,298.9c0.9,0.3,2.4,0.3,3.5,0.3
		c9.4,0,17.7-9.3,17.7-37.2c0-20.7-5.4-33.3-17.2-33.3c-1.3,0-2.7,0-3.9,0.4v69.8H204.2z"/>
</g>
<linearGradient id="SVGID_2_" gradientUnits="userSpaceOnUse" x1="306.1498" y1="301.038" x2="389.1498" y2="301.038" gradientTransform="matrix(1 0 0 -1 0 514)">
	<stop  offset="0" style="stop-color:#FFF7A9"/>
	<stop  offset="0.5" style="stop-color:#FFF100"/>
	<stop  offset="1" style="stop-color:#FFD700"/>
</linearGradient>
<circle class="st6" cx="347.6" cy="213" r="41.5"/>
<linearGradient id="SVGID_3_" gradientUnits="userSpaceOnUse" x1="306.1498" y1="179.438" x2="377.2498" y2="179.438" gradientTransform="matrix(1 0 0 -1 0 514)">
	<stop  offset="0" style="stop-color:#FFF7A9"/>
	<stop  offset="0.5" style="stop-color:#FFF100"/>
	<stop  offset="1" style="stop-color:#FFD700"/>
</linearGradient>
<polygon class="st7" points="377.2,375 341.7,355.8 306.1,336.7 340.5,315.5 374.9,294.2 376,334.6 "/>
</svg>
