<?xml version="1.0" encoding="utf-8"?>
<!-- Generator: Adobe Illustrator 24.0.1, SVG Export Plug-In . SVG Version: 6.00 Build 0)  -->
<svg version="1.1" id="Layer_1" xmlns="http://www.w3.org/2000/svg" xmlns:xlink="http://www.w3.org/1999/xlink" x="0px" y="0px"
	 viewBox="0 0 512 512" style="enable-background:new 0 0 512 512;" xml:space="preserve">
<style type="text/css">
	.st0{fill:#DDDDDD;}
	.st1{fill:url(#SVGID_1_);stroke:#D8D8D8;stroke-miterlimit:10;}
	.st2{display:none;}
	.st3{display:inline;fill:#FFFFFF;}
	.st4{fill:#E78244;}
</style>
<path class="st0" d="M110.9,85.5C132,63.4,164.4,30.3,214.1,24c61.5-7.8,110.5,30.3,135,49.4c94.1,73.2,180.2,233.3,124,326
	c-72.8,120-374.9,111.4-443.4-31.8C-15,274.1,51.5,147.8,110.9,85.5z"/>
<linearGradient id="SVGID_1_" gradientUnits="userSpaceOnUse" x1="22.8682" y1="261.1811" x2="498.7581" y2="261.1811" gradientTransform="matrix(1 0 0 -1 0 514)">
	<stop  offset="0" style="stop-color:#6CB5E4"/>
	<stop  offset="9.145045e-02" style="stop-color:#63B0E1"/>
	<stop  offset="0.2435" style="stop-color:#49A3D9"/>
	<stop  offset="0.4362" style="stop-color:#208DCC"/>
	<stop  offset="0.5674" style="stop-color:#007CC2"/>
	<stop  offset="1" style="stop-color:#0059A9"/>
</linearGradient>
<path class="st1" d="M480.8,399.4c-10.6,17.5-26.1,32.2-45,44.2c-23.3,14.8-51.8,25.4-82.9,31.8c-11.7,2.4-23.7,4.2-36,5.4l0,0
	c-24.9,2.5-50.7,2.5-76.1,0c-6.3-0.6-12.6-1.4-18.8-2.3c-2.8-0.4-5.7-0.9-8.5-1.4c-14-2.4-27.7-5.5-41-9.4l0,0
	c-0.8-0.2-1.6-0.5-2.5-0.7c-3.5-1.1-7-2.2-10.5-3.4c-6-2-11.9-4.2-17.6-6.6l0,0l0,0c-7.5-3.1-14.9-6.5-21.9-10.1
	c-2.9-1.5-5.7-3-8.5-4.6c-2.7-1.5-5.4-3.1-8-4.8c-2.1-1.3-4.1-2.6-6.2-4c-5.8-3.8-11.3-7.9-16.5-12.2c-2.4-2-4.7-4-7-6
	C60.3,403,49,389,40.6,373.4c-1.1-2-2.1-4-3-6C31,354,26.8,339.8,24.7,325.1c-0.8-5.3-1.3-10.6-1.6-16c-0.7-14.2,0.2-28.7,2.5-43.2
	c6.6-41.6,24.6-83.2,46.4-118.8c7.5-12.2,15.4-23.6,23.4-34.2c7.7-10.1,15.6-19.3,23.3-27.4c17.7-18.5,43.2-44.6,80.1-56.4
	c7.3-2.3,15-4.1,23.1-5.1c45.8-5.8,84.6,13.8,111.6,32.1c9.3,6.3,17.1,12.4,23.4,17.3c0.4,0.3,0.8,0.6,1.2,0.9
	c9.7,7.6,19.3,16.2,28.7,25.5c39.6,39.3,74.9,91.9,94.9,145.2c2.8,7.5,5.3,15,7.5,22.5c2.1,7.3,3.9,14.5,5.3,21.8
	c1,4.9,1.8,9.9,2.5,14.7c0.6,4.2,1,8.3,1.3,12.4C500.4,346.8,495.4,375.4,480.8,399.4z"/>
<g class="st2">
	<path class="st3" d="M219.4,376c-0.3-5.5-0.7-12.3-0.6-17.2h-0.1c-1.3,4.6-3,9.6-5,15.1l-7,19.3h-3.9l-6.4-19
		c-1.9-5.6-3.5-10.8-4.6-15.5h-0.1c-0.1,4.9-0.4,11.7-0.7,17.6l-1,17h-5l2.8-39.8h6.6l6.8,19.3c1.6,4.9,3,9.3,4,13.4h0.1
		c1-4,2.4-8.4,4.2-13.4l7.1-19.3h6.6l2.5,39.8h-5L219.4,376z"/>
	<path class="st3" d="M236.5,380.1c0.1,7,4.6,9.9,9.8,9.9c3.7,0,6-0.7,7.9-1.5l0.9,3.7c-1.8,0.8-4.9,1.8-9.5,1.8
		c-8.8,0-14-5.8-14-14.4s5.1-15.4,13.4-15.4c9.3,0,11.8,8.2,11.8,13.4c0,1-0.1,1.9-0.1,2.4L236.5,380.1L236.5,380.1z M251.7,376.4
		c0.1-3.3-1.3-8.4-7.2-8.4c-5.2,0-7.5,4.9-8,8.4H251.7z"/>
	<path class="st3" d="M263.1,372.6c0-3-0.1-5.4-0.2-7.7h4.6l0.3,4.7h0.1c1.4-2.7,4.7-5.4,9.4-5.4c4,0,10.1,2.4,10.1,12.2v17h-5.2
		V377c0-4.6-1.7-8.4-6.6-8.4c-3.4,0-6.1,2.4-6.9,5.3c-0.2,0.7-0.4,1.5-0.4,2.4v17.2h-5.2L263.1,372.6L263.1,372.6z"/>
	<path class="st3" d="M319.8,385.7c0,3,0.1,5.5,0.2,7.8h-4.6l-0.3-4.6H315c-1.3,2.3-4.4,5.3-9.4,5.3c-4.5,0-9.9-2.5-9.9-12.5V365
		h5.2v15.8c0,5.5,1.6,9.1,6.3,9.1c3.5,0,5.9-2.4,6.9-4.7c0.3-0.7,0.4-1.7,0.4-2.7v-17.6h5.2L319.8,385.7L319.8,385.7L319.8,385.7z"
		/>
</g>
<path class="st4" d="M480.8,399.4c-10.6,17.5-26.1,32.2-45,44.2c-23.3,14.8-51.8,25.4-82.9,31.8c-11.7,2.4-23.7,4.2-36,5.4l0,0
	c-24.9,2.5-50.7,2.5-76.1,0c-6.3-0.6-12.6-1.4-18.8-2.3c-2.8-0.4-5.7-0.9-8.5-1.4c-14-2.4-27.7-5.5-41-9.4l0,0
	c-0.8-0.2-1.6-0.5-2.5-0.7c-3.5-1.1-7-2.2-10.5-3.4c-6-2-11.9-4.2-17.6-6.6l0,0l0,0c-7.5-3.1-14.9-6.5-21.9-10.1
	c-2.9-1.5-5.7-3-8.5-4.6c-2.7-1.5-5.4-3.1-8-4.8c-2.1-1.3-4.1-2.6-6.2-4c-5.8-3.8-11.3-7.9-16.5-12.2c-2.4-2-4.7-4-7-6
	C60.3,403,49,389,40.6,373.4c-1.1-2-2.1-4-3-6C31,354,26.8,339.8,24.7,325.1c-0.8-5.3-1.3-10.6-1.6-16c-0.7-14.2,0.2-28.7,2.5-43.2
	c6.6-41.6,24.6-83.2,46.4-118.8c3.5,3.7,7.5,6.8,12.2,9c17.2-5.5,37.7-6.9,61.9-0.9l0.1-0.1c9.6-13.1,43.3-37.5,70.9-29
	c-15,7.7-31.4,32.9-36.3,50.7c0.5,1.2,1.2,2.8,2.1,4.5c0.7,1.1,1.6,2.4,2.4,3.8c4.4,6.2,11.8,12.7,23.2,12.7
	c41.4-0.3,44.4,2.6,44.6,7.6c0.3,6.8-0.9,11.6-2.8,14.9c-2.5,5.3-6.6,9.8-10.6,12.7c-2.9,2.1-41.8,22.3-43.2,28.8c0,0,0,0,0,0.1
	c0.7,1.3,5.8,22.4-1,35c-5.8-4.6-16.6-8.9-19.6-10c-0.2,0.1-0.5,0.1-0.7,0.2c1,1.3,2.8,3.9,2.8,3.9s-2.3-1.2-6-2.5
	c-6.8,3.8-10.5,11.9-10.5,17.9c0,7.5-1.7,19.6,24.1,34.8c0.4,0.3-3.9-0.8-3.5-0.5c2.3,1.6,11.9,6,17.1,7.8c1.8,1.1-5.6-0.8-3.9,0.1
	c1.8,0.8,3.5,1.6,5,2.2c27.2,10.7,43.7-4.7,63.1-9.5c25.3-6.3,43.9,5.5,51.6,14.1c7.7,8.7,1.1,18.5-8.7,16.4
	c-9.9-2.2-21,7-39.5,19.6c-18.4,12.5-50.3,17.7-80.2,10.5c7.4,6.9,20.1,20.4,29.9,23.5c11.3,3.6,26.8,2,33.4,9
	c-6.5-3.8-15-1.8-20.6-1.1c39,19.3,68.3,14,75.2,13c16.8-2.4,24.3-8,27.3-10.1c-0.7,4.1-3.4,8.2-6.6,9.3c3.5,2.4,10.3-6.2,17.9-13.9
	c2.1-2.1,4.1-3.9,6-5.5c0,0.1-3.3,4.6-3.3,4.7l0,0c2.2-1.6,3.8-3.4,5-5.1c3.2-4.4,8.1-6.1,8.1-6.1c0.8,2.2,0.5,5.6,0.2,8.8
	c0,0.1,0.7,0.7,2.2,0.8c5.3,0.9,17.4-6.9,29-32.1c15.4-33.3,16.2-56.7,16.2-56.7c1.9,4.2,5.3,11,6.3,20.1c5.1-19.9,12.3-36,4-110.8
	c7.7,6.7,18.5,25.9,24.4,38.2c4.1-76.2-34.4-126.5-57.5-143.5c15.4,1.1,38.1,15.1,51.4,28.7c-11.8-24.5-30.3-52-80-84.5
	c11.3,3.1,22,6.9,32,11.4c39.6,39.3,74.9,91.9,94.9,145.2c2.8,7.5,5.3,15,7.5,22.5c2.1,7.3,3.9,14.5,5.3,21.8
	c1,4.9,1.8,9.9,2.5,14.7c0.6,4.2,1,8.3,1.3,12.4C500.4,346.8,495.4,375.4,480.8,399.4z"/>
</svg>
