<?xml version="1.0" encoding="utf-8"?>
<!-- Generator: Adobe Illustrator 24.0.1, SVG Export Plug-In . SVG Version: 6.00 Build 0)  -->
<svg version="1.1" id="Layer_1" xmlns="http://www.w3.org/2000/svg" xmlns:xlink="http://www.w3.org/1999/xlink" x="0px" y="0px"
	 viewBox="0 0 512 512" style="enable-background:new 0 0 512 512;" xml:space="preserve">
<style type="text/css">
	.st0{fill:#DDDDDD;}
	.st1{fill:url(#SVGID_1_);stroke:#D8D8D8;stroke-miterlimit:10;}
	.st2{display:none;}
	.st3{display:inline;fill:#FFFFFF;}
	.st4{fill:#DB380E;}
	.st5{fill:url(#SVGID_2_);}
	.st6{fill:url(#SVGID_3_);}
	.st7{fill:url(#SVGID_4_);}
	.st8{fill:url(#SVGID_5_);}
	.st9{fill:url(#SVGID_6_);}
	.st10{fill:url(#SVGID_7_);}
</style>
<path class="st0" d="M110.9,85.5c21.1-22.1,53.5-55.2,103.2-61.5c61.5-7.8,110.5,30.3,135,49.4c94.1,73.2,180.2,233.3,124,326
	c-72.8,120-374.9,111.4-443.4-31.8C-15,274.1,51.5,147.8,110.9,85.5z"/>
<linearGradient id="SVGID_1_" gradientUnits="userSpaceOnUse" x1="22.8021" y1="252.9008" x2="498.6976" y2="252.9008">
	<stop  offset="0" style="stop-color:#EFF0F5"/>
	<stop  offset="0.5" style="stop-color:#DBDEE7"/>
	<stop  offset="1" style="stop-color:#C9CDDB"/>
</linearGradient>
<path class="st1" d="M480.8,399.4c-10.6,17.5-26.1,32.2-45,44.2c-23.3,14.8-51.8,25.4-82.9,31.8c-11.7,2.4-23.7,4.2-36,5.4h0
	c-24.9,2.5-50.7,2.5-76.1,0c-6.3-0.6-12.6-1.4-18.8-2.3c-2.8-0.4-5.7-0.9-8.5-1.4c-14-2.4-27.7-5.5-41-9.4c0,0,0,0,0,0
	c-0.8-0.2-1.6-0.5-2.5-0.7c-3.5-1.1-7-2.2-10.5-3.4c-6-2-11.9-4.2-17.6-6.6l0,0v0c-7.5-3.1-14.9-6.5-21.9-10.1
	c-2.9-1.5-5.7-3-8.5-4.6c-2.7-1.5-5.4-3.1-8-4.8c-2.1-1.3-4.1-2.6-6.2-4c-5.8-3.8-11.3-7.9-16.5-12.2c-2.4-2-4.7-4-7-6
	c-13.5-12.3-24.8-26.3-33.2-41.9c-1.1-2-2.1-4-3-6C31,354,26.8,339.8,24.7,325.1c-0.8-5.3-1.3-10.6-1.6-16
	c-0.7-14.2,0.2-28.7,2.5-43.2c6.6-41.6,24.6-83.2,46.4-118.8c7.5-12.2,15.4-23.6,23.4-34.2c7.7-10.1,15.6-19.3,23.3-27.4
	c17.7-18.5,43.2-44.6,80.1-56.4c7.3-2.3,15-4.1,23.1-5.1c45.8-5.8,84.6,13.8,111.6,32.1c9.3,6.3,17.1,12.4,23.4,17.3
	c0.4,0.3,0.8,0.6,1.2,0.9c9.7,7.6,19.3,16.2,28.7,25.5c39.6,39.3,74.9,91.9,94.9,145.2c2.8,7.5,5.3,15,7.5,22.5
	c2.1,7.3,3.9,14.5,5.3,21.8c1,4.9,1.8,9.9,2.5,14.7c0.6,4.2,1,8.3,1.3,12.4C500.4,346.8,495.4,375.4,480.8,399.4z"/>
<g class="st2">
	<path class="st3" d="M219.4,376c-0.3-5.5-0.7-12.3-0.6-17.2h-0.1c-1.3,4.6-3,9.6-5,15.1l-7,19.3h-3.9l-6.4-19
		c-1.9-5.6-3.5-10.8-4.6-15.5h-0.1c-0.1,4.9-0.4,11.7-0.7,17.6l-1,17H185l2.8-39.8h6.6l6.8,19.3c1.6,4.9,3,9.3,4,13.4h0.1
		c1-4,2.4-8.4,4.2-13.4l7.1-19.3h6.6l2.5,39.8h-5L219.4,376z"/>
	<path class="st3" d="M236.5,380.1c0.1,7,4.6,9.9,9.8,9.9c3.7,0,6-0.7,7.9-1.5l0.9,3.7c-1.8,0.8-4.9,1.8-9.5,1.8
		c-8.8,0-14-5.8-14-14.4s5.1-15.4,13.4-15.4c9.3,0,11.8,8.2,11.8,13.4c0,1-0.1,1.9-0.1,2.4L236.5,380.1L236.5,380.1z M251.7,376.4
		c0.1-3.3-1.3-8.4-7.2-8.4c-5.2,0-7.5,4.9-8,8.4H251.7z"/>
	<path class="st3" d="M263.1,372.6c0-3-0.1-5.4-0.2-7.7h4.6l0.3,4.7h0.1c1.4-2.7,4.7-5.4,9.4-5.4c4,0,10.1,2.4,10.1,12.2v17h-5.2
		V377c0-4.6-1.7-8.4-6.6-8.4c-3.4,0-6.1,2.4-6.9,5.3c-0.2,0.7-0.4,1.5-0.4,2.4v17.2h-5.2L263.1,372.6L263.1,372.6z"/>
	<path class="st3" d="M319.8,385.7c0,3,0.1,5.5,0.2,7.8h-4.6l-0.3-4.6H315c-1.3,2.3-4.4,5.3-9.4,5.3c-4.5,0-9.9-2.5-9.9-12.5V365
		h5.2v15.8c0,5.5,1.6,9.1,6.3,9.1c3.5,0,5.9-2.4,6.9-4.7c0.3-0.7,0.4-1.7,0.4-2.7v-17.6h5.2v20.8H319.8z"/>
</g>
<g>
	<path class="st4" d="M239.3,157.7c-12.8,9-27.3,19.2-35.1,36.1c-13.5,29.5,27.6,61.6,29.4,62.9c0.4,0.3,0.9,0.5,1.4,0.5
		c0.5,0,1-0.2,1.5-0.5c0.8-0.7,1.1-1.9,0.5-2.8c-0.2-0.3-14.9-29-14.3-49.5c0.2-7.2,10.3-15.3,20.8-23.9
		c9.7-7.9,20.7-16.8,27.2-27.3c14.2-23-1.5-45.6-1.8-45.9c-0.6-0.8-1.8-1.2-2.8-0.8c-1,0.5-1.5,1.5-1.3,2.5c0,0.2,3.1,15.1-5.4,30.5
		C255.9,146.1,248.2,151.5,239.3,157.7z"/>
	<path class="st4" d="M293.2,167.9c0.9-0.7,1.2-1.9,0.6-2.9c-0.5-1-1.8-1.5-2.8-1c-2.2,0.8-53.2,20.5-53.2,44.3
		c0,16.4,7,25.1,12.1,31.4c2,2.5,3.7,4.6,4.3,6.5c1.6,5.2-2.2,14.8-3.8,18c-0.5,0.9-0.2,2.1,0.5,2.7c0.5,0.4,0.9,0.5,1.5,0.5
		c0.5,0,0.9-0.2,1.3-0.4c0.8-0.6,21.4-15.2,17.7-32.7c-1.4-6.6-4.6-11.6-7.6-15.8c-4.5-6.6-7.7-11.5-2.8-20.4
		C266.9,187.8,292.9,168.1,293.2,167.9z"/>
</g>
<g>
	
		<linearGradient id="SVGID_2_" gradientUnits="userSpaceOnUse" x1="159.8745" y1="242.3551" x2="296.8549" y2="242.3551" gradientTransform="matrix(1 0 0 -1 0 514)">
		<stop  offset="0" style="stop-color:#2BC4F3"/>
		<stop  offset="0.5" style="stop-color:#00AEEE"/>
		<stop  offset="1" style="stop-color:#0095DA"/>
	</linearGradient>
	<path class="st5" d="M160.3,267.8c-0.8,2.6-0.5,5.2,1.2,7.6c5.6,7.7,25.1,11.9,55.2,11.9l0,0c4.1,0,8.4-0.1,12.8-0.2
		c48.1-1.7,65.9-16.7,66.6-17.3c0.8-0.7,1-1.9,0.5-2.8c-0.5-0.9-1.5-1.4-2.6-1.2c-17,4.6-48.6,6.2-70.5,6.2c-24.5,0-37-1.8-40.1-3.1
		c1.5-2.2,11.3-6,23.3-8.3c1.2-0.2,1.9-1.3,1.9-2.5s-1.1-2.1-2.2-2.1C199.2,256,163.9,256.6,160.3,267.8z"/>
	
		<linearGradient id="SVGID_3_" gradientUnits="userSpaceOnUse" x1="296.3011" y1="232.5254" x2="343.3159" y2="232.5254" gradientTransform="matrix(1 0 0 -1 0 514)">
		<stop  offset="0" style="stop-color:#2BC4F3"/>
		<stop  offset="0.5" style="stop-color:#00AEEE"/>
		<stop  offset="1" style="stop-color:#0095DA"/>
	</linearGradient>
	<path class="st6" d="M321.1,252.3c-9.9,0-19.4,4.9-19.7,5.2c-0.9,0.5-1.4,1.5-1.2,2.5c0.2,1,1.2,1.7,2.2,1.7
		c0.2,0,21.1,0.2,23.1,12.1c1.7,10.3-19.8,27.1-28.2,32.6c-0.9,0.6-1.2,1.8-0.8,2.8c0.4,0.8,1.2,1.4,2.1,1.4c0.2,0,0.3,0,0.5-0.1
		c2-0.5,48.9-10.8,43.9-38.1C339.9,255.9,329.5,252.3,321.1,252.3z"/>
	
		<linearGradient id="SVGID_4_" gradientUnits="userSpaceOnUse" x1="179.2586" y1="213.0181" x2="289.0188" y2="213.0181" gradientTransform="matrix(1 0 0 -1 0 514)">
		<stop  offset="0" style="stop-color:#2BC4F3"/>
		<stop  offset="0.5" style="stop-color:#00AEEE"/>
		<stop  offset="1" style="stop-color:#0095DA"/>
	</linearGradient>
	<path class="st7" d="M289,303.2c0.2-0.8-0.2-1.8-0.9-2.3l-11.3-7.9c-0.5-0.4-1.2-0.5-1.9-0.3c-0.2,0-11.9,3.1-29,5
		c-6.8,0.8-14.3,1.2-22,1.2c-17,0-28.2-2-29.8-3.5c-0.2-0.4-0.2-0.6-0.1-0.7c0.3-0.8,1.9-1.8,2.9-2.2c1.2-0.4,1.7-1.6,1.4-2.8
		c-0.4-1.2-1.5-1.9-2.7-1.5c-11.3,2.7-16.8,6.6-16.4,11.3c0.7,8.5,20.4,12.9,37,14c2.4,0.2,5,0.2,7.7,0.2l0,0
		c27.6,0,63.1-8.6,63.4-8.8C288.1,304.8,288.8,304.1,289,303.2z"/>
	
		<linearGradient id="SVGID_5_" gradientUnits="userSpaceOnUse" x1="187.0747" y1="183.5309" x2="284.6761" y2="183.5309" gradientTransform="matrix(1 0 0 -1 0 514)">
		<stop  offset="0" style="stop-color:#2BC4F3"/>
		<stop  offset="0.5" style="stop-color:#00AEEE"/>
		<stop  offset="1" style="stop-color:#0095DA"/>
	</linearGradient>
	<path class="st8" d="M204.2,321.4c0.8-0.5,1.2-1.6,0.9-2.5c-0.3-1-1.2-1.6-2.2-1.6c-1.5,0.1-14.8,0.6-15.7,9.1
		c-0.3,2.5,0.5,4.9,2.2,6.9c4.8,5.6,17.7,9,39.3,10.3c2.5,0.2,5.2,0.2,7.8,0.2c27.6,0,46.2-8.6,47-9c0.8-0.4,1.2-1.1,1.3-1.9
		s-0.4-1.6-1.1-2.1l-14.2-8.7c-0.5-0.3-1.1-0.4-1.6-0.3c-0.1,0-9.1,1.9-22.7,3.8c-2.5,0.4-5.8,0.5-9.6,0.5
		c-13.6,0-28.8-2.2-31.6-3.7C203.7,322.1,203.8,321.7,204.2,321.4z"/>
	
		<linearGradient id="SVGID_6_" gradientUnits="userSpaceOnUse" x1="138.0463" y1="160.7194" x2="329.6523" y2="160.7194" gradientTransform="matrix(1 0 0 -1 0 514)">
		<stop  offset="0" style="stop-color:#2BC4F3"/>
		<stop  offset="0.5" style="stop-color:#00AEEE"/>
		<stop  offset="1" style="stop-color:#0095DA"/>
	</linearGradient>
	<path class="st9" d="M223.5,369.8c63.2-0.1,97.1-11.3,103.7-18.3c2.3-2.5,2.5-4.9,2.4-6.4c-0.5-3.8-3.9-6.2-4.3-6.4
		c-0.9-0.6-2.2-0.5-2.9,0.4c-0.8,0.8-0.8,2.1,0,2.9c0.4,0.5,0.6,1.4-0.5,2.5c-2.6,2.5-29,9.9-72.9,12.1c-6,0.3-12.3,0.5-18.7,0.5
		c-39.3,0-68-5.4-71.8-8.5c1.5-2.1,11.6-5.4,22.4-7.3c1.2-0.2,2-1.4,1.9-2.6c-0.2-1.2-1.3-2.1-2.5-1.9c-0.3,0.1-1.3,0.1-2.5,0.2
		c-17.8,1.1-38.5,3.5-39.6,12.7c-0.3,2.8,0.5,5.3,2.5,7.6C145.4,362.6,159.2,369.8,223.5,369.8L223.5,369.8z"/>
	
		<linearGradient id="SVGID_7_" gradientUnits="userSpaceOnUse" x1="177.4075" y1="145.6626" x2="340.9739" y2="145.6626" gradientTransform="matrix(1 0 0 -1 0 514)">
		<stop  offset="0" style="stop-color:#2BC4F3"/>
		<stop  offset="0.5" style="stop-color:#00AEEE"/>
		<stop  offset="1" style="stop-color:#0095DA"/>
	</linearGradient>
	<path class="st10" d="M339.6,353.4c-0.9-0.4-1.9-0.2-2.6,0.5c-0.1,0.1-9.6,10-38.2,15.9c-10.9,2.2-31.5,3.3-61.1,3.3
		S180,372,179.7,372c-1.2-0.1-2.2,0.8-2.3,1.9c-0.2,1.2,0.6,2.2,1.7,2.5c0.3,0.1,29.8,7,70.2,7c19.4,0,38.2-1.5,56-4.7
		c33.2-5.8,35.5-22.3,35.6-23C341.1,354.8,340.6,353.9,339.6,353.4z"/>
</g>
</svg>
