<?xml version="1.0" encoding="utf-8"?>
<!-- Generator: Adobe Illustrator 24.0.1, SVG Export Plug-In . SVG Version: 6.00 Build 0)  -->
<svg version="1.1" id="Layer_1" xmlns="http://www.w3.org/2000/svg" xmlns:xlink="http://www.w3.org/1999/xlink" x="0px" y="0px"
	 viewBox="0 0 512 512" style="enable-background:new 0 0 512 512;" xml:space="preserve">
<style type="text/css">
	.st0{fill:#DDDDDD;}
	.st1{fill:url(#SVGID_1_);}
	.st2{fill:url(#SVGID_2_);}
	.st3{fill:url(#SVGID_3_);}
	.st4{fill:url(#SVGID_4_);}
	.st5{fill:url(#SVGID_5_);}
</style>
<path class="st0" d="M110.9,85.5C132,63.4,164.4,30.3,214.1,24c61.5-7.8,110.5,30.3,135,49.4c94.1,73.2,180.2,233.3,124,326
	c-72.8,120-374.9,111.4-443.4-31.8C-15,274.1,51.5,147.8,110.9,85.5z"/>
<radialGradient id="SVGID_1_" cx="260.7447" cy="261.1281" r="233.9474" fx="390.1593" fy="85.7427" gradientTransform="matrix(1 0 0 -1 0 514)" gradientUnits="userSpaceOnUse">
	<stop  offset="0" style="stop-color:#FFF7A9"/>
	<stop  offset="0.5" style="stop-color:#FFF100"/>
	<stop  offset="1" style="stop-color:#FFD700"/>
</radialGradient>
<path class="st1" d="M480.8,399.4C408,519.4,106,510.8,37.4,367.6C31,354,26.8,339.8,24.7,325.1c-2.9-19.3-2.3-39.3,0.9-59.3
	c11.1-69.4,53.7-139,93.1-180.3c21.1-22.1,53.5-55.2,103.2-61.5c61.5-7.8,110.5,30.3,135,49.4C450.9,146.7,537,306.7,480.8,399.4z"
	/>
<linearGradient id="SVGID_2_" gradientUnits="userSpaceOnUse" x1="22.8281" y1="260.026" x2="165.4799" y2="260.026" gradientTransform="matrix(1 0 0 -1 0 514)">
	<stop  offset="0" style="stop-color:#FEE7A2"/>
	<stop  offset="0.5" style="stop-color:#FFCB05"/>
	<stop  offset="1" style="stop-color:#F8AC1C"/>
</linearGradient>
<path class="st2" d="M165.5,43.6v420.7c-57-18.1-105.4-50.7-128-98.1c-17.9-37.3-18-79.8-7.9-121.4C44.8,182.3,83,121.8,118.7,84.3
	C130.4,72,145.6,56.2,165.5,43.6z"/>
<linearGradient id="SVGID_3_" gradientUnits="userSpaceOnUse" x1="165.5666" y1="262.4651" x2="323.1955" y2="262.4651" gradientTransform="matrix(1 0 0 -1 0 514)">
	<stop  offset="0" style="stop-color:#F47F7B"/>
	<stop  offset="0.5" style="stop-color:#EE3F58"/>
	<stop  offset="1" style="stop-color:#DC2048"/>
</linearGradient>
<path class="st3" d="M323.2,48.4v430.3c-51.8,6.1-108.1,1.3-157.6-14.5V43.6c15.7-10,34.3-18,56.2-20.8
	C262,17.8,297,32.3,323.2,48.4z"/>
<linearGradient id="SVGID_4_" gradientUnits="userSpaceOnUse" x1="323.2821" y1="250.3204" x2="420.6845" y2="250.3204" gradientTransform="matrix(1 0 0 -1 0 514)">
	<stop  offset="1.123600e-02" style="stop-color:#3FB0C9"/>
	<stop  offset="0.5" style="stop-color:#0599B9"/>
	<stop  offset="0.9944" style="stop-color:#027C84"/>
</linearGradient>
<path class="st4" d="M420.7,137.2v313.7c-28,14.5-61.6,23.7-97.4,28V48.5c13.7,8.4,25,17.2,33.4,23.7
	C379.1,89.6,401,112,420.7,137.2z"/>
<linearGradient id="SVGID_5_" gradientUnits="userSpaceOnUse" x1="420.5978" y1="219.9905" x2="498.4157" y2="219.9905" gradientTransform="matrix(1 0 0 -1 0 514)">
	<stop  offset="0" style="stop-color:#FEF6AB"/>
	<stop  offset="0.5" style="stop-color:#FCEE1F"/>
	<stop  offset="1" style="stop-color:#FDD700"/>
</linearGradient>
<path class="st5" d="M498.4,328.6c0,25.3-5.5,49-17.9,69.3c-13.3,21.9-34.2,39.5-60,52.9V137.2c25.5,32.6,47.1,69.9,61.1,107.5
	C492.3,273.2,498.4,301.9,498.4,328.6z"/>
</svg>
