<?xml version="1.0" encoding="utf-8"?>
<!-- Generator: Adobe Illustrator 24.0.1, SVG Export Plug-In . SVG Version: 6.00 Build 0)  -->
<svg version="1.1" id="Layer_1" xmlns="http://www.w3.org/2000/svg" xmlns:xlink="http://www.w3.org/1999/xlink" x="0px" y="0px"
	 viewBox="0 0 512 512" style="enable-background:new 0 0 512 512;" xml:space="preserve">
<style type="text/css">
	.st0{fill:#DDDDDD;}
	.st1{fill:url(#SVGID_1_);}
	.st2{fill:none;stroke:#FFFFFF;stroke-width:3;stroke-miterlimit:10;}
</style>
<path class="st0" d="M110.9,85.5C132,63.4,164.4,30.3,214.1,24c61.5-7.8,110.5,30.3,135,49.4c94.1,73.2,180.2,233.3,124,326
	c-72.8,120-374.9,111.4-443.4-31.8C-15,274.1,51.5,147.8,110.9,85.5z"/>
<linearGradient id="SVGID_1_" gradientUnits="userSpaceOnUse" x1="22.8281" y1="252.8719" x2="498.6612" y2="252.8719">
	<stop  offset="0" style="stop-color:#A7979B"/>
	<stop  offset="0.5" style="stop-color:#7E6B71"/>
	<stop  offset="1" style="stop-color:#61515A"/>
</linearGradient>
<path class="st1" d="M480.8,399.4C408,519.4,106,510.8,37.4,367.6C31,354,26.8,339.8,24.7,325.1c-2.9-19.3-2.3-39.3,0.9-59.3
	c11.1-69.4,53.7-139,93.1-180.3c21.1-22.1,53.5-55.2,103.2-61.5c61.5-7.8,110.5,30.3,135,49.4C450.9,146.7,537,306.7,480.8,399.4z"
	/>
<line class="st2" x1="91.5" y1="183.5" x2="414.5" y2="183.5"/>
<line class="st2" x1="91.5" y1="203.5" x2="414.5" y2="203.5"/>
<line class="st2" x1="91.5" y1="223.5" x2="414.5" y2="223.5"/>
<line class="st2" x1="91.5" y1="243.4" x2="414.5" y2="243.4"/>
<line class="st2" x1="91.5" y1="275.7" x2="414.5" y2="275.7"/>
<line class="st2" x1="91.5" y1="259.5" x2="414.5" y2="259.5"/>
<line class="st2" x1="91.5" y1="291.8" x2="414.5" y2="291.8"/>
<line class="st2" x1="91.5" y1="307.9" x2="414.5" y2="307.9"/>
<line class="st2" x1="91.5" y1="324" x2="414.5" y2="324"/>
<line class="st2" x1="91.5" y1="340.1" x2="414.5" y2="340.1"/>
<line class="st2" x1="91.5" y1="356.2" x2="414.5" y2="356.2"/>
<line class="st2" x1="91.5" y1="372.3" x2="414.5" y2="372.3"/>
</svg>
