<?xml version="1.0" encoding="utf-8"?>
<!-- Generator: Adobe Illustrator 24.0.1, SVG Export Plug-In . SVG Version: 6.00 Build 0)  -->
<svg version="1.1" id="Layer_1" xmlns="http://www.w3.org/2000/svg" xmlns:xlink="http://www.w3.org/1999/xlink" x="0px" y="0px"
	 viewBox="0 0 512 512" style="enable-background:new 0 0 512 512;" xml:space="preserve">
<style type="text/css">
	.st0{fill:#DDDDDD;}
	.st1{fill:url(#SVGID_1_);stroke:#D8D8D8;stroke-miterlimit:10;}
	.st2{display:none;}
	.st3{display:inline;fill:#FFFFFF;}
	.st4{fill:#F2F8EE;}
</style>
<path class="st0" d="M110.9,85.5C132,63.4,164.4,30.3,214.1,24c61.5-7.8,110.5,30.3,135,49.4c94.1,73.2,180.2,233.3,124,326
	c-72.8,120-374.9,111.4-443.4-31.8C-15,274.1,51.5,147.8,110.9,85.5z"/>
<linearGradient id="SVGID_1_" gradientUnits="userSpaceOnUse" x1="22.8682" y1="261.1811" x2="498.7581" y2="261.1811" gradientTransform="matrix(1 0 0 -1 0 514)">
	<stop  offset="5.618000e-03" style="stop-color:#8AD0C3"/>
	<stop  offset="0.5" style="stop-color:#00B6A9"/>
	<stop  offset="1" style="stop-color:#00A185"/>
</linearGradient>
<path class="st1" d="M480.8,399.4c-10.6,17.5-26.1,32.2-45,44.2c-23.3,14.8-51.8,25.4-82.9,31.8c-11.7,2.4-23.7,4.2-36,5.4l0,0
	c-24.9,2.5-50.7,2.5-76.1,0c-6.3-0.6-12.6-1.4-18.8-2.3c-2.8-0.4-5.7-0.9-8.5-1.4c-14-2.4-27.7-5.5-41-9.4l0,0
	c-0.8-0.2-1.6-0.5-2.5-0.7c-3.5-1.1-7-2.2-10.5-3.4c-6-2-11.9-4.2-17.6-6.6l0,0l0,0c-7.5-3.1-14.9-6.5-21.9-10.1
	c-2.9-1.5-5.7-3-8.5-4.6c-2.7-1.5-5.4-3.1-8-4.8c-2.1-1.3-4.1-2.6-6.2-4c-5.8-3.8-11.3-7.9-16.5-12.2c-2.4-2-4.7-4-7-6
	C60.3,403,49,389,40.6,373.4c-1.1-2-2.1-4-3-6C31,354,26.8,339.8,24.7,325.1c-0.8-5.3-1.3-10.6-1.6-16c-0.7-14.2,0.2-28.7,2.5-43.2
	c6.6-41.6,24.6-83.2,46.4-118.8c7.5-12.2,15.4-23.6,23.4-34.2c7.7-10.1,15.6-19.3,23.3-27.4c17.7-18.5,43.2-44.6,80.1-56.4
	c7.3-2.3,15-4.1,23.1-5.1c45.8-5.8,84.6,13.8,111.6,32.1c9.3,6.3,17.1,12.4,23.4,17.3c0.4,0.3,0.8,0.6,1.2,0.9
	c9.7,7.6,19.3,16.2,28.7,25.5c39.6,39.3,74.9,91.9,94.9,145.2c2.8,7.5,5.3,15,7.5,22.5c2.1,7.3,3.9,14.5,5.3,21.8
	c1,4.9,1.8,9.9,2.5,14.7c0.6,4.2,1,8.3,1.3,12.4C500.4,346.8,495.4,375.4,480.8,399.4z"/>
<g class="st2">
	<path class="st3" d="M219.4,376c-0.3-5.5-0.7-12.3-0.6-17.2h-0.1c-1.3,4.6-3,9.6-5,15.1l-7,19.3h-3.9l-6.4-19
		c-1.9-5.6-3.5-10.8-4.6-15.5h-0.1c-0.1,4.9-0.4,11.7-0.7,17.6l-1,17h-5l2.8-39.8h6.6l6.8,19.3c1.6,4.9,3,9.3,4,13.4h0.1
		c1-4,2.4-8.4,4.2-13.4l7.1-19.3h6.6l2.5,39.8h-5L219.4,376z"/>
	<path class="st3" d="M236.5,380.1c0.1,7,4.6,9.9,9.8,9.9c3.7,0,6-0.7,7.9-1.5l0.9,3.7c-1.8,0.8-4.9,1.8-9.5,1.8
		c-8.8,0-14-5.8-14-14.4s5.1-15.4,13.4-15.4c9.3,0,11.8,8.2,11.8,13.4c0,1-0.1,1.9-0.1,2.4L236.5,380.1L236.5,380.1z M251.7,376.4
		c0.1-3.3-1.3-8.4-7.2-8.4c-5.2,0-7.5,4.9-8,8.4H251.7z"/>
	<path class="st3" d="M263.1,372.6c0-3-0.1-5.4-0.2-7.7h4.6l0.3,4.7h0.1c1.4-2.7,4.7-5.4,9.4-5.4c4,0,10.1,2.4,10.1,12.2v17h-5.2
		V377c0-4.6-1.7-8.4-6.6-8.4c-3.4,0-6.1,2.4-6.9,5.3c-0.2,0.7-0.4,1.5-0.4,2.4v17.2h-5.2L263.1,372.6L263.1,372.6z"/>
	<path class="st3" d="M319.8,385.7c0,3,0.1,5.5,0.2,7.8h-4.6l-0.3-4.6H315c-1.3,2.3-4.4,5.3-9.4,5.3c-4.5,0-9.9-2.5-9.9-12.5V365
		h5.2v15.8c0,5.5,1.6,9.1,6.3,9.1c3.5,0,5.9-2.4,6.9-4.7c0.3-0.7,0.4-1.7,0.4-2.7v-17.6h5.2L319.8,385.7L319.8,385.7L319.8,385.7z"
		/>
</g>
<g id="_x31_5_refresh">
	<path class="st4" d="M425.4,251c-3.3-0.4-16.6-1.8-18.6-2c-9-72.9-71.2-130.8-148.3-130.8c-82.7,0-149.6,66.9-149.6,149.6
		s66.8,149.6,149.6,149.6c43.4,0,82.7-18.4,110.1-48.4c4.8-5.3,4.6-13.6-0.8-18.4c-5.3-4.8-13.6-4.6-18.4,0.8
		c-22.5,24.5-54.9,40-90.9,40c-68,0-123.4-55.3-123.4-123.4s55.3-123.4,123.4-123.4c60.7,0,111.2,43.9,121.4,101.7
		c-3.6-0.4,0,0-19.4-2.1c-3.8-0.4-6.7,3.5-5.1,7l26.3,59c1.5,3.5,6.3,4,8.5,0.9l38.5-51.9C431.2,255.9,429.2,251.4,425.4,251
		L425.4,251z"/>
	<g>
		<path class="st4" d="M425.4,251c-3.3-0.4-16.6-1.8-18.6-2c-9-72.9-71.2-130.8-148.3-130.8c-3,0-6.1,0.1-9.1,0.3
			c72.8,4.3,130.5,60.5,139.2,130.5c1.8,0.2,15.3,1.7,18.6,2c3.8,0.4,5.8,4.8,3.5,7.9l-32.4,43.4l3.3,7.6c1.5,3.5,6.3,4,8.5,0.9
			l38.5-51.9C431.2,255.9,429.2,251.4,425.4,251z"/>
	</g>
</g>
</svg>
