<?xml version="1.0" encoding="utf-8"?>
<!-- Generator: Adobe Illustrator 24.0.1, SVG Export Plug-In . SVG Version: 6.00 Build 0)  -->
<svg version="1.1" id="Layer_1" xmlns="http://www.w3.org/2000/svg" xmlns:xlink="http://www.w3.org/1999/xlink" x="0px" y="0px"
	 viewBox="0 0 512 512" style="enable-background:new 0 0 512 512;" xml:space="preserve">
<style type="text/css">
	.st0{fill:#DDDDDD;}
	.st1{fill:#FFFFFF;stroke:#5B5B5B;stroke-miterlimit:10;}
	.st2{opacity:0.96;}
	.st3{opacity:0.76;fill:url(#SVGID_1_);enable-background:new    ;}
	.st4{opacity:0.76;fill:url(#SVGID_2_);enable-background:new    ;}
	.st5{opacity:0.76;fill:url(#SVGID_3_);enable-background:new    ;}
	.st6{opacity:0.76;fill:url(#SVGID_4_);enable-background:new    ;}
	.st7{opacity:0.76;fill:url(#SVGID_5_);enable-background:new    ;}
	.st8{opacity:0.76;fill:url(#SVGID_6_);enable-background:new    ;}
	.st9{opacity:0.76;fill:url(#SVGID_7_);enable-background:new    ;}
	.st10{opacity:0.76;fill:url(#SVGID_8_);enable-background:new    ;}
</style>
<path class="st0" d="M110.9,85.5C132,63.4,164.4,30.3,214.1,24c61.5-7.8,110.5,30.3,135,49.4c94.1,73.2,180.2,233.3,124,326
	c-72.8,120-374.9,111.4-443.4-31.8C-15,274.1,51.5,147.8,110.9,85.5z"/>
<path class="st1" d="M118.7,85.5c21.1-22.1,53.5-55.2,103.2-61.5c61.5-7.8,110.5,30.3,135,49.4c94.1,73.2,180.2,233.3,124,326
	c-72.8,120-374.9,111.4-443.4-31.8C-7.3,274.1,59.3,147.8,118.7,85.5z"/>
<g class="st2">
	
		<linearGradient id="SVGID_1_" gradientUnits="userSpaceOnUse" x1="252.9798" y1="-74.6314" x2="252.9798" y2="36.0932" gradientTransform="matrix(1 0 0 -1 0 184)">
		<stop  offset="0" style="stop-color:#F5B650"/>
		<stop  offset="1" style="stop-color:#F5B650"/>
	</linearGradient>
	<path class="st3" d="M253,143.4L253,143.4c21.9,0,39.6,17.8,39.6,39.6v39.6c0,21.9-17.8,39.6-39.6,39.6l0,0
		c-21.9,0-39.6-17.8-39.6-39.6V183C213.4,161.1,231.2,143.4,253,143.4z"/>
	
		<linearGradient id="SVGID_2_" gradientUnits="userSpaceOnUse" x1="252.9798" y1="-103.9648" x2="252.9798" y2="-212.0901" gradientTransform="matrix(1 0 0 -1 0 184)">
		<stop  offset="0" style="stop-color:#76A5DC"/>
		<stop  offset="1" style="stop-color:#76A5DC"/>
	</linearGradient>
	<path class="st4" d="M253,282L253,282c21.9,0,39.6,17.8,39.6,39.6v39.6c0,21.9-17.8,39.6-39.6,39.6l0,0
		c-21.9,0-39.6-17.8-39.6-39.6v-39.6C213.4,299.7,231.2,282,253,282z"/>
	
		<linearGradient id="SVGID_3_" gradientUnits="userSpaceOnUse" x1="262.901" y1="-88.0708" x2="381.7604" y2="-88.0708" gradientTransform="matrix(1 0 0 -1 0 184)">
		<stop  offset="0" style="stop-color:#D4EC64"/>
		<stop  offset="1" style="stop-color:#D4EC64"/>
	</linearGradient>
	<path class="st5" d="M381.8,272.1L381.8,272.1c0,21.9-17.8,39.6-39.6,39.6h-39.6c-21.9,0-39.6-17.8-39.6-39.6l0,0
		c0-21.9,17.8-39.6,39.6-39.6h39.6C363.9,232.5,381.8,250.2,381.8,272.1z"/>
	
		<linearGradient id="SVGID_4_" gradientUnits="userSpaceOnUse" x1="241.709" y1="-88.0708" x2="122.8497" y2="-88.0708" gradientTransform="matrix(1 0 0 -1 0 184)">
		<stop  offset="0" style="stop-color:#EE6CA7"/>
		<stop  offset="1" style="stop-color:#EE6CA7"/>
	</linearGradient>
	<path class="st6" d="M243.1,272.1L243.1,272.1c0,21.9-17.8,39.6-39.6,39.6h-39.6c-21.9,0-39.6-17.8-39.6-39.6l0,0
		c0-21.9,17.8-39.6,39.6-39.6h39.6C225.3,232.5,243.1,250.2,243.1,272.1z"/>
	
		<linearGradient id="SVGID_5_" gradientUnits="userSpaceOnUse" x1="264.0632" y1="-75.494" x2="341.4441" y2="-1.2816" gradientTransform="matrix(1 0 0 -1 4.124105e-03 184)">
		<stop  offset="0" style="stop-color:#EAE532"/>
		<stop  offset="1" style="stop-color:#EAE532"/>
	</linearGradient>
	<path class="st7" d="M344,181.1L344,181.1c15.5,15.5,15.5,40.5,0,56l-28,28c-15.5,15.5-40.5,15.5-56,0l0,0
		c-15.5-15.5-15.5-40.5,0-56l28-28C303.5,165.6,328.6,165.6,344,181.1z"/>
	
		<linearGradient id="SVGID_6_" gradientUnits="userSpaceOnUse" x1="243.2243" y1="-99.7511" x2="162.1798" y2="-176.9588" gradientTransform="matrix(1 0 0 -1 1.046437e-04 183.9917)">
		<stop  offset="0" style="stop-color:#AA7ADB"/>
		<stop  offset="1" style="stop-color:#AA7ADB"/>
	</linearGradient>
	<path class="st8" d="M246.1,279.1L246.1,279.1c15.5,15.5,15.5,40.5,0,56l-28,28c-15.5,15.5-40.5,15.5-56,0l0,0
		c-15.5-15.5-15.5-40.5,0-56l28-28C205.4,263.6,230.5,263.6,246.1,279.1z"/>
	
		<linearGradient id="SVGID_7_" gradientUnits="userSpaceOnUse" x1="264.2073" y1="-98.4569" x2="339.1871" y2="-175.0952" gradientTransform="matrix(1 0 0 -1 4.129431e-04 184.0058)">
		<stop  offset="0" style="stop-color:#7BD464"/>
		<stop  offset="1" style="stop-color:#7BD464"/>
	</linearGradient>
	<path class="st9" d="M344,363.1L344,363.1c-15.5,15.5-40.5,15.5-56,0l-28-28c-15.5-15.5-15.5-40.5,0-56l0,0
		c15.5-15.5,40.5-15.5,56,0l28,28C359.4,322.6,359.4,347.7,344,363.1z"/>
	
		<linearGradient id="SVGID_8_" gradientUnits="userSpaceOnUse" x1="241.207" y1="-76.2817" x2="165.3856" y2="-0.4851" gradientTransform="matrix(1 0 0 -1 -7.238773e-03 183.9969)">
		<stop  offset="0" style="stop-color:#FC6852"/>
		<stop  offset="1" style="stop-color:#FC6852"/>
	</linearGradient>
	<path class="st10" d="M246,265.1L246,265.1c-15.5,15.5-40.5,15.5-56,0l-28-28c-15.5-15.5-15.5-40.5,0-56l0,0
		c15.5-15.5,40.5-15.5,56,0l28,28C261.5,224.6,261.5,249.6,246,265.1z"/>
</g>
</svg>
