<?xml version="1.0" encoding="utf-8"?>
<!-- Generator: Adobe Illustrator 24.0.1, SVG Export Plug-In . SVG Version: 6.00 Build 0)  -->
<svg version="1.1" id="Layer_1" xmlns="http://www.w3.org/2000/svg" xmlns:xlink="http://www.w3.org/1999/xlink" x="0px" y="0px"
	 viewBox="0 0 512 512" style="enable-background:new 0 0 512 512;" xml:space="preserve">
<style type="text/css">
	.st0{fill:#DDDDDD;}
	.st1{fill:url(#SVGID_1_);}
	.st2{fill:none;}
	.st3{fill:#FFFFFF;}
</style>
<path class="st0" d="M110.9,85.5C132,63.4,164.4,30.3,214.1,24c61.5-7.8,110.5,30.3,135,49.4c94.1,73.2,180.2,233.3,124,326
	c-72.8,120-374.9,111.4-443.4-31.8C-15,274.1,51.5,147.8,110.9,85.5z"/>
<linearGradient id="SVGID_1_" gradientUnits="userSpaceOnUse" x1="22.8281" y1="261.1277" x2="498.7581" y2="261.1277" gradientTransform="matrix(1 0 0 -1 0 514)">
	<stop  offset="0" style="stop-color:#F37F7B"/>
	<stop  offset="0.5" style="stop-color:#ED3D57"/>
	<stop  offset="1" style="stop-color:#DD1E47"/>
</linearGradient>
<path class="st1" d="M480.8,399.4C408,519.4,106,510.8,37.4,367.6C31,354,26.8,339.8,24.7,325.1c-2.9-19.3-2.3-39.3,0.9-59.3
	c11.1-69.4,53.7-139,93.1-180.3c21.1-22.1,53.5-55.2,103.2-61.5c45.8-5.8,84.6,13.8,111.6,32.1c9.3,6.3,17.1,12.4,23.4,17.3
	c0.4,0.3,0.8,0.6,1.2,0.9C408.8,114.2,457,179.1,481.7,245c2.8,7.5,5.3,15,7.5,22.5c2.1,7.3,3.9,14.5,5.3,21.8
	c1.8,9.2,3.1,18.2,3.8,27.1C500.4,346.8,495.4,375.4,480.8,399.4z"/>
<rect x="61.5" y="178.3" class="st2" width="587" height="199"/>
<g>
	<path class="st3" d="M494.4,289.3c-9.5-6.8-19.9-15.5-30.9-26c9,1.1,17.6,2.5,25.6,4.2c-2.2-7.5-4.7-15-7.5-22.5
		c-13.5-2.3-27.5-3.9-40.9-4.6c-4.8-5.2-9.8-10.7-14.9-16.4c-39.2-44.8-58.6-107-67.8-149.6c-0.4-0.3-0.8-0.6-1.2-0.9
		c-6.3-4.9-14.1-11-23.4-17.3c0,0.1,0,0.2,0.1,0.4c3.9,41.3,5.8,119.8-25.9,182.1c-3.3,6.5-6.6,12.7-9.9,18.7
		c-59.5,17.1-107.4,48-114.4,73.5c-2.5,9.3-0.4,18.2,6.2,25c7.6,8,16.6,12.1,26.8,12.1c28.1,0,60.1-31.2,95.1-93
		c15.6-4.1,31.1-7,46.1-8.5c5.8-0.6,15.2-1.8,21.1-2.7c16-2.4,34-3.4,52.7-2.8c25,25.9,47.4,44.5,66.9,55.5
		C497.5,307.5,496.3,298.5,494.4,289.3z M216.5,346.9c-4.4,0-8.1-1.8-11.8-5.6c-1.5-1.5-1.8-2.9-1.3-5.1c3.6-13.2,34-35.7,78.5-52.1
		C256.7,323.7,232.7,346.9,216.5,346.9z M375.7,243c-5.5,0.9-14.5,2-20.1,2.5c-10,1-20.4,2.5-30.9,4.7c0.4-0.9,0.9-1.7,1.3-2.5
		c15.6-30.6,25.1-67.2,28.8-109.2c14.2,40,32.9,73.1,55.5,99.1c0.6,0.8,1.4,1.5,2,2.3C399.3,240.3,387,241.4,375.7,243z"/>
</g>
</svg>
