<?xml version="1.0" encoding="utf-8"?>
<!-- Generator: Adobe Illustrator 24.0.1, SVG Export Plug-In . SVG Version: 6.00 Build 0)  -->
<svg version="1.1" id="Layer_1" xmlns="http://www.w3.org/2000/svg" xmlns:xlink="http://www.w3.org/1999/xlink" x="0px" y="0px"
	 viewBox="0 0 512 512" style="enable-background:new 0 0 512 512;" xml:space="preserve">
<style type="text/css">
	.st0{fill:#DDDDDD;}
	.st1{fill:url(#SVGID_1_);}
	.st2{fill:#FFFFFF;}
</style>
<path class="st0" d="M110.9,85.5C132,63.4,164.4,30.3,214.1,24c61.5-7.8,110.5,30.3,135,49.4c94.1,73.2,180.2,233.3,124,326
	c-72.8,120-374.9,111.4-443.4-31.8C-15,274.1,51.5,147.8,110.9,85.5z"/>
<linearGradient id="SVGID_1_" gradientUnits="userSpaceOnUse" x1="22.8239" y1="261.1281" x2="498.7601" y2="261.1281" gradientTransform="matrix(1 0 0 -1 0 514)">
	<stop  offset="0" style="stop-color:#2BC4F3"/>
	<stop  offset="0.5" style="stop-color:#00AEEE"/>
	<stop  offset="1" style="stop-color:#0095DA"/>
</linearGradient>
<path class="st1" d="M118.7,85.5c21.1-22.1,53.5-55.2,103.2-61.5c61.5-7.8,110.5,30.3,135,49.4c94.1,73.2,180.2,233.3,124,326
	c-72.8,120-374.9,111.4-443.4-31.8C-7.3,274.1,59.3,147.8,118.7,85.5z"/>
<g id="Page-1">
	<g id="_x30_01---Accessibility">
		<path id="Shape" class="st2" d="M241.8,118.8c-75.8,0-137.2,61.4-137.2,137.2S166,393.2,241.8,393.2S379,331.8,379,256
			C378.9,180.3,317.5,118.9,241.8,118.8z M241.8,384.1c-70.7,0-128.1-57.3-128.1-128.1S171,127.9,241.8,127.9s128,57.4,128,128.1
			S312.5,384,241.8,384.1z"/>
		<path id="Shape_1_" class="st2" d="M241.8,137.1c-65.7,0-118.9,53.2-118.9,118.9s53.2,118.9,118.9,118.9S360.7,321.7,360.7,256
			C360.6,190.4,307.4,137.2,241.8,137.1z M241.8,365.7C181.2,365.7,132,316.6,132,256s49.2-109.7,109.7-109.7S351.5,195.4,351.5,256
			S302.4,365.7,241.8,365.7z"/>
		<path id="Shape_2_" class="st2" d="M241.8,214.9c15.1,0,27.5-12.3,27.5-27.5c0-15.1-12.3-27.5-27.5-27.5
			c-15.1,0-27.5,12.3-27.5,27.5S226.6,214.9,241.8,214.9z M241.8,169.1c10.1,0,18.3,8.2,18.3,18.3s-8.2,18.3-18.3,18.3
			s-18.3-8.2-18.3-18.3S231.7,169.1,241.8,169.1z"/>
		<path id="Shape_3_" class="st2" d="M305.5,219.5L305.5,219.5l-48.1,4.3c-1.6,0.2-3.2,0.2-4.9,0.2H231c-1.6,0-3.2-0.1-4.9-0.2
			l-48.1-4.3c-7.5-0.6-14.2,5-14.7,12.6c-0.6,7.5,5,14.2,12.6,14.7l38.8,3.5c2.3,0.2,4.1,2.2,4.1,4.5v10.5c0,2.3-0.4,4.5-1.3,6.6
			L195.6,328c-3.1,7,0.1,15.1,7,18.1c6.9,3.1,15.1-0.1,18.1-7l21-51.3l21.1,51.4c3.2,6.7,11.1,9.7,18,6.7c6.8-3,10-10.9,7.1-17.8
			l-22.1-56.3c-0.8-2.1-1.3-4.4-1.3-6.6v-10.5c0-2.3,1.8-4.4,4.1-4.5l38.7-3.5c7.5-0.6,13.2-7.2,12.6-14.7
			C319.6,224.5,313.1,218.9,305.5,219.5L305.5,219.5z M306.8,237.7l-38.8,3.5c-7,0.6-12.5,6.6-12.5,13.7v10.5c0,3.4,0.6,6.8,1.9,10
			l22.2,56.5c1.1,2.3,0.1,5-2.2,6.1c-2.3,1.1-5,0.1-6.1-2.2l-21.1-51.3c-1.4-3.4-4.7-5.6-8.4-5.6s-7,2.2-8.4,5.6l-21.1,51.1
			c-0.6,1.5-2.1,2.6-3.8,2.8s-3.3-0.6-4.2-2s-1-3.2-0.2-4.7l22.1-56.3c1.2-3.2,1.9-6.6,1.9-10v-10.5c0-7.1-5.4-13-12.5-13.7
			l-38.9-3.5c-2.5-0.2-4.5-2.3-4.2-4.9c0.2-2.5,2.3-4.5,4.9-4.2l48,4.3c1.9,0.2,3.8,0.2,5.8,0.2h21.4c1.9,0,3.8-0.1,5.8-0.2l48-4.3
			c1.2-0.1,2.4,0.3,3.3,1.1s1.5,1.9,1.5,3.2s-0.3,2.4-1.1,3.4C309.2,237,308,237.6,306.8,237.7z"/>
	</g>
</g>
</svg>
