<?xml version="1.0" encoding="utf-8"?>
<!-- Generator: Adobe Illustrator 24.0.1, SVG Export Plug-In . SVG Version: 6.00 Build 0)  -->
<svg version="1.1" id="Layer_1" xmlns="http://www.w3.org/2000/svg" xmlns:xlink="http://www.w3.org/1999/xlink" x="0px" y="0px"
	 viewBox="0 0 512 512" style="enable-background:new 0 0 512 512;" xml:space="preserve">
<style type="text/css">
	.st0{fill:#DDDDDD;}
	.st1{fill:#FFFFFF;stroke:#CCCCCC;stroke-miterlimit:10;}
	.st2{fill:url(#SVGID_1_);}
	.st3{fill:url(#SVGID_2_);}
	.st4{fill:url(#SVGID_3_);}
	.st5{fill:url(#SVGID_4_);}
	.st6{fill:url(#SVGID_5_);}
	.st7{fill:url(#SVGID_6_);}
	.st8{fill:url(#SVGID_7_);}
	.st9{fill:url(#SVGID_8_);}
	.st10{fill:url(#SVGID_9_);}
</style>
<path class="st0" d="M110.9,85.5C132,63.4,164.4,30.3,214.1,24c61.5-7.8,110.5,30.3,135,49.4c94.1,73.2,180.2,233.3,124,326
	c-72.8,120-374.9,111.4-443.4-31.8C-15,274.1,51.5,147.8,110.9,85.5z"/>
<path class="st1" d="M480.8,399.4C408,519.4,106,510.8,37.4,367.6C31,354,26.8,339.8,24.7,325.1c-2.9-19.3-2.3-39.3,0.9-59.3
	c11.1-69.4,53.7-139,93.1-180.3c21.1-22.1,53.5-55.2,103.2-61.5c61.5-7.8,110.5,30.3,135,49.4C450.9,146.7,537,306.7,480.8,399.4z"
	/>
<g>
	
		<linearGradient id="SVGID_1_" gradientUnits="userSpaceOnUse" x1="312.248" y1="333.0924" x2="372.1056" y2="333.0924" gradientTransform="matrix(1 0 0 -1 0 514)">
		<stop  offset="0" style="stop-color:#F37E5F"/>
		<stop  offset="0.5" style="stop-color:#EC1C24"/>
		<stop  offset="1" style="stop-color:#CF232A"/>
	</linearGradient>
	<path class="st2" d="M348.8,151h-30.2c-3.5,0-6.3,2.8-6.3,6.3c0,3.5,2.8,6.3,6.3,6.3h30.2c5.9,0,10.7,4.8,10.7,10.7v30.2
		c0,3.5,2.8,6.3,6.3,6.3c3.5,0,6.3-2.8,6.3-6.3v-30.2C372.1,161.4,361.6,151,348.8,151z"/>
	
		<linearGradient id="SVGID_2_" gradientUnits="userSpaceOnUse" x1="156.2056" y1="333.0924" x2="216.1032" y2="333.0924" gradientTransform="matrix(1 0 0 -1 0 514)">
		<stop  offset="0" style="stop-color:#F37E5F"/>
		<stop  offset="0.5" style="stop-color:#EC1C24"/>
		<stop  offset="1" style="stop-color:#CF232A"/>
	</linearGradient>
	<path class="st3" d="M162.5,210.8c3.5,0,6.3-2.8,6.3-6.3v-30.2c0-5.9,4.8-10.7,10.7-10.7h30.2c3.5,0,6.3-2.8,6.3-6.3
		c0-3.5-2.8-6.3-6.3-6.3h-30.1c-12.9,0-23.3,10.5-23.3,23.3v30.2C156.2,208,159,210.8,162.5,210.8z"/>
	
		<linearGradient id="SVGID_3_" gradientUnits="userSpaceOnUse" x1="156.2056" y1="177.0156" x2="216.0631" y2="177.0156" gradientTransform="matrix(1 0 0 -1 0 514)">
		<stop  offset="0" style="stop-color:#F37E5F"/>
		<stop  offset="0.5" style="stop-color:#EC1C24"/>
		<stop  offset="1" style="stop-color:#CF232A"/>
	</linearGradient>
	<path class="st4" d="M209.7,354.3h-30.2c-5.9,0-10.7-4.8-10.7-10.7v-30.2c0-3.5-2.8-6.3-6.3-6.3s-6.3,2.8-6.3,6.3v30.1
		c0,12.9,10.5,23.3,23.3,23.3h30.2c3.5,0,6.3-2.8,6.3-6.3C216.1,357.1,213.2,354.3,209.7,354.3z"/>
	
		<linearGradient id="SVGID_4_" gradientUnits="userSpaceOnUse" x1="312.2424" y1="177.05" x2="372.14" y2="177.05" gradientTransform="matrix(1 0 0 -1 0 514)">
		<stop  offset="0" style="stop-color:#F37E5F"/>
		<stop  offset="0.5" style="stop-color:#EC1C24"/>
		<stop  offset="1" style="stop-color:#CF232A"/>
	</linearGradient>
	<path class="st5" d="M365.8,307c-3.5,0-6.3,2.8-6.3,6.3v30.2c0,5.9-4.8,10.7-10.7,10.7h-30.2c-3.5,0-6.3,2.8-6.3,6.3
		c0,3.5,2.8,6.3,6.3,6.3h30.1c12.9,0,23.3-10.5,23.3-23.3v-30.2C372.1,309.8,369.3,307,365.8,307z"/>
	
		<linearGradient id="SVGID_5_" gradientUnits="userSpaceOnUse" x1="293.9467" y1="307.2918" x2="337.9799" y2="307.2918" gradientTransform="matrix(1 0 0 -1 0 514)">
		<stop  offset="0" style="stop-color:#F37E5F"/>
		<stop  offset="0.5" style="stop-color:#EC1C24"/>
		<stop  offset="1" style="stop-color:#CF232A"/>
	</linearGradient>
	<path class="st6" d="M300.3,197.4h20.1c2.8,0,5,2.2,5,5v20.1c0,3.5,2.8,6.3,6.3,6.3s6.3-2.8,6.3-6.3v-20.1
		c0-9.7-7.9-17.6-17.6-17.6h-20.1c-3.5,0-6.3,2.8-6.3,6.3C293.9,194.5,296.8,197.4,300.3,197.4z"/>
	
		<linearGradient id="SVGID_6_" gradientUnits="userSpaceOnUse" x1="190.3313" y1="307.2918" x2="234.3644" y2="307.2918" gradientTransform="matrix(1 0 0 -1 0 514)">
		<stop  offset="0" style="stop-color:#F37E5F"/>
		<stop  offset="0.5" style="stop-color:#EC1C24"/>
		<stop  offset="1" style="stop-color:#CF232A"/>
	</linearGradient>
	<path class="st7" d="M190.3,202.3v20.1c0,3.5,2.8,6.3,6.3,6.3c3.5,0,6.3-2.8,6.3-6.3v-20.1c0-2.8,2.2-5,5-5H228
		c3.5,0,6.3-2.8,6.3-6.3c0-3.5-2.8-6.3-6.3-6.3h-20.1C198.2,184.7,190.3,192.6,190.3,202.3z"/>
	
		<linearGradient id="SVGID_7_" gradientUnits="userSpaceOnUse" x1="190.3313" y1="203.6763" x2="234.3644" y2="203.6763" gradientTransform="matrix(1 0 0 -1 0 514)">
		<stop  offset="0" style="stop-color:#F37E5F"/>
		<stop  offset="0.5" style="stop-color:#EC1C24"/>
		<stop  offset="1" style="stop-color:#CF232A"/>
	</linearGradient>
	<path class="st8" d="M228,319.7h-20.1c-2.8,0-5-2.2-5-5v-20.1c0-3.5-2.8-6.3-6.3-6.3c-3.5,0-6.3,2.8-6.3,6.3v20.1
		c0,9.7,7.9,17.6,17.6,17.6H228c3.5,0,6.3-2.8,6.3-6.3C234.4,322.5,231.5,319.7,228,319.7z"/>
	
		<linearGradient id="SVGID_8_" gradientUnits="userSpaceOnUse" x1="293.9467" y1="203.6763" x2="337.9799" y2="203.6763" gradientTransform="matrix(1 0 0 -1 0 514)">
		<stop  offset="0" style="stop-color:#F37E5F"/>
		<stop  offset="0.5" style="stop-color:#EC1C24"/>
		<stop  offset="1" style="stop-color:#CF232A"/>
	</linearGradient>
	<path class="st9" d="M338,314.7v-20.1c0-3.5-2.8-6.3-6.3-6.3c-3.5,0-6.3,2.8-6.3,6.3v20.1c0,2.8-2.2,5-5,5h-20.1
		c-3.5,0-6.3,2.8-6.3,6.3c0,3.5,2.8,6.3,6.3,6.3h20.1C330.1,332.3,338,324.4,338,314.7z"/>
	
		<linearGradient id="SVGID_9_" gradientUnits="userSpaceOnUse" x1="156.6184" y1="255.0712" x2="371.7616" y2="255.0712" gradientTransform="matrix(1 0 0 -1 0 514)">
		<stop  offset="0" style="stop-color:#F37E5F"/>
		<stop  offset="0.5" style="stop-color:#EC1C24"/>
		<stop  offset="1" style="stop-color:#CF232A"/>
	</linearGradient>
	<path class="st10" d="M156.6,258.9c0,3.5,2.8,6.3,6.3,6.3h202.5c3.5,0,6.3-2.8,6.3-6.3c0-3.5-2.8-6.3-6.3-6.3H162.9
		C159.4,252.6,156.6,255.4,156.6,258.9z"/>
</g>
</svg>
