<?xml version="1.0" encoding="utf-8"?>
<!-- Generator: Adobe Illustrator 24.0.1, SVG Export Plug-In . SVG Version: 6.00 Build 0)  -->
<svg version="1.1" id="Layer_1" xmlns="http://www.w3.org/2000/svg" xmlns:xlink="http://www.w3.org/1999/xlink" x="0px" y="0px"
	 viewBox="0 0 512 512" style="enable-background:new 0 0 512 512;" xml:space="preserve">
<style type="text/css">
	.st0{fill:#DDDDDD;}
	.st1{fill:url(#SVGID_1_);}
	.st2{fill:url(#SVGID_2_);}
	.st3{fill:url(#SVGID_3_);}
	.st4{fill:url(#SVGID_4_);}
	.st5{fill:#FEF4F5;}
</style>
<path class="st0" d="M110.9,85.5c21.1-22.1,53.5-55.2,103.2-61.5c61.5-7.8,110.5,30.3,135,49.4c94.1,73.2,180.2,233.3,124,326
	c-72.8,120-374.9,111.4-443.4-31.8C-15,274.1,51.5,147.8,110.9,85.5z"/>
<linearGradient id="SVGID_1_" gradientUnits="userSpaceOnUse" x1="22.8021" y1="252.9008" x2="498.6976" y2="252.9008">
	<stop  offset="0" style="stop-color:#2BC4F3"/>
	<stop  offset="0.6021" style="stop-color:#00AEEE"/>
	<stop  offset="1" style="stop-color:#0095DA"/>
</linearGradient>
<path class="st1" d="M480.8,399.4c-10.6,17.5-26.1,32.2-45,44.2c-23.3,14.8-51.8,25.4-82.9,31.8c-11.7,2.4-23.7,4.2-36,5.4h0
	c-24.9,2.5-50.7,2.5-76.1,0c-6.3-0.6-12.6-1.4-18.8-2.3c-16.9-2.5-33.5-6.1-49.5-10.8c0,0,0,0,0,0c-4.4-1.3-8.7-2.7-13-4.1
	c-6-2-11.9-4.2-17.6-6.6l0,0v0c-7.5-3.1-14.9-6.5-21.9-10.1c-7.9-4.1-15.5-8.5-22.7-13.3c-24.1-16.1-43.8-36.1-56.7-60.2
	c-1.1-2-2.1-4-3-6C31,354,26.8,339.8,24.7,325.1c-0.8-5.3-1.3-10.6-1.6-16c-0.7-14.2,0.2-28.7,2.5-43.2
	c8.9-55.8,38.2-111.7,69.8-153c7.7-10.1,15.6-19.3,23.3-27.4c17.7-18.5,43.2-44.6,80.1-56.4c7.3-2.3,15-4.1,23.1-5.1
	c45.8-5.8,84.6,13.8,111.6,32.1c9.3,6.3,17.1,12.4,23.4,17.3c0.4,0.3,0.8,0.6,1.2,0.9c50.7,39.9,98.9,104.8,123.6,170.7
	c2.8,7.5,5.3,15,7.5,22.5c2.1,7.3,3.9,14.5,5.3,21.8c1,4.9,1.8,9.9,2.5,14.7c0.6,4.2,1,8.3,1.3,12.4
	C500.4,346.8,495.4,375.4,480.8,399.4z"/>
<linearGradient id="SVGID_2_" gradientUnits="userSpaceOnUse" x1="0.1176" y1="18.4696" x2="1.1876" y2="18.4696" gradientTransform="matrix(1 0 0 -1 0 514)">
	<stop  offset="0" style="stop-color:#5B57A5"/>
	<stop  offset="0.5" style="stop-color:#2E3092"/>
	<stop  offset="1" style="stop-color:#474374"/>
</linearGradient>
<path class="st2" d="M1.1,496L1.1,496c-0.3-0.3-0.6-0.6-1-1C0.4,495.4,0.7,495.7,1.1,496z"/>
<linearGradient id="SVGID_3_" gradientUnits="userSpaceOnUse" x1="1.3076" y1="17.6196" x2="1.6076" y2="17.6196" gradientTransform="matrix(1 0 0 -1 0 514)">
	<stop  offset="0" style="stop-color:#5B57A5"/>
	<stop  offset="0.5" style="stop-color:#2E3092"/>
	<stop  offset="1" style="stop-color:#474374"/>
</linearGradient>
<path class="st3" d="M1.3,496.3c0.1,0,0.2,0.1,0.3,0.2c-0.1,0-0.1-0.1-0.2-0.1L1.3,496.3z"/>
<linearGradient id="SVGID_4_" gradientUnits="userSpaceOnUse" x1="1.6676" y1="17.3697" x2="1.9076" y2="17.3697" gradientTransform="matrix(1 0 0 -1 0 514)">
	<stop  offset="0" style="stop-color:#5B57A5"/>
	<stop  offset="0.5" style="stop-color:#2E3092"/>
	<stop  offset="1" style="stop-color:#474374"/>
</linearGradient>
<path class="st4" d="M1.8,496.6L1.8,496.6C1.9,496.7,1.9,496.7,1.8,496.6L1.8,496.6C1.8,496.6,1.8,496.6,1.8,496.6z"/>
<path class="st5" d="M358.6,350.1c-27.5,0-53.2-7.3-75.2-20c26.7-27.5,44.3-62.9,48.7-102.3h26.8c10.7,0,19.5-8.3,19.5-18.7
	s-8.7-18.7-19.5-18.7h-86.5v-45c0-10.3-8.7-18.7-19.5-18.7c-10.7,0-19.5,8.3-19.5,18.7v45.1H147c-10.7,0-19.5,8.3-19.5,18.7
	s8.7,18.7,19.5,18.7h26.8c4.4,39.4,22,74.7,48.4,102.3c-22,12.8-47.7,20-75.2,20c-10.7,0-19.5,8.3-19.5,18.7
	c0,10.3,8.7,18.7,19.5,18.7c39.2,0,75.8-11.9,105.8-31.9c30.1,20,66.6,31.9,105.8,31.9c10.7,0,19.5-8.3,19.5-18.7
	C378,358.6,369.3,350.1,358.6,350.1z M292.7,227.9c-4.1,30.6-18.6,57.9-39.9,79c-21.3-21.1-35.6-48.6-39.9-79H292.7L292.7,227.9z"/>
</svg>
