<?xml version="1.0" encoding="utf-8"?>
<!-- Generator: Adobe Illustrator 24.0.1, SVG Export Plug-In . SVG Version: 6.00 Build 0)  -->
<svg version="1.1" id="Layer_1" xmlns="http://www.w3.org/2000/svg" xmlns:xlink="http://www.w3.org/1999/xlink" x="0px" y="0px"
	 viewBox="0 0 512 512" style="enable-background:new 0 0 512 512;" xml:space="preserve">
<style type="text/css">
	.st0{fill:#DDDDDD;}
	.st1{fill:url(#SVGID_1_);}
	.st2{fill:#FFFFFF;}
</style>
<path class="st0" d="M110.9,85.5C132,63.4,164.4,30.3,214.1,24c61.5-7.8,110.5,30.3,135,49.4c94.1,73.2,180.2,233.3,124,326
	c-72.8,120-374.9,111.4-443.4-31.8C-15,274.1,51.5,147.8,110.9,85.5z"/>
<linearGradient id="SVGID_1_" gradientUnits="userSpaceOnUse" x1="22.8281" y1="252.8723" x2="498.7581" y2="252.8723">
	<stop  offset="1.123600e-02" style="stop-color:#00A38A"/>
	<stop  offset="0.5" style="stop-color:#009675"/>
	<stop  offset="1" style="stop-color:#006B5B"/>
</linearGradient>
<path class="st1" d="M480.8,399.4C408,519.4,106,510.8,37.4,367.6C31,354,26.8,339.8,24.7,325.1c-2.9-19.3-2.3-39.3,0.9-59.3
	c4.1-25.4,12.3-50.8,23.1-74.8c18.7-41.7,45-79.3,70-105.5c21.1-22.1,53.5-55.2,103.2-61.5c45.8-5.8,84.6,13.8,111.6,32.1
	c9.3,6.3,17.1,12.4,23.4,17.3c0.4,0.3,0.8,0.6,1.2,0.9c36.7,28.9,72,70.8,98.1,116.7c10,17.6,18.6,35.8,25.5,54
	c2.8,7.5,5.3,15,7.5,22.5c2.1,7.3,3.9,14.5,5.3,21.8c1.8,9.2,3.1,18.2,3.8,27.1C500.4,346.8,495.4,375.4,480.8,399.4z"/>
<path class="st2" d="M163,217.1l30.5,12.2c6.6,2.7,14.2-0.6,16.8-7.2c2.6-6.6-0.6-14.3-7.2-16.9l-4.7-1.9
	c19.5-12.1,42-18.5,64.9-18.5c20.9,0,41.5,5.2,59.7,15.4c6.3,3.5,14.2,1.2,17.7-5.1c3.5-6.3,1.2-14.2-5.1-17.7
	c-22.1-12.2-47-18.7-72.3-18.7c-27.9,0-55.2,7.8-78.9,22.6l-0.7,0.5l1.5-7.5c1.4-7-3.2-13.8-10.2-15.3c-7-1.4-13.8,3.2-15.3,10.2
	l-6.1,30.3C152.1,206.6,156.4,214.5,163,217.1z"/>
<path class="st2" d="M340.4,325.4l-25.1-12.5c-6.9-3.5-15.3-0.7-18.8,6.3c-3.5,6.9-0.7,15.3,6.3,18.8l9.6,4.8l-4.7,2.5
	c-19.2,10-40.3,15.3-61.8,15.3c-20.8,0-41.3-4.8-59.9-14.2c-7-3.5-15.4-0.7-18.9,6.2c-3.5,7-0.7,15.4,6.2,18.9
	c22.5,11.3,47.3,17.2,72.5,17.2c24.5,0,48.5-5.6,70.5-16.2c-1.2,7.4,3.7,14.4,11.1,15.9c7.6,1.5,15-3.4,16.5-11l6.4-31.9
	C351.7,337.9,347.4,328.8,340.4,325.4z"/>
</svg>
