<?xml version="1.0" encoding="utf-8"?>
<!-- Generator: Adobe Illustrator 24.0.1, SVG Export Plug-In . SVG Version: 6.00 Build 0)  -->
<svg version="1.1" id="Layer_1" xmlns="http://www.w3.org/2000/svg" xmlns:xlink="http://www.w3.org/1999/xlink" x="0px" y="0px"
	 viewBox="0 0 512 512" style="enable-background:new 0 0 512 512;" xml:space="preserve">
<style type="text/css">
	.st0{fill:#DDDDDD;}
	.st1{fill:url(#SVGID_1_);}
	.st2{fill:#FFFFFF;}
</style>
<path class="st0" d="M110.9,85.5C132,63.4,164.4,30.3,214.1,24c61.5-7.8,110.5,30.3,135,49.4c94.1,73.2,180.2,233.3,124,326
	c-72.8,120-374.9,111.4-443.4-31.8C-15,274.1,51.5,147.8,110.9,85.5z"/>
<linearGradient id="SVGID_1_" gradientUnits="userSpaceOnUse" x1="22.8281" y1="252.8723" x2="498.7581" y2="252.8723">
	<stop  offset="0" style="stop-color:#B07EB8"/>
	<stop  offset="0.5" style="stop-color:#8C3E96"/>
	<stop  offset="1" style="stop-color:#762D8E"/>
</linearGradient>
<path class="st1" d="M480.8,399.4C408,519.4,106,510.8,37.4,367.6C31,354,26.8,339.8,24.7,325.1c-2.9-19.3-2.3-39.3,0.9-59.3
	c4.1-25.4,12.3-50.8,23.1-74.8c18.7-41.7,45-79.3,70-105.5c21.1-22.1,53.5-55.2,103.2-61.5c45.8-5.8,84.6,13.8,111.6,32.1
	c9.3,6.3,17.1,12.4,23.4,17.3c0.4,0.3,0.8,0.6,1.2,0.9c36.7,28.9,72,70.8,98.1,116.7c10,17.6,18.6,35.8,25.5,54
	c2.8,7.5,5.3,15,7.5,22.5c2.1,7.3,3.9,14.5,5.3,21.8c1.8,9.2,3.1,18.2,3.8,27.1C500.4,346.8,495.4,375.4,480.8,399.4z"/>
<path class="st2" d="M248,104.3c-100.4,0-181.8,81.4-181.8,181.8c0,70.6,40.2,131.7,99,161.8l8.1-14.9
	c-53.4-27.3-89.9-82.9-89.9-147c0-91.1,73.9-165,165-165s165,73.9,165,165c0,58.1-30.1,109.2-75.5,138.6l8.7,14.2
	c50.1-32.4,83.2-88.7,83.2-152.8C429.8,185.7,348.4,104.3,248,104.3z"/>
<path class="st2" d="M248,137c-82.3,0-149,66.7-149,149c0,58.1,33.3,108.5,81.9,133.1l9.5-17.5c-40.9-21.9-68.8-65.1-68.8-114.8
	c0-71.9,58.3-130.2,130.2-130.2S382,214.9,382,286.8c0,46.5-24.3,87.3-61,110.3l8.4,13.7C370.1,384.2,397,338.2,397,286
	C397.1,203.7,330.3,137,248,137z"/>
<path class="st2" d="M252.4,173.6c-62.8,0-113.7,50.9-113.7,113.7c0,43.2,24,80.7,59.5,100l1.2-2.2l6.2-11.5c-0.7-0.6-1.4-1.3-2-1.9
	l-0.6,1.1c-29.1-17-48.6-48.6-48.6-84.7c0-54.1,43.9-98,98-98s98,43.9,98,98c0,33.1-16.4,62.3-41.5,80.1l-0.5-0.8
	c-1.1,1.3-2.3,2.5-3.5,3.7l6.8,11.1l1,1.6c32-20.1,53.3-55.7,53.3-96.4C366.1,224.5,315.2,173.6,252.4,173.6z"/>
</svg>
