<?xml version="1.0" encoding="utf-8"?>
<!-- Generator: Adobe Illustrator 24.0.1, SVG Export Plug-In . SVG Version: 6.00 Build 0)  -->
<svg version="1.1" id="Layer_1" xmlns="http://www.w3.org/2000/svg" xmlns:xlink="http://www.w3.org/1999/xlink" x="0px" y="0px"
	 viewBox="0 0 512 512" style="enable-background:new 0 0 512 512;" xml:space="preserve">
<style type="text/css">
	.st0{fill:#DDDDDD;}
	.st1{fill:url(#SVGID_1_);}
	.st2{fill:#F2F8ED;}
	.st3{fill:#FFFFFF;}
</style>
<path class="st0" d="M110.9,85.5C132,63.4,164.4,30.3,214.1,24c61.5-7.8,110.5,30.3,135,49.4c94.1,73.2,180.2,233.3,124,326
	c-72.8,120-374.9,111.4-443.4-31.8C-15,274.1,51.5,147.8,110.9,85.5z"/>
<linearGradient id="SVGID_1_" gradientUnits="userSpaceOnUse" x1="22.8281" y1="252.8719" x2="498.6612" y2="252.8719">
	<stop  offset="0" style="stop-color:#F69453"/>
	<stop  offset="0.5" style="stop-color:#F37522"/>
	<stop  offset="1" style="stop-color:#D4632A"/>
</linearGradient>
<path class="st1" d="M480.8,399.4C408,519.4,106,510.8,37.4,367.6C31,354,26.8,339.8,24.7,325.1c-2.9-19.3-2.3-39.3,0.9-59.3
	c11.1-69.4,53.7-139,93.1-180.3c21.1-22.1,53.5-55.2,103.2-61.5c61.5-7.8,110.5,30.3,135,49.4C450.9,146.7,537,306.7,480.8,399.4z"
	/>
<g id="_x31_5_refresh">
	<path class="st2" d="M102.7,275.6c3.2,0.7,16,3.1,18,3.4c3.1,71.9,59.2,133.1,134.3,139.2c80.7,6.5,151.1-53.5,157.5-134.1
		C419,203.4,359,133,278.4,126.6c-42.3-3.4-82.1,11.5-111.1,38.6c-5.1,4.7-5.5,12.9-0.7,18c4.7,5.1,12.9,5.5,18,0.7
		c23.8-22.2,56.7-34.7,91.8-31.8c66.3,5.3,116,63.5,110.7,129.9c-5.3,66.5-63.5,116-129.9,110.7c-59.2-4.7-105-51.5-110.5-108.6
		c3.5,0.7,0,0,18.8,3.5c3.7,0.8,6.8-2.9,5.5-6.5l-21-59.7c-1.2-3.5-5.8-4.4-8.3-1.5l-41.6,47.7C97.4,270.3,98.9,275,102.7,275.6
		L102.7,275.6z"/>
</g>
<g>
	<path class="st3" d="M239.3,222.2v70.3c0,26.6,11.8,37.9,27.6,37.9c17.6,0,28.9-11.6,28.9-37.9v-70.3h15.5v69.3
		c0,36.5-19.2,51.5-44.9,51.5c-24.4,0-42.6-13.9-42.6-50.7v-69.9L239.3,222.2L239.3,222.2z"/>
</g>
</svg>
