<?xml version="1.0" encoding="utf-8"?>
<!-- Generator: Adobe Illustrator 24.0.1, SVG Export Plug-In . SVG Version: 6.00 Build 0)  -->
<svg version="1.1" id="Layer_1" xmlns="http://www.w3.org/2000/svg" xmlns:xlink="http://www.w3.org/1999/xlink" x="0px" y="0px"
	 viewBox="0 0 512 512" style="enable-background:new 0 0 512 512;" xml:space="preserve">
<style type="text/css">
	.st0{fill:#DDDDDD;}
	.st1{fill:url(#SVGID_1_);}
	.st2{fill:#FFFFFF;}
</style>
<path class="st0" d="M110.9,85.5C132,63.4,164.4,30.3,214.1,24c61.5-7.8,110.5,30.3,135,49.4c94.1,73.2,180.2,233.3,124,326
	c-72.8,120-374.9,111.4-443.4-31.8C-15,274.1,51.5,147.8,110.9,85.5z"/>
<linearGradient id="SVGID_1_" gradientUnits="userSpaceOnUse" x1="22.8281" y1="530.8718" x2="498.6612" y2="530.8718" gradientTransform="matrix(1 0 0 1 0 -278)">
	<stop  offset="0" style="stop-color:#B07EB7"/>
	<stop  offset="0.5" style="stop-color:#8C3D96"/>
	<stop  offset="1" style="stop-color:#762A90"/>
</linearGradient>
<path class="st1" d="M480.8,399.4C408,519.4,106,510.8,37.4,367.6C31,354,26.8,339.8,24.7,325.1c-2.9-19.3-2.3-39.3,0.9-59.3
	c11.1-69.4,53.7-139,93.1-180.3c21.1-22.1,53.5-55.2,103.2-61.5c61.5-7.8,110.5,30.3,135,49.4C450.9,146.7,537,306.7,480.8,399.4z"
	/>
<g>
	<path class="st2" d="M220.3,426.4V309.8c0-3.5-0.9-7-2.6-10.1l-86.8-158c-7.7-14,2.5-31.2,18.5-31.2h1c7.9,0,15.2,4.4,18.8,11.5
		l41.6,81.5c13,25.5,23,46,33.5,69.5h1c9.5-22,21-44,34-69.5l42.6-81.7c3.6-7,10.8-11.3,18.7-11.3l0,0c16.3,0,26.4,17.7,18.2,31.7
		l-91.6,156.9c-1.9,3.2-2.9,6.9-2.9,10.6v116.7c0,11.6-9.4,21.1-21.1,21.1h-1.8C229.7,447.4,220.3,438,220.3,426.4z"/>
</g>
</svg>
