<?xml version="1.0" encoding="utf-8"?>
<!-- Generator: Adobe Illustrator 24.0.1, SVG Export Plug-In . SVG Version: 6.00 Build 0)  -->
<svg version="1.1" id="Layer_1" xmlns="http://www.w3.org/2000/svg" xmlns:xlink="http://www.w3.org/1999/xlink" x="0px" y="0px"
	 viewBox="0 0 512 512" style="enable-background:new 0 0 512 512;" xml:space="preserve">
<style type="text/css">
	.st0{fill:#DDDDDD;}
	.st1{fill:#1AA6F7;}
	.st2{fill-rule:evenodd;clip-rule:evenodd;fill:#FFFFFF;}
	.st3{fill-rule:evenodd;clip-rule:evenodd;fill:url(#SVGID_1_);}
</style>
<path class="st0" d="M110.9,85.5C132,63.4,164.4,30.3,214.1,24c61.5-7.8,110.5,30.3,135,49.4c94.1,73.2,180.2,233.3,124,326
	c-72.8,120-374.9,111.4-443.4-31.8C-15,274.1,51.5,147.8,110.9,85.5z"/>
<path class="st1" d="M480.8,399.4C408,519.4,106,510.8,37.4,367.6C31,354,26.8,339.8,24.7,325.1c-2.9-19.3-2.3-39.3,0.9-59.3
	c4.1-25.4,12.3-50.8,23.1-74.8c18.7-41.7,45-79.3,70-105.5c21.1-22.1,53.5-55.2,103.2-61.5c45.8-5.8,84.6,13.8,111.6,32.1
	c9.3,6.3,17.1,12.4,23.4,17.3c0.4,0.3,0.8,0.6,1.2,0.9c36.7,28.9,72,70.8,98.1,116.7c10,17.6,18.6,35.8,25.5,54
	c2.8,7.5,5.3,15,7.5,22.5c2.1,7.3,3.9,14.5,5.3,21.8c1.8,9.2,3.1,18.2,3.8,27.1C500.4,346.8,495.4,375.4,480.8,399.4z"/>
<path class="st2" d="M90.8,156.5h324.4c4.4,0,7.9,2.5,7.9,5.7l0,0v88c0,3.2-3.6,5.7-7.9,5.7l0,0H90.8c-4.4,0-7.9-2.5-7.9-5.7l0,0
	v-88c-0.3-3,2.8-5.5,6.9-5.7C90.2,156.5,90.5,156.5,90.8,156.5z"/>
<linearGradient id="SVGID_1_" gradientUnits="userSpaceOnUse" x1="260.762" y1="323" x2="260.762" y2="31.2183" gradientTransform="matrix(1 0 0 -1 0 514)">
	<stop  offset="0" style="stop-color:#1D77F2"/>
	<stop  offset="1" style="stop-color:#18C1FA"/>
</linearGradient>
<path class="st3" d="M480.8,399.4C408,519.4,106,510.8,37.4,367.6C31,354,26.8,339.8,24.7,325.1c-2.9-19.3-2.3-39.3,0.9-59.3
	c0.4-2.3,0.8-4.6,1.2-6.9c7.5-39.4,41.8-67.9,81.8-67.9h295.1c34.5,0,65.6,21.2,77.7,53.5c0.1,0.2,0.1,0.4,0.2,0.5
	c2.8,7.5,5.3,15,7.5,22.5c2.1,7.3,3.9,14.5,5.3,21.8c1.8,9.2,3.1,18.2,3.8,27.1C500.4,346.8,495.4,375.4,480.8,399.4z"/>
<path class="st2" d="M254.9,269.8h3.8l1.8-9h1.6l0.7,9.2c1.1,0,2.3,0.2,3.4,0.4l2.7-8.7l1.6,0.2l-0.4,9.2c1.1,0.2,2.3,0.5,3.4,0.9
	l3.6-8.3l1.3,0.4l-1.6,9c1.1,0.4,2.2,0.7,3.4,1.1l4.5-7.8l1.3,0.7l-2.5,8.7c1.1,0.4,2,1.1,3.1,1.6l5.4-7.4l1.3,0.7l-3.6,8.5
	c0.9,0.7,2,1.3,2.9,2l6.3-6.7l1.1,0.9l-4.5,8.1c0.9,0.7,1.8,1.6,2.7,2.2l7-5.8l1.1,1.1l-5.4,7.4l2.5,2.5l7.6-4.9l0.9,1.1l-6.1,6.7
	l2,2.7l8.1-4l0.9,1.3l-7,6.1c0.7,0.9,1.1,2,1.8,2.9l8.5-3.1l0.7,1.3l-7.6,5.2l1.3,3.4l8.7-2l0.4,1.3l-7.8,4c0.4,1.1,0.7,2.2,1.1,3.4
	l9-1.1l0.4,1.6l-8.5,3.1c0.2,1.1,0.4,2.2,0.7,3.6h9.2l0.2,1.6l-8.7,2.2c0,1.1,0.2,2.5,0.2,3.6l9,1.1v1.6l-9,1.1c0,1.1,0,2.3-0.2,3.4
	l8.7,2l-0.2,1.6l-9,0.2l-0.7,3.4l8.5,3.1l-0.2,1.3l-9-0.9c-0.2,1.1-0.7,2.2-0.9,3.4l8.1,4l-0.4,1.3l-9-2l-1.3,3.4l7.6,5.2l-0.7,1.3
	l-8.7-2.9c-0.4,0.9-1.1,2-1.6,2.9l7,5.8l-0.9,1.3l-8.1-4c-0.7,1-1.4,2-2.2,2.9l6.3,6.5l-0.9,1.1l-7.6-4.9c-0.7,0.9-1.5,1.8-2.5,2.5
	l5.4,7.4l-1.1,1.1l-7.2-5.8c-0.8,0.8-1.7,1.6-2.7,2.2l4.5,7.8l-1.1,0.9l-6.3-6.5c-0.9,0.7-2,1.3-2.9,2l3.6,8.5l-1.4,0.7l-5.6-7.2
	c-1,0.6-2,1.1-3.1,1.6l2.7,8.7l-1.3,0.7l-4.7-7.8c-1.1,0.5-2.2,0.8-3.4,1.1l1.6,9l-1.3,0.4l-3.8-8.3c-1.1,0.2-2.2,0.7-3.4,0.9
	l0.4,9.2l-1.6,0.2l-2.7-8.7c-1.1,0.2-2.2,0.2-3.6,0.4l-0.4,9.2h-1.6l-1.8-9h-3.8l-1.6,9h-0.9l-0.7-9.2c-1.2-0.1-2.4-0.2-3.6-0.4
	l-2.7,8.7l-1.6-0.2l0.4-9.2c-1.1-0.2-2.3-0.5-3.4-0.9l-3.6,8.3l-1.3-0.4l1.6-9c-1.1-0.4-2.2-0.7-3.4-1.1l-4.7,7.8l-1.3-0.7l2.5-8.7
	c-1.1-0.4-2-1.1-3.1-1.6l-5.4,7.4l-1.3-0.7l3.6-8.5c-0.9-0.7-2-1.3-2.9-2l-6.3,6.7l-1.1-0.9l4.5-8.1c-0.9-0.7-1.8-1.6-2.7-2.2
	l-7,5.8l-1.1-1.1l5.4-7.4c-0.8-0.9-1.6-1.7-2.5-2.5l-7.6,5.2l-0.9-1.1l6.3-6.7c-0.8-0.9-1.5-1.9-2.2-2.9l-8.1,4l-0.9-1.3l7-5.8
	c-0.7-0.9-1.1-2-1.8-3.1l-8.5,3.1l-0.7-1.3l7.6-5.2l-1.3-3.4l-8.7,2l-0.4-1.3l8.1-4.3c-0.4-1.1-0.7-2.2-1.1-3.4l-9,1.1l-0.4-1.6
	l8.5-3.1c-0.2-1.1-0.4-2.2-0.7-3.6h-9l-0.2-1.6l8.7-2.2c0-1.1-0.2-2.2-0.2-3.6l-9-1.1v-1.6l9-1.1c0-1.2,0-2.4,0.2-3.6l-8.7-2
	l0.2-1.6l9-0.2l0.7-3.4l-8.5-3.1l0.4-1.3l9,0.9c0.2-1.1,0.7-2.2,0.9-3.4l-8.1-4l0.4-1.3l8.7,2l1.3-3.4l-7.6-4.9l0.7-1.3l8.5,2.9
	c0.7-1.1,1.1-2,1.8-3.1l-7-5.8l0.9-1.3l8.1,4c0.7-0.9,1.3-2,2-2.9l-6.3-6.7l0.9-1.1l7.6,4.9c0.8-1,1.6-1.9,2.5-2.7l-5.4-7.4l1.1-1.1
	l7,5.8c0.8-0.8,1.7-1.6,2.7-2.2l-4.5-7.8l1.1-0.9l6.3,6.5c0.9-0.7,2-1.3,2.9-2l-3.6-8.3l1.3-0.7l5.6,7.2c1-0.6,2-1.1,3.1-1.6
	l-2.5-8.7l1.3-0.7l4.7,7.8c1.1-0.5,2.2-0.8,3.4-1.1l-1.6-9l1.3-0.4l3.8,8.3c1.1-0.2,2.2-0.7,3.4-0.9l-0.4-9.2l1.6-0.2l2.7,8.7
	c1.1-0.2,2.2-0.2,3.6-0.4l0.4-9.2h1.6L254.9,269.8z M257.1,281.9c-27.9,0-50.4,22.6-50.4,50.4s22.6,50.4,50.4,50.4
	s50.4-22.6,50.4-50.4C307.5,304.5,285,281.9,257.1,281.9z"/>
<path class="st2" d="M253.8,238.4h5.4l2.5-13.5h2.2l0.9,13.7c1.8,0.2,3.6,0.4,5.2,0.7l4-13.2l2.2,0.4l-0.7,13.9
	c1.8,0.4,3.4,0.7,4.9,1.1l5.6-12.8l2.2,0.7l-2.2,13.9c1.6,0.5,3.2,1.1,4.7,1.8l7.2-12.3l2,0.9l-3.8,13.7c1.6,0.7,3.1,1.6,4.5,2.2
	l8.5-11.4l2,1.1l-5.6,13.2c1.5,0.9,2.9,1.9,4.3,2.9l9.9-10.5l1.8,1.3l-7.2,12.6c1.3,1.1,2.7,2.2,3.8,3.4l11-9.2l1.6,1.6l-8.5,11.7
	c1.1,1.1,2.2,2.5,3.4,3.6l12.1-7.8l1.3,1.8l-9.9,10.8c1,1.3,2,2.6,2.9,4l13-6.5l1.3,1.8l-11,9.6c0.9,1.4,1.7,2.8,2.5,4.3l13.9-4.9
	l1.1,2l-12.1,8.3c0.7,1.6,1.3,2.9,2,4.5l14.3-3.4l0.7,2l-13,6.7l1.3,4.7l14.6-1.6l0.4,2.2l-13.7,5.2c0.2,1.6,0.7,3.1,0.9,4.7H363
	l0.2,2.2l-14.3,3.6c0.2,1.7,0.3,3.4,0.2,5.2l14.6,1.8v2.2l-14.6,1.8c0,1.6-0.2,3.1-0.2,4.7l14.3,3.4l-0.2,2.2l-14.8,0.2
	c-0.2,1.7-0.5,3.3-0.9,4.9l13.7,5.2l-0.4,2.2l-14.6-1.6l-1.3,4.7l13,6.5l-0.7,2l-14.1-3.1c-0.7,1.6-1.3,3.1-2,4.7l12.1,8.1l-0.9,2
	l-13.7-4.7c-0.7,1.5-1.5,2.9-2.5,4.3l11,9.4l-1.1,1.8l-13-6.3c-0.9,1.3-2,2.7-2.9,4l9.9,10.5l-1.3,1.8l-12.1-7.8
	c-1.1,1.3-2.2,2.5-3.4,3.8l8.5,11.4l-1.6,1.6l-11-9c-1.3,1.1-2.5,2.2-3.8,3.4l7,12.3l-1.8,1.3l-9.9-10.1c-1.3,0.9-2.7,2-4.3,2.9
	l5.6,12.8l-2,1.1l-8.5-11c-1.6,0.9-3.1,1.6-4.7,2.5l4,13.5l-2,0.9l-7.2-11.9c-1.5,0.7-3.1,1.3-4.7,1.8l2.5,13.7l-2.2,0.7l-5.6-12.6
	c-1.6,0.4-3.4,0.9-5.2,1.3l0.7,13.5l-2.2,0.4l-4-12.8l-5.4,0.7l-0.9,13.5l-2.2,0.2l-2.5-13.2h-5.8l-2.5,13.2l-2.2-0.2l-0.9-13.5
	c-1.8-0.2-3.6-0.2-5.4-0.4l-3.8,12.8l-2.2-0.4l0.7-13.2c-1.8-0.4-3.6-0.7-5.4-1.1l-5.4,12.1l-2.2-0.7l2-13c-1.8-0.5-3.5-1.1-5.2-1.8
	l-6.5,11.2l-2-0.9l3.6-12.6c-1.7-0.7-3.4-1.5-4.9-2.5l-7.8,10.3l-2-1.1l4.9-11.9c-1.6-0.9-3.1-2-4.7-2.9l-8.7,9.4l-1.8-1.3l6.3-11.2
	c-1.6-1.1-2.9-2.2-4.5-3.6l-9.9,8.1l-1.6-1.6l7.4-10.3l-4-4l-10.5,7L173,401l8.5-9.4c-1.1-1.6-2.2-2.9-3.4-4.5l-11.2,5.6l-1.3-1.8
	l9.4-8.3c-1.1-1.6-2-3.2-2.9-4.9l-11.9,4.3l-0.9-2l10.3-7c-0.8-1.8-1.6-3.5-2.2-5.4l-12.1,2.7l-0.7-2l11-5.6
	c-0.7-1.8-1.1-3.6-1.8-5.6l-12.3,1.3l-0.4-2.2l11.7-4.3c-0.4-1.8-0.7-3.8-1.1-5.6h-12.6l-0.2-2.2L161,341c-0.2-1.8-0.2-3.8-0.4-5.6
	l-12.3-1.6v-2.2l12.3-1.6c0-2,0.2-3.8,0.2-5.8l-12.1-2.9l0.2-2.2l12.6-0.2c0.2-1.8,0.7-3.8,0.9-5.6l-11.7-4.3l0.4-2.2l12.3,1.3
	c0.4-1.8,1.1-3.6,1.6-5.6l-11.2-5.6l0.9-2l12.1,2.7c0.7-1.8,1.6-3.6,2.2-5.2l-10.5-7l0.9-2l11.9,4.3c0.9-1.7,1.9-3.3,2.9-4.9
	l-9.6-8.1l1.1-1.8l11.4,5.6c1.1-1.6,2.2-3.1,3.4-4.5l-8.7-9.4l1.3-1.8l10.8,7c1.3-1.3,2.5-2.7,3.8-4l-7.6-10.3l1.6-1.6l10.1,8.1
	c1.3-1.1,2.9-2.5,4.3-3.6l-6.5-11.2l1.8-1.3l9,9.4c1.6-1.1,3.1-2,4.7-3.1l-5.2-12.1l2-1.1l8.1,10.3c1.6-0.9,3.4-1.6,4.9-2.5
	l-3.8-12.6l2-0.9l6.7,11.4c1.7-0.7,3.4-1.3,5.2-1.8l-2.2-13.2l2.2-0.7l5.4,12.1c1.7-0.5,3.4-0.9,5.2-1.1l-0.7-13.5l2.2-0.4l4,12.8
	l5.4-0.7l0.9-13.5l2.2-0.2L253.8,238.4z M199,392.6c6.1,5.8,15.9,3.4,20.2-4l24.2-42.6c4.7-8.4,4.5-18.7-0.4-26.9l-24.9-42.2
	c-4.3-7.2-14.1-9.6-20.2-3.6c-32.6,31.9-33.3,84.2-1.4,116.8C197.4,391,198.2,391.8,199,392.6z M250.6,314.4
	c5,8.3,14,13.4,23.8,13.5h48.9c8.5,0,15.5-7.2,13.5-15.5c-11.1-44.5-56.3-71.6-100.8-60.4c-1.2,0.3-2.5,0.6-3.7,1
	c-8.1,2.5-11,12.1-6.7,19.5L250.6,314.4z M274.6,337c-9.7,0-18.6,5.1-23.5,13.5l-24.2,42.6c-3.8,6-2,14,4,17.9c1,0.6,2,1.1,3.1,1.4
	c44.2,12.3,90-13.6,102.3-57.8c0.2-0.7,0.4-1.5,0.6-2.2c2-8.1-4.9-15.5-13.5-15.5L274.6,337z M256,328.1c-2.5,0-4.5,2-4.5,4.5
	s2,4.5,4.5,4.5s4.5-2,4.5-4.5S258.5,328.1,256,328.1z"/>
</svg>
