<?xml version="1.0" encoding="utf-8"?>
<!-- Generator: Adobe Illustrator 24.0.1, SVG Export Plug-In . SVG Version: 6.00 Build 0)  -->
<svg version="1.1" id="Layer_1" xmlns="http://www.w3.org/2000/svg" xmlns:xlink="http://www.w3.org/1999/xlink" x="0px" y="0px"
	 viewBox="0 0 512 512" style="enable-background:new 0 0 512 512;" xml:space="preserve">
<style type="text/css">
	.st0{fill:#DDDDDD;}
	.st1{fill:#1AA6F7;}
	.st2{fill-rule:evenodd;clip-rule:evenodd;fill:#FFFFFF;}
	.st3{fill-rule:evenodd;clip-rule:evenodd;fill:url(#SVGID_1_);}
</style>
<path class="st0" d="M110.9,85.5C132,63.4,164.4,30.3,214.1,24c61.5-7.8,110.5,30.3,135,49.4c94.1,73.2,180.2,233.3,124,326
	c-72.8,120-374.9,111.4-443.4-31.8C-15,274.1,51.5,147.8,110.9,85.5z"/>
<path class="st1" d="M480.8,399.4C408,519.4,106,510.8,37.4,367.6C31,354,26.8,339.8,24.7,325.1c-2.9-19.3-2.3-39.3,0.9-59.3
	c4.1-25.4,12.3-50.8,23.1-74.8c18.7-41.7,45-79.3,70-105.5c21.1-22.1,53.5-55.2,103.2-61.5c45.8-5.8,84.6,13.8,111.6,32.1
	c9.3,6.3,17.1,12.4,23.4,17.3c0.4,0.3,0.8,0.6,1.2,0.9c36.7,28.9,72,70.8,98.1,116.7c10,17.6,18.6,35.8,25.5,54
	c2.8,7.5,5.3,15,7.5,22.5c2.1,7.3,3.9,14.5,5.3,21.8c1.8,9.2,3.1,18.2,3.8,27.1C500.4,346.8,495.4,375.4,480.8,399.4z"/>
<path class="st2" d="M90.8,156.5h324.4c4.4,0,7.9,2.5,7.9,5.7l0,0v88c0,3.2-3.6,5.7-7.9,5.7l0,0H90.8c-4.4,0-7.9-2.5-7.9-5.7l0,0
	v-88c-0.3-3,2.8-5.5,6.9-5.7C90.2,156.5,90.5,156.5,90.8,156.5z"/>
<linearGradient id="SVGID_1_" gradientUnits="userSpaceOnUse" x1="260.762" y1="323" x2="260.762" y2="31.2183" gradientTransform="matrix(1 0 0 -1 0 514)">
	<stop  offset="0" style="stop-color:#1D77F2"/>
	<stop  offset="1" style="stop-color:#18C1FA"/>
</linearGradient>
<path class="st3" d="M480.8,399.4C408,519.4,106,510.8,37.4,367.6C31,354,26.8,339.8,24.7,325.1c-2.9-19.3-2.3-39.3,0.9-59.3
	c0.4-2.3,0.8-4.6,1.2-6.9c7.5-39.4,41.8-67.9,81.8-67.9h295.1c34.5,0,65.6,21.2,77.7,53.5c0.1,0.2,0.1,0.4,0.2,0.5
	c2.8,7.5,5.3,15,7.5,22.5c2.1,7.3,3.9,14.5,5.3,21.8c1.8,9.2,3.1,18.2,3.8,27.1C500.4,346.8,495.4,375.4,480.8,399.4z"/>
<path class="st2" d="M320.3,246.5c27.6,0,42,10.4,50.7,17.5c4,3.1,6.2,7.9,6.2,13v137.3c-0.1,1-0.4,2-1.2,2.8
	c-0.7,0.8-1.8,1.2-2.8,1.2c-1,0.1-1.9-0.4-2.5-1.2c-8.7-7.3-25.9-16.9-51.3-16.9c-42.3,0-54.7,39.5-54.7,39.5V290.3
	c0-7.6,2.6-15.1,7.3-21.1C280,258.7,294.4,246.5,320.3,246.5z M200.2,246.5c25.9,0,40.3,12.1,48.5,22.6c4.8,6,7.3,13.5,7.3,21.1
	v149.4c0,0-12.4-39.5-54.7-39.5c-25.4,0-42.5,9.6-51.3,16.9c-0.8,0.4-1.6,0.9-2.5,1.2c-2.2,0.1-3.9-1.6-4-3.8c0-0.1,0-0.1,0-0.2
	V276.9c0-5,2.3-9.8,6.2-13C158.3,257,172.6,246.5,200.2,246.5z"/>
</svg>
